<svg width="332" height="331" viewBox="0 0 332 331" fill="none" xmlns="http://www.w3.org/2000/svg">
<path d="M297.889 213.654C295.536 212.737 294.111 211.029 293.614 208.53C293.135 206.093 293.568 203.173 294.913 199.77C295.286 198.826 296.054 196.987 297.218 194.255C300.912 195.89 305.028 197.592 309.565 199.36C313.836 201.024 317.618 202.4 320.912 203.488L320.051 205.668C319.883 206.092 319.564 206.953 319.093 208.251C318.622 209.548 318.272 210.488 318.043 211.069C316.052 216.107 313.316 217.947 309.834 216.59C307.116 215.531 305.78 213.634 305.825 210.898L305.643 210.827C303.701 213.97 301.116 214.912 297.889 213.654ZM298.793 210.464C301.778 211.627 304.313 209.569 306.399 204.289C306.782 203.32 307.083 202.452 307.302 201.685C304.063 200.423 301.143 199.362 298.543 198.502C298.252 198.92 297.877 199.71 297.417 200.872C296.264 203.791 295.828 206.01 296.109 207.531C296.37 208.891 297.264 209.868 298.793 210.464ZM310.13 213.184C312.641 214.163 314.564 212.963 315.899 209.584C316.569 207.889 317.021 206.479 317.256 205.354C316.344 205.111 313.856 204.197 309.792 202.613C309.533 203.197 309.262 203.846 308.98 204.561C308.033 206.959 307.616 208.809 307.732 210.111C307.85 211.583 308.649 212.607 310.13 213.184Z" fill="#9B9CA0"/>
<path d="M279.578 238.531C278.938 238.106 277.667 237.045 275.765 235.346C273.863 233.648 272.348 232.425 271.219 231.676L272.516 229.748C273.894 230.661 276.188 232.151 279.396 234.216C280.66 232.569 282.429 230.055 284.702 226.673C286.642 223.788 288.222 221.32 289.443 219.271C286.656 216.579 284.573 214.777 283.195 213.863L284.437 212.015C285.555 212.756 287.177 213.808 289.304 215.172C291.421 216.528 292.81 217.426 293.472 217.864L292.426 219.42C296.827 225.01 301.45 231.738 306.296 239.607L300.738 247.873C297.364 245.448 294.097 243.189 290.939 241.095C287.749 238.98 284.666 237.077 281.692 235.386L279.578 238.531ZM283.523 232.663C285.694 233.915 288.564 235.724 292.135 238.092C295.38 240.243 298.21 242.088 300.627 243.628L303.297 239.657C297.785 231.285 293.599 225.377 290.737 221.933L283.523 232.663Z" fill="#9B9CA0"/>
<path d="M268.249 268.489C265.352 265.44 263.932 262.158 263.988 258.644C264.053 255.14 265.263 252.284 267.62 250.076C269.881 247.957 272.661 246.932 275.958 247C279.256 247.087 282.258 248.556 284.967 251.406C287.9 254.493 289.325 257.779 289.242 261.265C289.168 264.76 287.953 267.612 285.596 269.819C283.335 271.938 280.555 272.954 277.258 272.868C273.961 272.799 270.957 271.34 268.249 268.489ZM270.477 265.786C272.79 268.222 275.226 269.5 277.783 269.62C280.339 269.758 282.458 269.04 284.14 267.464C285.698 266.004 286.417 264.001 286.297 261.455C286.177 258.909 285 256.46 282.767 254.11C280.444 251.665 278 250.378 275.434 250.248C272.868 250.137 270.749 250.865 269.076 252.431C267.518 253.891 266.813 255.899 266.96 258.456C267.098 261.02 268.27 263.464 270.477 265.786Z" fill="#9B9CA0"/>
<path d="M238.877 275.124L242.46 272.86C242.734 273.288 244.571 274.345 247.972 276.032C251.261 277.665 253.589 278.705 254.956 279.15L255.138 279.035C255.23 277.73 255.136 275.34 254.859 271.865C254.562 268.217 254.249 266.135 253.919 265.62L257.387 263.429C257.597 263.758 257.648 266.383 257.538 271.304C257.429 276.178 257.262 279.056 257.038 279.937L257.143 280.101C258.166 280.395 260.466 281.305 264.044 282.834C267.732 284.415 269.668 285.349 269.85 285.634L266.3 287.877C266.09 287.548 264.614 286.693 261.875 285.313C259.185 283.963 257.349 283.137 256.366 282.834L256.201 282.938C256.075 283.973 256.1 285.967 256.276 288.92C256.452 291.874 256.645 293.516 256.856 293.844L253.372 296.046C253.175 295.739 253.234 293.622 253.549 289.696C253.867 285.922 254.151 283.456 254.399 282.298L254.293 282.133C252.86 281.73 250.039 280.586 245.831 278.701C241.476 276.755 239.158 275.563 238.877 275.124Z" fill="#9B9CA0"/>
<path d="M216.511 286.714L219.998 285.445C221.436 289.716 222.773 293.524 224.009 296.871L235.002 292.868C234 290.157 232.541 286.392 230.624 281.575L234.111 280.306C235.586 284.826 237.042 289.035 238.481 292.932C239.988 297.011 241.467 300.754 242.919 304.161L239.432 305.431C238.289 301.884 237.109 298.461 235.891 295.163L224.824 299.193C225.803 301.844 227.13 305.213 228.806 309.3L225.319 310.57C224.249 307.107 222.947 303.3 221.413 299.147C219.731 294.59 218.097 290.446 216.511 286.714Z" fill="#9B9CA0"/>
<path d="M187.781 307.742C187.276 303.567 188.094 300.079 190.235 297.28C192.377 294.494 195.051 292.91 198.258 292.528C201.335 292.161 204.175 292.983 206.779 294.993C209.372 297.018 210.904 299.983 211.376 303.887C211.887 308.114 211.07 311.607 208.924 314.368C206.781 317.141 204.106 318.719 200.899 319.101C197.822 319.468 194.987 318.639 192.395 316.614C189.791 314.603 188.253 311.646 187.781 307.742ZM191.179 306.884C191.583 310.219 192.774 312.694 194.752 314.307C196.72 315.934 198.847 316.611 201.136 316.339C203.256 316.086 205.028 314.898 206.45 312.774C207.872 310.651 208.388 307.98 207.999 304.761C207.595 301.413 206.402 298.926 204.422 297.3C202.43 295.689 200.297 295.019 198.021 295.29C195.901 295.543 194.137 296.743 192.731 298.891C191.312 301.04 190.795 303.704 191.179 306.884Z" fill="#9B9CA0"/>
<path d="M159.7 303.562C159.896 301.044 161.118 299.179 163.368 297.967C165.562 296.791 168.483 296.342 172.131 296.622C173.144 296.7 175.127 296.892 178.081 297.197C177.586 301.207 177.15 305.64 176.772 310.495C176.416 315.064 176.195 319.083 176.108 322.55L173.771 322.37C173.317 322.335 172.4 322.285 171.021 322.218C169.641 322.151 168.64 322.094 168.017 322.046C162.616 321.632 160.061 319.561 160.351 315.836C160.577 312.928 162.007 311.092 164.639 310.327L164.654 310.133C161.082 309.206 159.431 307.015 159.7 303.562ZM163.017 303.484C162.768 306.677 165.474 308.491 171.134 308.926C172.173 309.006 173.091 309.037 173.889 309.02C174.159 305.554 174.329 302.452 174.398 299.715C173.914 299.56 173.049 299.435 171.802 299.34C168.673 299.099 166.422 299.338 165.047 300.055C163.821 300.705 163.144 301.848 163.017 303.484ZM163.698 315.113C163.489 317.8 165.196 319.283 168.818 319.561C170.635 319.701 172.116 319.716 173.261 319.608C173.23 318.666 173.384 316.02 173.722 311.671C173.088 311.596 172.388 311.529 171.622 311.471C169.051 311.273 167.159 311.422 165.945 311.916C164.571 312.464 163.822 313.529 163.698 315.113Z" fill="#9B9CA0"/>
<path d="M128.183 316.513C129.502 312.57 130.696 308.781 131.763 305.146C133.105 300.573 134.298 296.228 135.344 292.112L138.796 293.111C137.631 296.569 136.358 300.654 134.976 305.364C133.88 309.1 132.953 312.349 132.196 315.112L136.831 316.453C137.103 315.895 137.504 315.177 138.032 314.3C138.557 313.436 139.176 312.483 139.889 311.442C140.585 310.41 141.358 309.326 142.207 308.189C143.04 307.061 143.914 305.958 144.827 304.881C145.74 303.803 146.67 302.784 147.617 301.825C148.547 300.874 149.46 300.054 150.354 299.364C151.249 298.674 152.106 298.156 152.927 297.811C153.735 297.462 154.471 297.356 155.136 297.495L154.334 300.922C153.974 300.9 153.514 301.058 152.953 301.397C152.376 301.745 151.734 302.223 151.026 302.832C150.318 303.44 149.565 304.158 148.766 304.984C147.963 305.822 147.157 306.721 146.347 307.679C145.52 308.646 144.703 309.65 143.895 310.69C143.088 311.731 142.33 312.765 141.621 313.794C140.912 314.822 140.274 315.817 139.707 316.778C139.124 317.748 138.647 318.633 138.276 319.434L128.183 316.513Z" fill="#9B9CA0"/>
<path d="M110.867 283.293L114.091 284.967C112.538 287.58 110.782 290.746 108.822 294.467C109.573 294.887 110.439 295.351 111.421 295.861C113.536 296.96 115.398 297.238 117.008 296.695C118.619 296.152 120.791 294.361 123.526 291.321C123.997 290.788 124.336 290.48 124.542 290.396L127.957 292.17C127.636 292.443 127.113 292.905 126.388 293.556C123.484 296.302 121.407 297.997 120.157 298.638C118.889 299.286 117.47 299.451 115.9 299.134L115.8 299.324C118.833 301.809 119.496 304.67 117.791 307.908C115.649 311.974 111.759 312.543 106.12 309.614C105.277 309.176 104.344 308.67 103.322 308.095C102.3 307.52 101.68 307.176 101.46 307.062L99.0163 305.792C100.804 302.818 102.765 299.303 104.901 295.248C107.171 290.939 109.159 286.954 110.867 283.293ZM107.602 296.783C106.237 299.375 104.871 302.136 103.505 305.065C105.194 306.133 106.547 306.931 107.564 307.459C109.448 308.438 110.942 308.855 112.049 308.71C113.137 308.571 114.015 307.868 114.683 306.601C116.388 303.364 114.802 300.479 109.926 297.946C108.944 297.436 108.169 297.048 107.602 296.783Z" fill="#9B9CA0"/>
<path d="M87.5531 272.639L89.4576 270.384L101.945 279.97C99.3205 283.044 96.5128 286.502 93.5215 290.345C90.7061 293.962 88.307 297.192 86.3241 300.036L74.6117 291.045L76.5233 288.844C79.2676 291.147 82.2303 293.52 85.4114 295.962C86.5892 294.322 88.2338 292.146 90.3454 289.433C87.598 287.324 85.1022 285.507 82.8579 283.981L84.6455 281.684C86.8665 283.537 89.2783 285.463 91.881 287.461C93.9366 284.82 95.8176 282.308 97.5243 279.925C94.0953 277.293 90.7715 274.864 87.5531 272.639Z" fill="#9B9CA0"/>
<path d="M64.5797 246.399L66.7818 249.337C64.4468 251.063 61.191 253.721 57.0143 257.31C52.8377 260.899 50.3173 263.029 49.4534 263.7L49.5705 263.856C53.7545 262.383 58.4425 260.974 63.6346 259.63C68.8083 258.283 71.7355 257.358 72.4161 256.855L73.9975 258.965C73.2645 259.506 71.4512 262.004 68.5575 266.459C65.6534 270.921 63.6691 273.853 62.6046 275.255C61.5401 276.657 60.7798 277.64 60.3237 278.204L60.4409 278.36C61.8988 277.331 64.9502 275.399 69.5951 272.565C74.2321 269.72 77.5035 267.594 79.4092 266.185L81.424 268.873C81.3193 268.951 78.1742 270.725 71.9889 274.196C65.7931 277.674 61.5905 280.23 59.3811 281.863L56.3004 277.753C57.4522 276.902 59.707 273.94 63.0648 268.867C66.4225 263.795 68.5883 260.899 69.5621 260.179L69.445 260.022C68.4712 260.742 64.9726 261.871 58.9493 263.409C52.9155 264.954 49.3384 266.141 48.218 266.969L45.2075 262.952C47.4169 261.319 51.1534 258.185 56.4171 253.55C61.6808 248.914 64.4016 246.531 64.5797 246.399Z" fill="#9B9CA0"/>
<path d="M47.9598 226.224L50.6886 225.177C51.8309 226.402 52.8201 227.861 53.6561 229.554C55.6396 233.57 56.0297 237.124 54.8264 240.215C53.6114 243.313 51.4119 245.637 48.2278 247.188C44.8916 248.813 41.4613 249.086 37.937 248.007C34.401 246.934 31.6932 244.495 29.8136 240.689C29.2946 239.638 28.9049 238.452 28.6444 237.131L31.6785 236.261C31.9201 237.809 32.3004 239.108 32.8194 240.159C34.2147 242.984 36.1507 244.699 38.6273 245.303C41.104 245.907 43.6124 245.59 46.1527 244.353C48.7397 243.093 50.5429 241.172 51.5622 238.59C52.5815 236.008 52.3589 233.234 50.8944 230.269C50.3351 229.137 49.3569 227.788 47.9598 226.224Z" fill="#9B9CA0"/>
<path d="M42.0911 203.601L43.0207 207.113C40.0452 207.728 36.5228 208.567 32.4535 209.629C32.6482 210.466 32.8871 211.42 33.1703 212.49C33.78 214.793 34.827 216.357 36.3111 217.181C37.7952 218.004 40.5806 218.401 44.6671 218.37C45.3782 218.36 45.8339 218.402 46.0343 218.498L47.0189 222.217C46.601 222.165 45.9077 222.09 44.9392 221.993C40.9557 221.701 38.3064 221.309 36.9911 220.818C35.6599 220.318 34.5836 219.381 33.7621 218.008L33.5542 218.062C33.756 221.979 32.0867 224.4 28.5465 225.324C24.0992 226.485 21.0626 223.994 19.4366 217.851C19.1934 216.932 18.9408 215.902 18.6787 214.759C18.4166 213.616 18.2539 212.925 18.1906 212.686L17.486 210.024C20.8872 209.338 24.8051 208.416 29.2399 207.258C33.9518 206.028 38.2355 204.809 42.0911 203.601ZM29.9211 210.29C27.0864 211.03 24.1268 211.883 21.0424 212.85C21.3883 214.819 21.7079 216.357 22.0011 217.464C22.5442 219.516 23.2411 220.902 24.0916 221.622C24.9262 222.333 26.0365 222.507 27.4223 222.145C30.9626 221.221 32.0297 218.103 30.6236 212.791C30.3404 211.721 30.1063 210.888 29.9211 210.29Z" fill="#9B9CA0"/>
<path d="M37.08 155.46L36.677 159.11C33.7896 158.803 29.5918 158.559 24.0835 158.379C18.5752 158.2 15.2759 158.065 14.1854 157.975L14.1639 158.169C18.2291 159.911 22.6182 162.041 27.3312 164.558C32.0328 167.062 34.8044 168.358 35.646 168.448L35.3566 171.068C34.4503 170.972 31.4154 171.586 26.252 172.909C21.0757 174.231 17.6188 175.048 15.8813 175.361C14.1438 175.674 12.9154 175.884 12.1962 175.99L12.1748 176.185C13.9444 176.412 17.4959 177.052 22.8293 178.103C28.1641 179.142 32.0098 179.787 34.3663 180.037L33.9976 183.376C33.8682 183.363 30.3561 182.544 23.4614 180.92C16.5538 179.295 11.734 178.338 9.00206 178.047L9.56579 172.941C10.9901 173.093 14.665 172.436 20.5907 170.971C26.5164 169.506 30.0813 168.838 31.2854 168.966L31.3069 168.772C30.1027 168.644 26.7743 167.111 21.3215 164.174C15.8558 161.236 12.4302 159.693 11.0448 159.546L11.5957 154.557C14.3276 154.847 19.203 155.065 26.2217 155.209C33.2404 155.353 36.8598 155.437 37.08 155.46Z" fill="#9B9CA0"/>
<path d="M42.6621 127.14L41.382 131.058C40.5516 130.79 37.6881 130.729 32.7913 130.874L29.2905 141.586C33.1142 144.515 35.4721 146.123 36.3644 146.411L35.1389 150.161C34.6803 150.013 31.2425 147.14 24.8254 141.543C18.3959 135.941 14.8094 133.02 14.0658 132.781L15.4734 128.474C16.2046 128.709 20.7484 128.491 29.1049 127.819C37.4614 127.147 41.9805 126.921 42.6621 127.14ZM30.0769 130.944C21.8517 131.507 17.5098 131.716 17.0512 131.568L16.9845 131.772C17.3687 131.896 20.7439 134.646 27.1101 140.022L30.0769 130.944Z" fill="#9B9CA0"/>
<path d="M28.0108 96.0804L30.6774 97.5976C28.4138 101.616 26.5387 105.036 25.0521 107.859C27.3721 108.902 30.508 110.451 34.4598 112.503C39.2666 115 42.8735 116.786 45.2805 117.86L43.5875 121.074C40.864 119.483 37.3299 117.56 32.9853 115.303C27.9357 112.68 23.9475 110.696 21.0206 109.352L28.0108 96.0804Z" fill="#9B9CA0"/>
<path d="M64.795 85.6288L62.3895 88.4545C60.6528 86.7585 57.9395 84.3617 54.2496 81.2641C52.5543 79.8409 50.4256 78.0028 47.8634 75.7498L47.7368 75.8985C48.4386 77.0828 49.4083 81.0759 50.6458 87.878C51.7983 94.2175 52.8432 97.7808 53.7806 98.5678L52.0082 100.65C49.5089 98.2628 46.4991 95.5916 42.9788 92.6363C39.3987 89.6307 35.9163 86.8518 32.5317 84.2995L34.9119 81.5035C37.4863 83.9027 40.4489 86.5088 43.7997 89.3218C45.515 90.7618 47.3817 92.4054 49.4 94.2528L49.5393 94.0892C48.8881 92.8455 47.9663 88.8161 46.7741 82.001C45.6907 75.8214 44.6105 72.2795 43.5334 71.3753L45.3185 69.2783C48.433 72.1479 51.7803 75.0855 55.3605 78.091C58.8808 81.0463 62.0256 83.5589 64.795 85.6288Z" fill="#9B9CA0"/>
<path d="M80.32 65.4435L82.125 67.7778L69.9949 77.8116C67.5414 74.6028 64.7499 71.1328 61.6204 67.4017C58.675 63.8901 56.0192 60.8655 53.6529 58.3281L65.0305 48.9167L66.7803 51.246C63.9207 53.4086 60.9459 55.7679 57.8557 58.3241C59.2128 59.8206 60.996 61.8857 63.205 64.5195C65.8738 62.3118 68.2015 60.2851 70.188 58.4391L72.0582 60.6688C69.7555 62.4214 67.34 64.3435 64.8116 66.4349C66.9621 68.9988 69.0238 71.3657 70.9969 73.5356C74.3279 70.7803 77.4356 68.0829 80.32 65.4435Z" fill="#9B9CA0"/>
<path d="M103.98 52.5777L100.675 54.264C99.7243 52.03 98.1425 48.7734 95.9291 44.4943C94.9122 42.5281 93.6548 40.0123 92.1571 36.9467L91.9831 37.0354C92.1754 38.399 91.5348 42.4604 90.0614 49.2195C88.6873 55.5187 88.2814 59.2118 88.8437 60.299L86.4079 61.5415C85.0199 58.3761 83.27 54.7521 81.1583 50.6695C79.0107 46.5176 76.8663 42.6125 74.7249 38.9544L77.9958 37.2859C79.4486 40.4914 81.18 44.0371 83.1899 47.923C84.2189 49.9123 85.3093 52.1479 86.4611 54.6298L86.6525 54.5322C86.5298 53.1331 87.2286 49.0567 88.7487 42.303C90.1251 36.1781 90.4902 32.4911 89.8441 31.242L92.2973 29.9907C94.0675 33.8381 96.0264 37.8379 98.1739 41.9898C100.286 46.0724 102.221 49.6017 103.98 52.5777ZM85.768 25.2747C86.4261 26.5469 86.6153 27.9047 86.3358 29.3482C86.0619 30.7742 84.9506 31.9842 83.002 32.9782C80.9838 34.0077 79.2967 34.2178 77.9408 33.6086C76.5789 32.9878 75.5689 32.0413 74.9109 30.7691L77.2458 29.1615C78.4422 31.4746 80.0379 32.1223 82.0329 31.1046C83.2044 30.507 83.8464 29.8068 83.9589 29.004C84.0654 28.1896 83.8285 27.2215 83.2482 26.0996L85.768 25.2747Z" fill="#9B9CA0"/>
<path d="M132.782 14.7567L133.268 17.4689C130.719 17.8789 128.101 18.3703 125.414 18.9429C125.917 21.3919 126.574 24.4937 127.385 28.2482C128.282 32.3972 129.286 36.7363 130.398 41.2655L126.902 42.0104C126.117 37.6379 125.253 33.269 124.309 28.9036C123.509 25.2 122.801 22.1091 122.186 19.6308C120.301 20.0325 117.669 20.6733 114.289 21.5534L113.794 18.803L132.782 14.7567Z" fill="#9B9CA0"/>
<path d="M161.952 28.6418C161.991 31.1676 160.948 33.1369 158.821 34.5499C156.746 35.9231 153.879 36.6377 150.22 36.6938C149.205 36.7093 147.212 36.7008 144.243 36.6682C144.362 32.6295 144.384 28.1755 144.308 23.3063C144.237 18.7235 144.083 14.7019 143.847 11.2416L146.191 11.2057C146.646 11.1987 147.564 11.1651 148.943 11.1049C150.323 11.0446 151.325 11.0097 151.95 11.0002C157.366 10.9171 160.103 12.7438 160.161 16.4804C160.207 19.3967 158.954 21.3562 156.404 22.359L156.407 22.5543C160.05 23.1495 161.898 25.1787 161.952 28.6418ZM158.657 29.0244C158.607 25.8217 155.744 24.2639 150.067 24.3509C149.026 24.3669 148.109 24.42 147.316 24.5103C147.37 27.9864 147.49 31.0904 147.675 33.8223C148.172 33.9319 149.045 33.9771 150.295 33.9579C153.433 33.9098 155.653 33.4656 156.955 32.6252C158.115 31.8651 158.682 30.6649 158.657 29.0244ZM156.895 17.5071C156.854 14.8121 155.016 13.4925 151.384 13.5482C149.561 13.5762 148.085 13.6965 146.956 13.9091C147.074 14.8449 147.168 17.4935 147.235 21.855C147.874 21.8712 148.577 21.8735 149.345 21.8617C151.923 21.8222 153.793 21.5005 154.956 20.8966C156.274 20.2253 156.92 19.0955 156.895 17.5071Z" fill="#9B9CA0"/>
<path d="M195.281 25.8102C194.376 29.9174 192.449 32.9437 189.501 34.889C186.555 36.8217 183.504 37.4459 180.348 36.7616C177.319 36.1049 174.908 34.4029 173.113 31.6556C171.334 28.8983 170.868 25.5996 171.714 21.7594C172.63 17.6013 174.558 14.5687 177.499 12.6614C180.442 10.7415 183.491 10.1236 186.647 10.8079C189.675 11.4646 192.079 13.1716 193.858 15.9289C195.653 18.6762 196.127 21.97 195.281 25.8102ZM191.787 25.5122C192.51 22.2315 192.203 19.5071 190.868 17.3389C189.548 15.1608 187.762 13.8275 185.509 13.3391C183.422 12.8866 181.356 13.4311 179.309 14.9726C177.263 16.5141 175.891 18.8679 175.193 22.0342C174.468 25.3276 174.771 28.0647 176.104 30.2456C177.452 32.4165 179.246 33.7448 181.486 34.2304C183.573 34.6829 185.636 34.1243 187.675 32.5547C189.727 30.9877 191.097 28.6402 191.787 25.5122Z" fill="#9B9CA0"/>
<path d="M224.09 28.0977C222.927 30.829 221.019 32.4354 218.365 32.9167C215.712 33.3981 212.633 32.9025 209.127 31.4302C208.683 31.2436 208.304 31.0702 207.99 30.9101C206.878 33.5217 205.629 36.7186 204.245 40.501L200.787 39.0488C202.417 35.7222 204.252 31.663 206.292 26.8712C208.048 22.7503 209.534 19.0108 210.752 15.6527L213.327 16.7343C213.603 16.8503 214.397 17.1626 215.709 17.6713C217.033 18.185 218.151 18.6334 219.063 19.0166C221.368 19.9848 222.975 21.2809 223.882 22.9049C224.807 24.5219 224.876 26.2529 224.09 28.0977ZM220.639 27.8768C221.951 24.7981 220.499 22.3737 216.286 20.6038C215.253 20.1702 214.057 19.7734 212.696 19.4136C211.948 21.4016 210.694 24.462 208.934 28.5949C209.344 28.7954 209.855 29.0242 210.467 29.2814C215.881 31.5555 219.272 31.0873 220.639 27.8768Z" fill="#9B9CA0"/>
<path d="M237.958 56.4927L234.903 54.386C237.031 51.6617 239.281 48.6029 241.653 45.2096C239.917 44.5343 237.967 43.45 235.801 41.9568C233.518 40.3824 232.166 38.7145 231.745 36.9534C231.332 35.1816 232.199 32.7591 234.348 29.6859C235.214 28.448 236.205 26.9406 237.32 25.1634L240.295 27.2147C239.245 28.4204 238.377 29.5142 237.69 30.4959C235.75 33.2703 234.894 35.3131 235.121 36.6243C235.366 37.9322 236.572 39.3327 238.737 40.8259C240.366 41.9495 241.823 42.7171 243.108 43.1288C245.63 39.522 247.753 36.3277 249.476 33.5459L252.531 35.6526C250.333 38.4548 247.947 41.6967 245.373 45.3781C242.671 49.241 240.2 52.9458 237.958 56.4927Z" fill="#9B9CA0"/>
<path d="M259.839 69.839L257.678 71.8503L246.427 60.8391C249.401 58.1016 252.603 55.0046 256.033 51.5481C259.262 48.2949 262.031 45.3754 264.341 42.7895L274.893 53.1177L272.731 55.074C270.282 52.4584 267.625 49.7481 264.759 46.9429C263.393 48.4301 261.499 50.3936 259.078 52.8335C261.553 55.2561 263.814 57.3592 265.859 59.1427L263.809 61.2083C261.826 59.1032 259.662 56.9031 257.317 54.6079C254.96 56.9831 252.791 59.2514 250.811 61.4128C253.9 64.4366 256.91 67.2453 259.839 69.839Z" fill="#9B9CA0"/>
<path d="M276.416 88.4233L273.88 89.8765C272.562 88.8424 271.359 87.5536 270.271 86.0103C267.691 82.349 266.757 78.8991 267.469 75.6608C268.193 72.415 270.008 69.7815 272.917 67.7603C275.964 65.6425 279.313 64.8453 282.963 65.3687C286.624 65.8846 289.677 67.8775 292.122 71.3472C292.797 72.3051 293.365 73.4166 293.827 74.6816L290.962 76.0068C290.484 74.5153 289.908 73.2906 289.233 72.3327C287.417 69.757 285.239 68.3613 282.698 68.1455C280.156 67.9297 277.726 68.6281 275.405 70.2406C273.042 71.8828 271.556 74.0573 270.947 76.7641C270.338 79.4708 270.986 82.1759 272.891 84.8794C273.618 85.9118 274.793 87.0931 276.416 88.4233Z" fill="#9B9CA0"/>
<path d="M308.572 98.784L306.033 99.8555C305.053 97.4682 303.978 95.0318 302.807 92.5462C300.529 93.5755 297.647 94.8992 294.164 96.517C290.314 98.3048 286.303 100.239 282.13 102.32L280.608 99.0868C284.701 97.358 288.773 95.5531 292.824 93.6721C296.261 92.0762 299.12 90.7055 301.401 89.5599C300.58 87.8164 299.355 85.399 297.727 82.3078L300.302 81.2198L308.572 98.784Z" fill="#9B9CA0"/>
<path d="M301.686 130.534C299.23 131.125 297.076 130.539 295.224 128.776C293.423 127.053 292.088 124.415 291.22 120.861C290.979 119.874 290.544 117.93 289.915 115.028C293.882 114.259 298.233 113.304 302.967 112.164C307.423 111.09 311.313 110.059 314.637 109.07L315.193 111.347C315.301 111.79 315.538 112.677 315.904 114.009C316.269 115.34 316.526 116.31 316.675 116.917C317.96 122.179 316.787 125.247 313.154 126.123C310.318 126.806 308.128 126.015 306.582 123.748L306.392 123.794C306.622 127.476 305.053 129.722 301.686 130.534ZM300.579 127.405C303.693 126.655 304.577 123.522 303.229 118.007C302.982 116.995 302.726 116.113 302.462 115.359C299.082 116.174 296.08 116.971 293.455 117.75C293.459 118.259 293.609 119.12 293.906 120.334C294.651 123.382 295.578 125.449 296.687 126.535C297.687 127.499 298.984 127.789 300.579 127.405ZM311.426 123.164C314.046 122.533 314.925 120.452 314.063 116.923C313.63 115.153 313.184 113.74 312.726 112.685C311.839 113.006 309.275 113.677 305.035 114.699C305.161 115.325 305.315 116.011 305.497 116.757C306.109 119.262 306.839 121.015 307.687 122.016C308.635 123.153 309.881 123.536 311.426 123.164Z" fill="#9B9CA0"/>
<path d="M298.494 160.959L298.365 156.84C299.237 156.814 301.952 155.91 306.508 154.128L306.157 142.864C301.565 141.39 298.8 140.667 297.863 140.696L297.741 136.752C298.222 136.738 302.433 138.289 310.372 141.406C318.324 144.523 322.691 146.07 323.472 146.046L323.613 150.575C322.845 150.599 318.645 152.33 311.014 155.768C303.383 159.207 299.209 160.937 298.494 160.959ZM309.037 153.152C316.582 149.859 320.595 148.205 321.076 148.191L321.07 147.976C320.666 147.988 316.556 146.532 308.74 143.606L309.037 153.152Z" fill="#9B9CA0"/>
</svg>
