<svg width="107" height="106" viewBox="0 0 107 106" fill="none" xmlns="http://www.w3.org/2000/svg">
<path d="M67.9925 61.2685L68.0535 61.2279L68.114 61.1867L68.1742 61.1448L68.234 61.1022L68.2933 61.0589L68.3522 61.015L68.4107 60.9704L68.4688 60.9251L68.5264 60.8791L68.5836 60.8325L68.6404 60.7853L68.6966 60.7374L68.7524 60.6888L68.8078 60.6396L68.8626 60.5897L68.917 60.5392L68.9709 60.4881L69.0242 60.4363L69.0771 60.3839L69.1295 60.3309L69.1813 60.2773L69.2326 60.223L69.2834 60.1682L69.3337 60.1127L69.3834 60.0566L69.4325 60L69.4811 59.9427L69.5292 59.8849L69.5766 59.8264L69.6236 59.7674L69.6699 59.7079L69.7156 59.6477L69.7608 59.587L69.8053 59.5257L69.8493 59.4639L69.8926 59.4015L69.9354 59.3386L69.9775 59.2751L70.019 59.2111L70.0598 59.1466L70.1001 59.0815L70.1396 59.016L70.1786 58.9499L70.2169 58.8833L70.2545 58.8162L70.2915 58.7486L70.3278 58.6806L70.3634 58.612L70.3984 58.543L70.4327 58.4735L70.4663 58.4035L70.4992 58.3331L70.5314 58.2623L70.5629 58.1909L70.5937 58.1192L70.6238 58.047L70.6532 57.9744L70.6818 57.9013L70.7098 57.8279L70.737 57.754L70.7635 57.6798L70.7892 57.6051L70.8142 57.5301L70.8385 57.4547L70.862 57.3789L70.8848 57.3027L70.9068 57.2262L70.9281 57.1493L70.9486 57.0721L70.9683 56.9946L70.9872 56.9167L71.0054 56.8385L71.0228 56.7599L71.0395 56.6811L71.0553 56.602L71.0704 56.5225L71.0847 56.4428L71.0982 56.3628L71.1109 56.2826L71.1228 56.202L71.1338 56.1212L71.1441 56.0402L71.1536 55.9589L71.1623 55.8774L71.1702 55.7956L71.1772 55.7137L71.1835 55.6315L71.1889 55.5491L71.1935 55.4666L71.1973 55.3838L71.2002 55.3009L71.2023 55.2178L71.2036 55.1345L71.2041 55.0511L71.2038 54.9675L71.2026 54.8838L71.2005 54.8L71.1977 54.716L71.194 54.6319L71.1894 54.5478L71.184 54.4635L71.1778 54.3791L71.1708 54.2947L71.1629 54.2102L71.1541 54.1256L71.1445 54.0409L71.1341 53.9563L71.1228 53.8715L71.1107 53.7868L71.0977 53.702L71.0838 53.6172L71.0692 53.5325L71.0536 53.4477L71.0373 53.3629L71.0201 53.2782L71.002 53.1934L70.9831 53.1088L70.9633 53.0241L70.9427 52.9396L70.9212 52.855L70.8989 52.7706L70.8758 52.6863L70.8518 52.602L70.8269 52.5178L70.8012 52.4338L70.7747 52.3498L70.7473 52.266L70.7191 52.1823L70.6901 52.0988L70.6602 52.0154L70.6295 51.9322L70.5979 51.8491L70.5655 51.7663L70.5323 51.6836L70.4982 51.6011L70.4633 51.5188L70.4276 51.4367L70.3911 51.3549L70.3537 51.2732L70.3155 51.1919L70.2765 51.1107L70.2367 51.0298L70.196 50.9492L70.1546 50.8689L70.1123 50.7888L70.0693 50.7091L70.0254 50.6296L69.9807 50.5504L69.9353 50.4716L69.889 50.3931L69.842 50.3149L69.7941 50.2371L69.7455 50.1596L69.6961 50.0824L69.6459 50.0057L69.5949 49.9293L69.5432 49.8533L69.4907 49.7777L69.4374 49.7025L69.3834 49.6277L69.3286 49.5534L69.2731 49.4794L69.2168 49.4059L69.1597 49.3328L69.102 49.2602L69.0435 49.1881L68.9842 49.1164L68.9243 49.0452L68.8636 48.9745L68.8022 48.9043L68.7401 48.8345L68.6773 48.7653L68.6137 48.6966L68.5495 48.6285L68.4846 48.5608L68.419 48.4937L68.3527 48.4272L68.2857 48.3612L68.2181 48.2958L68.1498 48.2309L68.0809 48.1667L68.0112 48.103L67.941 48.0399L67.8701 47.9774L67.7985 47.9155L67.7264 47.8543L67.6536 47.7936L67.5802 47.7336L67.5061 47.6743L67.4315 47.6156L67.3563 47.5575L67.2804 47.5001L67.204 47.4434L67.127 47.3874L67.0494 47.332L66.9713 47.2773L66.8926 47.2234L66.8133 47.1701L66.7335 47.1175L66.6532 47.0657L66.5723 47.0146L66.4909 46.9642L66.409 46.9145L66.3266 46.8656L66.2436 46.8175L66.1602 46.7701L66.0763 46.7234L65.9919 46.6776L65.907 46.6325L65.8216 46.5882L65.7358 46.5446L65.6496 46.5019L65.5629 46.46L65.4757 46.4188L65.3882 46.3785L65.3002 46.339L65.2118 46.3004L65.123 46.2625L65.0338 46.2255L64.9442 46.1893L64.8543 46.154L64.7639 46.1195L64.6733 46.0859L64.5822 46.0531L64.4908 46.0212L64.3991 45.9902L64.307 45.96L64.2147 45.9307L64.122 45.9023L64.029 45.8748L63.9357 45.8482L63.8422 45.8225L63.7483 45.7977L63.6542 45.7738L63.5599 45.7508L63.4652 45.7287L63.3704 45.7075L63.2753 45.6873L63.18 45.668L63.0845 45.6496L62.9888 45.6322L62.8929 45.6157L62.7968 45.6001L62.7005 45.5855L62.6041 45.5718L62.5075 45.5591L62.4108 45.5473L62.3139 45.5365L62.2169 45.5266L62.1198 45.5178L62.0225 45.5098L61.9252 45.5029L61.8278 45.4969L61.7303 45.4919L61.6327 45.4879L61.5351 45.4848L61.4375 45.4828L61.3397 45.4817L61.242 45.4816L61.1442 45.4825L61.0465 45.4844L60.9487 45.4872L60.8509 45.4911L60.7532 45.496L60.6554 45.5018L60.5578 45.5087L60.4601 45.5165L60.3625 45.5254L60.265 45.5353L60.1676 45.5461L60.0703 45.558L59.973 45.5709L59.8759 45.5847L59.7789 45.5996L59.682 45.6155L59.5853 45.6324L59.4887 45.6503L59.3922 45.6692L59.2959 45.6891L59.1998 45.71L59.1039 45.7319L59.0082 45.7549L58.9127 45.7788L58.8175 45.8037L58.7224 45.8297L58.6276 45.8566L58.5331 45.8846L58.4388 45.9136L58.3447 45.9435L58.251 45.9745L58.1575 46.0065L58.0644 46.0394L57.9715 46.0734L57.879 46.1083L57.7868 46.1443L57.6949 46.1812L57.6034 46.2192L57.5122 46.2581L57.4215 46.298L57.3311 46.3389L57.241 46.3808L57.1514 46.4237L57.0622 46.4675L56.9734 46.5123L56.8851 46.5581L56.7972 46.6049L56.7097 46.6526L56.6227 46.7013L56.5361 46.751L56.45 46.8016L56.3645 46.8532L56.2794 46.9057L56.1948 46.9592L56.1107 47.0136L56.0272 47.069L55.9442 47.1253L55.8617 47.1825L55.7798 47.2407L55.6985 47.2998L55.6177 47.3598L55.5375 47.4207L55.4579 47.4826L55.3789 47.5453L55.3005 47.609L55.2228 47.6736L55.1456 47.739L55.0691 47.8054L54.9933 47.8726L54.9181 47.9408L54.8435 48.0097L54.7697 48.0796L54.6965 48.1503L54.624 48.2219L54.5522 48.2944L54.4811 48.3677L54.4107 48.4418L54.3411 48.5168L54.2721 48.5926L54.204 48.6692L54.1365 48.7467L54.0699 48.8249L54.004 48.904L53.9389 48.9839L53.8745 49.0646L53.811 49.146L53.7482 49.2282L53.6863 49.3112L53.6251 49.395L53.5648 49.4796L53.5053 49.5648L53.4467 49.6509L53.3889 49.7376L53.332 49.8252L53.2759 49.9134L53.2207 50.0023L53.1663 50.092L53.1129 50.1823L53.0603 50.2734L53.0086 50.3651L52.9579 50.4575L52.908 50.5506L52.8591 50.6444L52.8111 50.7388L52.764 50.8338L52.7179 50.9295L52.6727 51.0258L52.6284 51.1227L52.5851 51.2203L52.5428 51.3184L52.5014 51.4172L52.461 51.5165L52.4216 51.6164L52.3832 51.7169L52.3458 51.8179L52.3094 51.9195L52.274 52.0216L52.2396 52.1242L52.2062 52.2274L52.1738 52.3311L52.1425 52.4353L52.1122 52.54L52.0829 52.6451L52.0547 52.7508L52.0275 52.8569L52.0014 52.9635L51.9763 53.0705L51.9523 53.1779L51.9293 53.2858L51.9075 53.3941L51.8867 53.5027L51.8669 53.6118L51.8483 53.7213L51.8308 53.8311L51.8143 53.9413L51.7989 54.0519L51.7847 54.1628L51.7715 54.274L51.7594 54.3856L51.7485 54.4975L51.7387 54.6096L51.7299 54.7221L51.7223 54.8348L51.7159 54.9478L51.7105 55.0611L51.7063 55.1746L51.7032 55.2883L51.7012 55.4023L51.7004 55.5165L51.7007 55.6309L51.7022 55.7454L51.7048 55.8602L51.7085 55.9751L51.7134 56.0902L51.7194 56.2054L51.7266 56.3208L51.7349 56.4363L51.7444 56.5519L51.7551 56.6676L51.7669 56.7833L51.7798 56.8992L51.7939 57.0151L51.8092 57.1311L51.8256 57.2471L51.8432 57.3632L51.862 57.4793L51.8819 57.5953L51.9029 57.7114L51.9252 57.8275L51.9486 57.9435L51.9731 58.0595L51.9988 58.1754L52.0257 58.2913L52.0537 58.4071L52.0829 58.5229L52.1133 58.6385L52.1448 58.754L52.1775 58.8694L52.2113 58.9846L52.2463 59.0997L52.2824 59.2147L52.3197 59.3295L52.3581 59.444L52.3977 59.5584L52.4385 59.6726L52.4804 59.7866L52.5234 59.9004L52.5676 60.0139L52.6129 60.1271L52.6593 60.2401L52.7069 60.3528L52.7556 60.4652L52.8055 60.5774L52.8565 60.6892L52.9086 60.8006L52.9618 60.9118L53.0161 61.0226L53.0716 61.133L53.1282 61.2431L53.1858 61.3527L53.2446 61.462L53.3045 61.5709L53.3655 61.6793L53.4276 61.7873L53.4907 61.8949L53.555 62.002L53.6203 62.1086L53.6867 62.2148L53.7542 62.3205L53.8227 62.4257L53.8924 62.5303L53.963 62.6344L54.0347 62.738L54.1075 62.8411L54.1813 62.9436L54.2561 63.0455L54.332 63.1468L54.4089 63.2475L54.4868 63.3477L54.5658 63.4472L54.6457 63.5461L54.7267 63.6443L54.8086 63.7419L54.8915 63.8388L54.9754 63.9351L55.0603 64.0306L55.1462 64.1255L55.233 64.2197L55.3208 64.3131L55.4095 64.4058L55.4991 64.4978L55.5898 64.589L55.6813 64.6795L55.7737 64.7692L55.8671 64.8581L55.9614 64.9462L56.0565 65.0335L56.1526 65.1201L56.2495 65.2057L56.3473 65.2906L56.446 65.3746L56.5455 65.4577L56.6459 65.54L56.7471 65.6214L56.8492 65.7019L56.9521 65.7816L57.0558 65.8603L57.1603 65.9381L57.2655 66.015L57.3716 66.0909L57.4785 66.1659L57.5861 66.24L57.6945 66.313L57.8036 66.3852L57.9135 66.4563L58.0241 66.5264L58.1355 66.5956L58.2475 66.6637L58.3603 66.7309L58.4737 66.7969L58.5878 66.862L58.7026 66.926L58.8181 66.989L58.9342 67.0509L59.0509 67.1117L59.1683 67.1715L59.2863 67.2302L59.4049 67.2878L59.5241 67.3442L59.6439 67.3996L59.7643 67.4539L59.8852 67.507L60.0067 67.559L60.1287 67.6099L60.2513 67.6596L60.3743 67.7081L60.4979 67.7555L60.622 67.8017L60.7466 67.8468L60.8716 67.8907L60.9972 67.9333L61.1231 67.9748L61.2495 68.0151L61.3763 68.0542L61.5036 68.092L61.6312 68.1287L61.7593 68.1641L61.8877 68.1982L62.0165 68.2312L62.1456 68.2628L62.2751 68.2933L62.4049 68.3224L62.535 68.3504L62.6654 68.377L62.7962 68.4024L62.9272 68.4265L63.0584 68.4493L63.19 68.4708L63.3217 68.491L63.4537 68.5099L63.5859 68.5276L63.7183 68.5439L63.8509 68.5589L63.9837 68.5726L64.1166 68.585L64.2497 68.596L64.383 68.6057L64.5163 68.6141L64.6498 68.6212L64.7833 68.6269L64.917 68.6313L65.0507 68.6344L65.1845 68.6361L65.3183 68.6364L65.4521 68.6354L65.586 68.633L65.7199 68.6293L65.8537 68.6242L65.9876 68.6178L66.1213 68.61L66.2551 68.6008L66.3888 68.5903L66.5224 68.5784L66.6559 68.5651L66.7893 68.5504L66.9226 68.5344L67.0557 68.517L67.1888 68.4982L67.3216 68.4781L67.4543 68.4566L67.5868 68.4337L67.7191 68.4094L67.8511 68.3837L67.983 68.3567L68.1146 68.3283L68.2459 68.2985L68.377 68.2673L68.5078 68.2347L68.6383 68.2008L68.7685 68.1655L68.8983 68.1288L69.0278 68.0908L69.157 68.0513L69.2858 68.0105L69.4142 67.9683L69.5422 67.9248L69.6698 67.8799L69.797 67.8336L69.9238 67.7859L70.0501 67.7369L70.1759 67.6866L70.3013 67.6348L70.4262 67.5818L70.5506 67.5273L70.6744 67.4716L70.7977 67.4144L70.9205 67.356L71.0427 67.2961L71.1644 67.235L71.2855 67.1725L71.4059 67.1087L71.5258 67.0436L71.645 66.9771L71.7636 66.9093L71.8816 66.8402L71.9988 66.7698L72.1154 66.6981L72.2314 66.6251L72.3466 66.5508L72.461 66.4752L72.5748 66.3983L72.6878 66.3202L72.8001 66.2407L72.9116 66.16L73.0223 66.078L73.1322 65.9948L73.2413 65.9103L73.3496 65.8246L73.457 65.7376L73.5637 65.6494L73.6694 65.56L73.7743 65.4693L73.8783 65.3775L73.9814 65.2844L74.0836 65.1901L74.1849 65.0947L74.2852 64.998L74.3846 64.9002L74.4831 64.8012L74.5806 64.701L74.6771 64.5997L74.7726 64.4972L74.8671 64.3936L74.9606 64.2889L75.0531 64.183L75.1445 64.0761L75.2349 63.968L75.3242 63.8588L75.4125 63.7485L75.4997 63.6372L75.5858 63.5248L75.6708 63.4113L75.7546 63.2968L75.8374 63.1812L75.919 63.0646L75.9995 62.947L76.0788 62.8283L76.1569 62.7087L76.2339 62.588L76.3097 62.4664L76.3843 62.3438L76.4577 62.2203L76.5298 62.0958L76.6008 61.9703L76.6705 61.8439L76.7389 61.7167L76.8061 61.5884L76.872 61.4593L76.9367 61.3294L77.0001 61.1985L77.0622 61.0668L77.123 60.9342L77.1824 60.8008L77.2406 60.6665L77.2974 60.5315L77.3529 60.3956L77.4071 60.259L77.4599 60.1215L77.5114 59.9833L77.5614 59.8444L77.6101 59.7047L77.6575 59.5643L77.7034 59.4231L77.7479 59.2813L77.7911 59.1387L77.8328 58.9955L77.8731 58.8516L77.912 58.7071L77.9494 58.5619L77.9854 58.4161L78.02 58.2697L78.0531 58.1227L78.0847 57.9751L78.1149 57.827L78.1436 57.6782L78.1709 57.529L78.1966 57.3792L78.2209 57.2289L78.2436 57.0781L78.2649 56.9268L78.2847 56.775L78.303 56.6228L78.3197 56.4702L78.3349 56.3171L78.3486 56.1636L78.3608 56.0097L78.3715 55.8554L78.3806 55.7007L78.3882 55.5457L78.3942 55.3904L78.3987 55.2347L78.4016 55.0787L78.403 54.9224L78.4028 54.7659L78.4011 54.609L78.3978 54.452L78.3929 54.2947L78.3865 54.1371L78.3784 53.9794L78.3689 53.8215L78.3577 53.6634L78.345 53.5052L78.3306 53.3468L78.3148 53.1883L78.2973 53.0297L78.2782 52.871L78.2576 52.7122L78.2353 52.5534L78.2115 52.3945L78.1861 52.2355L78.1591 52.0766L78.1305 51.9177L78.1003 51.7588L78.0685 51.5999L78.0352 51.4411L78.0002 51.2824L77.9637 51.1237L77.9255 50.9651L77.8858 50.8067L77.8445 50.6483L77.8016 50.4902L77.7571 50.3322L77.7111 50.1743L77.6634 50.0167L77.6142 49.8593L77.5634 49.7021L77.511 49.5452L77.4571 49.3885L77.4015 49.2321L77.3445 49.076L77.2858 48.9203L77.2256 48.7648L77.1638 48.6097L77.1004 48.4549L77.0355 48.3006L76.9691 48.1466L76.9011 47.993L76.8315 47.8399L76.7604 47.6872L76.6878 47.535L76.6136 47.3832L76.5379 47.2319L76.4607 47.0812L76.382 46.9309L76.3018 46.7812L76.22 46.6321L76.1368 46.4835L76.052 46.3355L75.9658 46.1882L75.878 46.0414L75.7888 45.8953L75.6982 45.7499L75.606 45.6051L75.5124 45.461L75.4173 45.3176L75.3208 45.1749L75.2228 45.0329L75.1234 44.8917L75.0226 44.7513L74.9204 44.6116L74.8167 44.4728L74.7117 44.3347L74.6052 44.1975L74.4974 44.0612L74.3881 43.9256L74.2775 43.791L74.1656 43.6572L74.0523 43.5244L73.9376 43.3925L73.8216 43.2615L73.7043 43.1314L73.5856 43.0024L73.4656 42.8743L73.3444 42.7472L73.2218 42.6211L73.098 42.496L72.9729 42.372L72.8465 42.249L72.7189 42.1271L72.59 42.0063L72.4599 41.8866L72.3286 41.768L72.1961 41.6505L72.0623 41.5341L71.9274 41.4189L71.7913 41.3049L71.6541 41.1921L71.5157 41.0804L71.3762 40.97L71.2355 40.8608L71.0937 40.7528L70.9508 40.6461L70.8068 40.5406L70.6617 40.4364L70.5156 40.3335L70.3684 40.232L70.2202 40.1317L70.0709 40.0327L69.9207 39.9351L69.7694 39.8389L69.6171 39.744L69.4639 39.6505L69.3096 39.5583L69.1545 39.4676L68.9984 39.3783L68.8414 39.2904L68.6834 39.204L68.5246 39.119L68.3649 39.0355L68.2044 38.9534L68.0429 38.8729L67.8807 38.7938L67.7176 38.7162L67.5537 38.6402L67.3891 38.5656L67.2236 38.4927L67.0574 38.4212L66.8905 38.3513L66.7228 38.283L66.5544 38.2163L66.3853 38.1512L66.2155 38.0876L66.0451 38.0257L65.874 37.9654L65.7022 37.9067L65.5299 37.8496L65.3569 37.7942L65.1834 37.7405L65.0092 37.6884L64.8346 37.6379L64.6593 37.5892L64.4836 37.5422L64.3074 37.4968L64.1307 37.4531L63.9535 37.4112L63.7758 37.371L63.5977 37.3325L63.4192 37.2957L63.2403 37.2607L63.061 37.2275L62.8813 37.196L62.7013 37.1662L62.521 37.1382L62.3403 37.112L62.1594 37.0876L61.9781 37.065L61.7966 37.0442L61.6149 37.0251L61.4329 37.0079L61.2507 36.9925L61.0683 36.9789L60.8858 36.9671L60.7031 36.9571L60.5203 36.949L60.3373 36.9427L60.1542 36.9382L59.9711 36.9356L59.7879 36.9349L59.6047 36.9359L59.4214 36.9389L59.2381 36.9437L59.0548 36.9503L58.8716 36.9589L58.6884 36.9692L58.5053 36.9815L58.3222 36.9956L58.1393 37.0116L57.9565 37.0295L57.7738 37.0493L57.5913 37.0709L57.409 37.0944L57.2268 37.1198L57.0449 37.1471L56.8632 37.1763L56.6818 37.2073L56.5006 37.2403L56.3198 37.2751L56.1392 37.3118L55.959 37.3505L55.7791 37.391L55.5996 37.4333L55.4204 37.4776L55.2417 37.5238L55.0634 37.5718L54.8856 37.6217L54.7082 37.6735L54.5312 37.7272L54.3548 37.7828L54.1789 37.8402L54.0036 37.8996L53.8288 37.9607L53.6545 38.0238L53.4809 38.0887L53.3079 38.1555L53.1355 38.2242L52.9637 38.2947L52.7926 38.3671L52.6222 38.4413L52.4526 38.5174L52.2836 38.5953L52.1154 38.6751L51.9479 38.7567L51.7812 38.8401L51.6154 38.9254L51.4503 39.0125L51.286 39.1014L51.1227 39.1921L50.9602 39.2846L50.7985 39.3789L50.6378 39.475L50.478 39.5729L50.3192 39.6726L50.1613 39.774L50.0044 39.8772L49.8485 39.9822L49.6936 40.0889L49.5397 40.1974L49.3869 40.3076L49.2352 40.4196L49.0845 40.5333L48.935 40.6487L48.7865 40.7658L48.6392 40.8846L48.4931 41.005L48.3481 41.1272L48.2043 41.2511L48.0617 41.3766L47.9204 41.5037L47.7803 41.6325L47.6414 41.763L47.5038 41.8951L47.3675 42.0287L47.2325 42.164L47.0988 42.3009L46.9665 42.4394L46.8355 42.5794L46.7059 42.721L46.5776 42.8642L46.4508 43.0089L46.3254 43.1551L46.2014 43.3028L46.0789 43.452L45.9578 43.6028L45.8382 43.755L45.7201 43.9087L45.6035 44.0638L45.4884 44.2204L45.3749 44.3784L45.2629 44.5378L45.1525 44.6986L45.0436 44.8608L44.9364 45.0244L44.8307 45.1894L44.7267 45.3557L44.6243 45.5233L44.5236 45.6922L44.4245 45.8625L44.3272 46.034L44.2315 46.2069L44.1375 46.381L44.0452 46.5563L43.9546 46.7328L43.8658 46.9106L43.7788 47.0896L43.6935 47.2697L43.61 47.4511L43.5282 47.6335L43.4483 47.8172L43.3702 48.0019L43.294 48.1877L43.2195 48.3746L43.1469 48.5626L43.0762 48.7517L43.0073 48.9418L42.9403 49.1329L42.8752 49.325L42.812 49.518L42.7508 49.7121L42.6914 49.9071L42.634 50.103L42.5785 50.2999L42.5249 50.4976L42.4734 50.6962L42.4238 50.8957L42.3761 51.096L42.3305 51.2972L42.2868 51.4991L42.2452 51.7018L42.2056 51.9053L42.168 52.1096L42.1324 52.3145L42.0988 52.5202L42.0673 52.7265L42.0379 52.9336L42.0105 53.1412L41.9851 53.3496L41.9619 53.5585L41.9407 53.768L41.9216 53.978L41.9046 54.1887L41.8897 54.3998L41.8769 54.6115L41.8662 54.8236L41.8576 55.0363L41.8511 55.2493L41.8467 55.4628L41.8445 55.6767L41.8444 55.891L41.8465 56.1057L41.8506 56.3207L41.857 56.536L41.8654 56.7516L41.8761 56.9675L41.8888 57.1837L41.9038 57.4001L41.9209 57.6167L41.9401 57.8335L41.9615 58.0505L41.9851 58.2676L42.0109 58.4849L42.0388 58.7022L42.0689 58.9197L42.1012 59.1372L42.1356 59.3548L42.1723 59.5724L42.2111 59.79L42.252 60.0075L42.2952 60.225L42.3405 60.4425L42.388 60.6599L42.4377 60.8771L42.4896 61.0942L42.5436 61.3112L42.5998 61.528L42.6582 61.7446L42.7187 61.9609L42.7815 62.177L42.8463 62.3929L42.9134 62.6085L42.9826 62.8237L43.054 63.0386L43.1275 63.2532L43.2032 63.4674L43.281 63.6811L43.361 63.8945L43.4431 64.1074L43.5274 64.3198L43.6137 64.5318L43.7023 64.7432L43.7929 64.9541L43.8857 65.1645L43.9806 65.3742L44.0776 65.5834L44.1767 65.7919L44.2779 65.9998L44.3812 66.207L44.4865 66.4135L44.594 66.6193L44.7035 66.8244L44.8151 67.0287L44.9288 67.2322L45.0445 67.435L45.1622 67.6369L45.282 67.8379L45.4038 68.0381L45.5277 68.2374L45.6535 68.4358L45.7813 68.6332L45.9112 68.8297L46.043 69.0252L46.1768 69.2197L46.3126 69.4132L46.4503 69.6056L46.59 69.797L46.7316 69.9873L46.8751 70.1765L47.0206 70.3645L47.1679 70.5514L47.3172 70.7371L47.4683 70.9217L47.6213 71.105L47.7761 71.2871L47.9328 71.4679L48.0914 71.6474L48.2517 71.8257L48.4139 72.0026L48.5778 72.1782L48.7436 72.3524L48.9111 72.5253L49.0804 72.6967L49.2514 72.8668L49.4241 73.0354L49.5986 73.2025L49.7747 73.3682L49.9526 73.5323L50.1321 73.6949L50.3133 73.856L50.4961 74.0156L50.6806 74.1735L50.8666 74.3299L51.0543 74.4847L51.2435 74.6378L51.4343 74.7892L51.6267 74.939L51.8205 75.0871L52.0159 75.2335L52.2128 75.3782L52.4112 75.5211L52.611 75.6622L52.8123 75.8016L53.0151 75.9392L53.2192 76.075L53.4247 76.2089L53.6316 76.341L53.8399 76.4712L54.0495 76.5995L54.2604 76.7259L54.4726 76.8504L54.6861 76.973L54.9009 77.0936L55.1169 77.2123L55.3342 77.329L55.5526 77.4437L55.7723 77.5563L55.9931 77.667L56.2151 77.7755L56.4381 77.8821L56.6623 77.9865L56.8876 78.0889L57.114 78.1892L57.3413 78.2873L57.5698 78.3833L57.7992 78.4772L58.0296 78.5689L58.2609 78.6584L58.4932 78.7458L58.7265 78.8309L58.9606 78.9139L59.1956 78.9946L59.4314 79.073L59.6681 79.1493L59.9056 79.2232L60.1438 79.2949L60.3828 79.3643L60.6226 79.4314L60.8631 79.4962L61.1043 79.5586L61.3461 79.6188L61.5886 79.6766L61.8318 79.732L62.0755 79.7851L62.3198 79.8358L62.5647 79.8841L62.81 79.93L63.0559 79.9735L63.3023 80.0146L63.5492 80.0533L63.7964 80.0896L64.0441 80.1234L64.2922 80.1548L64.5407 80.1837L64.7894 80.2102L65.0385 80.2341L65.2879 80.2557L65.5376 80.2747L65.7875 80.2912L66.0376 80.3052L66.2879 80.3168L66.5383 80.3258L66.7889 80.3323L67.0396 80.3363L67.2904 80.3377L67.5413 80.3367L67.7922 80.333L68.0432 80.3269L68.2941 80.3182L68.545 80.3069L68.7958 80.2931L69.0465 80.2767L69.2972 80.2578L69.5476 80.2363L69.798 80.2122L70.0481 80.1856L70.298 80.1564L70.5477 80.1246L70.7971 80.0902L71.0462 80.0533L71.295 80.0137L71.5435 79.9716L71.7916 79.9269L72.0393 79.8796L72.2865 79.8298L72.5334 79.7773L72.7797 79.7223L73.0256 79.6647L73.2709 79.6045L73.5157 79.5417L73.7599 79.4763L74.0035 79.4084L74.2465 79.3379L74.4888 79.2648L74.7305 79.1891L74.9714 79.1109L75.2116 79.0301L75.4511 78.9467L75.6897 78.8608L75.9276 78.7723L76.1646 78.6812L76.4008 78.5876L76.6361 78.4915L76.8704 78.3928L77.1039 78.2916L77.3363 78.1878L77.5678 78.0815L77.7983 77.9727L78.0278 77.8614L78.2561 77.7476L78.4834 77.6312L78.7096 77.5124L78.9346 77.3911L79.1585 77.2673L79.3812 77.1411L79.6027 77.0123L79.8229 76.8811L80.0419 76.7475L80.2595 76.6114L80.4759 76.4729L80.691 76.332L80.9046 76.1886L81.1169 76.0429L81.3278 75.8947L81.5372 75.7442L81.7452 75.5913L81.9517 75.4361L82.1567 75.2785L82.3602 75.1185L82.5621 74.9562L82.7625 74.7916L82.9612 74.6247L83.1583 74.4555L83.3538 74.2841L83.5476 74.1103L83.7397 73.9343L83.9301 73.7561L84.1188 73.5756L84.3057 73.393L84.4908 73.2081L84.6741 73.021L84.8556 72.8318L85.0352 72.6404L85.213 72.4469L85.3889 72.2512L85.5628 72.0535L85.7348 71.8536L85.9049 71.6517L86.073 71.4477L86.2391 71.2416L86.4031 71.0336L86.5652 70.8235L86.7251 70.6114L86.883 70.3974L87.0388 70.1813L87.1925 69.9634L87.344 69.7435L87.4933 69.5217L87.6405 69.298L87.7855 69.0725L87.9283 68.8451L88.0688 68.6159L88.2071 68.3849L88.3431 68.1521L88.4768 67.9175L88.6081 67.6812L88.7372 67.4431L88.8639 67.2033L88.9883 66.9619L89.1102 66.7187L89.2298 66.474L89.347 66.2276L89.4617 65.9796L89.574 65.73L89.6838 65.4788L89.7911 65.2262L89.8959 64.972L89.9983 64.7163L90.0981 64.4591L90.1953 64.2005L90.29 63.9405L90.3821 63.6791L90.4717 63.4163L90.5586 63.1522L90.6429 62.8867L90.7246 62.6199L90.8036 62.3519L90.88 62.0826L90.9538 61.812L91.0248 61.5403L91.0931 61.2674L91.1588 60.9933L91.2217 60.7181L91.2819 60.4418L91.3394 60.1644L91.3941 59.886L91.446 59.6065L91.4952 59.3261L91.5415 59.0446L91.5851 58.7623L91.6259 58.479L91.6638 58.1948L91.699 57.9097L91.7313 57.6238L91.7607 57.3371L91.7873 57.0496L91.8111 56.7614L91.8319 56.4724L91.8499 56.1827L91.8651 55.8924L91.8773 55.6014L91.8866 55.3097L91.893 55.0175L91.8965 54.7248L91.8971 54.4315L91.8948 54.1377L91.8896 53.8434L91.8814 53.5487L91.8702 53.2535L91.8562 52.958L91.8391 52.6621L91.8192 52.3659L91.7962 52.0693L91.7703 51.7726L91.7415 51.4755L91.7097 51.1783L91.6749 50.8808L91.6371 50.5833L91.5964 50.2855L91.5527 49.9877L91.506 49.6899L91.4563 49.392L91.4037 49.0941L91.348 48.7962L91.2894 48.4984L91.2278 48.2006L91.1633 47.903L91.0957 47.6056L91.0252 47.3083L90.9517 47.0112L90.8752 46.7144L90.7958 46.4178L90.7133 46.1215L90.6279 45.8256L90.5396 45.53L90.4483 45.2348L90.354 44.94L90.2567 44.6457L90.1565 44.3519L90.0534 44.0585L89.9473 43.7658L89.8383 43.4736L89.7263 43.182L89.6114 42.891L89.4936 42.6007L89.3729 42.3111L89.2492 42.0223L89.1227 41.7342L88.9932 41.4469L88.8609 41.1604L88.7257 40.8747L88.5876 40.59L88.4466 40.3061L88.3028 40.0232L88.1561 39.7413L88.0066 39.4604L87.8543 39.1805L87.6991 38.9017L87.5412 38.6239L87.3804 38.3473L87.2168 38.0719L87.0505 37.7976L86.8814 37.5246L86.7096 37.2528L86.5349 36.9822L86.3576 36.713L86.1776 36.4451L85.9948 36.1786L85.8093 35.9135L85.6212 35.6498L85.4304 35.3876L85.237 35.1268L85.0409 34.8675L84.8422 34.6098L84.6408 34.3537L84.4369 34.0992L84.2304 33.8463L84.0214 33.595L83.8097 33.3455L83.5956 33.0976L83.379 32.8515L83.1598 32.6072L82.9382 32.3647L82.7141 32.124L82.4876 31.8851L82.2586 31.6482L82.0272 31.4131L81.7935 31.18L81.5574 30.9489L81.3189 30.7197L81.0781 30.4926L80.8349 30.2675L80.5895 30.0445L80.3418 29.8236L80.0919 29.6049L79.8397 29.3883L79.5853 29.1738L79.3288 28.9616L79.07 28.7516L78.8091 28.5439L78.5461 28.3385L78.281 28.1353L78.0138 27.9345L77.7446 27.7361L77.4733 27.54L77.2 27.3464L76.9247 27.1552L76.6475 26.9664L76.3683 26.7801L76.0872 26.5964L75.8043 26.4151L75.5194 26.2365L75.2328 26.0604L74.9443 25.8868L74.654 25.716L74.3619 25.5477L74.0682 25.3821L73.7727 25.2193L73.4755 25.0591L73.1767 24.9016L72.8762 24.747L72.5742 24.595L72.2705 24.4459L71.9653 24.2996L71.6586 24.1562L71.3504 24.0155L71.0408 23.8778L70.7297 23.743L70.4172 23.6111L70.1033 23.4821L69.7881 23.356L69.4715 23.233L69.1537 23.1129L68.8346 22.9959L68.5142 22.8818L68.1927 22.7708L67.87 22.6629L67.5461 22.5581L67.2212 22.4563L66.8951 22.3577L66.5681 22.2622L66.2399 22.1698L65.9108 22.0806L65.5808 21.9946L65.2498 21.9117L64.918 21.8321L64.5852 21.7557L64.2517 21.6825L63.9173 21.6126L63.5822 21.5459L63.2463 21.4825L62.9098 21.4224L62.5725 21.3656L62.2347 21.3121L61.8962 21.2619L61.5572 21.2151L61.2176 21.1716L60.8776 21.1315L60.537 21.0947L60.1961 21.0613L59.8547 21.0314L59.513 21.0048L59.1709 20.9816L58.8285 20.9618L58.4859 20.9455L58.143 20.9326L57.7999 20.9231L57.4567 20.9171L57.1133 20.9146L56.7698 20.9155L56.4263 20.9199L56.0828 20.9278L55.7392 20.9392L55.3957 20.954L55.0523 20.9724L54.709 20.9942L54.3659 21.0196L54.0229 21.0485L53.6801 21.0809L53.3376 21.1168L52.9954 21.1562L52.6535 21.1992L52.312 21.2457L51.9708 21.2957L51.6301 21.3493L51.2899 21.4064L50.9501 21.467L50.6109 21.5312L50.2723 21.5989L49.9343 21.6701L49.5969 21.7449L49.2602 21.8232L48.9242 21.9051L48.5889 21.9904L48.2544 22.0794L47.9208 22.1718L47.588 22.2678L47.2561 22.3673L46.9251 22.4704L46.595 22.5769L46.266 22.687L45.938 22.8006L45.6111 22.9177L45.2852 23.0383L44.9605 23.1624L44.637 23.29L44.3147 23.4211L43.9936 23.5556L43.6738 23.6937L43.3553 23.8352L43.0381 23.9801L42.7224 24.1285L42.408 24.2804L42.0951 24.4357L41.7837 24.5944L41.4738 24.7565L41.1654 24.9221L40.8587 25.091L40.5535 25.2634L40.2501 25.4391L39.9483 25.6181L39.6482 25.8006L39.3499 25.9864L39.0533 26.1755L38.7586 26.3679L38.4658 26.5636L38.1748 26.7626L37.8858 26.9649L37.5988 27.1705L37.3137 27.3793L37.0306 27.5914L36.7496 27.8066L36.4707 28.0251L36.1939 28.2468L35.9193 28.4716L35.6468 28.6996L35.3766 28.9308L35.1086 29.165L34.8429 29.4024L34.5795 29.6429L34.3185 29.8864L34.0598 30.133L33.8035 30.3826L33.5497 30.6353L33.2983 30.8909L33.0494 31.1495L32.8031 31.4111L32.5593 31.6755L32.3181 31.943L32.0795 32.2133L31.8436 32.4864L31.6103 32.7624L31.3798 33.0413L31.1519 33.3229L30.9269 33.6074L30.7046 33.8946L30.4851 34.1845L30.2685 34.4771L30.0548 34.7724L29.8439 35.0704L29.636 35.371L29.431 35.6743L29.2291 35.9801L29.0301 36.2885L28.8341 36.5994L28.6413 36.9128L28.4515 37.2287L28.2648 37.5471L28.0812 37.8679L27.9008 38.191L27.7236 38.5166L27.5496 38.8445L27.3789 39.1747L27.2113 39.5072L27.0471 39.842L26.8862 40.179L26.7286 40.5182L26.5743 40.8595L26.4234 41.203L26.276 41.5487L26.1319 41.8963L25.9912 42.2461L25.8541 42.5978L25.7204 42.9516L25.5902 43.3072L25.4635 43.6648L25.3403 44.0243L25.2207 44.3857L25.1047 44.7488L24.9923 45.1138L24.8835 45.4805L24.7783 45.849L24.6768 46.2191L24.579 46.5909L24.4848 46.9643L24.3943 47.3392L24.3076 47.7158L24.2246 48.0938L24.1453 48.4734L24.0699 48.8543L23.9981 49.2367L23.9302 49.6205L23.8661 50.0056L23.8059 50.392L23.7494 50.7797L23.6968 51.1686L23.6481 51.5586L23.6033 51.9499L23.5623 52.3422L23.5253 52.7357L23.4922 53.1302L23.463 53.5257L23.4377 53.9221L23.4164 54.3195L23.399 54.7178L23.3856 55.1169L23.3762 55.5168L23.3707 55.9175L23.3693 56.319L23.3718 56.7211L23.3784 57.1239L23.3889 57.5273L23.4035 57.9313L23.4222 58.3359L23.4448 58.7409L23.4715 59.1464L23.5023 59.5523L23.5371 59.9586L23.5759 60.3652L23.6189 60.7721L23.6659 61.1793L23.7169 61.5867L23.772 61.9943L23.8312 62.402L23.8945 62.8098L23.9619 63.2176L24.0333 63.6255L24.1088 64.0333L24.1884 64.4411L24.272 64.8487L24.3598 65.2562L24.4516 65.6635L24.5475 66.0706L24.6475 66.4774L24.7516 66.8839L24.8597 67.29L24.9719 67.6957L25.0882 68.1009L25.2085 68.5057L25.3329 68.9099L25.4613 69.3136L25.5938 69.7166L25.7304 70.119L25.8709 70.5207L26.0155 70.9217L26.1642 71.3219L26.3168 71.7212L26.4735 72.1197L26.6342 72.5173L26.7988 72.9139L26.9675 73.3096L27.1401 73.7042L27.3167 74.0977L27.4972 74.4902L27.6817 74.8814L27.8702 75.2715L28.0625 75.6603L28.2588 76.0478L28.459 76.434L28.6631 76.8189L28.871 77.2023L29.0828 77.5843L29.2985 77.9648L29.518 78.3437L29.7413 78.7211L29.9684 79.0968L30.1993 79.4709L30.434 79.8433L30.6725 80.214L30.9147 80.5829L31.1606 80.9499L31.4102 81.3151L31.6636 81.6784L31.9205 82.0398L32.1812 82.3991L32.4455 82.7564L32.7134 83.1117L32.9849 83.4649L33.2599 83.8159L33.5386 84.1647L33.8207 84.5114L34.1064 84.8557L34.3955 85.1978L34.6882 85.5375L34.9842 85.8748L35.2837 86.2097L35.5866 86.5421L35.8929 86.8721L36.2025 87.1995L36.5154 87.5243L36.8317 87.8465L37.1512 88.1661L37.474 88.483L37.8 88.7971L38.1292 89.1085L38.4615 89.4171L38.797 89.7229L39.1357 90.0258L39.4774 90.3258L39.8221 90.6228L40.1699 90.9169L40.5207 91.2079L40.8745 91.4959L41.2312 91.7808L41.5909 92.0626L41.9534 92.3412L42.3187 92.6166L42.6869 92.8888L43.0579 93.1577L43.4316 93.4234L43.808 93.6857L44.1872 93.9447L44.569 94.2002L44.9534 94.4524L45.3404 94.7011L45.73 94.9463L46.1221 95.1879L46.5167 95.4261L46.9137 95.6606L47.3131 95.8915L47.715 96.1188L48.1192 96.3424L48.5257 96.5623L48.9344 96.7784" stroke="#9B9CA0" stroke-opacity="0.2" stroke-width="2" stroke-linecap="round"/>
<path d="M67.5122 60.4237L67.5779 60.3804L67.6432 60.3362L67.708 60.2913L67.7723 60.2457L67.8363 60.1993L67.8997 60.1521L67.9627 60.1042L68.0251 60.0556L68.0871 60.0062L68.1486 59.9561L68.2096 59.9053L68.2701 59.8538L68.33 59.8015L68.3894 59.7485L68.4483 59.6948L68.5067 59.6404L68.5645 59.5853L68.6217 59.5294L68.6784 59.4729L68.7345 59.4157L68.79 59.3578L68.845 59.2992L68.8994 59.24L68.9531 59.18L69.0063 59.1194L69.0588 59.0581L69.1108 58.9962L69.1621 58.9336L69.2128 58.8704L69.2629 58.8065L69.3123 58.742L69.361 58.6768L69.4092 58.611L69.4566 58.5446L69.5034 58.4776L69.5495 58.4099L69.595 58.3417L69.6397 58.2728L69.6838 58.2033L69.7272 58.1333L69.7698 58.0627L69.8118 57.9915L69.853 57.9197L69.8936 57.8473L69.9334 57.7744L69.9724 57.701L70.0108 57.627L70.0484 57.5524L70.0852 57.4773L70.1213 57.4017L70.1567 57.3256L70.1913 57.2489L70.2251 57.1718L70.2582 57.0941L70.2904 57.0159L70.3219 56.9373L70.3526 56.8582L70.3826 56.7786L70.4117 56.6985L70.44 56.618L70.4675 56.537L70.4942 56.4556L70.5201 56.3737L70.5452 56.2914L70.5695 56.2087L70.5929 56.1256L70.6155 56.0421L70.6373 55.9581L70.6583 55.8738L70.6783 55.7891L70.6976 55.704L70.716 55.6185L70.7336 55.5327L70.7503 55.4465L70.7661 55.36L70.7811 55.2732L70.7952 55.186L70.8085 55.0985L70.8208 55.0106L70.8323 54.9225L70.843 54.8341L70.8527 54.7454L70.8616 54.6564L70.8696 54.5672L70.8766 54.4776L70.8828 54.3878L70.8881 54.2978L70.8926 54.2076L70.8961 54.1171L70.8987 54.0264L70.9004 53.9355L70.9012 53.8443L70.9011 53.753L70.9001 53.6615L70.8982 53.5699L70.8954 53.478L70.8917 53.386L70.887 53.2939L70.8814 53.2016L70.875 53.1092L70.8676 53.0167L70.8593 52.924L70.85 52.8313L70.8399 52.7384L70.8288 52.6455L70.8168 52.5525L70.8039 52.4594L70.79 52.3663L70.7753 52.2731L70.7596 52.1799L70.743 52.0867L70.7254 51.9934L70.707 51.9001L70.6876 51.8068L70.6673 51.7136L70.646 51.6203L70.6239 51.5271L70.6008 51.4339L70.5768 51.3408L70.5519 51.2477L70.526 51.1547L70.4992 51.0618L70.4715 50.9689L70.4429 50.8761L70.4134 50.7835L70.383 50.6909L70.3516 50.5985L70.3193 50.5062L70.2862 50.4141L70.2521 50.3221L70.217 50.2302L70.1811 50.1386L70.1443 50.0471L70.1066 49.9558L70.068 49.8647L70.0284 49.7738L69.988 49.6831L69.9467 49.5927L69.9045 49.5025L69.8614 49.4125L69.8174 49.3228L69.7725 49.2334L69.7267 49.1443L69.6801 49.0554L69.6326 48.9668L69.5842 48.8786L69.5349 48.7906L69.4848 48.703L69.4338 48.6157L69.3819 48.5287L69.3292 48.4421L69.2757 48.3559L69.2212 48.27L69.166 48.1846L69.1099 48.0995L69.0529 48.0148L68.9952 47.9305L68.9365 47.8466L68.8771 47.7632L68.8169 47.6802L68.7558 47.5976L68.6939 47.5155L68.6312 47.4339L68.5677 47.3527L68.5034 47.272L68.4383 47.1919L68.3725 47.1122L68.3058 47.033L68.2384 46.9543L68.1702 46.8762L68.1012 46.7986L68.0315 46.7216L67.961 46.6451L67.8897 46.5692L67.8177 46.4938L67.745 46.4191L67.6715 46.3449L67.5973 46.2713L67.5224 46.1983L67.4468 46.126L67.3705 46.0542L67.2934 45.9831L67.2157 45.9127L67.1373 45.8429L67.0582 45.7737L66.9784 45.7052L66.8979 45.6374L66.8168 45.5703L66.735 45.5039L66.6526 45.4381L66.5695 45.3731L66.4858 45.3088L66.4015 45.2452L66.3165 45.1824L66.231 45.1203L66.1448 45.0589L66.058 44.9983L65.9707 44.9384L65.8827 44.8793L65.7942 44.821L65.7051 44.7635L65.6154 44.7068L65.5252 44.6509L65.4345 44.5957L65.3432 44.5414L65.2514 44.4879L65.1591 44.4353L65.0662 44.3835L64.9729 44.3325L64.8791 44.2823L64.7847 44.2331L64.6899 44.1846L64.5947 44.1371L64.4989 44.0904L64.4027 44.0446L64.3061 43.9997L64.2091 43.9557L64.1116 43.9126L64.0137 43.8704L63.9154 43.8292L63.8167 43.7888L63.7176 43.7493L63.6181 43.7108L63.5183 43.6733L63.4181 43.6366L63.3175 43.6009L63.2166 43.5662L63.1154 43.5324L63.0138 43.4996L62.912 43.4678L62.8098 43.4369L62.7074 43.4071L62.6046 43.3782L62.5016 43.3503L62.3983 43.3233L62.2948 43.2974L62.191 43.2725L62.087 43.2486L61.9828 43.2257L61.8783 43.2038L61.7737 43.183L61.6688 43.1632L61.5638 43.1444L61.4586 43.1266L61.3532 43.1099L61.2477 43.0942L61.142 43.0795L61.0362 43.066L60.9303 43.0534L60.8243 43.0419L60.7182 43.0315L60.6119 43.0221L60.5056 43.0138L60.3993 43.0066L60.2929 43.0004L60.1864 42.9953L60.0799 42.9913L59.9733 42.9884L59.8668 42.9865L59.7602 42.9858L59.6537 42.9861L59.5472 42.9875L59.4407 42.99L59.3342 42.9936L59.2278 42.9982L59.1214 43.004L59.0151 43.0109L58.9089 43.0188L58.8028 43.0279L58.6968 43.0381L58.5909 43.0493L58.4851 43.0617L58.3795 43.0752L58.274 43.0898L58.1687 43.1055L58.0636 43.1222L57.9586 43.1401L57.8538 43.1592L57.7492 43.1793L57.6448 43.2005L57.5407 43.2228L57.4368 43.2463L57.3331 43.2708L57.2297 43.2965L57.1266 43.3232L57.0237 43.3511L56.9212 43.3801L56.8189 43.4101L56.7169 43.4413L56.6153 43.4736L56.514 43.507L56.4131 43.5415L56.3125 43.5771L56.2122 43.6138L56.1124 43.6515L56.0129 43.6904L55.9138 43.7304L55.8152 43.7715L55.7169 43.8136L55.6191 43.8569L55.5218 43.9012L55.4249 43.9466L55.3284 43.9931L55.2325 44.0407L55.137 44.0893L55.042 44.139L54.9475 44.1898L54.8535 44.2417L54.7601 44.2946L54.6672 44.3486L54.5748 44.4036L54.483 44.4597L54.3918 44.5169L54.3011 44.575L54.2111 44.6343L54.1216 44.6945L54.0328 44.7559L53.9446 44.8182L53.857 44.8816L53.77 44.9459L53.6837 45.0113L53.5981 45.0778L53.5131 45.1452L53.4288 45.2136L53.3452 45.283L53.2623 45.3535L53.1801 45.4249L53.0986 45.4973L53.0179 45.5706L52.9379 45.645L52.8586 45.7203L52.7801 45.7966L52.7024 45.8738L52.6255 45.952L52.5493 46.0311L52.4739 46.1112L52.3994 46.1921L52.3256 46.2741L52.2527 46.3569L52.1806 46.4406L52.1094 46.5253L52.039 46.6108L51.9694 46.6973L51.9008 46.7846L51.833 46.8728L51.766 46.9619L51.7 47.0518L51.6349 47.1426L51.5707 47.2343L51.5074 47.3267L51.4451 47.4201L51.3836 47.5142L51.3231 47.6092L51.2636 47.7049L51.205 47.8015L51.1474 47.8989L51.0908 47.997L51.0352 48.096L50.9805 48.1957L50.9269 48.2961L50.8742 48.3973L50.8226 48.4993L50.7719 48.602L50.7223 48.7054L50.6738 48.8095L50.6263 48.9143L50.5798 49.0198L50.5344 49.1261L50.49 49.233L50.4467 49.3405L50.4045 49.4488L50.3634 49.5576L50.3233 49.6671L50.2844 49.7773L50.2465 49.8881L50.2098 49.9994L50.1741 50.1114L50.1396 50.224L50.1062 50.3371L50.0739 50.4509L50.0428 50.5652L50.0128 50.68L49.9839 50.7954L49.9562 50.9113L49.9297 51.0277L49.9043 51.1446L49.8801 51.262L49.857 51.3799L49.8352 51.4983L49.8145 51.6171L49.7949 51.7364L49.7766 51.8562L49.7595 51.9763L49.7435 52.0969L49.7288 52.2179L49.7153 52.3393L49.7029 52.4611L49.6918 52.5832L49.6819 52.7057L49.6732 52.8286L49.6658 52.9518L49.6595 53.0753L49.6545 53.1991L49.6508 53.3233L49.6482 53.4477L49.6469 53.5724L49.6468 53.6974L49.648 53.8226L49.6504 53.9481L49.6541 54.0738L49.659 54.1997L49.6652 54.3258L49.6726 54.4521L49.6813 54.5786L49.6912 54.7053L49.7024 54.8321L49.7148 54.9591L49.7285 55.0862L49.7435 55.2134L49.7597 55.3407L49.7772 55.4681L49.7959 55.5956L49.8159 55.7232L49.8372 55.8508L49.8598 55.9784L49.8836 56.1061L49.9086 56.2338L49.935 56.3615L49.9626 56.4892L49.9915 56.6169L50.0216 56.7445L50.053 56.8721L50.0857 56.9996L50.1196 57.1271L50.1548 57.2545L50.1912 57.3817L50.2289 57.5089L50.2679 57.6359L50.3081 57.7628L50.3496 57.8895L50.3924 58.0161L50.4363 58.1425L50.4816 58.2687L50.5281 58.3946L50.5758 58.5204L50.6248 58.6459L50.675 58.7712L50.7264 58.8963L50.7791 59.021L50.833 59.1455L50.8882 59.2697L50.9446 59.3936L51.0022 59.5171L51.061 59.6403L51.121 59.7632L51.1823 59.8857L51.2447 60.0078L51.3084 60.1295L51.3733 60.2509L51.4393 60.3718L51.5066 60.4923L51.575 60.6123L51.6447 60.7319L51.7155 60.851L51.7875 60.9697L51.8606 61.0878L51.9349 61.2054L52.0104 61.3226L52.087 61.4392L52.1648 61.5552L52.2437 61.6707L52.3238 61.7856L52.405 61.8999L52.4873 62.0137L52.5707 62.1268L52.6553 62.2393L52.7409 62.3512L52.8277 62.4624L52.9155 62.5729L53.0045 62.6828L53.0945 62.792L53.1856 62.9006L53.2777 63.0084L53.371 63.1154L53.4652 63.2218L53.5605 63.3274L53.6569 63.4322L53.7543 63.5363L53.8527 63.6396L53.9521 63.7421L54.0525 63.8438L54.1539 63.9446L54.2563 64.0447L54.3597 64.1439L54.4641 64.2422L54.5694 64.3397L54.6757 64.4363L54.7829 64.532L54.8911 64.6268L55.0002 64.7207L55.1102 64.8137L55.2211 64.9058L55.3329 64.9969L55.4456 65.087L55.5592 65.1762L55.6737 65.2644L55.789 65.3516L55.9052 65.4378L56.0222 65.5231L56.14 65.6072L56.2587 65.6904L56.3782 65.7725L56.4985 65.8536L56.6195 65.9336L56.7414 66.0125L56.864 66.0903L56.9874 66.1671L57.1115 66.2427L57.2364 66.3172L57.3619 66.3906L57.4882 66.4629L57.6152 66.5341L57.7429 66.604L57.8713 66.6729L58.0003 66.7405L58.13 66.807L58.2603 66.8723L58.3913 66.9364L58.5229 66.9993L58.6551 67.0609L58.7879 67.1214L58.9213 67.1806L59.0552 67.2385L59.1897 67.2953L59.3248 67.3507L59.4603 67.4049L59.5964 67.4579L59.7331 67.5095L59.8702 67.5599L60.0078 67.6089L60.1458 67.6567L60.2843 67.7031L60.4233 67.7483L60.5627 67.7921L60.7025 67.8345L60.8427 67.8756L60.9833 67.9154L61.1243 67.9539L61.2656 67.9909L61.4073 68.0266L61.5494 68.0609L61.6917 68.0939L61.8344 68.1255L61.9773 68.1556L62.1206 68.1844L62.2641 68.2118L62.4078 68.2377L62.5518 68.2623L62.6961 68.2854L62.8405 68.3071L62.9851 68.3274L63.13 68.3462L63.2749 68.3636L63.4201 68.3796L63.5654 68.3941L63.7108 68.4071L63.8563 68.4187L64.0019 68.4289L64.1476 68.4375L64.2933 68.4447L64.4392 68.4505L64.585 68.4547L64.7309 68.4575L64.8768 68.4588L65.0227 68.4586L65.1685 68.4569L65.3143 68.4538L65.4601 68.4491L65.6058 68.4429L65.7514 68.4353L65.897 68.4261L66.0424 68.4154L66.1877 68.4033L66.3329 68.3896L66.4779 68.3744L66.6227 68.3577L66.7673 68.3395L66.9118 68.3198L67.056 68.2985L67.2 68.2758L67.3438 68.2515L67.4873 68.2257L67.6305 68.1984L67.7735 68.1696L67.9161 68.1393L68.0584 68.1074L68.2004 68.0741L68.342 68.0392L68.4833 68.0028L68.6242 67.9649L68.7647 67.9255L68.9048 67.8845L69.0444 67.8421L69.1836 67.7981L69.3224 67.7526L69.4607 67.7057L69.5985 67.6572L69.7358 67.6072L69.8726 67.5557L70.0089 67.5027L70.1446 67.4482L70.2797 67.3922L70.4143 67.3347L70.5483 67.2758L70.6817 67.2153L70.8145 67.1534L70.9467 67.09L71.0782 67.0251L71.209 66.9587L71.3392 66.8909L71.4686 66.8216L71.5974 66.7508L71.7254 66.6786L71.8528 66.6049L71.9793 66.5298L72.1051 66.4532L72.2301 66.3752L72.3544 66.2958L72.4778 66.2149L72.6004 66.1326L72.7222 66.0489L72.8431 65.9638L72.9632 65.8772L73.0824 65.7893L73.2007 65.7L73.3181 65.6093L73.4346 65.5172L73.5501 65.4237L73.6647 65.3289L73.7784 65.2327L73.8911 65.1351L74.0028 65.0362L74.1135 64.936L74.2232 64.8344L74.3318 64.7315L74.4395 64.6273L74.546 64.5218L74.6516 64.415L74.756 64.3068L74.8594 64.1974L74.9616 64.0867L75.0628 63.9748L75.1628 63.8616L75.2617 63.7471L75.3594 63.6314L75.456 63.5145L75.5514 63.3963L75.6456 63.277L75.7386 63.1564L75.8304 63.0346L75.921 62.9117L76.0103 62.7876L76.0984 62.6623L76.1853 62.5358L76.2709 62.4083L76.3552 62.2795L76.4382 62.1497L76.5199 62.0188L76.6003 61.8867L76.6794 61.7536L76.7571 61.6194L76.8335 61.4841L76.9086 61.3478L76.9823 61.2104L77.0546 61.072L77.1255 60.9326L77.195 60.7922L77.2631 60.6507L77.3299 60.5083L77.3951 60.365L77.459 60.2206L77.5214 60.0754L77.5824 59.9292L77.6419 59.782L77.6999 59.634L77.7565 59.4851L77.8115 59.3353L77.8651 59.1846L77.9172 59.0331L77.9677 58.8807L78.0168 58.7276L78.0643 58.5736L78.1102 58.4188L78.1547 58.2632L78.1976 58.1068L78.2389 57.9498L78.2786 57.7919L78.3168 57.6333L78.3534 57.4741L78.3884 57.3141L78.4218 57.1535L78.4536 56.9921L78.4839 56.8302L78.5124 56.6675L78.5394 56.5043L78.5648 56.3405L78.5885 56.176L78.6106 56.011L78.631 55.8455L78.6498 55.6794L78.667 55.5127L78.6824 55.3456L78.6963 55.1779L78.7084 55.0098L78.7189 54.8412L78.7277 54.6722L78.7348 54.5027L78.7403 54.3328L78.744 54.1625L78.7461 53.9918L78.7464 53.8208L78.7451 53.6494L78.7421 53.4777L78.7373 53.3056L78.7309 53.1333L78.7227 52.9606L78.7128 52.7877L78.7012 52.6146L78.6879 52.4412L78.6729 52.2676L78.6561 52.0938L78.6376 51.9198L78.6174 51.7457L78.5955 51.5714L78.5718 51.397L78.5464 51.2224L78.5193 51.0478L78.4904 50.8731L78.4599 50.6983L78.4275 50.5235L78.3935 50.3487L78.3577 50.1739L78.3202 49.999L78.2809 49.8242L78.2399 49.6495L78.1972 49.4748L78.1528 49.3002L78.1066 49.1257L78.0587 48.9513L78.0091 48.777L77.9577 48.6029L77.9046 48.4289L77.8498 48.2552L77.7933 48.0817L77.7351 47.9083L77.6751 47.7353L77.6135 47.5625L77.5501 47.3899L77.485 47.2177L77.4182 47.0457L77.3498 46.8742L77.2796 46.7029L77.2077 46.532L77.1342 46.3615L77.0589 46.1915L76.982 46.0218L76.9034 45.8526L76.8231 45.6838L76.7412 45.5155L76.6576 45.3477L76.5724 45.1805L76.4855 45.0137L76.3969 44.8475L76.3067 44.6819L76.2149 44.5168L76.1215 44.3524L76.0264 44.1885L75.9297 44.0253L75.8314 43.8628L75.7315 43.7009L75.63 43.5398L75.5269 43.3793L75.4223 43.2196L75.316 43.0606L75.2082 42.9023L75.0989 42.7449L74.9879 42.5882L74.8755 42.4324L74.7615 42.2774L74.646 42.1232L74.529 41.9699L74.4104 41.8175L74.2904 41.666L74.1689 41.5154L74.0458 41.3657L73.9214 41.217L73.7954 41.0692L73.668 40.9225L73.5392 40.7767L73.4089 40.632L73.2772 40.4883L73.1441 40.3456L73.0097 40.204L72.8738 40.0635L72.7365 39.9241L72.5979 39.7858L72.4579 39.6487L72.3165 39.5127L72.1739 39.3779L72.0299 39.2442L71.8846 39.1117L71.738 38.9805L71.5901 38.8505L71.441 38.7217L71.2905 38.5942L71.1389 38.468L70.986 38.3431L70.8319 38.2194L70.6765 38.0971L70.52 37.9761L70.3623 37.8565L70.2034 37.7383L70.0434 37.6214L69.8822 37.5059L69.72 37.3918L69.5565 37.2792L69.392 37.168L69.2265 37.0582L69.0598 36.9499L68.8921 36.8431L68.7233 36.7378L68.5536 36.634L68.3828 36.5317L68.211 36.431L68.0382 36.3318L67.8645 36.2341L67.6898 36.1381L67.5142 36.0436L67.3377 35.9507L67.1603 35.8594L66.982 35.7698L66.8028 35.6818L66.6228 35.5954L66.4419 35.5107L66.2603 35.4277L66.0778 35.3464L65.8945 35.2667L65.7105 35.1888L65.5257 35.1126L65.3402 35.0381L65.154 34.9654L64.9671 34.8944L64.7795 34.8251L64.5912 34.7577L64.4023 34.692L64.2127 34.6281L64.0226 34.5661L63.8318 34.5058L63.6405 34.4474L63.4486 34.3908L63.2562 34.336L63.0633 34.2831L62.8698 34.2321L62.6759 34.1829L62.4815 34.1356L62.2867 34.0902L62.0914 34.0467L61.8958 34.0051L61.6997 33.9654L61.5033 33.9276L61.3065 33.8918L61.1094 33.8578L60.912 33.8259L60.7143 33.7958L60.5163 33.7678L60.3181 33.7417L60.1196 33.7175L59.921 33.6954L59.7221 33.6752L59.523 33.657L59.3238 33.6408L59.1245 33.6266L58.925 33.6144L58.7255 33.6042L58.5259 33.5961L58.3262 33.5899L58.1265 33.5858L57.9267 33.5837L57.727 33.5836L57.5273 33.5856L57.3276 33.5896L57.1281 33.5957L56.9286 33.6038L56.7291 33.614L56.5299 33.6262L56.3308 33.6405L56.1318 33.6568L55.933 33.6752L55.7345 33.6957L55.5361 33.7182L55.338 33.7428L55.1402 33.7695L54.9427 33.7982L54.7455 33.829L54.5486 33.8619L54.3521 33.8969L54.1559 33.9339L53.9602 33.973L53.7648 34.0142L53.5699 34.0575L53.3754 34.1029L53.1815 34.1503L52.988 34.1998L52.795 34.2514L52.6026 34.305L52.4107 34.3607L52.2194 34.4185L52.0287 34.4784L51.8386 34.5403L51.6492 34.6043L51.4604 34.6703L51.2723 34.7385L51.0849 34.8086L50.8982 34.8809L50.7123 34.9551L50.5271 35.0315L50.3427 35.1098L50.1591 35.1902L49.9763 35.2727L49.7944 35.3572L49.6134 35.4437L49.4332 35.5322L49.2539 35.6227L49.0755 35.7153L48.8981 35.8099L48.7217 35.9064L48.5462 36.005L48.3717 36.1055L48.1983 36.2081L48.0259 36.3126L47.8546 36.4191L47.6843 36.5275L47.5151 36.6379L47.3471 36.7503L47.1802 36.8646L47.0144 36.9808L46.8498 37.099L46.6865 37.2191L46.5243 37.341L46.3634 37.4649L46.2037 37.5907L46.0453 37.7184L45.8882 37.8479L45.7323 37.9793L45.5779 38.1126L45.4247 38.2477L45.2729 38.3847L45.1225 38.5234L44.9735 38.664L44.8259 38.8064L44.6798 38.9506L44.5351 39.0966L44.3918 39.2443L44.2501 39.3938L44.1099 39.5451L43.9711 39.6981L43.8339 39.8528L43.6983 40.0093L43.5643 40.1674L43.4318 40.3272L43.3009 40.4887L43.1717 40.6519L43.0441 40.8167L42.9181 40.9832L42.7938 41.1512L42.6712 41.3209L42.5503 41.4922L42.4312 41.665L42.3137 41.8395L42.198 42.0154L42.0841 42.193L41.9719 42.372L41.8616 42.5525L41.753 42.7346L41.6463 42.9181L41.5414 43.1031L41.4383 43.2895L41.3372 43.4773L41.2379 43.6666L41.1404 43.8572L41.0449 44.0493L40.9514 44.2427L40.8597 44.4374L40.77 44.6335L40.6823 44.8309L40.5965 45.0296L40.5127 45.2296L40.431 45.4308L40.3512 45.6333L40.2734 45.837L40.1977 46.0419L40.124 46.248L40.0524 46.4552L39.9829 46.6637L39.9154 46.8732L39.85 47.0839L39.7867 47.2956L39.7256 47.5084L39.6665 47.7223L39.6096 47.9372L39.5549 48.1532L39.5023 48.3701L39.4518 48.588L39.4035 48.8069L39.3574 49.0267L39.3135 49.2474L39.2718 49.469L39.2323 49.6915L39.195 49.9149L39.1599 50.1391L39.1271 50.364L39.0965 50.5898L39.0682 50.8164L39.0421 51.0437L39.0183 51.2717L38.9967 51.5005L38.9774 51.7299L38.9604 51.96L38.9457 52.1907L38.9333 52.422L38.9231 52.654L38.9153 52.8865L38.9098 53.1195L38.9066 53.3531L38.9058 53.5872L38.9072 53.8218L38.911 54.0569L38.9171 54.2924L38.9256 54.5283L38.9364 54.7645L38.9496 55.0012L38.9651 55.2382L38.9829 55.4755L39.0031 55.7132L39.0257 55.9511L39.0506 56.1892L39.0779 56.4276L39.1076 56.6662L39.1396 56.905L39.174 57.1439L39.2108 57.383L39.2499 57.6222L39.2914 57.8614L39.3353 58.1007L39.3815 58.3401L39.4301 58.5795L39.4811 58.8188L39.5345 59.0582L39.5902 59.2974L39.6483 59.5366L39.7088 59.7757L39.7716 60.0147L39.8368 60.2535L39.9044 60.4921L39.9743 60.7305L40.0466 60.9687L40.1213 61.2066L40.1983 61.4442L40.2777 61.6816L40.3594 61.9186L40.4434 62.1552L40.5298 62.3915L40.6185 62.6274L40.7096 62.8629L40.803 63.0979L40.8987 63.3324L40.9967 63.5664L41.097 63.7999L41.1997 64.0329L41.3046 64.2653L41.4119 64.497L41.5214 64.7282L41.6332 64.9587L41.7473 65.1885L41.8637 65.4177L41.9823 65.6461L42.1031 65.8738L42.2263 66.1007L42.3516 66.3268L42.4792 66.552L42.609 66.7765L42.741 67L42.8753 67.2227L43.0117 67.4445L43.1503 67.6653L43.2911 67.8851L43.434 68.104L43.5792 68.3219L43.7264 68.5387L43.8758 68.7544L44.0273 68.9691L44.1809 69.1826L44.3367 69.395L44.4945 69.6063L44.6544 69.8164L44.8163 70.0252L44.9804 70.2329L45.1464 70.4393L45.3145 70.6444L45.4846 70.8482L45.6567 71.0507L45.8308 71.2518L46.0069 71.4516L46.1849 71.65L46.3649 71.847L46.5468 72.0425L46.7307 72.2366L46.9164 72.4292L47.1041 72.6203L47.2936 72.8099L47.4849 72.9979L47.6781 73.1843L47.8732 73.3692L48.07 73.5524L48.2687 73.734L48.4691 73.914L48.6713 74.0923L48.8752 74.2688L49.0809 74.4437L49.2882 74.6168L49.4973 74.7881L49.708 74.9577L49.9204 75.1254L50.1345 75.2913L50.3501 75.4554L50.5674 75.6176L50.7862 75.7779L51.0066 75.9363L51.2286 76.0928L51.4521 76.2474L51.6771 76.3999L51.9035 76.5505L52.1315 76.6991L52.3609 76.8457L52.5917 76.9902L52.8239 77.1326L53.0575 77.273L53.2925 77.4113L53.5288 77.5474L53.7664 77.6815L54.0054 77.8133L54.2456 77.943L54.487 78.0705L54.7298 78.1958L54.9737 78.3189L55.2188 78.4398L55.4651 78.5584L55.7125 78.6747L55.9611 78.7887L56.2107 78.9005L56.4615 79.0099L56.7132 79.1169L56.9661 79.2217L57.2199 79.324L57.4747 79.424L57.7305 79.5216L57.9872 79.6167L58.2448 79.7095L58.5033 79.7997L58.7627 79.8876L59.0229 79.973L59.2839 80.0559L59.5458 80.1363L59.8084 80.2142L60.0717 80.2895L60.3357 80.3624L60.6004 80.4327L60.8658 80.5004L61.1319 80.5656L61.3985 80.6281L61.6657 80.6881L61.9335 80.7455L62.2019 80.8003L62.4707 80.8524L62.74 80.9019L63.0098 80.9488L63.28 80.993L63.5506 81.0345L63.8216 81.0734L64.093 81.1095L64.3647 81.143L64.6366 81.1738L64.9089 81.2018L65.1813 81.2272L65.454 81.2498L65.7269 81.2697L66 81.2868L66.2732 81.3012L66.5465 81.3128L66.8198 81.3217L67.0933 81.3278L67.3667 81.3311L67.6402 81.3316L67.9136 81.3293L68.187 81.3243L68.4602 81.3164L68.7334 81.3058L69.0064 81.2923L69.2793 81.276L69.5519 81.2569L69.8244 81.235L70.0966 81.2103L70.3685 81.1827L70.64 81.1523L70.9113 81.1191L71.1822 81.083L71.4527 81.0441L71.7228 81.0024L71.9924 80.9578L72.2615 80.9104L72.5302 80.8601L72.7983 80.807L73.0658 80.751L73.3328 80.6922L73.5991 80.6306L73.8648 80.5661L74.1298 80.4988L74.3941 80.4287L74.6577 80.3557L74.9206 80.2798L75.1826 80.2011L75.4438 80.1196L75.7042 80.0353L75.9637 79.9482L76.2223 79.8582L76.48 79.7654L76.7367 79.6697L76.9924 79.5713L77.2472 79.4701L77.5009 79.366L77.7535 79.2592L78.005 79.1495L78.2554 79.0371L78.5047 78.9219L78.7528 78.8039L78.9997 78.6831L79.2453 78.5596L79.4897 78.4333L79.7328 78.3043L79.9746 78.1725L80.2151 78.038L80.4541 77.9008L80.6918 77.7608L80.9281 77.6182L81.1629 77.4728L81.3963 77.3247L81.6281 77.174L81.8584 77.0206L82.0872 76.8645L82.3144 76.7058L82.5399 76.5445L82.7639 76.3805L82.9862 76.2139L83.2068 76.0447L83.4257 75.8729L83.6428 75.6985L83.8582 75.5215L84.0718 75.342L84.2836 75.16L84.4936 74.9754L84.7017 74.7883L84.9079 74.5987L85.1122 74.4066L85.3146 74.212L85.515 74.015L85.7135 73.8156L85.9099 73.6137L86.1043 73.4094L86.2966 73.2026L86.4869 72.9936L86.6751 72.7821L86.8611 72.5683L87.045 72.3522L87.2267 72.1337L87.4062 71.913L87.5835 71.6899L87.7586 71.4646L87.9314 71.2371L88.1019 71.0074L88.2701 70.7754L88.436 70.5412L88.5996 70.3049L88.7607 70.0665L88.9195 69.8259L89.0759 69.5832L89.2298 69.3384L89.3813 69.0915L89.5303 68.8426L89.6769 68.5917L89.8209 68.3388L89.9624 68.0838L90.1013 67.827L90.2377 67.5681L90.3714 67.3074L90.5026 67.0448L90.6312 66.7803L90.757 66.514L90.8803 66.2458L91.0008 65.9758L91.1187 65.7041L91.2338 65.4306L91.3462 65.1553L91.4559 64.8784L91.5628 64.5998L91.6669 64.3195L91.7682 64.0376L91.8667 63.7541L91.9624 63.469L92.0552 63.1824L92.1452 62.8942L92.2323 62.6045L92.3165 62.3134L92.3978 62.0208L92.4761 61.7267L92.5516 61.4313L92.6241 61.1345L92.6936 60.8364L92.7602 60.5369L92.8238 60.2362L92.8844 59.9342L92.942 59.631L92.9966 59.3266L93.0481 59.021L93.0966 58.7142L93.142 58.4063L93.1844 58.0974L93.2237 57.7874L93.2599 57.4763L93.293 57.1643L93.323 56.8513L93.3499 56.5373L93.3737 56.2225L93.3944 55.9067L93.4119 55.5901L93.4262 55.2727L93.4374 54.9545L93.4455 54.6355L93.4504 54.3158L93.452 53.9954L93.4506 53.6743L93.4459 53.3526L93.438 53.0303L93.4269 52.7074L93.4126 52.384L93.3952 52.0601L93.3744 51.7357L93.3505 51.4108L93.3234 51.0855L93.293 50.7599L93.2594 50.4339L93.2225 50.1075L93.1824 49.7809L93.1391 49.454L93.0925 49.127L93.0427 48.7997L92.9896 48.4722L92.9333 48.1447L92.8738 47.817L92.811 47.4893L92.7449 47.1616L92.6756 46.8339L92.6031 46.5062L92.5273 46.1786L92.4483 45.8511L92.366 45.5238L92.2805 45.1966L92.1917 44.8696L92.0997 44.5429L92.0045 44.2164L91.906 43.8903L91.8043 43.5645L91.6994 43.239L91.5913 42.914L91.4799 42.5895L91.3654 42.2654L91.2476 41.9418L91.1266 41.6187L91.0025 41.2963L90.8751 40.9744L90.7446 40.6532L90.6109 40.3327L90.474 40.0129L90.334 39.6938L90.1908 39.3756L90.0445 39.0581L89.895 38.7415L89.7425 38.4258L89.5868 38.1109L89.4279 37.7971L89.266 37.4842L89.101 37.1723L88.933 36.8615L88.7618 36.5518L88.5876 36.2431L88.4104 35.9357L88.2301 35.6294L88.0468 35.3243L87.8605 35.0205L87.6712 34.718L87.4789 34.4168L87.2837 34.1169L87.0855 33.8185L86.8844 33.5214L86.6803 33.2258L86.4733 32.9316L86.2634 32.639L86.0507 32.348L85.8351 32.0585L85.6166 31.7706L85.3953 31.4844L85.1712 31.1998L84.9443 30.917L84.7146 30.6359L84.4821 30.3565L84.2469 30.079L84.009 29.8033L83.7684 29.5295L83.5251 29.2576L83.2791 28.9876L83.0304 28.7195L82.7791 28.4535L82.5253 28.1895L82.2688 27.9275L82.0097 27.6677L81.7481 27.4099L81.484 27.1543L81.2174 26.9008L80.9483 26.6496L80.6767 26.4006L80.4027 26.1539L80.1262 25.9094L79.8474 25.6673L79.5662 25.4276L79.2827 25.1902L78.9968 24.9552L78.7086 24.7227L78.4182 24.4926L78.1255 24.2651L77.8306 24.04L77.5335 23.8176L77.2342 23.5976L76.9328 23.3803L76.6293 23.1657L76.3236 22.9537L76.0159 22.7444L75.7062 22.5378L75.3944 22.3339L75.0807 22.1328L74.765 21.9345L74.4474 21.739L74.1278 21.5464L73.8064 21.3566L73.4832 21.1697L73.1581 20.9858L72.8313 20.8048L72.5027 20.6267L72.1723 20.4516L71.8403 20.2796L71.5066 20.1106L71.1713 19.9447L70.8344 19.7818L70.4958 19.622L70.1558 19.4654L69.8142 19.3119L69.4712 19.1616L69.1267 19.0145L68.7808 18.8707L68.4334 18.73L68.0848 18.5926L67.7348 18.4585L67.3836 18.3277L67.031 18.2002L66.6773 18.076L66.3224 17.9552L65.9663 17.8378L65.6091 17.7238L65.2508 17.6131L64.8915 17.5059L64.5311 17.4022L64.1698 17.3019L63.8075 17.2051L63.4443 17.1118L63.0802 17.0221L62.7152 16.9358L62.3495 16.8531L61.983 16.774L61.6157 16.6984L61.2477 16.6265L60.8791 16.5581L60.5098 16.4934L60.14 16.4323L59.7696 16.3749L59.3986 16.3211L59.0272 16.271L58.6553 16.2245L58.283 16.1818L57.9104 16.1428L57.5374 16.1075L57.1641 16.076L56.7905 16.0482L56.4167 16.0241L56.0427 16.0038L55.6685 15.9873L55.2943 15.9746L54.9199 15.9656L54.5455 15.9605L54.1711 15.9592L53.7968 15.9617L53.4225 15.968L53.0483 15.9781L52.6743 15.9921L52.3005 16.0099L51.9269 16.0316L51.5535 16.0571L51.1805 16.0865L50.8078 16.1198L50.4355 16.1569L50.0636 16.1979L49.6921 16.2428L49.3212 16.2915L48.9507 16.3442L48.5809 16.4007L48.2116 16.4611L47.843 16.5254L47.4751 16.5936L47.1079 16.6657L46.7415 16.7417L46.3759 16.8216L46.0111 16.9053L45.6472 16.993L45.2842 17.0845L44.9222 17.18L44.5611 17.2793L44.2011 17.3825L43.8422 17.4896L43.4844 17.6006L43.1277 17.7154L42.7722 17.8341L42.418 17.9567L42.065 18.0831L41.7133 18.2135L41.3629 18.3476L41.014 18.4856L40.6664 18.6275L40.3203 18.7731L39.9757 18.9226L39.6326 19.076L39.2911 19.2331L38.9511 19.394L38.6129 19.5588L38.2763 19.7273L37.9414 19.8996L37.6083 20.0756L37.277 20.2555L36.9475 20.439L36.6198 20.6263L36.2941 20.8173L35.9703 21.0121L35.6485 21.2105L35.3287 21.4126L35.011 21.6184L34.6953 21.8278L34.3818 22.0409L34.0704 22.2576L33.7612 22.478L33.4542 22.7019L33.1495 22.9294L32.8471 23.1605L32.547 23.3952L32.2494 23.6334L31.9541 23.8751L31.6612 24.1203L31.3708 24.369L31.083 24.6211L30.7976 24.8767L30.5149 25.1358L30.2347 25.3982L29.9572 25.6641L29.6824 25.9333L29.4103 26.2058L29.1409 26.4817L28.8744 26.7609L28.6106 27.0434L28.3496 27.3292L28.0916 27.6182L27.8364 27.9104L27.5842 28.2058L27.3349 28.5044L27.0886 28.8061L26.8454 29.1109L26.6052 29.4189L26.3681 29.7299L26.1342 30.044L25.9034 30.3611L25.6757 30.6812L25.4513 31.0043L25.2301 31.3303L25.0122 31.6592L24.7976 31.9911L24.5863 32.3257L24.3783 32.6633L24.1738 33.0036L23.9726 33.3467L23.7749 33.6926L23.5806 34.0411L23.3899 34.3924L23.2026 34.7463L23.0189 35.1029L22.8388 35.462L22.6622 35.8238L22.4892 36.188L22.3199 36.5548L22.1543 36.924L21.9924 37.2957L21.8341 37.6697L21.6796 38.0462L21.5289 38.425L21.3819 38.8061L21.2388 39.1894L21.0995 39.575L20.964 39.9628L20.8324 40.3528L20.7047 40.7449L20.5809 41.1391L20.461 41.5354L20.3451 41.9337L20.2332 42.334L20.1252 42.7362L20.0213 43.1404L19.9214 43.5464L19.8255 43.9543L19.7337 44.364L19.646 44.7755L19.5624 45.1887L19.4829 45.6035L19.4075 46.0201L19.3363 46.4382L19.2692 46.858L19.2064 47.2792L19.1477 47.702L19.0932 48.1262L19.043 48.5518L18.9969 48.9788L18.9552 49.4072L18.9177 49.8368L18.8844 50.2677L18.8555 50.6998L18.8308 51.1331L18.8105 51.5675L18.7944 52.003L18.7827 52.4395L18.7754 52.8771L18.7724 53.3156L18.7737 53.755L18.7794 54.1953L18.7895 54.6365L18.804 55.0784L18.8228 55.5211L18.8461 55.9645L18.8737 56.4085L18.9058 56.8532L18.9423 57.2985L18.9832 57.7442L19.0285 58.1905L19.0782 58.6372L19.1324 59.0843L19.191 59.5318L19.2541 59.9796L19.3216 60.4276L19.3935 60.8759L19.4699 61.3243L19.5507 61.7729L19.636 62.2215L19.7257 62.6702L19.8199 63.1189L19.9185 63.5676L20.0215 64.0161L20.129 64.4645L20.241 64.9127L20.3574 65.3607L20.4782 65.8084L20.6034 66.2558L20.7331 66.7028L20.8672 67.1494L21.0057 67.5956L21.1487 68.0412L21.296 68.4863L21.4477 68.9307L21.6039 69.3746L21.7644 69.8177L21.9293 70.2601L22.0986 70.7017L22.2723 71.1425L22.4503 71.5824L22.6327 72.0214L22.8194 72.4594L23.0104 72.8964L23.2057 73.3323L23.4054 73.7671L23.6093 74.2008L23.8176 74.6333L24.0301 75.0645L24.2468 75.4944L24.4678 75.923L24.693 76.3502L24.9225 76.776L25.1561 77.2003L25.394 77.623L25.636 78.0443L25.8821 78.4639L26.1324 78.8818L26.3868 79.298L26.6453 79.7125L26.9079 80.1252L27.1746 80.536L27.4453 80.945L27.72 81.352L27.9988 81.757L28.2815 82.16L28.5682 82.561L28.8589 82.9598L29.1535 83.3565L29.4519 83.751L29.7543 84.1433L30.0605 84.5332L30.3706 84.9208L30.6845 85.3061L31.0021 85.6889L31.3235 86.0693L31.6487 86.4471L31.9776 86.8224L32.3101 87.1951L32.6463 87.5652L32.9862 87.9326L33.3296 88.2973L33.6767 88.6592L34.0272 89.0183L34.3813 89.3745L34.739 89.7279L35.1 90.0783L35.4645 90.4258L35.8324 90.7703L36.2037 91.1116L36.5783 91.4499L36.9563 91.7851L37.3375 92.1171L37.722 92.4459L38.1097 92.7714L38.5005 93.0936L38.8946 93.4125L39.2917 93.728L39.6919 94.0401L40.0952 94.3488L40.5015 94.6539L40.9108 94.9556L41.323 95.2537L41.7381 95.5481L42.1561 95.839L42.5769 96.1261L43.0005 96.4096L43.4269 96.6893L43.856 96.9652L44.2879 97.2373L44.7223 97.5056L45.1594 97.77L45.599 98.0304L46.0412 98.2869L46.4858 98.5394L46.9329 98.7879L47.3824 99.0323" stroke="#9B9CA0" stroke-opacity="0.2" stroke-width="4" stroke-linecap="round"/>
</svg>
