<svg width="63" height="50" viewBox="0 0 63 50" fill="none" xmlns="http://www.w3.org/2000/svg">
<path fill-rule="evenodd" clip-rule="evenodd" d="M42.4085 1.20835C45.9841 0.0505775 50.1095 0.0732791 53.4811 1.80427C61.2671 5.81108 64.6388 16.1403 61.5051 27.0824C60.0998 31.9916 57.6235 36.7589 52.3875 41.566C47.1515 46.3787 39.8868 49.2164 36.5208 49.2164C36.2376 49.2209 35.9562 49.1693 35.6929 49.0648C35.4295 48.9602 35.1894 48.8046 34.9862 48.6068C34.783 48.4091 34.6207 48.1732 34.5087 47.9126C34.3967 47.652 34.3372 47.3718 34.3335 47.0881C34.3335 45.9133 35.3308 44.9598 36.5208 44.9598C40.3685 44.9598 43.8082 42.8599 47.8825 39.7725C50.9991 37.4059 53.4358 34.3809 54.7788 31.7476C57.3571 26.7078 57.4422 19.6022 53.2771 17.7123C51.2768 19.903 48.6702 21.1743 45.5365 21.1743C38.7365 21.1743 34.7302 15.6976 34.9058 10.7373C35.0702 5.99837 38.0792 2.62152 42.4085 1.20835ZM8.40849 1.20835C11.9842 0.0505775 16.1095 0.0732791 19.4812 1.80427C27.2672 5.81108 30.6388 16.1403 27.5052 27.0824C26.0998 31.9916 23.6235 36.7589 18.3875 41.566C13.1515 46.3787 5.88683 49.2164 2.52083 49.2164C2.23757 49.2209 1.95621 49.1693 1.69286 49.0648C1.42952 48.9602 1.18937 48.8046 0.986176 48.6068C0.782982 48.4091 0.620737 48.1732 0.508738 47.9126C0.396739 47.652 0.337188 47.3718 0.333496 47.0881C0.333496 45.9133 1.33083 44.9598 2.52083 44.9598C6.36849 44.9598 9.80816 42.8599 13.8825 39.7725C16.9992 37.4059 19.4358 34.3809 20.7788 31.7476C23.3572 26.7078 23.4422 19.6022 19.2772 17.7123C17.2768 19.903 14.6645 21.1743 11.5365 21.1743C4.73649 21.1743 0.730163 15.6976 0.90583 10.7373C1.07016 5.99837 4.07916 2.62152 8.40849 1.20835Z" fill="#363636"/>
</svg>
