<svg width="943" height="1379" viewBox="0 0 943 1379" fill="none" xmlns="http://www.w3.org/2000/svg">
<path d="M797.229 573.675L796.983 572.862L796.729 572.05L796.467 571.241L796.196 570.433L795.917 569.627L795.629 568.823L795.333 568.022L795.028 567.223L794.715 566.426L794.393 565.632L794.063 564.84L793.725 564.051L793.378 563.265L793.023 562.481L792.66 561.701L792.288 560.923L791.908 560.149L791.52 559.377L791.123 558.609L790.719 557.844L790.306 557.083L789.885 556.325L789.456 555.57L789.019 554.819L788.573 554.072L788.12 553.329L787.659 552.59L787.189 551.854L786.712 551.123L786.227 550.396L785.734 549.673L785.232 548.954L784.724 548.24L784.207 547.53L783.683 546.825L783.151 546.124L782.611 545.429L782.064 544.737L781.509 544.051L780.946 543.37L780.376 542.694L779.798 542.023L779.213 541.357L778.621 540.696L778.021 540.041L777.414 539.391L776.8 538.746L776.179 538.108L775.55 537.474L774.915 536.847L774.272 536.225L773.622 535.609L772.965 535L772.302 534.396L771.631 533.798L770.954 533.206L770.27 532.621L769.58 532.042L768.883 531.469L768.179 530.903L767.468 530.343L766.752 529.79L766.029 529.244L765.299 528.704L764.563 528.171L763.821 527.645L763.073 527.126L762.319 526.614L761.559 526.109L760.793 525.611L760.021 525.12L759.243 524.637L758.46 524.16L757.67 523.692L756.875 523.23L756.075 522.776L755.269 522.33L754.458 521.891L753.641 521.461L752.819 521.037L751.992 520.622L751.16 520.214L750.323 519.815L749.481 519.423L748.634 519.039L747.782 518.664L746.925 518.296L746.064 517.937L745.198 517.586L744.327 517.244L743.453 516.909L742.573 516.583L741.69 516.266L740.802 515.957L739.91 515.656L739.015 515.365L738.115 515.081L737.211 514.807L736.304 514.541L735.393 514.284L734.478 514.036L733.56 513.797L732.639 513.566L731.714 513.345L730.785 513.132L729.854 512.929L728.92 512.734L727.982 512.549L727.042 512.373L726.099 512.206L725.153 512.048L724.204 511.9L723.253 511.76L722.299 511.63L721.343 511.51L720.385 511.399L719.425 511.297L718.462 511.204L717.498 511.121L716.531 511.048L715.563 510.984L714.593 510.93L713.622 510.885L712.649 510.85L711.674 510.824L710.698 510.808L709.721 510.802L708.743 510.805L707.764 510.818L706.783 510.841L705.802 510.873L704.82 510.915L703.838 510.967L702.855 511.029L701.871 511.101L700.888 511.182L699.903 511.273L698.919 511.374L697.935 511.485L696.95 511.605L695.966 511.736L694.982 511.876L693.999 512.026L693.015 512.186L692.033 512.356L691.051 512.536L690.069 512.726L689.089 512.925L688.109 513.135L687.131 513.354L686.154 513.583L685.178 513.822L684.203 514.071L683.229 514.33L682.258 514.598L681.287 514.877L680.319 515.165L679.353 515.463L678.388 515.771L677.425 516.088L676.465 516.416L675.507 516.753L674.551 517.1L673.598 517.457L672.647 517.823L671.699 518.199L670.753 518.585L669.811 518.981L668.871 519.386L667.935 519.801L667.002 520.225L666.072 520.659L665.145 521.103L664.222 521.556L663.302 522.018L662.386 522.49L661.474 522.972L660.565 523.463L659.661 523.963L658.761 524.473L657.864 524.992L656.972 525.52L656.085 526.058L655.202 526.604L654.323 527.16L653.449 527.725L652.58 528.3L651.716 528.883L650.857 529.475L650.002 530.076L649.153 530.687L648.309 531.306L647.471 531.934L646.638 532.57L645.81 533.216L644.988 533.87L644.172 534.533L643.361 535.205L642.557 535.885L641.758 536.573L640.965 537.27L640.179 537.976L639.399 538.69L638.625 539.412L637.858 540.142L637.097 540.881L636.343 541.627L635.596 542.382L634.855 543.145L634.122 543.915L633.395 544.694L632.675 545.48L631.963 546.274L631.258 547.076L630.56 547.886L629.87 548.703L629.187 549.527L628.511 550.359L627.844 551.198L627.184 552.045L626.532 552.899L625.887 553.76L625.251 554.627L624.623 555.502L624.003 556.384L623.392 557.273L622.788 558.168L622.193 559.071L621.607 559.979L621.029 560.895L620.46 561.816L619.899 562.745L619.347 563.679L618.804 564.62L618.27 565.566L617.745 566.519L617.229 567.478L616.722 568.443L616.224 569.413L615.736 570.389L615.257 571.371L614.787 572.358L614.327 573.351L613.876 574.349L613.435 575.352L613.003 576.361L612.582 577.374L612.17 578.393L611.768 579.417L611.376 580.445L610.993 581.478L610.621 582.515L610.259 583.557L609.907 584.604L609.566 585.655L609.234 586.71L608.913 587.769L608.602 588.832L608.302 589.899L608.012 590.97L607.732 592.045L607.464 593.123L607.205 594.205L606.958 595.29L606.721 596.379L606.495 597.47L606.28 598.565L606.075 599.663L605.881 600.764L605.699 601.867L605.527 602.974L605.366 604.083L605.217 605.194L605.078 606.308L604.951 607.423L604.834 608.541L604.729 609.662L604.635 610.784L604.553 611.908L604.481 613.033L604.421 614.16L604.373 615.289L604.335 616.419L604.309 617.551L604.295 618.683L604.292 619.817L604.3 620.951L604.32 622.086L604.351 623.222L604.394 624.359L604.448 625.496L604.514 626.634L604.592 627.771L604.681 628.909L604.782 630.047L604.894 631.185L605.018 632.322L605.154 633.46L605.301 634.597L605.46 635.733L605.631 636.868L605.814 638.003L606.008 639.137L606.213 640.27L606.431 641.402L606.66 642.532L606.901 643.661L607.153 644.789L607.417 645.915L607.693 647.039L607.981 648.162L608.28 649.282L608.591 650.401L608.913 651.517L609.248 652.631L609.593 653.743L609.951 654.852L610.32 655.958L610.701 657.062L611.093 658.162L611.497 659.26L611.912 660.355L612.339 661.446L612.778 662.534L613.227 663.618L613.689 664.699L614.162 665.776L614.646 666.85L615.142 667.919L615.649 668.984L616.167 670.046L616.697 671.102L617.238 672.155L617.79 673.203L618.353 674.246L618.928 675.285L619.514 676.318L620.11 677.347L620.718 678.371L621.337 679.389L621.967 680.402L622.608 681.41L623.26 682.412L623.922 683.409L624.596 684.399L625.28 685.384L625.975 686.363L626.681 687.336L627.397 688.302L628.124 689.262L628.861 690.216L629.609 691.163L630.367 692.104L631.136 693.038L631.914 693.965L632.703 694.885L633.503 695.798L634.312 696.703L635.132 697.602L635.961 698.493L636.8 699.376L637.65 700.252L638.509 701.12L639.377 701.98L640.256 702.833L641.144 703.677L642.041 704.513L642.948 705.342L643.865 706.161L644.79 706.973L645.725 707.775L646.669 708.57L647.622 709.355L648.585 710.132L649.556 710.899L650.535 711.658L651.524 712.408L652.521 713.148L653.527 713.879L654.542 714.601L655.565 715.313L656.596 716.016L657.635 716.709L658.683 717.392L659.739 718.066L660.802 718.729L661.874 719.383L662.953 720.026L664.04 720.659L665.135 721.282L666.237 721.895L667.347 722.497L668.463 723.089L669.588 723.67L670.719 724.241L671.857 724.8L673.002 725.349L674.154 725.887L675.313 726.414L676.478 726.93L677.65 727.435L678.828 727.929L680.013 728.411L681.203 728.882L682.4 729.341L683.603 729.789L684.812 730.226L686.026 730.651L687.246 731.064L688.472 731.465L689.703 731.855L690.939 732.233L692.18 732.599L693.427 732.952L694.678 733.294L695.935 733.624L697.196 733.941L698.461 734.246L699.731 734.539L701.006 734.82L702.285 735.088L703.567 735.343L704.854 735.587L706.145 735.817L707.44 736.035L708.738 736.241L710.039 736.433L711.344 736.613L712.653 736.78L713.964 736.935L715.278 737.076L716.596 737.205L717.916 737.32L719.239 737.423L720.564 737.513L721.891 737.589L723.221 737.653L724.553 737.703L725.887 737.74L727.223 737.764L728.56 737.775L729.899 737.772L731.24 737.757L732.582 737.728L733.925 737.685L735.269 737.63L736.614 737.561L737.96 737.478L739.306 737.383L740.653 737.273L742 737.151L743.348 737.015L744.696 736.865L746.043 736.702L747.391 736.526L748.738 736.336L750.085 736.132L751.431 735.915L752.776 735.685L754.121 735.441L755.465 735.183L756.807 734.912L758.149 734.628L759.488 734.33L760.827 734.018L762.164 733.693L763.498 733.355L764.831 733.003L766.162 732.637L767.491 732.258L768.817 731.866L770.141 731.46L771.462 731.04L772.78 730.608L774.095 730.161L775.408 729.702L776.717 729.229L778.023 728.743L779.325 728.243L780.624 727.73L781.918 727.204L783.209 726.665L784.497 726.112L785.779 725.546L787.058 724.967L788.332 724.375L789.601 723.77L790.866 723.152L792.126 722.521L793.381 721.876L794.631 721.219L795.875 720.549L797.114 719.866L798.348 719.17L799.576 718.462L800.798 717.741L802.014 717.007L803.224 716.26L804.428 715.501L805.625 714.729L806.816 713.945L808.001 713.148L809.178 712.339L810.349 711.518L811.513 710.685L812.669 709.839L813.818 708.981L814.96 708.111L816.095 707.229L817.221 706.336L818.34 705.43L819.451 704.512L820.554 703.583L821.649 702.642L822.735 701.69L823.813 700.726L824.882 699.75L825.943 698.763L826.995 697.765L828.038 696.756L829.072 695.735L830.096 694.704L831.112 693.661L832.118 692.608L833.114 691.544L834.101 690.469L835.078 689.383L836.045 688.287L837.002 687.181L837.949 686.064L838.886 684.936L839.812 683.799L840.728 682.652L841.633 681.494L842.527 680.327L843.411 679.15L844.284 677.963L845.145 676.767L845.996 675.561L846.835 674.346L847.663 673.121L848.479 671.887L849.284 670.645L850.077 669.393L850.859 668.132L851.628 666.863L852.386 665.585L853.131 664.298L853.864 663.004L854.585 661.7L855.294 660.389L855.99 659.07L856.673 657.742L857.344 656.407L858.002 655.064L858.647 653.714L859.279 652.356L859.898 650.99L860.504 649.618L861.097 648.238L861.677 646.852L862.243 645.458L862.795 644.058L863.334 642.651L863.86 641.238L864.371 639.818L864.869 638.393L865.353 636.961L865.824 635.523L866.28 634.08L866.722 632.63L867.149 631.176L867.563 629.715L867.962 628.25L868.347 626.78L868.717 625.304L869.073 623.824L869.414 622.339L869.741 620.849L870.053 619.355L870.35 617.857L870.632 616.354L870.9 614.848L871.152 613.337L871.39 611.823L871.612 610.306L871.819 608.785L872.012 607.261L872.189 605.733L872.35 604.203L872.497 602.67L872.628 601.134L872.743 599.596L872.843 598.055L872.928 596.512L872.997 594.967L873.051 593.42L873.089 591.871L873.111 590.321L873.118 588.769L873.109 587.216L873.085 585.662L873.044 584.107L872.988 582.551L872.916 580.994L872.828 579.437L872.724 577.879L872.605 576.322L872.469 574.764L872.318 573.206L872.151 571.648L871.968 570.091L871.768 568.535L871.553 566.979L871.322 565.424L871.075 563.87L870.812 562.318L870.533 560.766L870.238 559.217L869.926 557.668L869.599 556.122L869.256 554.578L868.897 553.036L868.522 551.496L868.131 549.959L867.724 548.424L867.301 546.893L866.861 545.364L866.406 543.838L865.935 542.316L865.449 540.797L864.946 539.282L864.427 537.77L863.893 536.263L863.342 534.759L862.776 533.26L862.194 531.765L861.596 530.275L860.983 528.789L860.354 527.309L859.709 525.833L859.048 524.363L858.372 522.898L857.68 521.438L856.973 519.984L856.25 518.536L855.512 517.095L854.759 515.659L853.99 514.229L853.205 512.806L852.406 511.39L851.591 509.981L850.761 508.578L849.916 507.182L849.056 505.794L848.181 504.413L847.291 503.04L846.386 501.675L845.467 500.317L844.532 498.967L843.583 497.626L842.62 496.293L841.641 494.968L840.648 493.652L839.641 492.345L838.62 491.047L837.584 489.757L836.534 488.478L835.47 487.207L834.392 485.946L833.3 484.695L832.194 483.453L831.074 482.221L829.941 481L828.794 479.789L827.633 478.588L826.459 477.398L825.272 476.218L824.071 475.049L822.858 473.891L821.631 472.745L820.391 471.609L819.139 470.485L817.873 469.372L816.595 468.271L815.305 467.182L814.002 466.105L812.687 465.04L811.359 463.987L810.019 462.946L808.668 461.918L807.304 460.902L805.929 459.899L804.542 458.909L803.143 457.932L801.733 456.967L800.312 456.016L798.879 455.079L797.436 454.155L795.981 453.244L794.516 452.347L793.04 451.464L791.553 450.595L790.056 449.739L788.549 448.898L787.031 448.072L785.504 447.259L783.966 446.461L782.419 445.678L780.862 444.909L779.296 444.155L777.72 443.416L776.135 442.693L774.541 441.984L772.938 441.29L771.327 440.612L769.706 439.949L768.077 439.302L766.44 438.67L764.795 438.054L763.141 437.454L761.48 436.87L759.811 436.302L758.134 435.749L756.45 435.213L754.758 434.694L753.06 434.19L751.354 433.703L749.642 433.233L747.923 432.779L746.198 432.342L744.466 431.921L742.728 431.517L740.984 431.131L739.234 430.761L737.479 430.408L735.718 430.072L733.951 429.754L732.18 429.453L730.403 429.169L728.622 428.902L726.836 428.653L725.045 428.421L723.251 428.207L721.452 428.011L719.649 427.832L717.842 427.671L716.032 427.528L714.218 427.402L712.401 427.294L710.58 427.205L708.757 427.133L706.932 427.079L705.103 427.043L703.272 427.026L701.439 427.026L699.604 427.045L697.768 427.082L695.929 427.137L694.089 427.21L692.248 427.301L690.405 427.411L688.562 427.54L686.718 427.686L684.874 427.851L683.029 428.035L681.183 428.236L679.338 428.456L677.493 428.695L675.649 428.952L673.805 429.228L671.962 429.522L670.119 429.835L668.278 430.166L666.438 430.515L664.6 430.883L662.763 431.27L660.928 431.675L659.096 432.099L657.265 432.541L655.437 433.001L653.612 433.48L651.79 433.978L649.97 434.494L648.154 435.028L646.341 435.581L644.532 436.152L642.726 436.742L640.925 437.35L639.127 437.976L637.334 438.621L635.546 439.283L633.762 439.964L631.983 440.664L630.209 441.381L628.441 442.117L626.678 442.871L624.921 443.642L623.169 444.432L621.424 445.24L619.685 446.066L617.952 446.909L616.226 447.771L614.507 448.65L612.795 449.547L611.09 450.461L609.392 451.394L607.702 452.343L606.02 453.311L604.346 454.295L602.679 455.297L601.021 456.317L599.372 457.354L597.731 458.407L596.099 459.478L594.476 460.566L592.862 461.671L591.258 462.793L589.663 463.931L588.078 465.086L586.503 466.258L584.938 467.447L583.383 468.651L581.839 469.873L580.305 471.11L578.783 472.364L577.271 473.633L575.77 474.919L574.281 476.22L572.804 477.538L571.338 478.871L569.883 480.219L568.441 481.584L567.012 482.963L565.594 484.358L564.189 485.768L562.797 487.193L561.418 488.632L560.051 490.087L558.698 491.556L557.359 493.04L556.032 494.539L554.72 496.051L553.421 497.578L552.137 499.119L550.866 500.674L549.61 502.243L548.368 503.826L547.142 505.422L545.929 507.031L544.732 508.654L543.55 510.29L542.383 511.939L541.232 513.6L540.096 515.275L538.975 516.962L537.871 518.661L536.782 520.373L535.71 522.097L534.654 523.833L533.614 525.581L532.591 527.34L531.585 529.111L530.595 530.894L529.622 532.687L528.667 534.492L527.728 536.308L526.807 538.134L525.903 539.971L525.017 541.818L524.149 543.676L523.298 545.544L522.466 547.421L521.651 549.309L520.855 551.205L520.077 553.112L519.318 555.027L518.577 556.952L517.854 558.885L517.151 560.827L516.466 562.778L515.8 564.737L515.154 566.704L514.526 568.679L513.918 570.662L513.329 572.653L512.76 574.651L512.21 576.656L511.68 578.668L511.17 580.687L510.68 582.713L510.209 584.745L509.759 586.783L509.328 588.828L508.918 590.878L508.529 592.935L508.159 594.996L507.81 597.063L507.482 599.135L507.174 601.212L506.887 603.294L506.621 605.38L506.375 607.47L506.15 609.565L505.947 611.663L505.764 613.766L505.602 615.871L505.462 617.98L505.342 620.092L505.244 622.207L505.167 624.324L505.112 626.444L505.078 628.566L505.065 630.691L505.074 632.817L505.104 634.944L505.156 637.073L505.23 639.204L505.325 641.335L505.442 643.467L505.58 645.599L505.74 647.732L505.922 649.865L506.126 651.998L506.352 654.13L506.599 656.262L506.868 658.393L507.159 660.524L507.472 662.653L507.807 664.78L508.164 666.906L508.543 669.03L508.943 671.153L509.366 673.272L509.81 675.39L510.276 677.504L510.765 679.616L511.275 681.725L511.807 683.83L512.361 685.931L512.936 688.029L513.534 690.123L514.154 692.212L514.795 694.297L515.458 696.378L516.143 698.453L516.85 700.523L517.578 702.588L518.328 704.648L519.1 706.701L519.893 708.749L520.708 710.79L521.545 712.825L522.403 714.853L523.282 716.875L524.183 718.889L525.105 720.896L526.049 722.895L527.014 724.887L528 726.87L529.007 728.846L530.036 730.813L531.085 732.771L532.155 734.721L533.247 736.662L534.359 738.593L535.492 740.515L536.645 742.427L537.82 744.329L539.014 746.221L540.23 748.103L541.465 749.974L542.721 751.835L543.997 753.684L545.293 755.523L546.61 757.35L547.946 759.165L549.302 760.969L550.678 762.76L552.073 764.54L553.488 766.307L554.923 768.061L556.376 769.803L557.849 771.532L559.341 773.247L560.853 774.949L562.383 776.637L563.931 778.312L565.499 779.972L567.085 781.619L568.689 783.251L570.312 784.868L571.952 786.471L573.611 788.058L575.288 789.631L576.983 791.188L578.695 792.729L580.424 794.255L582.171 795.765L583.935 797.259L585.717 798.736L587.515 800.197L589.33 801.642L591.161 803.069L593.009 804.48L594.873 805.873L596.754 807.249L598.65 808.608L600.563 809.948L602.491 811.271L604.434 812.576L606.393 813.863L608.367 815.131L610.356 816.381L612.36 817.612L614.378 818.824L616.411 820.017L618.459 821.191L620.52 822.346L622.596 823.481L624.685 824.596L626.788 825.692L628.904 826.767L631.033 827.823L633.176 828.858L635.331 829.873L637.499 830.868L639.679 831.841L641.872 832.794L644.077 833.726L646.293 834.637L648.522 835.527L650.761 836.395L653.012 837.242L655.274 838.067L657.547 838.87L659.831 839.652L662.125 840.411L664.429 841.149L666.743 841.864L669.067 842.556L671.4 843.227L673.743 843.875L676.095 844.5L678.456 845.102L680.826 845.681L683.204 846.238L685.59 846.771L687.985 847.281L690.387 847.768L692.797 848.231L695.214 848.671L697.638 849.087L700.069 849.479L702.507 849.848L704.952 850.193L707.402 850.514L709.858 850.811L712.32 851.084L714.788 851.332L717.261 851.557L719.739 851.757L722.221 851.933L724.708 852.084L727.2 852.211L729.695 852.313L732.194 852.391L734.697 852.443L737.203 852.472L739.712 852.475L742.224 852.453L744.738 852.407L747.255 852.336L749.774 852.239L752.295 852.118L754.817 851.971L757.34 851.8L759.865 851.603L762.39 851.381L764.916 851.134L767.442 850.862L769.968 850.565L772.494 850.242L775.02 849.894L777.545 849.52L780.068 849.122L782.591 848.698L785.112 848.249L787.631 847.774L790.148 847.274L792.663 846.749L795.176 846.198L797.685 845.622L800.192 845.021L802.695 844.395L805.195 843.743L807.691 843.066L810.183 842.363L812.67 841.636L815.153 840.883L817.631 840.105L820.103 839.302L822.571 838.473L825.033 837.62L827.488 836.741L829.938 835.838L832.381 834.909L834.818 833.956L837.247 832.978L839.669 831.974L842.084 830.946L844.491 829.894L846.891 828.816L849.281 827.714L851.664 826.588L854.037 825.437L856.402 824.261L858.757 823.061L861.103 821.837L863.439 820.589L865.765 819.316L868.08 818.02L870.385 816.699L872.68 815.355L874.963 813.987L877.235 812.595L879.495 811.179L881.743 809.74L883.98 808.278L886.204 806.792L888.415 805.283L890.614 803.751L892.799 802.196L894.971 800.618L897.13 799.017L899.275 797.394L901.406 795.748L903.522 794.08L905.624 792.389L907.711 790.676L909.783 788.941L911.84 787.185L913.882 785.406L915.907 783.606L917.917 781.784L919.91 779.941L921.887 778.077L923.848 776.192L925.791 774.285L927.717 772.358L929.626 770.411L931.517 768.443L933.391 766.454L935.246 764.446L937.083 762.417L938.902 760.369L940.702 758.301L942.483 756.214L944.245 754.107L945.987 751.981L947.71 749.836L949.413 747.673L951.096 745.491L952.759 743.29L954.401 741.071L956.023 738.834L957.624 736.58L959.204 734.307L960.763 732.018L962.3 729.71L963.816 727.386L965.309 725.045L966.781 722.688L968.23 720.314L969.657 717.923L971.062 715.517L972.443 713.095L973.802 710.657L975.138 708.203L976.45 705.735L977.738 703.252L979.003 700.753L980.244 698.241L981.461 695.714L982.654 693.173L983.822 690.618L984.966 688.05L986.085 685.468L987.179 682.873L988.248 680.265L989.292 677.644L990.311 675.011L991.304 672.366L992.271 669.709L993.213 667.04L994.129 664.36L995.018 661.668L995.881 658.966L996.718 656.253L997.529 653.529L998.312 650.796L999.069 648.052L999.799 645.298L1000.5 642.536L1001.18 639.764L1001.83 636.983L1002.45 634.193L1003.04 631.395L1003.61 628.589L1004.14 625.775L1004.65 622.954L1005.14 620.125L1005.59 617.29L1006.02 614.447L1006.41 611.598L1006.78 608.743L1007.12 605.882L1007.44 603.015L1007.72 600.143L1007.97 597.265L1008.2 594.383L1008.4 591.497L1008.57 588.606L1008.7 585.711L1008.81 582.813L1008.9 579.911L1008.95 577.006L1008.97 574.098L1008.96 571.187L1008.92 568.275L1008.86 565.36L1008.76 562.444L1008.64 559.526L1008.48 556.608L1008.3 553.688L1008.08 550.768L1007.84 547.848L1007.56 544.928L1007.26 542.008L1006.93 539.089L1006.56 536.171L1006.17 533.254L1005.74 530.339L1005.29 527.426L1004.81 524.515L1004.29 521.606L1003.75 518.7L1003.18 515.797L1002.57 512.898L1001.94 510.002L1001.27 507.11L1000.58 504.223L999.857 501.34L999.104 498.462L998.32 495.589L997.507 492.722L996.664 489.86L995.79 487.004L994.887 484.155L993.954 481.312L992.991 478.477L991.999 475.649L990.977 472.828L989.925 470.015L988.843 467.21L987.732 464.414L986.592 461.627L985.422 458.848L984.222 456.079L982.993 453.32L981.735 450.571L980.448 447.832L979.132 445.103L977.786 442.386L976.412 439.679L975.008 436.984L973.576 434.301L972.115 431.63L970.626 428.971L969.108 426.325L967.561 423.692L965.986 421.072L964.383 418.465L962.752 415.872L961.092 413.294L959.405 410.729L957.69 408.18L955.947 405.645L954.177 403.126L952.379 400.622L950.554 398.134L948.702 395.662L946.823 393.206L944.916 390.767L942.983 388.345L941.024 385.941L939.038 383.553L937.025 381.184L934.986 378.832L932.922 376.499L930.831 374.185L928.715 371.889L926.573 369.613L924.406 367.355L922.213 365.118L919.995 362.9L917.753 360.703L915.486 358.526L913.194 356.37L910.878 354.235L908.538 352.121L906.173 350.029L903.785 347.958L901.374 345.909L898.939 343.883L896.481 341.879L894 339.898L891.496 337.94L888.969 336.005L886.42 334.093L883.849 332.205L881.256 330.342L878.642 328.502L876.005 326.687L873.348 324.897L870.67 323.131L867.97 321.391L865.25 319.676L862.51 317.986L859.75 316.322L856.969 314.685L854.169 313.073L851.35 311.488L848.512 309.93L845.654 308.398L842.778 306.894L839.884 305.417L836.971 303.967L834.041 302.545L831.093 301.151L828.127 299.785L825.145 298.448L822.145 297.139L819.13 295.858L816.097 294.607L813.049 293.384L809.985 292.191L806.906 291.027L803.811 289.892L800.702 288.788L797.578 287.713L794.439 286.668L791.287 285.654L788.121 284.67L784.941 283.716L781.748 282.794L778.543 281.902L775.324 281.041L772.094 280.212L768.851 279.413L765.597 278.647L762.332 277.912L759.055 277.208L755.768 276.537L752.471 275.897L749.163 275.29L745.845 274.715L742.518 274.173L739.182 273.663L735.837 273.185L732.483 272.741L729.122 272.329L725.752 271.95L722.375 271.604L718.99 271.292L715.599 271.012L712.201 270.766L708.797 270.554L705.387 270.375L701.971 270.23L698.551 270.118L695.125 270.04L691.694 269.996L688.26 269.986L684.821 270.01L681.379 270.069L677.934 270.161L674.486 270.287L671.035 270.448L667.583 270.643L664.128 270.872L660.672 271.136L657.215 271.435L653.756 271.767L650.298 272.134L646.839 272.536L643.381 272.973L639.923 273.444L636.466 273.949L633.011 274.489L629.557 275.064L626.105 275.674L622.655 276.318L619.208 276.997L615.765 277.711L612.324 278.459L608.888 279.242L605.455 280.06L602.027 280.912L598.604 281.799L595.186 282.72L591.774 283.676L588.367 284.667L584.967 285.692L581.573 286.752L578.187 287.846L574.808 288.975L571.436 290.138L568.072 291.335L564.717 292.567L561.371 293.832L558.033 295.132L554.706 296.466L551.388 297.834L548.08 299.236L544.782 300.672L541.496 302.142L538.221 303.645L534.957 305.182L531.706 306.753L528.466 308.357L525.24 309.994L522.026 311.665L518.826 313.369L515.639 315.106L512.466 316.876L509.308 318.679L506.165 320.514L503.037 322.382L499.924 324.282L496.827 326.215L493.746 328.18L490.681 330.177L487.634 332.206L484.603 334.267L481.59 336.36L478.595 338.484L475.618 340.639L472.66 342.826L469.72 345.044L466.8 347.292L463.899 349.571L461.018 351.881L458.157 354.222L455.317 356.592L452.498 358.992L449.699 361.423L446.923 363.883L444.168 366.372L441.435 368.891L438.725 371.438L436.037 374.015L433.373 376.62L430.732 379.254L428.115 381.916L425.521 384.606L422.952 387.324L420.408 390.069L417.889 392.842L415.395 395.642L412.927 398.469L410.484 401.323L408.068 404.203L405.678 407.109L403.315 410.042L400.979 413L398.67 415.983L396.389 418.992L394.136 422.026L391.911 425.085L389.715 428.168L387.547 431.275L385.408 434.406L383.299 437.561L381.219 440.739L379.169 443.941L377.15 447.165L375.16 450.412L373.202 453.681L371.274 456.972L369.377 460.285L367.512 463.619L365.679 466.975L363.877 470.351L362.108 473.748L360.371 477.165L358.667 480.602L356.995 484.058L355.357 487.534L353.752 491.029L352.18 494.543L350.643 498.075L349.139 501.625L347.67 505.192L346.235 508.777L344.835 512.38L343.47 515.998L342.14 519.634L340.845 523.285L339.586 526.952L338.363 530.635L337.175 534.332L336.024 538.044L334.908 541.771L333.83 545.512L332.787 549.266L331.782 553.034L330.814 556.814L329.883 560.607L328.989 564.413L328.133 568.23L327.314 572.059L326.534 575.899L325.791 579.75L325.086 583.611L324.42 587.482L323.792 591.363L323.203 595.253L322.653 599.153L322.141 603.06L321.668 606.976L321.234 610.9L320.84 614.831L320.485 618.769L320.169 622.714L319.893 626.665L319.657 630.622L319.46 634.585L319.304 638.552L319.187 642.525L319.11 646.501L319.074 650.482L319.077 654.466L319.121 658.453L319.206 662.443L319.33 666.435L319.496 670.43L319.702 674.426L319.948 678.422L320.236 682.42L320.564 686.418L320.933 690.416L321.343 694.414L321.793 698.41L322.285 702.406L322.818 706.399L323.391 710.391L324.006 714.38L324.661 718.366L325.358 722.349L326.096 726.328L326.875 730.303L327.695 734.273L328.556 738.239L329.458 742.199L330.401 746.153L331.385 750.101L332.41 754.043L333.476 757.977L334.584 761.904L335.732 765.824L336.921 769.735L338.151 773.637L339.422 777.53L340.733 781.414L342.086 785.288L343.479 789.151L344.912 793.004L346.387 796.846L347.901 800.676L349.456 804.494L351.052 808.3L352.688 812.093L354.364 815.873L356.08 819.639L357.836 823.392L359.632 827.13L361.467 830.853L363.343 834.561L365.258 838.253L367.213 841.929L369.206 845.589L371.24 849.232L373.312 852.857L375.423 856.465L377.573 860.056L379.762 863.627L381.989 867.18L384.255 870.713L386.559 874.227L388.901 877.721L391.281 881.195L393.698 884.647L396.154 888.079L398.646 891.489L401.176 894.877L403.743 898.242L406.347 901.585L408.988 904.905L411.665 908.201L414.379 911.473L417.128 914.721L419.914 917.944L422.735 921.143L425.592 924.316L428.484 927.463L431.411 930.584L434.372 933.678L437.369 936.746L440.399 939.787L443.464 942.799L446.563 945.784L449.695 948.741L452.861 951.669L456.06 954.567L459.291 957.437L462.555 960.277L465.852 963.086L469.181 965.866L472.541 968.614L475.933 971.331L479.356 974.017L482.81 976.672L486.295 979.294L489.81 981.883L493.356 984.44L496.931 986.964L500.535 989.455L504.169 991.911L507.832 994.334L511.523 996.722L515.242 999.076L518.99 1001.39L522.765 1003.68L526.567 1005.93L530.396 1008.14L534.252 1010.31L538.134 1012.45L542.042 1014.56L545.975 1016.62L549.934 1018.65L553.918 1020.64L557.926 1022.59L561.958 1024.51L566.014 1026.38L570.094 1028.22L574.197 1030.02L578.322 1031.78L582.47 1033.5L586.64 1035.18L590.832 1036.82L595.044 1038.42L599.278 1039.98L603.532 1041.5L607.806 1042.98L612.099 1044.41L616.412 1045.81L620.744 1047.16L625.095 1048.47L629.463 1049.74L633.849 1050.97L638.253 1052.16L642.673 1053.3L647.109 1054.4L651.562 1055.46L656.03 1056.47L660.514 1057.44L665.012 1058.37L669.525 1059.25L674.051 1060.09L678.591 1060.88L683.144 1061.63L687.71 1062.34L692.288 1063L696.877 1063.61L701.478 1064.18L706.09 1064.71L710.712 1065.19L715.344 1065.63L719.986 1066.02L724.636 1066.36L729.296 1066.66L733.963 1066.91L738.638 1067.12L743.321 1067.28L748.01 1067.39L752.705 1067.46L757.407 1067.48L762.114 1067.45L766.825 1067.38L771.542 1067.26L776.262 1067.1L780.986 1066.88L785.712 1066.62L790.442 1066.32L795.173 1065.96L799.907 1065.56L804.641 1065.12L809.376 1064.62L814.111 1064.08L818.846 1063.49L823.581 1062.85L828.314 1062.17L833.045 1061.43L837.774 1060.65L842.501 1059.83L847.224 1058.95L851.944 1058.03L856.659 1057.06L861.37 1056.04L866.076 1054.98L870.777 1053.87L875.471 1052.71L880.159 1051.5L884.839 1050.25L889.512 1048.95L894.178 1047.6L898.834 1046.2L903.482 1044.76L908.12 1043.27L912.748 1041.73L917.366 1040.14L921.973 1038.51L926.569 1036.83L931.152 1035.11L935.723 1033.34L940.282 1031.52L944.826 1029.65L949.358 1027.74L953.874 1025.78L958.376 1023.78L962.863 1021.73L967.333 1019.63L971.788 1017.49L976.226 1015.3L980.646 1013.06L985.049 1010.78L989.433 1008.46L993.799 1006.09L998.146 1003.67L1002.47 1001.21L1006.78 998.703L1011.07 996.153L1015.33 993.558L1019.57 990.919L1023.8 988.235L1028 985.508L1032.17 982.737L1036.32 979.922L1040.45 977.064L1044.56 974.163L1048.64 971.219L1052.69 968.232L1056.72 965.202L1060.72 962.131L1064.7 959.017L1068.65 955.861L1072.57 952.664L1076.46 949.425L1080.33 946.145L1084.16 942.824L1087.97 939.463L1091.75 936.061L1095.49 932.619L1099.21 929.137L1102.89 925.616L1106.55 922.055L1110.17 918.455L1113.75 914.817L1117.31 911.14" stroke="#9B9CA0" stroke-opacity="0.2" stroke-width="4" stroke-linecap="round"/>
<path d="M815.295 586.712L815.067 585.905L814.831 585.1L814.586 584.296L814.333 583.494L814.071 582.694L813.801 581.895L813.523 581.099L813.236 580.305L812.941 579.513L812.638 578.724L812.327 577.936L812.007 577.152L811.679 576.369L811.342 575.59L810.998 574.813L810.645 574.038L810.284 573.267L809.914 572.499L809.537 571.734L809.151 570.971L808.758 570.212L808.356 569.457L807.946 568.704L807.528 567.956L807.102 567.21L806.668 566.469L806.226 565.731L805.776 564.996L805.319 564.266L804.853 563.539L804.38 562.817L803.898 562.099L803.409 561.385L802.912 560.675L802.408 559.969L801.896 559.268L801.376 558.572L800.849 557.88L800.314 557.193L799.771 556.51L799.221 555.832L798.664 555.16L798.099 554.492L797.527 553.829L796.947 553.171L796.36 552.519L795.766 551.872L795.165 551.23L794.557 550.594L793.941 549.963L793.319 549.338L792.689 548.718L792.053 548.104L791.409 547.497L790.759 546.894L790.102 546.298L789.439 545.708L788.768 545.124L788.091 544.546L787.408 543.975L786.718 543.409L786.021 542.851L785.318 542.298L784.609 541.752L783.893 541.213L783.171 540.68L782.443 540.154L781.709 539.635L780.969 539.123L780.223 538.618L779.471 538.119L778.713 537.628L777.949 537.144L777.18 536.667L776.405 536.197L775.624 535.734L774.838 535.279L774.047 534.832L773.25 534.391L772.447 533.959L771.64 533.534L770.827 533.116L770.009 532.707L769.186 532.305L768.359 531.911L767.526 531.525L766.688 531.146L765.846 530.776L764.999 530.414L764.148 530.06L763.292 529.714L762.432 529.377L761.567 529.047L760.698 528.726L759.825 528.413L758.947 528.109L758.066 527.813L757.181 527.526L756.292 527.247L755.399 526.977L754.502 526.715L753.602 526.462L752.698 526.218L751.791 525.982L750.88 525.756L749.966 525.538L749.049 525.329L748.129 525.129L747.206 524.938L746.28 524.756L745.351 524.583L744.419 524.419L743.485 524.264L742.548 524.119L741.608 523.982L740.666 523.855L739.722 523.737L738.776 523.628L737.827 523.529L736.877 523.439L735.924 523.358L734.97 523.286L734.014 523.224L733.056 523.172L732.097 523.129L731.136 523.095L730.174 523.071L729.21 523.057L728.246 523.052L727.28 523.056L726.313 523.07L725.345 523.094L724.377 523.127L723.407 523.17L722.438 523.223L721.467 523.285L720.496 523.357L719.525 523.439L718.554 523.53L717.582 523.631L716.611 523.742L715.639 523.862L714.668 523.992L713.697 524.132L712.726 524.282L711.756 524.442L710.787 524.611L709.818 524.79L708.849 524.979L707.882 525.177L706.915 525.385L705.95 525.603L704.986 525.831L704.023 526.069L703.061 526.316L702.101 526.573L701.142 526.839L700.185 527.116L699.23 527.402L698.277 527.698L697.325 528.003L696.376 528.319L695.429 528.644L694.484 528.978L693.541 529.322L692.601 529.676L691.663 530.04L690.728 530.413L689.796 530.796L688.867 531.188L687.941 531.59L687.017 532.001L686.097 532.422L685.18 532.852L684.266 533.291L683.356 533.741L682.45 534.199L681.547 534.667L680.648 535.144L679.752 535.631L678.861 536.126L677.973 536.631L677.09 537.146L676.211 537.669L675.337 538.201L674.466 538.743L673.601 539.294L672.74 539.854L671.883 540.422L671.032 541L670.185 541.587L669.343 542.182L668.507 542.787L667.675 543.4L666.849 544.022L666.029 544.652L665.214 545.291L664.404 545.939L663.6 546.596L662.802 547.261L662.01 547.934L661.223 548.616L660.443 549.306L659.669 550.004L658.901 550.711L658.139 551.426L657.383 552.149L656.635 552.88L655.892 553.619L655.157 554.366L654.428 555.121L653.706 555.884L652.991 556.655L652.283 557.433L651.582 558.219L650.888 559.012L650.201 559.814L649.522 560.622L648.85 561.438L648.186 562.261L647.53 563.092L646.881 563.93L646.239 564.775L645.606 565.626L644.98 566.485L644.363 567.351L643.754 568.224L643.152 569.103L642.559 569.989L641.975 570.882L641.398 571.781L640.831 572.687L640.271 573.599L639.72 574.517L639.178 575.441L638.645 576.372L638.121 577.309L637.605 578.251L637.098 579.2L636.601 580.154L636.112 581.114L635.633 582.08L635.163 583.051L634.702 584.028L634.251 585.01L633.809 585.997L633.376 586.989L632.953 587.987L632.54 588.99L632.137 589.997L631.743 591.009L631.359 592.027L630.984 593.048L630.62 594.074L630.266 595.105L629.921 596.14L629.587 597.179L629.263 598.223L628.949 599.27L628.646 600.322L628.352 601.377L628.069 602.436L627.797 603.499L627.534 604.566L627.283 605.635L627.042 606.709L626.811 607.785L626.591 608.865L626.382 609.947L626.183 611.033L625.995 612.121L625.818 613.213L625.652 614.307L625.497 615.403L625.352 616.502L625.219 617.603L625.096 618.706L624.985 619.812L624.885 620.92L624.795 622.029L624.717 623.14L624.65 624.253L624.594 625.367L624.549 626.483L624.516 627.601L624.493 628.719L624.483 629.839L624.483 630.96L624.495 632.081L624.518 633.203L624.552 634.327L624.598 635.45L624.655 636.574L624.723 637.699L624.803 638.823L624.895 639.948L624.998 641.073L625.112 642.198L625.238 643.322L625.375 644.446L625.524 645.57L625.685 646.693L625.857 647.816L626.04 648.937L626.235 650.058L626.442 651.178L626.66 652.296L626.889 653.414L627.13 654.53L627.383 655.644L627.647 656.757L627.923 657.868L628.21 658.978L628.509 660.085L628.819 661.191L629.141 662.294L629.475 663.395L629.819 664.493L630.176 665.589L630.543 666.682L630.922 667.773L631.313 668.86L631.715 669.945L632.128 671.027L632.553 672.105L632.989 673.18L633.437 674.252L633.896 675.32L634.366 676.384L634.847 677.445L635.34 678.501L635.843 679.554L636.358 680.602L636.885 681.646L637.422 682.686L637.97 683.722L638.53 684.752L639.1 685.778L639.681 686.8L640.274 687.816L640.877 688.827L641.491 689.833L642.116 690.834L642.752 691.829L643.398 692.819L644.056 693.804L644.723 694.782L645.402 695.755L646.091 696.722L646.79 697.682L647.501 698.637L648.221 699.585L648.952 700.527L649.693 701.463L650.444 702.392L651.206 703.314L651.978 704.229L652.759 705.138L653.551 706.039L654.353 706.934L655.165 707.821L655.986 708.701L656.818 709.573L657.659 710.438L658.51 711.295L659.37 712.145L660.24 712.986L661.119 713.82L662.008 714.646L662.906 715.463L663.813 716.272L664.729 717.073L665.655 717.866L666.589 718.65L667.532 719.425L668.485 720.191L669.446 720.949L670.415 721.698L671.394 722.438L672.381 723.169L673.376 723.89L674.38 724.602L675.392 725.305L676.412 725.999L677.44 726.683L678.477 727.357L679.521 728.021L680.573 728.676L681.633 729.321L682.7 729.955L683.776 730.58L684.858 731.195L685.948 731.799L687.045 732.393L688.15 732.977L689.262 733.55L690.38 734.112L691.506 734.664L692.638 735.205L693.777 735.736L694.922 736.255L696.074 736.764L697.233 737.261L698.398 737.748L699.569 738.223L700.746 738.687L701.929 739.14L703.117 739.582L704.312 740.012L705.512 740.43L706.718 740.837L707.929 741.232L709.146 741.616L710.367 741.988L711.594 742.348L712.826 742.696L714.062 743.032L715.304 743.357L716.55 743.669L717.8 743.969L719.055 744.257L720.314 744.533L721.578 744.796L722.845 745.047L724.116 745.286L725.391 745.512L726.67 745.726L727.952 745.928L729.238 746.117L730.527 746.293L731.819 746.456L733.114 746.607L734.412 746.746L735.713 746.871L737.017 746.984L738.323 747.083L739.632 747.17L740.943 747.244L742.256 747.305L743.571 747.353L744.888 747.389L746.207 747.411L747.528 747.42L748.85 747.416L750.173 747.398L751.498 747.368L752.824 747.324L754.15 747.268L755.478 747.198L756.807 747.115L758.136 747.018L759.465 746.908L760.795 746.786L762.125 746.649L763.455 746.5L764.785 746.337L766.115 746.161L767.445 745.971L768.774 745.768L770.102 745.552L771.43 745.323L772.757 745.08L774.082 744.824L775.407 744.554L776.731 744.271L778.053 743.975L779.373 743.665L780.692 743.342L782.009 743.006L783.323 742.656L784.636 742.293L785.947 741.916L787.255 741.527L788.561 741.124L789.864 740.708L791.164 740.278L792.461 739.835L793.756 739.379L795.047 738.91L796.334 738.428L797.619 737.932L798.899 737.423L800.176 736.902L801.449 736.367L802.718 735.819L803.983 735.258L805.244 734.684L806.5 734.097L807.751 733.497L808.998 732.884L810.24 732.259L811.477 731.62L812.709 730.969L813.936 730.305L815.157 729.628L816.373 728.939L817.583 728.237L818.787 727.522L819.986 726.795L821.178 726.055L822.364 725.303L823.544 724.539L824.718 723.762L825.885 722.973L827.045 722.172L828.198 721.358L829.345 720.533L830.484 719.695L831.616 718.846L832.741 717.984L833.858 717.111L834.968 716.226L836.07 715.329L837.164 714.421L838.25 713.501L839.328 712.569L840.398 711.626L841.459 710.671L842.512 709.706L843.556 708.729L844.592 707.741L845.618 706.742L846.636 705.731L847.645 704.71L848.644 703.678L849.634 702.636L850.614 701.582L851.585 700.518L852.547 699.444L853.498 698.359L854.44 697.264L855.371 696.159L856.293 695.043L857.204 693.917L858.104 692.782L858.995 691.636L859.874 690.481L860.743 689.316L861.601 688.142L862.448 686.958L863.284 685.765L864.109 684.563L864.923 683.351L865.725 682.13L866.516 680.901L867.296 679.662L868.063 678.415L868.819 677.159L869.563 675.895L870.295 674.622L871.015 673.341L871.723 672.051L872.418 670.754L873.102 669.449L873.773 668.136L874.431 666.815L875.076 665.486L875.709 664.15L876.329 662.807L876.936 661.456L877.531 660.099L878.112 658.734L878.68 657.362L879.234 655.984L879.776 654.599L880.304 653.208L880.818 651.81L881.319 650.406L881.807 648.996L882.28 647.58L882.74 646.158L883.186 644.73L883.618 643.297L884.036 641.858L884.44 640.414L884.829 638.965L885.205 637.51L885.566 636.051L885.913 634.587L886.246 633.119L886.564 631.645L886.867 630.168L887.156 628.686L887.43 627.201L887.69 625.711L887.934 624.218L888.164 622.721L888.379 621.22L888.579 619.716L888.764 618.209L888.935 616.699L889.09 615.185L889.229 613.67L889.354 612.151L889.464 610.63L889.558 609.107L889.637 607.581L889.701 606.054L889.749 604.524L889.782 602.993L889.799 601.461L889.801 599.927L889.788 598.391L889.759 596.855L889.714 595.317L889.654 593.779L889.578 592.24L889.487 590.701L889.38 589.161L889.257 587.621L889.119 586.081L888.965 584.541L888.795 583.001L888.609 581.462L888.408 579.924L888.191 578.386L887.958 576.849L887.709 575.313L887.445 573.778L887.165 572.245L886.869 570.713L886.557 569.183L886.229 567.655L885.886 566.129L885.526 564.605L885.151 563.083L884.761 561.564L884.354 560.047L883.932 558.533L883.494 557.023L883.04 555.515L882.57 554.01L882.085 552.509L881.584 551.012L881.067 549.518L880.535 548.028L879.987 546.543L879.424 545.061L878.845 543.584L878.25 542.112L877.64 540.644L877.014 539.181L876.373 537.723L875.717 536.27L875.045 534.822L874.357 533.38L873.655 531.944L872.937 530.514L872.204 529.089L871.455 527.671L870.692 526.258L869.913 524.852L869.12 523.453L868.311 522.061L867.488 520.675L866.649 519.297L865.796 517.925L864.928 516.561L864.045 515.205L863.147 513.856L862.235 512.515L861.309 511.182L860.368 509.857L859.412 508.54L858.442 507.232L857.458 505.932L856.46 504.641L855.447 503.359L854.421 502.085L853.381 500.821L852.326 499.567L851.258 498.321L850.176 497.085L849.08 495.859L847.971 494.643L846.849 493.437L845.712 492.241L844.563 491.055L843.4 489.88L842.225 488.715L841.036 487.561L839.834 486.418L838.619 485.286L837.392 484.165L836.152 483.055L834.899 481.957L833.634 480.87L832.357 479.795L831.067 478.732L829.766 477.68L828.452 476.641L827.126 475.614L825.788 474.599L824.439 473.596L823.078 472.606L821.706 471.629L820.322 470.665L818.927 469.714L817.521 468.775L816.104 467.85L814.676 466.938L813.237 466.04L811.788 465.155L810.328 464.284L808.857 463.426L807.377 462.582L805.886 461.753L804.385 460.937L802.875 460.136L801.354 459.349L799.824 458.577L798.285 457.819L796.736 457.075L795.178 456.347L793.611 455.633L792.035 454.935L790.451 454.251L788.857 453.582L787.256 452.929L785.646 452.291L784.027 451.669L782.401 451.062L780.767 450.471L779.125 449.895L777.475 449.336L775.818 448.792L774.154 448.264L772.482 447.752L770.804 447.257L769.118 446.777L767.426 446.314L765.728 445.868L764.023 445.438L762.312 445.024L760.595 444.627L758.872 444.247L757.143 443.884L755.409 443.537L753.669 443.208L751.924 442.895L750.174 442.599L748.42 442.321L746.66 442.06L744.896 441.816L743.128 441.589L741.355 441.379L739.578 441.187L737.798 441.013L736.013 440.856L734.226 440.717L732.434 440.595L730.64 440.491L728.843 440.404L727.043 440.335L725.24 440.285L723.434 440.252L721.627 440.237L719.817 440.239L718.006 440.26L716.192 440.299L714.377 440.355L712.561 440.43L710.743 440.523L708.925 440.634L707.105 440.763L705.285 440.91L703.464 441.076L701.643 441.259L699.822 441.461L698.001 441.681L696.18 441.919L694.36 442.176L692.54 442.451L690.721 442.744L688.903 443.055L687.087 443.385L685.271 443.733L683.457 444.099L681.645 444.484L679.835 444.886L678.027 445.307L676.221 445.747L674.418 446.204L672.617 446.68L670.819 447.175L669.024 447.687L667.233 448.217L665.444 448.766L663.66 449.333L661.879 449.918L660.102 450.522L658.329 451.143L656.561 451.783L654.797 452.44L653.038 453.116L651.284 453.809L649.535 454.521L647.792 455.25L646.053 455.998L644.321 456.763L642.594 457.546L640.873 458.347L639.159 459.165L637.451 460.001L635.749 460.855L634.054 461.727L632.367 462.616L630.686 463.522L629.013 464.446L627.347 465.387L625.689 466.345L624.039 467.321L622.397 468.314L620.763 469.323L619.137 470.35L617.52 471.394L615.912 472.455L614.313 473.533L612.723 474.627L611.143 475.738L609.572 476.865L608.01 478.01L606.459 479.17L604.917 480.347L603.386 481.54L601.865 482.749L600.354 483.974L598.855 485.216L597.366 486.473L595.889 487.746L594.422 489.034L592.967 490.339L591.524 491.658L590.092 492.993L588.673 494.344L587.265 495.709L585.87 497.09L584.487 498.486L583.117 499.896L581.759 501.321L580.415 502.761L579.083 504.216L577.765 505.684L576.46 507.167L575.169 508.664L573.891 510.176L572.628 511.701L571.378 513.24L570.143 514.792L568.922 516.358L567.715 517.938L566.523 519.53L565.346 521.136L564.184 522.755L563.037 524.386L561.905 526.031L560.788 527.688L559.687 529.357L558.602 531.039L557.532 532.732L556.479 534.438L555.441 536.155L554.42 537.885L553.415 539.626L552.427 541.378L551.455 543.141L550.5 544.915L549.562 546.701L548.641 548.497L547.737 550.304L546.85 552.121L545.981 553.948L545.129 555.786L544.295 557.633L543.479 559.491L542.681 561.358L541.9 563.234L541.138 565.12L540.394 567.014L539.668 568.918L538.96 570.83L538.272 572.751L537.601 574.68L536.95 576.618L536.318 578.564L535.704 580.517L535.109 582.478L534.534 584.447L533.978 586.423L533.441 588.406L532.924 590.396L532.427 592.392L531.948 594.396L531.49 596.405L531.052 598.421L530.633 600.443L530.234 602.471L529.856 604.504L529.497 606.543L529.159 608.587L528.841 610.635L528.543 612.689L528.266 614.747L528.009 616.81L527.773 618.877L527.558 620.948L527.363 623.023L527.189 625.102L527.035 627.183L526.903 629.268L526.791 631.357L526.701 633.447L526.631 635.541L526.583 637.637L526.556 639.735L526.55 641.835L526.565 643.937L526.601 646.04L526.659 648.145L526.738 650.251L526.838 652.358L526.96 654.465L527.103 656.573L527.267 658.682L527.454 660.79L527.661 662.898L527.89 665.006L528.141 667.114L528.413 669.22L528.707 671.326L529.022 673.43L529.359 675.533L529.718 677.635L530.098 679.734L530.5 681.832L530.923 683.927L531.369 686.02L531.835 688.11L532.324 690.197L532.834 692.281L533.365 694.361L533.918 696.438L534.493 698.511L535.09 700.581L535.707 702.646L536.347 704.706L537.008 706.762L537.69 708.813L538.394 710.859L539.119 712.899L539.866 714.934L540.634 716.963L541.424 718.987L542.235 721.004L543.067 723.014L543.92 725.019L544.794 727.016L545.69 729.006L546.606 730.989L547.544 732.964L548.503 734.932L549.482 736.892L550.483 738.844L551.504 740.787L552.546 742.722L553.608 744.648L554.692 746.565L555.795 748.473L556.92 750.372L558.064 752.261L559.229 754.14L560.415 756.009L561.62 757.868L562.846 759.716L564.091 761.554L565.357 763.381L566.642 765.197L567.947 767.001L569.272 768.794L570.616 770.576L571.98 772.345L573.363 774.103L574.765 775.848L576.187 777.58L577.627 779.3L579.087 781.008L580.565 782.701L582.062 784.382L583.577 786.049L585.112 787.703L586.664 789.343L588.235 790.968L589.824 792.58L591.431 794.177L593.055 795.759L594.698 797.326L596.358 798.879L598.036 800.416L599.731 801.938L601.443 803.444L603.172 804.935L604.918 806.409L606.682 807.868L608.461 809.31L610.257 810.735L612.07 812.144L613.899 813.537L615.743 814.912L617.604 816.27L619.481 817.61L621.373 818.933L623.28 820.239L625.203 821.526L627.141 822.796L629.093 824.047L631.061 825.28L633.043 826.495L635.039 827.691L637.05 828.868L639.075 830.026L641.114 831.165L643.166 832.284L645.232 833.384L647.312 834.465L649.404 835.526L651.51 836.567L653.628 837.587L655.759 838.588L657.903 839.568L660.058 840.528L662.226 841.468L664.406 842.386L666.597 843.284L668.799 844.16L671.013 845.016L673.238 845.85L675.474 846.663L677.72 847.455L679.977 848.224L682.244 848.972L684.521 849.698L686.808 850.402L689.105 851.084L691.411 851.744L693.726 852.382L696.05 852.997L698.383 853.589L700.724 854.159L703.073 854.706L705.431 855.23L707.797 855.731L710.17 856.209L712.55 856.664L714.938 857.096L717.333 857.504L719.734 857.889L722.142 858.251L724.557 858.589L726.977 858.903L729.403 859.194L731.835 859.46L734.271 859.703L736.714 859.922L739.161 860.116L741.612 860.287L744.068 860.433L746.528 860.556L748.992 860.654L751.46 860.727L753.931 860.776L756.405 860.801L758.882 860.801L761.362 860.776L763.845 860.727L766.329 860.654L768.816 860.555L771.304 860.432L773.794 860.284L776.285 860.111L778.777 859.914L781.269 859.691L783.762 859.444L786.255 859.171L788.749 858.874L791.242 858.552L793.734 858.205L796.225 857.832L798.716 857.435L801.205 857.013L803.693 856.565L806.179 856.093L808.662 855.596L811.144 855.073L813.623 854.526L816.099 853.953L818.572 853.356L821.041 852.733L823.507 852.086L825.969 851.413L828.427 850.715L830.881 849.993L833.33 849.246L835.774 848.473L838.213 847.676L840.647 846.854L843.074 846.007L845.496 845.136L847.912 844.239L850.322 843.318L852.724 842.373L855.12 841.402L857.508 840.408L859.89 839.388L862.263 838.344L864.628 837.276L866.986 836.184L869.334 835.067L871.674 833.926L874.005 832.761L876.327 831.572L878.639 830.359L880.942 829.121L883.234 827.861L885.517 826.576L887.788 825.267L890.049 823.935L892.299 822.58L894.538 821.201L896.765 819.799L898.981 818.373L901.184 816.925L903.376 815.453L905.555 813.958L907.721 812.441L909.874 810.901L912.014 809.338L914.14 807.753L916.253 806.145L918.352 804.515L920.436 802.863L922.506 801.189L924.562 799.493L926.602 797.776L928.628 796.036L930.638 794.275L932.632 792.493L934.611 790.69L936.574 788.865L938.52 787.019L940.45 785.153L942.363 783.266L944.259 781.359L946.137 779.431L947.999 777.483L949.842 775.515L951.668 773.527L953.476 771.519L955.265 769.492L957.036 767.445L958.788 765.379L960.521 763.294L962.235 761.19L963.93 759.068L965.605 756.926L967.26 754.767L968.895 752.589L970.51 750.394L972.104 748.18L973.678 745.949L975.231 743.701L976.763 741.435L978.274 739.152L979.763 736.853L981.231 734.536L982.677 732.204L984.101 729.855L985.502 727.49L986.882 725.109L988.239 722.712L989.573 720.301L990.884 717.874L992.172 715.432L993.437 712.975L994.678 710.503L995.896 708.018L997.09 705.518L998.26 703.004L999.405 700.477L1000.53 697.936L1001.62 695.383L1002.7 692.816L1003.74 690.236L1004.77 687.644L1005.76 685.04L1006.74 682.423L1007.68 679.795L1008.61 677.156L1009.5 674.505L1010.37 671.843L1011.22 669.17L1012.03 666.487L1012.83 663.793L1013.59 661.089L1014.33 658.376L1015.04 655.653L1015.73 652.921L1016.39 650.179L1017.02 647.429L1017.62 644.671L1018.2 641.904L1018.75 639.129L1019.27 636.346L1019.77 633.556L1020.24 630.759L1020.68 627.955L1021.09 625.144L1021.47 622.327L1021.83 619.504L1022.16 616.675L1022.46 613.841L1022.73 611.001L1022.97 608.156L1023.18 605.306L1023.37 602.452L1023.53 599.594L1023.66 596.732L1023.76 593.866L1023.83 590.997L1023.87 588.125L1023.88 585.25L1023.87 582.373L1023.82 579.494L1023.75 576.612L1023.64 573.729L1023.51 570.845L1023.35 567.96L1023.16 565.074L1022.94 562.187L1022.69 559.301L1022.41 556.414L1022.1 553.528L1021.76 550.643L1021.39 547.758L1020.99 544.875L1020.57 541.994L1020.11 539.114L1019.62 536.237L1019.11 533.362L1018.56 530.49L1017.99 527.621L1017.38 524.755L1016.75 521.893L1016.08 519.035L1015.39 516.181L1014.67 513.332L1013.92 510.487L1013.13 507.648L1012.32 504.814L1011.48 501.986L1010.61 499.164L1009.71 496.348L1008.78 493.539L1007.82 490.737L1006.83 487.942L1005.81 485.155L1004.77 482.375L1003.69 479.604L1002.59 476.841L1001.45 474.087L1000.29 471.341L999.095 468.606L997.874 465.879L996.623 463.163L995.344 460.456L994.036 457.761L992.7 455.076L991.335 452.402L989.941 449.739L988.519 447.088L987.069 444.449L985.59 441.823L984.083 439.208L982.548 436.607L980.986 434.019L979.395 431.444L977.777 428.883L976.131 426.336L974.457 423.803L972.756 421.284L971.028 418.78L969.273 416.292L967.49 413.819L965.681 411.361L963.845 408.92L961.982 406.495L960.093 404.086L958.177 401.694L956.235 399.319L954.267 396.961L952.273 394.621L950.253 392.299L948.207 389.995L946.136 387.71L944.04 385.443L941.918 383.195L939.772 380.966L937.6 378.757L935.404 376.567L933.184 374.398L930.939 372.248L928.67 370.12L926.377 368.012L924.06 365.925L921.719 363.859L919.355 361.815L916.968 359.793L914.558 357.792L912.125 355.814L909.67 353.859L907.192 351.926L904.691 350.016L902.169 348.13L899.625 346.267L897.059 344.428L894.472 342.612L891.864 340.821L889.235 339.054L886.585 337.312L883.915 335.595L881.225 333.903L878.514 332.236L875.784 330.595L873.034 328.979L870.265 327.39L867.476 325.826L864.669 324.289L861.844 322.779L859 321.295L856.138 319.839L853.258 318.409L850.36 317.007L847.445 315.633L844.513 314.286L841.565 312.967L838.6 311.677L835.618 310.415L832.621 309.181L829.608 307.976L826.579 306.8L823.535 305.653L820.477 304.536L817.403 303.448L814.316 302.389L811.214 301.36L808.098 300.361L804.97 299.393L801.827 298.454L798.672 297.546L795.505 296.668L792.325 295.821L789.133 295.005L785.929 294.22L782.714 293.467L779.488 292.744L776.251 292.053L773.004 291.393L769.746 290.765L766.478 290.169L763.201 289.605L759.915 289.072L756.62 288.572L753.316 288.105L750.003 287.669L746.683 287.266L743.355 286.896L740.02 286.558L736.677 286.254L733.328 285.982L729.973 285.743L726.611 285.537L723.244 285.365L719.871 285.225L716.493 285.119L713.111 285.047L709.724 285.008L706.333 285.002L702.938 285.03L699.54 285.092L696.139 285.188L692.735 285.317L689.329 285.48L685.921 285.677L682.51 285.909L679.099 286.174L675.687 286.473L672.273 286.806L668.86 287.174L665.446 287.575L662.033 288.011L658.621 288.481L655.209 288.985L651.799 289.524L648.391 290.096L644.985 290.703L641.581 291.345L638.18 292.02L634.782 292.73L631.388 293.474L627.997 294.252L624.611 295.065L621.229 295.912L617.852 296.793L614.48 297.709L611.114 298.658L607.754 299.642L604.4 300.66L601.052 301.712L597.712 302.798L594.379 303.918L591.054 305.072L587.736 306.26L584.428 307.481L581.128 308.737L577.837 310.026L574.555 311.349L571.283 312.706L568.022 314.096L564.77 315.52L561.53 316.977L558.301 318.467L555.084 319.991L551.878 321.548L548.685 323.138L545.504 324.761L542.336 326.417L539.182 328.105L536.041 329.826L532.914 331.58L529.801 333.366L526.703 335.185L523.62 337.035L520.553 338.918L517.501 340.833L514.465 342.779L511.445 344.758L508.442 346.768L505.457 348.809L502.488 350.881L499.538 352.985L496.605 355.12L493.691 357.285L490.795 359.481L487.919 361.708L485.062 363.965L482.224 366.252L479.407 368.569L476.61 370.916L473.833 373.293L471.078 375.699L468.344 378.135L465.631 380.599L462.941 383.093L460.273 385.615L457.627 388.166L455.004 390.745L452.405 393.352L449.829 395.987L447.276 398.649L444.748 401.34L442.245 404.057L439.766 406.802L437.312 409.573L434.883 412.371L432.481 415.195L430.104 418.046L427.753 420.922L425.428 423.824L423.131 426.751L420.861 429.704L418.618 432.681L416.402 435.684L414.215 438.71L412.055 441.761L409.925 444.836L407.823 447.934L405.75 451.055L403.706 454.2L401.692 457.368L399.707 460.558L397.753 463.77L395.829 467.005L393.936 470.261L392.073 473.539L390.242 476.837L388.442 480.157L386.673 483.497L384.936 486.857L383.232 490.238L381.559 493.638L379.92 497.057L378.313 500.495L376.739 503.953L375.198 507.428L373.69 510.922L372.217 514.433L370.777 517.962L369.371 521.509L368 525.071L366.663 528.651L365.36 532.247L364.093 535.858L362.861 539.485L361.664 543.127L360.502 546.784L359.377 550.456L358.287 554.141L357.233 557.841L356.215 561.554L355.234 565.28L354.29 569.018L353.382 572.77L352.511 576.533L351.677 580.308L350.88 584.094L350.121 587.892L349.4 591.699L348.716 595.518L348.069 599.346L347.461 603.183L346.891 607.03L346.359 610.886L345.866 614.75L345.411 618.622L344.994 622.501L344.617 626.388L344.278 630.282L343.978 634.182L343.718 638.089L343.496 642.001L343.314 645.919L343.171 649.841L343.068 653.769L343.004 657.7L342.98 661.636L342.996 665.574L343.051 669.516L343.146 673.461L343.282 677.407L343.457 681.356L343.672 685.306L343.928 689.257L344.223 693.209L344.559 697.161L344.936 701.113L345.352 705.065L345.809 709.016L346.307 712.965L346.844 716.912L347.423 720.858L348.042 724.801L348.701 728.741L349.401 732.677L350.141 736.61L350.922 740.539L351.743 744.463L352.605 748.382L353.508 752.296L354.451 756.205L355.434 760.107L356.458 764.002L357.523 767.89L358.628 771.771L359.773 775.645L360.959 779.51L362.185 783.366L363.451 787.213L364.758 791.051L366.105 794.879L367.492 798.697L368.919 802.504L370.386 806.301L371.893 810.085L373.44 813.858L375.026 817.619L376.653 821.366L378.319 825.101L380.024 828.823L381.77 832.53L383.554 836.223L385.378 839.902L387.24 843.565L389.142 847.213L391.083 850.845L393.062 854.46L395.081 858.059L397.137 861.641L399.233 865.205L401.366 868.752L403.538 872.28L405.747 875.79L407.995 879.28L410.28 882.751L412.603 886.203L414.963 889.633L417.361 893.044L419.795 896.433L422.266 899.801L424.774 903.147L427.319 906.471L429.9 909.773L432.517 913.051L435.17 916.307L437.859 919.538L440.583 922.746L443.343 925.929L446.138 929.088L448.968 932.221L451.833 935.329L454.732 938.41L457.665 941.466L460.633 944.495L463.634 947.497L466.669 950.472L469.737 953.419L472.839 956.338L475.973 959.228L479.14 962.09L482.339 964.923L485.57 967.726L488.834 970.5L492.128 973.243L495.454 975.956L498.811 978.638L502.199 981.289L505.617 983.909L509.066 986.497L512.544 989.053L516.052 991.576L519.589 994.067L523.156 996.524L526.751 998.949L530.374 1001.34L534.025 1003.7L537.705 1006.02L541.411 1008.31L545.145 1010.56L548.906 1012.78L552.693 1014.96L556.506 1017.1L560.345 1019.21L564.21 1021.29L568.1 1023.32L572.014 1025.33L575.953 1027.29L579.917 1029.21L583.903 1031.1L587.914 1032.95L591.947 1034.76L596.003 1036.54L600.082 1038.27L604.182 1039.97L608.304 1041.62L612.447 1043.24L616.611 1044.81L620.796 1046.35L625 1047.85L629.224 1049.3L633.468 1050.72L637.73 1052.09L642.011 1053.42L646.31 1054.72L650.627 1055.97L654.961 1057.17L659.312 1058.34L663.679 1059.46L668.063 1060.55L672.462 1061.58L676.877 1062.58L681.306 1063.53L685.75 1064.44L690.208 1065.31L694.68 1066.13L699.164 1066.91L703.662 1067.65L708.172 1068.34L712.693 1068.99L717.226 1069.59L721.77 1070.15L726.325 1070.66L730.89 1071.13L735.465 1071.56L740.048 1071.94L744.641 1072.27L749.242 1072.56L753.851 1072.8L758.467 1073L763.091 1073.15L767.721 1073.26L772.357 1073.32L776.999 1073.34L781.646 1073.31L786.297 1073.23L790.953 1073.1L795.613 1072.94L800.276 1072.72L804.942 1072.46L809.611 1072.15L814.281 1071.79L818.953 1071.39L823.626 1070.94L828.299 1070.45L832.973 1069.9L837.646 1069.31L842.318 1068.68L846.989 1067.99L851.658 1067.27L856.324 1066.49L860.988 1065.66L865.649 1064.79L870.306 1063.88L874.959 1062.91L879.607 1061.9L884.25 1060.84L888.887 1059.74L893.518 1058.59L898.143 1057.39L902.761 1056.14L907.37 1054.85L911.972 1053.51L916.566 1052.12L921.15 1050.69L925.725 1049.21L930.29 1047.68L934.844 1046.11L939.387 1044.49L943.919 1042.83L948.44 1041.12L952.947 1039.36L957.442 1037.55L961.924 1035.7L966.392 1033.81L970.845 1031.87L975.284 1029.88L979.707 1027.85L984.115 1025.77L988.506 1023.64L992.881 1021.47L997.238 1019.26L1001.58 1017L1005.9 1014.69L1010.2 1012.34L1014.49 1009.95L1018.75 1007.51L1023 1005.03L1027.22 1002.5L1031.42 999.932L1035.61 997.317L1039.77 994.659L1043.9 991.957L1048.02 989.213L1052.11 986.425L1056.18 983.594L1060.22 980.721L1064.24 977.805L1068.24 974.847L1072.2 971.847L1076.15 968.805L1080.06 965.721L1083.95 962.596L1087.81 959.43L1091.65 956.224L1095.45 952.976L1099.23 949.688L1102.98 946.36L1106.7 942.992L1110.38 939.585L1114.04 936.138L1117.67 932.652L1121.26 929.127L1124.83 925.564" stroke="#9B9CA0" stroke-opacity="0.2" stroke-width="10" stroke-linecap="round"/>
</svg>
