<svg width="23" height="28" viewBox="0 0 23 28" fill="none" xmlns="http://www.w3.org/2000/svg">
<path d="M20.3855 2.62936L3.32745 4.0136C3.0094 4.04029 2.01286 4.74642 1.87593 6.27811L0.735277 19.1087C0.67634 19.778 0.721262 21.3417 1.79723 21.5854L18.396 25.3391C18.501 25.3632 18.6077 25.375 18.713 25.375C19.1144 25.375 20.5609 24.9817 20.7111 23.278L22.2644 5.80779C22.4103 4.1746 21.5956 2.52917 20.3855 2.62936ZM3.37309 4.79629L20.429 3.4116C20.6437 3.39136 20.858 3.45578 21.0403 3.59536L12.3614 13.1657L12.3718 13.0598L7.72979 12.5007L7.97057 10.0634L12.6424 10.3311L12.8635 8.08892L6.55895 8.04867L6.29984 10.6702L3.05289 4.98617C3.16034 4.87198 3.27175 4.80461 3.37309 4.79629ZM1.38503 19.1914L2.52568 6.36123C2.54617 6.12936 2.59432 5.89967 2.66404 5.68967L6.19095 11.77L5.96274 14.0783L1.39293 19.7955C1.36975 19.5953 1.3671 19.3924 1.38503 19.1914ZM18.5171 24.5682L1.91798 20.814C1.8267 20.7939 1.73614 20.7187 1.65564 20.6001L5.83553 15.3711L5.52754 18.4918L11.6596 20.2737L11.8813 18.0315L7.29099 16.9435L7.53249 14.5049L12.1515 15.3024L12.2346 14.4594L12.7298 13.9322L13.8065 15.6795L19.2068 24.4444C18.9944 24.5769 18.752 24.6204 18.5171 24.5682ZM21.615 5.33223L20.0614 22.802C20.0236 23.2277 19.8971 23.621 19.7034 23.9317L13.2164 13.4032L21.4676 4.18948C21.5991 4.51629 21.6523 4.91442 21.615 5.33223Z" fill="#F4ECCA"/>
</svg>
