<svg width="21" height="26" viewBox="0 0 21 26" fill="none" xmlns="http://www.w3.org/2000/svg">
<path d="M10.5 0C4.71012 0 0 4.38252 0 9.76765C0 17.8332 9.80088 25.5777 10.2183 25.9035C10.2962 25.9652 10.3952 25.9994 10.4976 26C10.6001 26.0006 10.6994 25.9676 10.7782 25.9068C11.1956 25.5867 21 17.9753 21 9.76765C21 4.38252 16.2899 0 10.5 0ZM10.5017 25.0553C8.89087 23.7188 0.875 16.7201 0.875 9.76765C0.875 4.82939 5.19312 0.812481 10.5 0.812481C15.8069 0.812481 20.125 4.82939 20.125 9.76765C20.125 16.8379 12.117 23.7366 10.5017 25.0553Z" fill="#F4EABB"/>
<path d="M10.5 4.875C7.60462 4.875 5.25 7.06144 5.25 9.75C5.25 12.4386 7.60462 14.625 10.5 14.625C13.3954 14.625 15.75 12.4386 15.75 9.75C15.75 7.06144 13.3954 4.875 10.5 4.875ZM10.5 13.8125C8.08763 13.8125 6.125 11.9901 6.125 9.75C6.125 7.50994 8.08763 5.6875 10.5 5.6875C12.9124 5.6875 14.875 7.50994 14.875 9.75C14.875 11.9901 12.9124 13.8125 10.5 13.8125Z" fill="#F4EABB"/>
</svg>
