<svg width="22" height="23" viewBox="0 0 22 23" fill="none" xmlns="http://www.w3.org/2000/svg">
<path d="M18.9817 14.091C18.8761 13.3239 18.3096 12.7259 17.5803 12.5477C14.7456 11.8531 14.035 10.1465 13.9151 8.2536C13.4124 8.15585 12.5181 8.05005 11.0001 8.05005C9.48209 8.05005 8.58779 8.15585 8.08509 8.2536C7.96519 10.1465 7.25459 11.8531 4.41989 12.5477C3.69059 12.7271 3.12409 13.3239 3.01849 14.091L2.47179 18.0493C2.27929 19.4431 3.25829 20.7 4.62009 20.7H17.3801C18.7408 20.7 19.7209 19.4431 19.5284 18.0493L18.9817 14.091ZM11.0001 17.8158C9.46559 17.8158 8.22149 16.5278 8.22149 14.9408C8.22149 13.3538 9.46559 12.0658 11.0001 12.0658C12.5346 12.0658 13.7787 13.3538 13.7787 14.9408C13.7787 16.5278 12.5335 17.8158 11.0001 17.8158ZM21.9451 6.90005C21.9187 5.17505 17.7189 2.3012 11.0001 2.30005C4.28019 2.3012 0.0803926 5.17505 0.0550926 6.90005C0.0297926 8.62505 0.0781926 10.8698 2.84359 10.4961C6.07869 10.0579 5.87959 8.8769 5.87959 7.1887C5.87959 6.0111 8.51079 5.72705 11.0001 5.72705C13.4894 5.72705 16.1195 6.0111 16.1206 7.1887C16.1206 8.8769 15.9215 10.0579 19.1566 10.4961C21.9209 10.8698 21.9704 8.62505 21.9451 6.90005Z" fill="#F4ECCA"/>
</svg>
