<svg width="602" height="884" viewBox="0 0 602 884" fill="none" xmlns="http://www.w3.org/2000/svg">
<path d="M544.479 330.088L544.368 329.53L544.252 328.971L544.131 328.414L544.004 327.858L543.871 327.303L543.733 326.748L543.589 326.195L543.439 325.643L543.284 325.092L543.123 324.543L542.957 323.994L542.785 323.447L542.608 322.902L542.425 322.358L542.236 321.816L542.042 321.275L541.843 320.736L541.637 320.198L541.427 319.663L541.211 319.129L540.989 318.597L540.762 318.068L540.529 317.54L540.291 317.014L540.047 316.49L539.798 315.969L539.544 315.45L539.284 314.933L539.019 314.418L538.748 313.906L538.472 313.397L538.191 312.89L537.904 312.385L537.612 311.883L537.315 311.384L537.012 310.888L536.705 310.394L536.392 309.904L536.073 309.416L535.75 308.931L535.421 308.449L535.088 307.971L534.749 307.495L534.405 307.023L534.056 306.554L533.702 306.088L533.343 305.626L532.979 305.167L532.61 304.711L532.236 304.259L531.857 303.811L531.473 303.366L531.085 302.925L530.692 302.488L530.293 302.054L529.89 301.624L529.483 301.198L529.07 300.776L528.653 300.358L528.232 299.944L527.805 299.535L527.375 299.129L526.939 298.727L526.499 298.33L526.055 297.937L525.606 297.548L525.153 297.164L524.696 296.784L524.234 296.409L523.768 296.038L523.297 295.672L522.823 295.31L522.344 294.953L521.861 294.6L521.375 294.253L520.884 293.91L520.389 293.572L519.89 293.239L519.387 292.911L518.88 292.588L518.37 292.269L517.856 291.956L517.338 291.648L516.816 291.345L516.291 291.048L515.762 290.755L515.229 290.468L514.693 290.186L514.154 289.909L513.611 289.638L513.065 289.372L512.515 289.112L511.963 288.857L511.407 288.607L510.847 288.364L510.285 288.125L509.72 287.893L509.151 287.666L508.58 287.445L508.006 287.229L507.429 287.02L506.849 286.816L506.266 286.618L505.681 286.425L505.093 286.239L504.502 286.059L503.909 285.884L503.313 285.716L502.715 285.553L502.115 285.397L501.512 285.247L500.907 285.102L500.3 284.964L499.69 284.832L499.079 284.707L498.465 284.587L497.85 284.474L497.232 284.367L496.613 284.266L495.992 284.171L495.369 284.083L494.745 284.001L494.119 283.926L493.491 283.857L492.862 283.794L492.231 283.738L491.599 283.688L490.966 283.644L490.331 283.607L489.696 283.577L489.059 283.553L488.421 283.536L487.782 283.525L487.142 283.521L486.501 283.523L485.86 283.532L485.217 283.547L484.574 283.569L483.931 283.598L483.286 283.633L482.642 283.675L481.996 283.723L481.351 283.779L480.705 283.841L480.059 283.909L479.413 283.984L478.766 284.066L478.12 284.155L477.473 284.25L476.827 284.352L476.181 284.46L475.535 284.576L474.889 284.698L474.244 284.827L473.599 284.962L472.954 285.104L472.31 285.253L471.667 285.408L471.024 285.571L470.383 285.74L469.741 285.915L469.101 286.097L468.462 286.286L467.824 286.482L467.186 286.684L466.55 286.893L465.916 287.109L465.282 287.331L464.65 287.56L464.019 287.795L463.39 288.038L462.762 288.286L462.136 288.542L461.511 288.803L460.888 289.072L460.267 289.347L459.648 289.628L459.031 289.917L458.416 290.211L457.803 290.512L457.192 290.82L456.583 291.134L455.976 291.454L455.372 291.781L454.77 292.114L454.171 292.454L453.574 292.8L452.98 293.152L452.389 293.51L451.8 293.875L451.214 294.246L450.631 294.624L450.051 295.007L449.473 295.397L448.899 295.793L448.328 296.195L447.76 296.603L447.196 297.017L446.634 297.437L446.076 297.864L445.522 298.296L444.971 298.734L444.423 299.178L443.88 299.628L443.339 300.084L442.803 300.545L442.27 301.013L441.742 301.486L441.217 301.965L440.696 302.449L440.179 302.939L439.667 303.435L439.158 303.936L438.654 304.443L438.154 304.955L437.658 305.473L437.167 305.996L436.68 306.525L436.198 307.058L435.721 307.597L435.248 308.141L434.779 308.691L434.316 309.245L433.857 309.805L433.403 310.37L432.954 310.939L432.51 311.514L432.071 312.093L431.638 312.678L431.209 313.267L430.785 313.861L430.367 314.459L429.954 315.062L429.547 315.67L429.145 316.282L428.748 316.899L428.357 317.521L427.971 318.146L427.591 318.776L427.216 319.41L426.848 320.049L426.485 320.691L426.128 321.338L425.776 321.989L425.431 322.644L425.092 323.302L424.758 323.965L424.431 324.631L424.11 325.301L423.794 325.975L423.485 326.653L423.183 327.334L422.886 328.018L422.596 328.706L422.312 329.397L422.034 330.092L421.763 330.79L421.499 331.491L421.241 332.195L420.989 332.903L420.744 333.613L420.506 334.326L420.274 335.042L420.049 335.761L419.831 336.483L419.619 337.207L419.414 337.934L419.217 338.663L419.026 339.395L418.841 340.129L418.664 340.866L418.494 341.605L418.331 342.346L418.175 343.089L418.026 343.834L417.884 344.581L417.749 345.33L417.621 346.081L417.5 346.834L417.387 347.588L417.281 348.344L417.182 349.101L417.09 349.86L417.006 350.62L416.929 351.382L416.859 352.145L416.797 352.909L416.742 353.674L416.694 354.44L416.654 355.207L416.622 355.975L416.596 356.744L416.579 357.513L416.568 358.283L416.566 359.054L416.57 359.825L416.583 360.596L416.603 361.368L416.63 362.14L416.665 362.912L416.708 363.685L416.758 364.457L416.816 365.229L416.882 366.001L416.955 366.773L417.036 367.545L417.124 368.316L417.22 369.087L417.324 369.857L417.435 370.627L417.554 371.395L417.681 372.164L417.815 372.931L417.958 373.697L418.107 374.463L418.265 375.227L418.43 375.99L418.603 376.752L418.783 377.513L418.971 378.272L419.167 379.029L419.371 379.785L419.582 380.54L419.801 381.293L420.027 382.043L420.261 382.793L420.503 383.54L420.752 384.285L421.009 385.028L421.274 385.768L421.546 386.507L421.825 387.243L422.113 387.976L422.408 388.707L422.71 389.436L423.02 390.162L423.337 390.885L423.662 391.605L423.994 392.323L424.334 393.037L424.681 393.748L425.036 394.456L425.398 395.161L425.767 395.863L426.144 396.561L426.528 397.256L426.919 397.947L427.318 398.635L427.724 399.319L428.137 399.999L428.557 400.675L428.984 401.348L429.419 402.016L429.86 402.68L430.309 403.341L430.765 403.997L431.228 404.648L431.697 405.296L432.174 405.939L432.658 406.577L433.148 407.211L433.645 407.84L434.149 408.464L434.66 409.084L435.178 409.699L435.702 410.308L436.233 410.913L436.771 411.513L437.315 412.107L437.865 412.697L438.423 413.281L438.986 413.859L439.556 414.432L440.132 415L440.715 415.562L441.304 416.118L441.899 416.669L442.5 417.214L443.108 417.753L443.721 418.286L444.34 418.813L444.966 419.334L445.597 419.849L446.234 420.358L446.877 420.86L447.526 421.357L448.181 421.846L448.841 422.33L449.506 422.807L450.178 423.277L450.854 423.741L451.536 424.198L452.224 424.648L452.917 425.092L453.615 425.529L454.318 425.959L455.026 426.381L455.74 426.797L456.458 427.206L457.182 427.608L457.91 428.002L458.643 428.389L459.381 428.769L460.123 429.142L460.87 429.507L461.622 429.865L462.378 430.215L463.139 430.557L463.904 430.892L464.673 431.22L465.446 431.539L466.224 431.851L467.005 432.155L467.791 432.452L468.58 432.74L469.374 433.021L470.171 433.293L470.972 433.557L471.776 433.814L472.584 434.062L473.396 434.302L474.211 434.534L475.029 434.758L475.851 434.973L476.675 435.18L477.503 435.379L478.334 435.57L479.168 435.752L480.005 435.925L480.844 436.09L481.687 436.247L482.531 436.395L483.379 436.534L484.229 436.665L485.081 436.787L485.936 436.9L486.792 437.005L487.651 437.101L488.513 437.188L489.376 437.267L490.24 437.337L491.107 437.397L491.976 437.449L492.846 437.492L493.718 437.527L494.591 437.552L495.465 437.568L496.341 437.575L497.218 437.574L498.097 437.563L498.976 437.543L499.856 437.515L500.737 437.477L501.619 437.43L502.502 437.374L503.385 437.309L504.269 437.235L505.153 437.152L506.037 437.059L506.922 436.958L507.807 436.847L508.692 436.728L509.577 436.599L510.462 436.461L511.347 436.313L512.231 436.157L513.116 435.991L513.999 435.816L514.882 435.633L515.765 435.439L516.647 435.237L517.527 435.026L518.407 434.805L519.286 434.575L520.164 434.336L521.041 434.088L521.917 433.831L522.791 433.565L523.663 433.289L524.534 433.004L525.404 432.711L526.272 432.408L527.137 432.096L528.001 431.775L528.863 431.445L529.723 431.106L530.581 430.758L531.436 430.401L532.29 430.034L533.14 429.659L533.988 429.275L534.834 428.882L535.676 428.481L536.516 428.07L537.353 427.65L538.187 427.222L539.018 426.784L539.846 426.338L540.67 425.884L541.491 425.42L542.309 424.948L543.123 424.467L543.933 423.977L544.74 423.479L545.543 422.972L546.342 422.457L547.137 421.933L547.928 421.401L548.714 420.86L549.497 420.311L550.275 419.754L551.049 419.188L551.818 418.614L552.583 418.032L553.343 417.442L554.098 416.843L554.848 416.236L555.594 415.622L556.334 414.999L557.069 414.368L557.799 413.729L558.524 413.083L559.243 412.429L559.957 411.767L560.666 411.097L561.368 410.419L562.065 409.734L562.757 409.042L563.442 408.341L564.122 407.634L564.795 406.919L565.463 406.197L566.124 405.467L566.779 404.73L567.427 403.986L568.069 403.235L568.705 402.477L569.334 401.712L569.957 400.94L570.572 400.161L571.181 399.376L571.783 398.583L572.378 397.784L572.966 396.979L573.547 396.167L574.121 395.348L574.687 394.524L575.247 393.692L575.799 392.855L576.343 392.012L576.88 391.162L577.409 390.306L577.93 389.445L578.444 388.577L578.95 387.704L579.448 386.825L579.939 385.941L580.421 385.051L580.895 384.155L581.361 383.254L581.819 382.348L582.268 381.437L582.71 380.52L583.142 379.598L583.567 378.671L583.983 377.74L584.39 376.803L584.789 375.862L585.179 374.917L585.56 373.966L585.933 373.011L586.297 372.052L586.651 371.089L586.997 370.121L587.334 369.149L587.662 368.173L587.981 367.194L588.29 366.21L588.59 365.223L588.881 364.231L589.163 363.237L589.436 362.239L589.699 361.237L589.952 360.233L590.196 359.225L590.431 358.214L590.656 357.199L590.871 356.182L591.077 355.163L591.273 354.14L591.459 353.115L591.636 352.088L591.802 351.058L591.959 350.025L592.106 348.991L592.243 347.954L592.37 346.915L592.487 345.875L592.594 344.832L592.691 343.788L592.778 342.742L592.855 341.695L592.922 340.646L592.978 339.597L593.025 338.545L593.061 337.493L593.087 336.44L593.102 335.386L593.108 334.331L593.103 333.275L593.087 332.219L593.062 331.163L593.026 330.106L592.979 329.048L592.923 327.991L592.855 326.934L592.778 325.876L592.69 324.819L592.591 323.762L592.482 322.706L592.363 321.65L592.233 320.595L592.093 319.54L591.942 318.486L591.781 317.433L591.609 316.381L591.426 315.331L591.233 314.281L591.03 313.233L590.816 312.186L590.592 311.141L590.357 310.098L590.111 309.056L589.856 308.017L589.589 306.979L589.312 305.944L589.025 304.91L588.727 303.879L588.419 302.851L588.1 301.825L587.77 300.802L587.431 299.781L587.081 298.764L586.72 297.749L586.349 296.737L585.968 295.729L585.576 294.724L585.174 293.723L584.762 292.725L584.339 291.73L583.907 290.74L583.463 289.753L583.01 288.77L582.547 287.792L582.073 286.817L581.589 285.847L581.095 284.881L580.591 283.92L580.077 282.963L579.553 282.011L579.018 281.064L578.474 280.122L577.92 279.184L577.356 278.252L576.783 277.326L576.199 276.404L575.606 275.488L575.003 274.578L574.39 273.673L573.767 272.774L573.135 271.88L572.494 270.993L571.843 270.112L571.182 269.237L570.512 268.368L569.833 267.506L569.144 266.65L568.446 265.801L567.739 264.958L567.022 264.122L566.297 263.293L565.562 262.471L564.819 261.656L564.066 260.848L563.305 260.047L562.535 259.254L561.756 258.468L560.968 257.69L560.172 256.919L559.367 256.156L558.554 255.401L557.732 254.654L556.902 253.914L556.063 253.183L555.216 252.46L554.361 251.745L553.498 251.039L552.627 250.341L551.748 249.652L550.861 248.971L549.967 248.299L549.064 247.636L548.154 246.981L547.236 246.336L546.311 245.699L545.378 245.072L544.438 244.454L543.49 243.845L542.536 243.246L541.574 242.656L540.606 242.075L539.63 241.504L538.647 240.943L537.658 240.392L536.662 239.85L535.66 239.319L534.65 238.797L533.635 238.285L532.613 237.784L531.585 237.292L530.551 236.811L529.51 236.341L528.464 235.88L527.412 235.43L526.354 234.991L525.29 234.562L524.221 234.144L523.146 233.737L522.066 233.34L520.981 232.955L519.89 232.58L518.795 232.216L517.694 231.863L516.588 231.522L515.478 231.191L514.363 230.872L513.243 230.564L512.119 230.267L510.991 229.981L509.858 229.707L508.721 229.445L507.58 229.194L506.435 228.955L505.286 228.727L504.134 228.511L502.978 228.306L501.818 228.113L500.655 227.932L499.489 227.763L498.319 227.606L497.146 227.461L495.971 227.327L494.792 227.206L493.611 227.097L492.428 226.999L491.241 226.914L490.053 226.841L488.862 226.78L487.668 226.731L486.473 226.695L485.276 226.671L484.077 226.659L482.877 226.659L481.675 226.672L480.471 226.697L479.266 226.734L478.06 226.784L476.853 226.846L475.644 226.921L474.435 227.008L473.225 227.107L472.015 227.219L470.804 227.343L469.593 227.48L468.381 227.63L467.169 227.792L465.958 227.966L464.746 228.154L463.535 228.353L462.324 228.565L461.113 228.79L459.903 229.027L458.694 229.277L457.486 229.54L456.278 229.815L455.072 230.102L453.867 230.402L452.663 230.715L451.461 231.04L450.26 231.378L449.062 231.728L447.865 232.09L446.669 232.466L445.476 232.853L444.286 233.254L443.097 233.666L441.911 234.091L440.728 234.529L439.548 234.979L438.37 235.441L437.195 235.916L436.023 236.402L434.855 236.902L433.69 237.413L432.528 237.937L431.37 238.473L430.216 239.022L429.065 239.582L427.919 240.155L426.776 240.739L425.638 241.336L424.504 241.945L423.375 242.566L422.25 243.198L421.13 243.843L420.014 244.499L418.904 245.168L417.799 245.848L416.699 246.54L415.604 247.243L414.515 247.959L413.431 248.686L412.353 249.424L411.28 250.174L410.214 250.935L409.154 251.708L408.1 252.492L407.052 253.287L406.01 254.094L404.975 254.912L403.947 255.741L402.925 256.58L401.911 257.431L400.903 258.293L399.902 259.166L398.909 260.049L397.923 260.943L396.944 261.848L395.973 262.763L395.01 263.689L394.054 264.626L393.106 265.572L392.167 266.529L391.235 267.496L390.312 268.474L389.397 269.461L388.49 270.458L387.592 271.465L386.703 272.482L385.822 273.509L384.95 274.546L384.088 275.591L383.234 276.647L382.39 277.712L381.554 278.786L380.729 279.869L379.912 280.961L379.106 282.063L378.309 283.173L377.522 284.292L376.745 285.42L375.977 286.557L375.22 287.702L374.473 288.855L373.737 290.017L373.01 291.187L372.295 292.366L371.59 293.552L370.895 294.746L370.211 295.948L369.538 297.158L368.877 298.375L368.226 299.6L367.586 300.833L366.957 302.072L366.34 303.319L365.734 304.573L365.14 305.834L364.557 307.101L363.985 308.376L363.426 309.657L362.878 310.944L362.342 312.238L361.818 313.538L361.306 314.845L360.806 316.157L360.318 317.475L359.843 318.799L359.38 320.129L358.929 321.464L358.491 322.804L358.065 324.15L357.652 325.501L357.251 326.857L356.863 328.218L356.488 329.584L356.126 330.954L355.777 332.329L355.441 333.709L355.118 335.092L354.808 336.48L354.511 337.872L354.227 339.267L353.956 340.667L353.699 342.07L353.456 343.476L353.225 344.886L353.008 346.298L352.805 347.714L352.615 349.133L352.439 350.555L352.277 351.979L352.128 353.406L351.993 354.835L351.872 356.267L351.764 357.7L351.671 359.135L351.591 360.573L351.525 362.012L351.474 363.452L351.436 364.894L351.412 366.337L351.403 367.781L351.407 369.226L351.426 370.672L351.459 372.118L351.506 373.565L351.567 375.013L351.642 376.46L351.732 377.908L351.836 379.356L351.954 380.803L352.087 382.25L352.234 383.697L352.395 385.142L352.57 386.587L352.76 388.032L352.965 389.475L353.183 390.916L353.416 392.357L353.664 393.795L353.925 395.233L354.202 396.668L354.492 398.101L354.797 399.532L355.116 400.961L355.45 402.388L355.798 403.811L356.161 405.233L356.538 406.651L356.929 408.066L357.334 409.478L357.754 410.887L358.188 412.292L358.637 413.693L359.1 415.091L359.577 416.485L360.068 417.875L360.574 419.26L361.093 420.641L361.627 422.018L362.175 423.39L362.738 424.757L363.314 426.119L363.904 427.476L364.509 428.828L365.127 430.174L365.76 431.515L366.406 432.85L367.066 434.18L367.74 435.503L368.428 436.82L369.13 438.131L369.846 439.435L370.575 440.733L371.317 442.024L372.074 443.308L372.844 444.586L373.627 445.856L374.424 447.119L375.234 448.374L376.058 449.622L376.895 450.862L377.745 452.094L378.608 453.318L379.484 454.534L380.374 455.742L381.276 456.941L382.191 458.132L383.119 459.314L384.06 460.487L385.014 461.652L385.98 462.807L386.959 463.953L387.95 465.089L388.954 466.217L389.97 467.334L390.998 468.442L392.039 469.539L393.091 470.627L394.156 471.705L395.232 472.772L396.32 473.829L397.421 474.875L398.532 475.911L399.656 476.935L400.79 477.949L401.937 478.952L403.094 479.944L404.263 480.924L405.443 481.893L406.634 482.85L407.836 483.796L409.048 484.73L410.272 485.652L411.506 486.562L412.75 487.46L414.005 488.346L415.27 489.219L416.546 490.08L417.831 490.928L419.127 491.764L420.432 492.586L421.747 493.396L423.072 494.193L424.406 494.977L425.75 495.747L427.103 496.504L428.465 497.248L429.836 497.978L431.216 498.694L432.605 499.397L434.003 500.086L435.409 500.761L436.824 501.422L438.247 502.069L439.678 502.701L441.117 503.319L442.564 503.923L444.019 504.512L445.482 505.087L446.952 505.647L448.43 506.192L449.915 506.723L451.407 507.238L452.906 507.739L454.411 508.224L455.924 508.695L457.443 509.15L458.969 509.589L460.501 510.013L462.039 510.422L463.583 510.815L465.133 511.193L466.688 511.555L468.25 511.901L469.816 512.231L471.388 512.546L472.965 512.844L474.548 513.127L476.135 513.393L477.726 513.644L479.322 513.878L480.923 514.096L482.528 514.297L484.137 514.482L485.749 514.651L487.366 514.803L488.986 514.939L490.61 515.059L492.237 515.161L493.867 515.247L495.5 515.317L497.136 515.369L498.774 515.405L500.415 515.424L502.059 515.426L503.704 515.412L505.352 515.38L507.001 515.332L508.652 515.267L510.305 515.184L511.959 515.085L513.614 514.968L515.27 514.835L516.928 514.684L518.585 514.517L520.244 514.332L521.903 514.13L523.561 513.911L525.22 513.675L526.879 513.421L528.538 513.151L530.196 512.863L531.853 512.558L533.51 512.236L535.166 511.896L536.82 511.54L538.474 511.166L540.125 510.775L541.775 510.367L543.424 509.942L545.07 509.5L546.714 509.04L548.356 508.563L549.995 508.069L551.632 507.558L553.266 507.03L554.896 506.485L556.524 505.923L558.148 505.344L559.769 504.747L561.386 504.134L562.999 503.504L564.608 502.857L566.213 502.193L567.813 501.512L569.409 500.814L571 500.1L572.587 499.368L574.168 498.62L575.744 497.856L577.314 497.075L578.879 496.277L580.439 495.462L581.992 494.631L583.539 493.784L585.08 492.92L586.615 492.04L588.143 491.144L589.664 490.232L591.179 489.303L592.686 488.358L594.186 487.398L595.679 486.421L597.164 485.428L598.641 484.42L600.11 483.396L601.572 482.356L603.025 481.3L604.469 480.229L605.905 479.143L607.332 478.041L608.751 476.924L610.16 475.791L611.56 474.644L612.951 473.481L614.332 472.304L615.704 471.111L617.066 469.904L618.417 468.682L619.759 467.446L621.09 466.195L622.411 464.93L623.721 463.65L625.02 462.356L626.308 461.048L627.586 459.726L628.852 458.391L630.106 457.041L631.349 455.678L632.581 454.301L633.8 452.911L635.008 451.507L636.203 450.09L637.386 448.66L638.557 447.218L639.715 445.762L640.86 444.293L641.993 442.812L643.113 441.319L644.219 439.813L645.312 438.294L646.392 436.764L647.458 435.222L648.511 433.667L649.55 432.102L650.575 430.524L651.585 428.935L652.582 427.335L653.564 425.724L654.532 424.101L655.485 422.468L656.424 420.824L657.347 419.169L658.256 417.504L659.149 415.829L660.028 414.143L660.891 412.447L661.738 410.742L662.57 409.027L663.387 407.302L664.187 405.568L664.972 403.825L665.741 402.072L666.493 400.311L667.23 398.541L667.95 396.762L668.653 394.975L669.34 393.18L670.011 391.376L670.664 389.565L671.301 387.746L671.921 385.919L672.524 384.085L673.11 382.243L673.678 380.395L674.229 378.539L674.763 376.677L675.279 374.808L675.778 372.933L676.259 371.051L676.722 369.164L677.167 367.271L677.595 365.372L678.004 363.467L678.395 361.557L678.769 359.642L679.123 357.722L679.46 355.797L679.778 353.868L680.078 351.934L680.36 349.996L680.622 348.055L680.867 346.109L681.092 344.159L681.299 342.206L681.487 340.25L681.655 338.291L681.806 336.329L681.937 334.364L682.049 332.397L682.142 330.427L682.215 328.455L682.27 326.482L682.306 324.506L682.322 322.529L682.319 320.551L682.296 318.572L682.254 316.591L682.193 314.61L682.112 312.629L682.012 310.647L681.892 308.665L681.753 306.683L681.595 304.701L681.416 302.72L681.218 300.739L681.001 298.76L680.763 296.781L680.507 294.804L680.23 292.828L679.934 290.854L679.618 288.881L679.282 286.911L678.927 284.943L678.552 282.978L678.158 281.015L677.743 279.055L677.309 277.098L676.855 275.145L676.382 273.195L675.889 271.249L675.376 269.306L674.843 267.368L674.291 265.434L673.72 263.505L673.128 261.58L672.517 259.661L671.887 257.746L671.237 255.837L670.567 253.933L669.878 252.035L669.17 250.143L668.442 248.258L667.694 246.378L666.928 244.506L666.142 242.639L665.336 240.78L664.512 238.928L663.668 237.084L662.805 235.247L661.924 233.418L661.023 231.597L660.103 229.784L659.164 227.979L658.206 226.183L657.23 224.396L656.234 222.617L655.22 220.848L654.188 219.088L653.137 217.338L652.067 215.598L650.979 213.867L649.873 212.147L648.748 210.437L647.605 208.737L646.444 207.049L645.265 205.371L644.068 203.704L642.853 202.049L641.621 200.405L640.37 198.773L639.102 197.152L637.817 195.544L636.514 193.948L635.194 192.364L633.857 190.793L632.502 189.235L631.131 187.69L629.743 186.158L628.338 184.64L626.916 183.134L625.477 181.643L624.022 180.165L622.551 178.702L621.064 177.253L619.56 175.818L618.041 174.398L616.505 172.992L614.954 171.602L613.387 170.226L611.805 168.866L610.207 167.522L608.594 166.193L606.966 164.879L605.323 163.582L603.665 162.301L601.993 161.036L600.305 159.787L598.604 158.555L596.888 157.34L595.158 156.142L593.414 154.96L591.656 153.796L589.885 152.649L588.1 151.52L586.301 150.409L584.49 149.315L582.665 148.239L580.827 147.181L578.977 146.142L577.114 145.121L575.239 144.118L573.351 143.135L571.451 142.169L569.54 141.223L567.616 140.296L565.681 139.388L563.735 138.5L561.777 137.631L559.809 136.781L557.829 135.951L555.839 135.141L553.838 134.351L551.826 133.581L549.805 132.831L547.774 132.102L545.733 131.393L543.682 130.704L541.622 130.037L539.552 129.389L537.474 128.763L535.386 128.158L533.29 127.574L531.186 127.011L529.073 126.469L526.952 125.949L524.824 125.45L522.687 124.972L520.544 124.517L518.393 124.083L516.234 123.67L514.069 123.28L511.898 122.912L509.72 122.566L507.535 122.242L505.345 121.94L503.149 121.66L500.947 121.403L498.74 121.168L496.527 120.956L494.31 120.767L492.088 120.6L489.861 120.456L487.63 120.334L485.395 120.236L483.155 120.16L480.913 120.107L478.667 120.077L476.417 120.071L474.165 120.087L471.909 120.126L469.651 120.189L467.391 120.275L465.129 120.384L462.865 120.516L460.599 120.672L458.331 120.851L456.063 121.053L453.793 121.279L451.523 121.529L449.252 121.801L446.98 122.097L444.709 122.417L442.438 122.76L440.167 123.127L437.897 123.517L435.627 123.931L433.359 124.368L431.092 124.829L428.827 125.313L426.563 125.821L424.301 126.353L422.042 126.908L419.784 127.486L417.53 128.088L415.279 128.714L413.03 129.363L410.785 130.035L408.544 130.731L406.307 131.45L404.073 132.193L401.844 132.959L399.62 133.748L397.4 134.561L395.186 135.397L392.976 136.256L390.772 137.138L388.574 138.044L386.382 138.972L384.196 139.924L382.016 140.898L379.843 141.896L377.677 142.916L375.519 143.959L373.367 145.026L371.223 146.114L369.087 147.226L366.959 148.36L364.839 149.516L362.728 150.695L360.626 151.896L358.532 153.12L356.448 154.366L354.373 155.633L352.308 156.923L350.252 158.235L348.207 159.569L346.172 160.925L344.148 162.302L342.135 163.701L340.132 165.121L338.141 166.563L336.162 168.026L334.194 169.51L332.238 171.015L330.294 172.541L328.362 174.088L326.443 175.656L324.537 177.244L322.644 178.853L320.764 180.482L318.898 182.132L317.045 183.801L315.206 185.491L313.381 187.201L311.571 188.93L309.775 190.679L307.993 192.447L306.227 194.235L304.476 196.041L302.74 197.867L301.02 199.712L299.316 201.575L297.627 203.457L295.955 205.358L294.299 207.277L292.66 209.214L291.037 211.168L289.432 213.141L287.843 215.131L286.272 217.139L284.719 219.164L283.183 221.206L281.665 223.266L280.166 225.342L278.685 227.434L277.222 229.543L275.778 231.668L274.352 233.81L272.946 235.967L271.559 238.14L270.192 240.328L268.844 242.532L267.516 244.751L266.208 246.985L264.92 249.233L263.652 251.497L262.404 253.774L261.178 256.066L259.972 258.371L258.787 260.69L257.623 263.023L256.48 265.369L255.359 267.728L254.26 270.101L253.182 272.485L252.126 274.883L251.092 277.292L250.08 279.714L249.091 282.147L248.124 284.592L247.18 287.048L246.258 289.515L245.36 291.994L244.484 294.483L243.632 296.982L242.803 299.492L241.997 302.012L241.215 304.541L240.457 307.08L239.722 309.628L239.012 312.185L238.325 314.751L237.663 317.326L237.025 319.909L236.411 322.5L235.822 325.098L235.258 327.705L234.718 330.318L234.203 332.939L233.713 335.567L233.248 338.201L232.809 340.841L232.394 343.488L232.005 346.14L231.641 348.798L231.303 351.461L230.99 354.129L230.703 356.802L230.442 359.48L230.206 362.162L229.996 364.847L229.813 367.537L229.655 370.23L229.524 372.926L229.419 375.625L229.34 378.327L229.287 381.031L229.261 383.737L229.261 386.445L229.287 389.155L229.34 391.866L229.42 394.578L229.526 397.291L229.659 400.005L229.819 402.718L230.005 405.432L230.218 408.145L230.458 410.858L230.725 413.569L231.018 416.28L231.339 418.989L231.686 421.697L232.06 424.402L232.462 427.106L232.89 429.806L233.345 432.504L233.827 435.199L234.336 437.891L234.872 440.579L235.435 443.262L236.025 445.942L236.642 448.617L237.286 451.288L237.957 453.953L238.655 456.613L239.379 459.268L240.131 461.917L240.91 464.559L241.715 467.195L242.547 469.825L243.406 472.447L244.292 475.062L245.204 477.669L246.143 480.269L247.109 482.861L248.102 485.444L249.121 488.018L250.166 490.584L251.238 493.14L252.336 495.687L253.461 498.224L254.612 500.751L255.789 503.268L256.992 505.774L258.221 508.269L259.477 510.753L260.758 513.226L262.065 515.686L263.398 518.135L264.757 520.572L266.141 522.996L267.55 525.408L268.985 527.806L270.446 530.191L271.932 532.562L273.442 534.92L274.978 537.263L276.539 539.593L278.124 541.907L279.735 544.206L281.37 546.491L283.029 548.76L284.713 551.013L286.421 553.25L288.153 555.471L289.909 557.676L291.688 559.863L293.492 562.034L295.319 564.188L297.17 566.324L299.044 568.442L300.941 570.543L302.861 572.625L304.804 574.688L306.77 576.733L308.758 578.759L310.769 580.766L312.802 582.753L314.857 584.721L316.934 586.668L319.033 588.596L321.153 590.503L323.295 592.389L325.458 594.255L327.642 596.099L329.847 597.922L332.072 599.724L334.319 601.503L336.585 603.261L338.872 604.996L341.179 606.709L343.505 608.4L345.851 610.067L348.217 611.712L350.601 613.333L353.005 614.93L355.427 616.504L357.868 618.054L360.328 619.58L362.805 621.081L365.3 622.558L367.813 624.01L370.344 625.437L372.892 626.839L375.457 628.216L378.039 629.567L380.637 630.892L383.252 632.192L385.882 633.465L388.529 634.712L391.191 635.933L393.869 637.127L396.562 638.295L399.27 639.435L401.993 640.548L404.73 641.634L407.481 642.693L410.247 643.724L413.026 644.727L415.818 645.702L418.624 646.649L421.442 647.568L424.274 648.459L427.117 649.321L429.973 650.154L432.841 650.958L435.72 651.734L438.611 652.48L441.513 653.197L444.426 653.885L447.349 654.543L450.282 655.172L453.226 655.771L456.179 656.34L459.142 656.879L462.113 657.388L465.094 657.867L468.083 658.315L471.081 658.734L474.087 659.121L477.1 659.478L480.121 659.804L483.149 660.1L486.184 660.364L489.225 660.597L492.273 660.8L495.326 660.971L498.386 661.111L501.45 661.22L504.52 661.297L507.595 661.343L510.674 661.357L513.757 661.34L516.844 661.291L519.935 661.21L523.029 661.098L526.126 660.953L529.225 660.777L532.327 660.569L535.431 660.329L538.537 660.057L541.644 659.753L544.753 659.417L547.862 659.049L550.971 658.648L554.081 658.216L557.19 657.751L560.3 657.254L563.408 656.725L566.515 656.164L569.621 655.57L572.725 654.944L575.827 654.286L578.927 653.596L582.024 652.874L585.118 652.119L588.209 651.332L591.296 650.513L594.379 649.662L597.458 648.778L600.532 647.863L603.602 646.915L606.666 645.936L609.724 644.924L612.777 643.88L615.824 642.805L618.864 641.697L621.897 640.558L624.923 639.387L627.941 638.184L630.952 636.949L633.955 635.683L636.949 634.385L639.935 633.056L642.911 631.695L645.878 630.303L648.835 628.88L651.783 627.425L654.72 625.939L657.646 624.423L660.561 622.875L663.465 621.297L666.357 619.687L669.238 618.048L672.106 616.377L674.962 614.677L677.805 612.945L680.634 611.184L683.45 609.393L686.253 607.572L689.041 605.72L691.814 603.84L694.573 601.929L697.317 599.989L700.046 598.02L702.759 596.022L705.456 593.995L708.136 591.938L710.8 589.853L713.448 587.74L716.078 585.598L718.69 583.428L721.285 581.23L723.862 579.003L726.42 576.749L728.96 574.468L731.48 572.159" stroke="#F4ECCA" stroke-opacity="0.23" stroke-width="4" stroke-linecap="round"/>
<path d="M555.16 340.242L555.06 339.688L554.954 339.135L554.843 338.583L554.727 338.032L554.604 337.481L554.477 336.932L554.343 336.383L554.205 335.835L554.06 335.289L553.91 334.743L553.755 334.199L553.594 333.656L553.428 333.115L553.256 332.574L553.078 332.035L552.895 331.498L552.707 330.962L552.513 330.428L552.314 329.896L552.109 329.365L551.899 328.836L551.683 328.308L551.462 327.783L551.235 327.259L551.003 326.738L550.766 326.219L550.523 325.701L550.275 325.186L550.022 324.673L549.763 324.163L549.499 323.655L549.23 323.149L548.955 322.645L548.675 322.144L548.39 321.646L548.099 321.15L547.804 320.657L547.503 320.167L547.197 319.679L546.886 319.195L546.569 318.713L546.248 318.234L545.921 317.758L545.59 317.285L545.253 316.815L544.912 316.349L544.565 315.886L544.213 315.425L543.857 314.969L543.495 314.515L543.129 314.065L542.758 313.619L542.382 313.176L542.001 312.737L541.615 312.301L541.225 311.869L540.83 311.441L540.43 311.016L540.025 310.595L539.616 310.179L539.202 309.766L538.784 309.357L538.361 308.952L537.934 308.551L537.502 308.155L537.066 307.762L536.626 307.374L536.181 306.99L535.732 306.611L535.278 306.236L534.82 305.865L534.358 305.498L533.892 305.137L533.422 304.779L532.947 304.427L532.469 304.079L531.987 303.735L531.5 303.397L531.01 303.063L530.516 302.734L530.018 302.41L529.516 302.091L529.01 301.777L528.501 301.467L527.988 301.163L527.471 300.864L526.951 300.57L526.427 300.281L525.9 299.998L525.369 299.719L524.835 299.446L524.298 299.178L523.757 298.916L523.213 298.659L522.666 298.407L522.115 298.161L521.562 297.92L521.005 297.685L520.446 297.455L519.883 297.231L519.318 297.013L518.749 296.8L518.178 296.593L517.605 296.392L517.028 296.196L516.449 296.006L515.867 295.822L515.283 295.644L514.696 295.472L514.107 295.306L513.515 295.146L512.921 294.991L512.325 294.843L511.727 294.701L511.126 294.564L510.523 294.434L509.919 294.31L509.312 294.192L508.704 294.08L508.093 293.975L507.481 293.875L506.867 293.782L506.251 293.695L505.634 293.615L505.015 293.54L504.394 293.472L503.772 293.41L503.149 293.355L502.524 293.306L501.898 293.263L501.271 293.227L500.643 293.197L500.014 293.174L499.383 293.157L498.752 293.146L498.119 293.142L497.486 293.144L496.852 293.153L496.218 293.169L495.582 293.191L494.946 293.219L494.31 293.254L493.673 293.296L493.036 293.344L492.398 293.399L491.76 293.46L491.122 293.528L490.484 293.602L489.845 293.683L489.207 293.771L488.568 293.865L487.93 293.966L487.292 294.074L486.654 294.188L486.017 294.309L485.379 294.436L484.743 294.57L484.106 294.711L483.471 294.858L482.836 295.012L482.201 295.172L481.568 295.339L480.935 295.513L480.303 295.693L479.672 295.88L479.042 296.074L478.413 296.274L477.785 296.48L477.159 296.694L476.534 296.913L475.91 297.14L475.287 297.373L474.667 297.612L474.047 297.858L473.429 298.111L472.813 298.369L472.199 298.635L471.586 298.907L470.976 299.185L470.367 299.47L469.76 299.761L469.155 300.059L468.553 300.363L467.953 300.673L467.355 300.99L466.759 301.313L466.165 301.642L465.575 301.978L464.986 302.32L464.401 302.668L463.817 303.023L463.237 303.383L462.659 303.75L462.085 304.123L461.513 304.503L460.944 304.888L460.378 305.279L459.815 305.676L459.256 306.08L458.7 306.489L458.147 306.905L457.597 307.326L457.051 307.753L456.508 308.186L455.969 308.625L455.433 309.07L454.901 309.52L454.373 309.977L453.848 310.438L453.328 310.906L452.811 311.379L452.298 311.858L451.789 312.343L451.285 312.833L450.784 313.328L450.288 313.829L449.796 314.335L449.308 314.847L448.825 315.364L448.346 315.886L447.872 316.414L447.402 316.946L446.936 317.484L446.476 318.027L446.02 318.575L445.569 319.128L445.123 319.686L444.681 320.249L444.245 320.817L443.813 321.39L443.387 321.967L442.966 322.549L442.549 323.136L442.138 323.728L441.733 324.324L441.332 324.924L440.937 325.53L440.548 326.139L440.163 326.753L439.785 327.371L439.412 327.994L439.044 328.621L438.682 329.252L438.326 329.887L437.976 330.526L437.631 331.169L437.292 331.816L436.96 332.467L436.633 333.121L436.312 333.78L435.997 334.442L435.688 335.108L435.385 335.777L435.089 336.45L434.798 337.127L434.514 337.806L434.236 338.49L433.965 339.176L433.7 339.866L433.441 340.558L433.189 341.254L432.943 341.953L432.703 342.655L432.471 343.36L432.244 344.068L432.025 344.778L431.812 345.491L431.606 346.207L431.406 346.925L431.214 347.646L431.028 348.369L430.849 349.094L430.676 349.822L430.511 350.552L430.353 351.284L430.201 352.019L430.057 352.755L429.919 353.493L429.789 354.233L429.665 354.975L429.549 355.719L429.44 356.464L429.338 357.211L429.243 357.959L429.156 358.709L429.075 359.46L429.002 360.213L428.936 360.967L428.877 361.722L428.826 362.477L428.782 363.234L428.745 363.992L428.716 364.751L428.694 365.511L428.68 366.271L428.672 367.031L428.673 367.793L428.681 368.555L428.696 369.317L428.718 370.079L428.748 370.842L428.786 371.605L428.831 372.368L428.884 373.131L428.944 373.894L429.012 374.657L429.087 375.42L429.17 376.182L429.26 376.944L429.358 377.706L429.464 378.467L429.577 379.227L429.697 379.987L429.825 380.746L429.961 381.504L430.105 382.261L430.256 383.017L430.414 383.772L430.58 384.526L430.754 385.279L430.935 386.03L431.124 386.78L431.32 387.529L431.524 388.276L431.736 389.021L431.955 389.765L432.182 390.507L432.416 391.247L432.658 391.985L432.907 392.721L433.164 393.455L433.428 394.187L433.7 394.916L433.979 395.643L434.266 396.368L434.56 397.09L434.861 397.81L435.17 398.527L435.487 399.241L435.81 399.953L436.141 400.662L436.48 401.367L436.826 402.07L437.179 402.769L437.539 403.466L437.907 404.159L438.282 404.849L438.664 405.535L439.053 406.218L439.45 406.897L439.853 407.573L440.264 408.245L440.682 408.913L441.107 409.577L441.539 410.238L441.978 410.894L442.424 411.546L442.877 412.194L443.336 412.838L443.803 413.477L444.277 414.112L444.757 414.743L445.244 415.369L445.738 415.99L446.238 416.607L446.745 417.219L447.259 417.826L447.78 418.429L448.307 419.026L448.84 419.618L449.38 420.206L449.926 420.788L450.479 421.365L451.038 421.936L451.604 422.502L452.175 423.063L452.753 423.618L453.337 424.167L453.927 424.711L454.524 425.249L455.126 425.782L455.734 426.308L456.348 426.829L456.968 427.344L457.594 427.852L458.226 428.355L458.863 428.851L459.506 429.341L460.154 429.825L460.808 430.302L461.468 430.774L462.133 431.238L462.804 431.696L463.479 432.148L464.16 432.592L464.847 433.03L465.538 433.462L466.235 433.886L466.936 434.304L467.643 434.714L468.354 435.118L469.071 435.515L469.792 435.904L470.518 436.286L471.248 436.662L471.983 437.029L472.723 437.39L473.467 437.743L474.215 438.089L474.968 438.427L475.725 438.758L476.487 439.081L477.252 439.397L478.022 439.705L478.795 440.005L479.572 440.297L480.354 440.582L481.139 440.859L481.928 441.128L482.72 441.389L483.516 441.642L484.315 441.887L485.118 442.124L485.924 442.353L486.734 442.574L487.546 442.786L488.362 442.991L489.181 443.187L490.003 443.375L490.827 443.554L491.655 443.726L492.485 443.889L493.318 444.043L494.153 444.189L494.991 444.326L495.831 444.455L496.674 444.576L497.519 444.688L498.366 444.791L499.215 444.885L500.066 444.971L500.919 445.049L501.774 445.117L502.631 445.177L503.489 445.228L504.349 445.27L505.211 445.304L506.074 445.329L506.938 445.344L507.804 445.351L508.67 445.349L509.538 445.339L510.407 445.319L511.276 445.29L512.147 445.253L513.018 445.206L513.89 445.151L514.763 445.086L515.636 445.013L516.509 444.93L517.383 444.839L518.256 444.738L519.13 444.628L520.005 444.51L520.879 444.382L521.752 444.245L522.626 444.1L523.5 443.945L524.372 443.781L525.245 443.608L526.117 443.426L526.988 443.235L527.859 443.035L528.728 442.826L529.597 442.607L530.465 442.38L531.331 442.144L532.197 441.898L533.061 441.644L533.923 441.38L534.784 441.108L535.644 440.826L536.502 440.536L537.358 440.236L538.213 439.928L539.065 439.611L539.916 439.284L540.764 438.949L541.61 438.605L542.454 438.252L543.296 437.89L544.135 437.519L544.971 437.139L545.805 436.751L546.636 436.353L547.465 435.947L548.29 435.532L549.112 435.109L549.932 434.676L550.748 434.235L551.561 433.786L552.37 433.328L553.176 432.861L553.979 432.385L554.778 431.901L555.573 431.409L556.364 430.908L557.152 430.399L557.935 429.881L558.715 429.355L559.49 428.82L560.261 428.278L561.028 427.727L561.79 427.167L562.548 426.6L563.302 426.025L564.05 425.441L564.794 424.849L565.533 424.25L566.267 423.642L566.996 423.027L567.721 422.403L568.439 421.772L569.153 421.133L569.861 420.486L570.564 419.832L571.262 419.17L571.954 418.5L572.64 417.823L573.32 417.139L573.995 416.447L574.663 415.747L575.326 415.041L575.983 414.327L576.633 413.606L577.277 412.878L577.916 412.142L578.547 411.4L579.172 410.651L579.791 409.895L580.403 409.132L581.008 408.362L581.607 407.586L582.199 406.803L582.784 406.013L583.362 405.217L583.933 404.415L584.496 403.606L585.053 402.791L585.602 401.969L586.144 401.142L586.679 400.308L587.206 399.469L587.726 398.623L588.238 397.772L588.742 396.914L589.239 396.052L589.728 395.183L590.209 394.309L590.682 393.429L591.147 392.544L591.604 391.654L592.053 390.759L592.493 389.858L592.926 388.952L593.35 388.041L593.766 387.125L594.173 386.205L594.572 385.28L594.962 384.35L595.344 383.415L595.717 382.476L596.082 381.532L596.438 380.585L596.784 379.633L597.122 378.676L597.452 377.716L597.772 376.752L598.083 375.784L598.385 374.812L598.678 373.836L598.962 372.857L599.236 371.874L599.501 370.888L599.757 369.898L600.004 368.905L600.241 367.909L600.469 366.91L600.688 365.908L600.897 364.903L601.096 363.896L601.286 362.885L601.466 361.872L601.636 360.857L601.797 359.839L601.948 358.819L602.089 357.797L602.22 356.773L602.342 355.746L602.454 354.718L602.555 353.688L602.647 352.657L602.729 351.623L602.801 350.589L602.863 349.552L602.915 348.515L602.956 347.477L602.988 346.437L603.01 345.396L603.021 344.355L603.022 343.312L603.013 342.269L602.994 341.226L602.965 340.182L602.925 339.138L602.875 338.093L602.815 337.049L602.744 336.004L602.664 334.959L602.573 333.915L602.471 332.87L602.36 331.827L602.238 330.783L602.105 329.741L601.962 328.699L601.809 327.657L601.646 326.617L601.472 325.578L601.288 324.54L601.093 323.503L600.888 322.467L600.673 321.433L600.447 320.401L600.211 319.37L599.964 318.341L599.707 317.314L599.44 316.289L599.162 315.266L598.874 314.245L598.576 313.226L598.267 312.21L597.948 311.197L597.619 310.186L597.279 309.178L596.93 308.172L596.569 307.17L596.199 306.171L595.818 305.175L595.428 304.182L595.026 303.192L594.615 302.206L594.194 301.224L593.762 300.245L593.321 299.271L592.869 298.3L592.407 297.333L591.935 296.37L591.453 295.412L590.962 294.458L590.46 293.508L589.948 292.563L589.426 291.623L588.895 290.687L588.354 289.756L587.803 288.83L587.242 287.909L586.671 286.994L586.091 286.084L585.501 285.179L584.902 284.279L584.293 283.385L583.674 282.497L583.046 281.615L582.409 280.739L581.762 279.868L581.106 279.004L580.441 278.146L579.766 277.294L579.082 276.448L578.389 275.609L577.687 274.777L576.976 273.951L576.256 273.132L575.527 272.32L574.789 271.515L574.043 270.717L573.287 269.926L572.523 269.143L571.75 268.367L570.969 267.598L570.179 266.837L569.381 266.083L568.574 265.337L567.759 264.599L566.936 263.869L566.105 263.147L565.265 262.433L564.418 261.727L563.562 261.029L562.699 260.34L561.827 259.659L560.948 258.986L560.062 258.323L559.167 257.668L558.265 257.021L557.356 256.384L556.439 255.755L555.515 255.136L554.584 254.525L553.645 253.924L552.7 253.332L551.747 252.749L550.788 252.176L549.822 251.613L548.849 251.058L547.869 250.514L546.883 249.979L545.89 249.454L544.891 248.939L543.885 248.434L542.874 247.938L541.856 247.453L540.832 246.978L539.802 246.513L538.767 246.059L537.725 245.615L536.678 245.181L535.626 244.758L534.568 244.345L533.504 243.943L532.435 243.551L531.361 243.171L530.282 242.801L529.198 242.442L528.109 242.093L527.015 241.756L525.917 241.43L524.814 241.115L523.706 240.811L522.595 240.518L521.478 240.236L520.358 239.966L519.234 239.707L518.105 239.459L516.973 239.223L515.837 238.998L514.697 238.785L513.554 238.583L512.407 238.393L511.257 238.215L510.104 238.048L508.948 237.893L507.789 237.75L506.627 237.618L505.462 237.499L504.294 237.391L503.124 237.295L501.952 237.211L500.777 237.14L499.6 237.08L498.42 237.032L497.239 236.996L496.056 236.973L494.872 236.961L493.685 236.962L492.498 236.975L491.308 237L490.118 237.037L488.926 237.087L487.734 237.148L486.54 237.222L485.345 237.309L484.15 237.407L482.955 237.518L481.759 237.642L480.562 237.777L479.366 237.926L478.169 238.086L476.972 238.259L475.776 238.444L474.58 238.642L473.384 238.852L472.188 239.074L470.994 239.309L469.8 239.556L468.607 239.816L467.415 240.088L466.224 240.372L465.035 240.669L463.847 240.978L462.66 241.3L461.475 241.634L460.291 241.98L459.11 242.339L457.931 242.71L456.753 243.093L455.578 243.489L454.406 243.897L453.235 244.318L452.068 244.75L450.903 245.195L449.741 245.652L448.582 246.121L447.426 246.603L446.273 247.097L445.124 247.602L443.978 248.12L442.836 248.65L441.698 249.192L440.563 249.746L439.432 250.313L438.306 250.891L437.183 251.481L436.065 252.082L434.952 252.696L433.843 253.322L432.738 253.959L431.639 254.608L430.544 255.269L429.455 255.941L428.37 256.625L427.291 257.32L426.218 258.027L425.149 258.746L424.087 259.476L423.03 260.217L421.98 260.97L420.935 261.733L419.896 262.508L418.864 263.295L417.838 264.092L416.818 264.9L415.805 265.719L414.799 266.55L413.8 267.391L412.807 268.242L411.822 269.105L410.844 269.978L409.873 270.862L408.909 271.756L407.953 272.661L407.005 273.576L406.064 274.501L405.132 275.437L404.207 276.383L403.29 277.338L402.381 278.304L401.481 279.28L400.589 280.266L399.705 281.261L398.831 282.266L397.964 283.281L397.107 284.305L396.259 285.339L395.419 286.382L394.589 287.434L393.768 288.496L392.956 289.566L392.154 290.646L391.361 291.734L390.578 292.832L389.804 293.938L389.041 295.052L388.287 296.175L387.543 297.307L386.81 298.447L386.086 299.595L385.373 300.752L384.671 301.916L383.978 303.088L383.297 304.268L382.626 305.456L381.965 306.652L381.316 307.855L380.678 309.065L380.05 310.283L379.434 311.508L378.829 312.74L378.235 313.979L377.652 315.225L377.081 316.478L376.522 317.737L375.974 319.003L375.437 320.275L374.913 321.554L374.4 322.839L373.899 324.129L373.41 325.426L372.933 326.729L372.469 328.037L372.016 329.351L371.576 330.67L371.148 331.995L370.732 333.325L370.329 334.66L369.939 336L369.561 337.344L369.196 338.694L368.843 340.048L368.503 341.407L368.176 342.77L367.862 344.137L367.561 345.508L367.273 346.883L366.998 348.262L366.736 349.645L366.488 351.031L366.252 352.421L366.03 353.813L365.821 355.21L365.626 356.609L365.444 358.011L365.275 359.415L365.12 360.823L364.979 362.232L364.851 363.644L364.736 365.059L364.636 366.475L364.549 367.893L364.476 369.313L364.417 370.735L364.371 372.158L364.339 373.583L364.322 375.009L364.318 376.435L364.328 377.863L364.352 379.292L364.39 380.721L364.442 382.151L364.508 383.581L364.588 385.011L364.682 386.441L364.79 387.872L364.913 389.302L365.049 390.731L365.2 392.16L365.365 393.589L365.544 395.017L365.737 396.443L365.945 397.869L366.166 399.294L366.402 400.717L366.652 402.138L366.916 403.558L367.195 404.976L367.487 406.392L367.794 407.806L368.115 409.218L368.45 410.627L368.8 412.034L369.164 413.438L369.541 414.839L369.933 416.237L370.34 417.632L370.76 419.024L371.194 420.412L371.643 421.796L372.106 423.177L372.582 424.554L373.073 425.927L373.578 427.296L374.097 428.661L374.63 430.021L375.177 431.376L375.738 432.727L376.312 434.072L376.901 435.413L377.504 436.748L378.12 438.078L378.75 439.403L379.394 440.722L380.051 442.035L380.722 443.342L381.407 444.644L382.106 445.939L382.818 447.227L383.543 448.509L384.282 449.785L385.035 451.053L385.8 452.315L386.579 453.57L387.371 454.817L388.177 456.057L388.996 457.29L389.827 458.515L390.672 459.732L391.53 460.941L392.4 462.143L393.284 463.336L394.18 464.52L395.089 465.697L396.011 466.864L396.945 468.023L397.892 469.173L398.851 470.314L399.822 471.446L400.806 472.569L401.802 473.682L402.811 474.786L403.831 475.88L404.863 476.964L405.907 478.039L406.964 479.103L408.031 480.157L409.111 481.201L410.202 482.235L411.304 483.258L412.418 484.27L413.544 485.271L414.68 486.262L415.828 487.241L416.986 488.209L418.156 489.166L419.336 490.112L420.528 491.046L421.729 491.968L422.942 492.879L424.165 493.778L425.398 494.665L426.641 495.539L427.895 496.402L429.158 497.252L430.432 498.09L431.715 498.915L433.008 499.727L434.311 500.527L435.623 501.314L436.944 502.088L438.275 502.849L439.615 503.596L440.964 504.33L442.321 505.051L443.688 505.759L445.063 506.453L446.447 507.133L447.839 507.799L449.239 508.452L450.648 509.091L452.065 509.715L453.489 510.325L454.921 510.922L456.361 511.503L457.809 512.071L459.264 512.624L460.726 513.162L462.195 513.686L463.671 514.195L465.154 514.689L466.644 515.168L468.141 515.632L469.644 516.081L471.153 516.515L472.668 516.934L474.19 517.337L475.717 517.725L477.25 518.098L478.788 518.455L480.332 518.796L481.882 519.122L483.436 519.432L484.996 519.727L486.56 520.006L488.129 520.268L489.703 520.515L491.281 520.746L492.864 520.961L494.45 521.159L496.041 521.342L497.635 521.508L499.233 521.658L500.834 521.792L502.439 521.909L504.047 522.01L505.658 522.095L507.272 522.163L508.889 522.214L510.508 522.249L512.129 522.268L513.753 522.269L515.379 522.254L517.007 522.223L518.637 522.174L520.268 522.109L521.901 522.027L523.535 521.929L525.17 521.813L526.806 521.681L528.443 521.531L530.08 521.365L531.718 521.182L533.357 520.982L534.995 520.765L536.633 520.531L538.271 520.28L539.909 520.013L541.547 519.728L543.183 519.426L544.819 519.107L546.454 518.772L548.087 518.419L549.719 518.049L551.35 517.662L552.979 517.259L554.606 516.838L556.231 516.4L557.854 515.946L559.474 515.474L561.092 514.986L562.707 514.48L564.32 513.958L565.929 513.419L567.535 512.863L569.138 512.29L570.737 511.701L572.332 511.094L573.924 510.471L575.511 509.831L577.094 509.175L578.673 508.501L580.247 507.811L581.817 507.105L583.382 506.382L584.941 505.642L586.495 504.887L588.044 504.114L589.588 503.325L591.125 502.52L592.657 501.699L594.183 500.861L595.702 500.007L597.215 499.137L598.722 498.251L600.221 497.349L601.714 496.431L603.2 495.497L604.678 494.548L606.149 493.582L607.613 492.601L609.069 491.604L610.517 490.592L611.957 489.564L613.388 488.521L614.812 487.462L616.226 486.388L617.632 485.299L619.03 484.195L620.418 483.076L621.797 481.941L623.167 480.792L624.527 479.628L625.878 478.45L627.218 477.257L628.549 476.049L629.87 474.827L631.181 473.591L632.481 472.34L633.77 471.075L635.049 469.797L636.317 468.504L637.574 467.198L638.82 465.877L640.054 464.544L641.278 463.196L642.489 461.836L643.689 460.462L644.876 459.074L646.052 457.674L647.216 456.261L648.367 454.835L649.506 453.396L650.632 451.945L651.745 450.481L652.846 449.005L653.933 447.517L655.008 446.016L656.069 444.504L657.116 442.98L658.15 441.444L659.171 439.897L660.177 438.338L661.17 436.767L662.149 435.186L663.113 433.594L664.063 431.99L664.999 430.376L665.92 428.752L666.826 427.116L667.717 425.471L668.594 423.815L669.455 422.15L670.301 420.474L671.132 418.789L671.948 417.094L672.748 415.39L673.532 413.676L674.301 411.953L675.054 410.222L675.791 408.481L676.512 406.732L677.216 404.974L677.904 403.209L678.576 401.434L679.232 399.652L679.871 397.862L680.493 396.065L681.098 394.26L681.687 392.447L682.259 390.627L682.813 388.801L683.351 386.967L683.871 385.127L684.374 383.281L684.859 381.428L685.327 379.568L685.777 377.703L686.21 375.833L686.625 373.956L687.022 372.074L687.402 370.187L687.763 368.295L688.106 366.398L688.432 364.496L688.739 362.59L689.028 360.679L689.298 358.764L689.55 356.845L689.784 354.923L689.999 352.997L690.196 351.067L690.374 349.134L690.533 347.198L690.674 345.26L690.796 343.318L690.899 341.374L690.983 339.428L691.049 337.48L691.095 335.53L691.123 333.578L691.131 331.625L691.12 329.67L691.09 327.715L691.041 325.758L690.973 323.801L690.886 321.843L690.779 319.885L690.653 317.927L690.508 315.968L690.344 314.01L690.16 312.053L689.956 310.096L689.734 308.14L689.492 306.185L689.23 304.232L688.95 302.279L688.649 300.329L688.33 298.38L687.99 296.434L687.632 294.489L687.254 292.548L686.856 290.608L686.439 288.672L686.003 286.739L685.547 284.809L685.071 282.882L684.577 280.96L684.062 279.041L683.529 277.126L682.976 275.215L682.403 273.309L681.812 271.408L681.2 269.511L680.57 267.62L679.92 265.734L679.251 263.853L678.563 261.978L677.856 260.109L677.129 258.246L676.384 256.389L675.619 254.539L674.835 252.696L674.032 250.859L673.21 249.03L672.369 247.207L671.51 245.393L670.631 243.586L669.734 241.786L668.818 239.995L667.883 238.213L666.93 236.438L665.958 234.673L664.968 232.916L663.959 231.168L662.932 229.43L661.887 227.701L660.823 225.982L659.741 224.272L658.641 222.573L657.523 220.883L656.388 219.205L655.234 217.536L654.062 215.879L652.873 214.233L651.667 212.597L650.442 210.974L649.201 209.361L647.941 207.761L646.665 206.172L645.372 204.596L644.061 203.031L642.734 201.48L641.389 199.941L640.028 198.414L638.65 196.901L637.256 195.401L635.845 193.914L634.418 192.441L632.975 190.982L631.516 189.536L630.04 188.105L628.549 186.688L627.042 185.285L625.519 183.897L623.981 182.523L622.428 181.165L620.859 179.821L619.275 178.493L617.676 177.181L616.062 175.884L614.434 174.602L612.791 173.337L611.133 172.087L609.461 170.854L607.775 169.638L606.075 168.437L604.361 167.254L602.633 166.087L600.892 164.938L599.137 163.805L597.369 162.69L595.587 161.592L593.793 160.512L591.986 159.45L590.166 158.405L588.334 157.379L586.489 156.371L584.632 155.381L582.763 154.409L580.882 153.456L578.989 152.522L577.085 151.606L575.17 150.71L573.243 149.833L571.305 148.974L569.357 148.136L567.397 147.316L565.427 146.517L563.447 145.737L561.457 144.977L559.457 144.236L557.447 143.516L555.427 142.816L553.398 142.137L551.36 141.477L549.312 140.839L547.256 140.221L545.191 139.623L543.118 139.047L541.036 138.491L538.947 137.956L536.849 137.443L534.744 136.95L532.631 136.479L530.511 136.03L528.384 135.602L526.25 135.195L524.109 134.81L521.962 134.447L519.808 134.105L517.648 133.786L515.483 133.488L513.312 133.213L511.135 132.96L508.953 132.728L506.766 132.519L504.574 132.333L502.378 132.169L500.177 132.027L497.972 131.907L495.763 131.811L493.55 131.737L491.334 131.685L489.114 131.656L486.891 131.65L484.666 131.667L482.437 131.707L480.207 131.769L477.973 131.855L475.738 131.963L473.502 132.095L471.263 132.249L469.023 132.427L466.783 132.628L464.541 132.851L462.298 133.098L460.055 133.369L457.812 133.662L455.569 133.978L453.326 134.318L451.084 134.681L448.842 135.067L446.601 135.477L444.361 135.91L442.123 136.366L439.886 136.845L437.652 137.347L435.419 137.873L433.188 138.422L430.96 138.994L428.735 139.59L426.513 140.208L424.293 140.85L422.078 141.515L419.866 142.204L417.658 142.915L415.454 143.649L413.254 144.407L411.059 145.188L408.869 145.991L406.684 146.818L404.504 147.667L402.33 148.54L400.161 149.435L397.999 150.353L395.842 151.294L393.692 152.258L391.549 153.244L389.413 154.253L387.284 155.284L385.162 156.338L383.047 157.414L380.941 158.513L378.843 159.634L376.753 160.777L374.671 161.943L372.598 163.13L370.534 164.34L368.479 165.571L366.434 166.825L364.399 168.1L362.373 169.397L360.357 170.715L358.352 172.055L356.357 173.416L354.373 174.799L352.399 176.203L350.437 177.628L348.487 179.074L346.548 180.541L344.621 182.029L342.706 183.537L340.804 185.067L338.913 186.616L337.036 188.186L335.172 189.776L333.32 191.387L331.482 193.017L329.658 194.667L327.848 196.337L326.051 198.027L324.269 199.736L322.501 201.464L320.748 203.212L319.009 204.979L317.286 206.764L315.578 208.569L313.885 210.392L312.208 212.234L310.547 214.094L308.902 215.972L307.273 217.868L305.661 219.783L304.065 221.715L302.486 223.664L300.924 225.631L299.38 227.615L297.853 229.617L296.343 231.635L294.851 233.67L293.378 235.722L291.922 237.79L290.485 239.874L289.066 241.974L287.666 244.09L286.285 246.222L284.923 248.369L283.58 250.532L282.256 252.71L280.953 254.903L279.669 257.11L278.405 259.332L277.161 261.569L275.937 263.819L274.734 266.084L273.551 268.362L272.389 270.654L271.248 272.959L270.128 275.278L269.029 277.609L267.952 279.953L266.896 282.31L265.862 284.678L264.849 287.059L263.859 289.452L262.891 291.857L261.945 294.273L261.021 296.7L260.12 299.138L259.242 301.587L258.387 304.047L257.554 306.516L256.744 308.996L255.958 311.486L255.195 313.985L254.456 316.494L253.74 319.012L253.047 321.539L252.379 324.074L251.735 326.618L251.114 329.171L250.518 331.731L249.946 334.299L249.398 336.874L248.875 339.456L248.376 342.046L247.902 344.642L247.453 347.245L247.028 349.854L246.629 352.469L246.255 355.09L245.905 357.716L245.581 360.347L245.283 362.984L245.009 365.625L244.761 368.27L244.539 370.92L244.342 373.574L244.171 376.231L244.026 378.892L243.906 381.556L243.813 384.223L243.745 386.892L243.704 389.564L243.688 392.238L243.699 394.914L243.735 397.591L243.798 400.27L243.887 402.949L244.003 405.63L244.144 408.311L244.313 410.992L244.507 413.673L244.728 416.353L244.976 419.034L245.25 421.713L245.55 424.391L245.877 427.068L246.231 429.743L246.611 432.416L247.018 435.087L247.452 437.755L247.912 440.42L248.399 443.083L248.912 445.742L249.452 448.398L250.019 451.049L250.612 453.697L251.232 456.34L251.879 458.978L252.552 461.612L253.252 464.24L253.978 466.862L254.731 469.479L255.51 472.09L256.316 474.694L257.149 477.291L258.008 479.882L258.893 482.466L259.805 485.042L260.743 487.61L261.707 490.17L262.698 492.722L263.714 495.266L264.757 497.8L265.826 500.326L266.921 502.842L268.042 505.348L269.189 507.844L270.362 510.331L271.561 512.806L272.785 515.271L274.035 517.725L275.311 520.168L276.612 522.599L277.938 525.018L279.29 527.425L280.667 529.82L282.069 532.202L283.497 534.571L284.949 536.927L286.426 539.27L287.928 541.599L289.455 543.914L291.006 546.215L292.582 548.501L294.182 550.772L295.806 553.029L297.454 555.27L299.127 557.496L300.823 559.706L302.543 561.9L304.286 564.077L306.054 566.238L307.844 568.383L309.658 570.51L311.495 572.62L313.355 574.712L315.237 576.787L317.143 578.844L319.071 580.882L321.021 582.902L322.993 584.903L324.988 586.885L327.004 588.848L329.043 590.791L331.102 592.715L333.184 594.619L335.286 596.502L337.41 598.365L339.554 600.208L341.72 602.03L343.905 603.83L346.112 605.61L348.338 607.367L350.585 609.103L352.851 610.817L355.137 612.509L357.442 614.179L359.767 615.825L362.11 617.449L364.473 619.05L366.854 620.628L369.254 622.182L371.672 623.713L374.108 625.219L376.562 626.702L379.033 628.16L381.522 629.594L384.028 631.004L386.551 632.388L389.091 633.748L391.647 635.082L394.219 636.391L396.808 637.674L399.412 638.931L402.033 640.163L404.668 641.368L407.319 642.547L409.984 643.7L412.664 644.826L415.359 645.925L418.068 646.997L420.791 648.042L423.527 649.06L426.277 650.05L429.04 651.013L431.816 651.948L434.604 652.855L437.406 653.734L440.219 654.585L443.044 655.407L445.881 656.201L448.729 656.966L451.588 657.703L454.458 658.411L457.339 659.089L460.23 659.739L463.131 660.359L466.042 660.95L468.962 661.511L471.892 662.043L474.83 662.545L477.777 663.017L480.733 663.459L483.697 663.872L486.668 664.254L489.647 664.605L492.633 664.927L495.626 665.218L498.626 665.478L501.632 665.708L504.644 665.907L507.662 666.075L510.686 666.212L513.715 666.319L516.748 666.394L519.786 666.439L522.829 666.452L525.876 666.434L528.926 666.384L531.98 666.304L535.036 666.192L538.096 666.048L541.158 665.873L544.222 665.667L547.289 665.429L550.356 665.159L553.425 664.857L556.495 664.524L559.566 664.16L562.637 663.763L565.708 663.335L568.779 662.875L571.849 662.383L574.919 661.859L577.987 661.303L581.054 660.716L584.118 660.097L587.181 659.446L590.241 658.763L593.299 658.048L596.353 657.302L599.404 656.523L602.452 655.713L605.495 654.871L608.534 653.997L611.568 653.092L614.597 652.155L617.621 651.186L620.64 650.185L623.652 649.153L626.658 648.089L629.658 646.994L632.651 645.868L635.636 644.709L638.614 643.52L641.584 642.299L644.547 641.047L647.5 639.764L650.445 638.45L653.381 637.104L656.307 635.728L659.224 634.321L662.131 632.883L665.027 631.414L667.913 629.915L670.787 628.385L673.651 626.824L676.503 625.233L679.342 623.612L682.17 621.961L684.985 620.28L687.788 618.569L690.577 616.828L693.353 615.057L696.114 613.256L698.862 611.427L701.596 609.567L704.315 607.679L707.019 605.762L709.707 603.815L712.38 601.84L715.037 599.836L717.678 597.804L720.303 595.743L722.91 593.654L725.501 591.537L728.074 589.392L730.629 587.219L733.167 585.019L735.686 582.791" stroke="#F4ECCA" stroke-opacity="0.23" stroke-width="10" stroke-linecap="round"/>
</svg>
