<svg width="500" height="700" viewBox="0 0 703 1032" fill="none" xmlns="http://www.w3.org/2000/svg">
<path d="M202.806 617.997L203.347 618.204L203.891 618.406L204.438 618.603L204.988 618.794L205.54 618.98L206.094 619.161L206.651 619.336L207.21 619.506L207.772 619.67L208.336 619.829L208.902 619.982L209.47 620.13L210.041 620.272L210.613 620.408L211.188 620.539L211.765 620.664L212.343 620.784L212.923 620.898L213.506 621.006L214.09 621.108L214.675 621.205L215.262 621.295L215.851 621.381L216.442 621.46L217.033 621.533L217.627 621.6L218.221 621.662L218.817 621.718L219.414 621.767L220.013 621.811L220.612 621.849L221.213 621.881L221.814 621.907L222.417 621.927L223.02 621.94L223.625 621.948L224.23 621.95L224.835 621.946L225.442 621.936L226.049 621.919L226.656 621.897L227.264 621.868L227.873 621.833L228.481 621.792L229.09 621.746L229.7 621.692L230.309 621.633L230.919 621.568L231.528 621.496L232.138 621.419L232.748 621.335L233.357 621.245L233.966 621.149L234.575 621.046L235.184 620.938L235.792 620.823L236.4 620.702L237.007 620.575L237.614 620.442L238.22 620.303L238.825 620.157L239.43 620.006L240.033 619.848L240.636 619.684L241.238 619.513L241.839 619.337L242.439 619.155L243.038 618.966L243.635 618.771L244.231 618.57L244.826 618.363L245.42 618.15L246.012 617.931L246.603 617.706L247.192 617.474L247.779 617.237L248.365 616.993L248.949 616.744L249.531 616.488L250.111 616.226L250.689 615.959L251.265 615.685L251.839 615.406L252.411 615.12L252.981 614.829L253.549 614.531L254.114 614.228L254.677 613.919L255.237 613.604L255.795 613.283L256.35 612.956L256.903 612.623L257.453 612.285L258 611.941L258.545 611.591L259.086 611.236L259.625 610.875L260.16 610.508L260.693 610.135L261.222 609.757L261.749 609.373L262.272 608.984L262.791 608.589L263.308 608.189L263.821 607.783L264.33 607.372L264.836 606.956L265.338 606.534L265.837 606.106L266.332 605.674L266.823 605.236L267.311 604.793L267.794 604.344L268.274 603.891L268.75 603.432L269.221 602.968L269.689 602.5L270.152 602.026L270.611 601.547L271.066 601.063L271.517 600.574L271.963 600.081L272.404 599.582L272.842 599.079L273.274 598.571L273.702 598.058L274.126 597.541L274.545 597.019L274.959 596.492L275.368 595.961L275.772 595.426L276.172 594.885L276.566 594.341L276.956 593.792L277.341 593.239L277.72 592.682L278.094 592.12L278.463 591.554L278.827 590.984L279.186 590.41L279.539 589.832L279.887 589.25L280.229 588.665L280.566 588.075L280.897 587.481L281.223 586.884L281.544 586.283L281.858 585.678L282.167 585.07L282.47 584.458L282.768 583.843L283.059 583.224L283.345 582.602L283.625 581.976L283.899 581.348L284.166 580.716L284.428 580.081L284.684 579.442L284.934 578.801L285.177 578.157L285.415 577.51L285.646 576.86L285.871 576.207L286.09 575.551L286.302 574.893L286.508 574.232L286.708 573.569L286.901 572.903L287.088 572.235L287.268 571.564L287.442 570.891L287.609 570.216L287.77 569.538L287.924 568.859L288.071 568.177L288.212 567.494L288.346 566.808L288.474 566.121L288.594 565.432L288.708 564.741L288.815 564.048L288.916 563.354L289.009 562.658L289.096 561.961L289.176 561.263L289.248 560.563L289.314 559.862L289.373 559.16L289.425 558.456L289.47 557.752L289.508 557.046L289.539 556.34L289.563 555.633L289.58 554.925L289.59 554.217L289.593 553.507L289.589 552.797L289.577 552.087L289.559 551.376L289.533 550.665L289.5 549.954L289.46 549.243L289.413 548.531L289.358 547.819L289.297 547.107L289.228 546.396L289.152 545.684L289.069 544.973L288.978 544.262L288.881 543.552L288.776 542.841L288.664 542.132L288.545 541.423L288.418 540.715L288.284 540.007L288.143 539.3L287.995 538.594L287.839 537.889L287.677 537.185L287.507 536.482L287.329 535.781L287.145 535.08L286.953 534.381L286.754 533.684L286.548 532.987L286.335 532.293L286.114 531.6L285.887 530.908L285.652 530.219L285.41 529.531L285.16 528.845L284.904 528.161L284.64 527.479L284.37 526.799L284.092 526.122L283.807 525.447L283.515 524.774L283.216 524.103L282.91 523.435L282.597 522.77L282.276 522.107L281.949 521.447L281.615 520.79L281.274 520.135L280.926 519.484L280.571 518.835L280.209 518.19L279.84 517.547L279.464 516.908L279.082 516.273L278.692 515.64L278.296 515.011L277.893 514.386L277.484 513.764L277.068 513.145L276.645 512.531L276.215 511.92L275.779 511.313L275.336 510.71L274.887 510.11L274.431 509.515L273.969 508.924L273.5 508.338L273.025 507.755L272.543 507.177L272.055 506.603L271.561 506.034L271.06 505.469L270.554 504.908L270.041 504.353L269.522 503.802L268.996 503.256L268.465 502.715L267.928 502.178L267.384 501.647L266.835 501.121L266.28 500.599L265.719 500.083L265.152 499.572L264.58 499.067L264.001 498.567L263.417 498.072L262.828 497.583L262.232 497.099L261.632 496.621L261.026 496.148L260.414 495.681L259.797 495.22L259.175 494.765L258.547 494.316L257.914 493.873L257.276 493.435L256.633 493.004L255.985 492.579L255.332 492.16L254.673 491.747L254.01 491.34L253.343 490.94L252.67 490.546L251.993 490.159L251.311 489.778L250.624 489.404L249.933 489.036L249.237 488.675L248.537 488.321L247.833 487.973L247.124 487.632L246.411 487.298L245.694 486.971L244.973 486.651L244.247 486.338L243.518 486.031L242.785 485.732L242.048 485.44L241.307 485.155L240.563 484.878L239.815 484.607L239.063 484.344L238.308 484.089L237.55 483.84L236.788 483.599L236.022 483.365L235.254 483.139L234.482 482.921L233.708 482.71L232.93 482.506L232.149 482.311L231.366 482.123L230.58 481.942L229.791 481.769L228.999 481.605L228.205 481.447L227.408 481.298L226.609 481.157L225.808 481.023L225.004 480.898L224.198 480.78L223.39 480.67L222.58 480.569L221.768 480.475L220.955 480.389L220.139 480.312L219.322 480.243L218.503 480.181L217.682 480.128L216.86 480.083L216.037 480.047L215.212 480.018L214.386 479.998L213.559 479.986L212.731 479.982L211.902 479.987L211.072 479.999L210.241 480.02L209.409 480.05L208.577 480.088L207.744 480.134L206.911 480.189L206.077 480.251L205.243 480.323L204.408 480.403L203.574 480.491L202.739 480.587L201.904 480.692L201.07 480.806L200.236 480.928L199.401 481.058L198.568 481.197L197.734 481.344L196.902 481.499L196.069 481.664L195.238 481.836L194.407 482.017L193.577 482.207L192.748 482.405L191.92 482.611L191.094 482.826L190.268 483.049L189.444 483.281L188.621 483.521L187.799 483.769L186.979 484.026L186.161 484.291L185.344 484.565L184.529 484.847L183.716 485.138L182.905 485.437L182.097 485.744L181.29 486.059L180.485 486.383L179.683 486.715L178.883 487.055L178.086 487.404L177.291 487.761L176.499 488.126L175.71 488.499L174.923 488.881L174.14 489.27L173.359 489.668L172.581 490.074L171.807 490.488L171.036 490.91L170.268 491.34L169.504 491.778L168.743 492.224L167.986 492.678L167.232 493.14L166.482 493.61L165.736 494.088L164.994 494.573L164.256 495.066L163.522 495.568L162.793 496.076L162.067 496.593L161.346 497.117L160.629 497.649L159.917 498.188L159.209 498.735L158.506 499.289L157.808 499.851L157.114 500.42L156.426 500.996L155.742 501.58L155.064 502.171L154.39 502.77L153.722 503.375L153.059 503.988L152.402 504.608L151.75 505.235L151.103 505.869L150.462 506.509L149.827 507.157L149.197 507.812L148.574 508.473L147.956 509.141L147.344 509.816L146.738 510.497L146.139 511.185L145.545 511.88L144.958 512.58L144.377 513.288L143.803 514.001L143.235 514.721L142.674 515.448L142.119 516.18L141.571 516.918L141.03 517.663L140.495 518.413L139.968 519.17L139.447 519.932L138.934 520.7L138.427 521.474L137.928 522.253L137.436 523.038L136.951 523.828L136.474 524.624L136.004 525.426L135.541 526.232L135.086 527.044L134.639 527.861L134.199 528.683L133.767 529.51L133.343 530.342L132.927 531.179L132.518 532.021L132.118 532.867L131.725 533.718L131.341 534.574L130.965 535.434L130.597 536.298L130.237 537.167L129.885 538.04L129.542 538.918L129.207 539.799L128.881 540.684L128.563 541.574L128.254 542.467L127.953 543.364L127.661 544.264L127.377 545.169L127.103 546.076L126.837 546.987L126.579 547.902L126.331 548.82L126.092 549.741L125.861 550.665L125.64 551.592L125.428 552.522L125.224 553.454L125.03 554.39L124.845 555.328L124.669 556.269L124.502 557.212L124.345 558.157L124.197 559.105L124.058 560.055L123.928 561.007L123.808 561.961L123.698 562.917L123.596 563.875L123.505 564.835L123.422 565.796L123.35 566.759L123.286 567.723L123.233 568.688L123.189 569.655L123.155 570.623L123.13 571.592L123.115 572.562L123.109 573.533L123.114 574.505L123.128 575.477L123.152 576.45L123.186 577.424L123.229 578.397L123.282 579.371L123.345 580.346L123.418 581.32L123.501 582.295L123.593 583.269L123.696 584.243L123.808 585.217L123.93 586.19L124.063 587.163L124.204 588.136L124.356 589.107L124.518 590.078L124.69 591.048L124.871 592.017L125.063 592.985L125.264 593.952L125.476 594.917L125.697 595.881L125.928 596.843L126.169 597.804L126.42 598.764L126.681 599.721L126.952 600.677L127.232 601.63L127.523 602.582L127.823 603.531L128.134 604.478L128.454 605.422L128.783 606.364L129.123 607.304L129.473 608.241L129.832 609.175L130.201 610.106L130.58 611.034L130.968 611.959L131.367 612.881L131.774 613.799L132.192 614.714L132.619 615.626L133.056 616.534L133.503 617.438L133.959 618.339L134.424 619.235L134.899 620.128L135.384 621.016L135.878 621.901L136.381 622.781L136.894 623.657L137.416 624.528L137.948 625.394L138.489 626.256L139.039 627.114L139.598 627.966L140.167 628.813L140.744 629.656L141.331 630.493L141.927 631.325L142.531 632.151L143.145 632.973L143.768 633.788L144.4 634.598L145.04 635.402L145.689 636.201L146.347 636.993L147.014 637.78L147.689 638.561L148.373 639.335L149.065 640.103L149.766 640.865L150.476 641.62L151.193 642.369L151.919 643.111L152.654 643.846L153.396 644.575L154.147 645.297L154.906 646.011L155.673 646.719L156.447 647.419L157.23 648.113L158.021 648.799L158.819 649.477L159.625 650.148L160.439 650.812L161.26 651.468L162.089 652.116L162.925 652.756L163.768 653.389L164.619 654.013L165.477 654.63L166.343 655.238L167.215 655.838L168.095 656.43L168.981 657.013L169.874 657.588L170.774 658.155L171.681 658.713L172.594 659.262L173.514 659.803L174.44 660.334L175.373 660.857L176.312 661.371L177.257 661.876L178.209 662.372L179.166 662.858L180.13 663.336L181.099 663.804L182.074 664.263L183.055 664.712L184.042 665.152L185.034 665.583L186.031 666.003L187.034 666.414L188.042 666.816L189.056 667.207L190.074 667.589L191.097 667.961L192.126 668.323L193.159 668.674L194.197 669.016L195.239 669.348L196.286 669.669L197.337 669.98L198.393 670.281L199.453 670.572L200.517 670.852L201.585 671.122L202.657 671.381L203.733 671.63L204.813 671.868L205.896 672.095L206.983 672.312L208.073 672.518L209.166 672.713L210.263 672.898L211.363 673.071L212.466 673.234L213.572 673.386L214.68 673.527L215.791 673.657L216.905 673.776L218.021 673.884L219.14 673.981L220.261 674.066L221.384 674.141L222.509 674.204L223.636 674.256L224.765 674.297L225.895 674.327L227.028 674.345L228.161 674.352L229.296 674.347L230.433 674.332L231.57 674.304L232.708 674.266L233.848 674.216L234.988 674.155L236.129 674.082L237.27 673.997L238.412 673.902L239.555 673.794L240.697 673.675L241.84 673.545L242.983 673.403L244.125 673.25L245.267 673.085L246.409 672.908L247.551 672.72L248.692 672.52L249.832 672.309L250.972 672.086L252.11 671.852L253.248 671.606L254.384 671.348L255.52 671.079L256.653 670.798L257.786 670.506L258.916 670.202L260.045 669.887L261.172 669.56L262.297 669.222L263.42 668.872L264.541 668.51L265.659 668.137L266.775 667.753L267.889 667.357L268.999 666.95L270.107 666.531L271.212 666.101L272.314 665.66L273.413 665.207L274.509 664.742L275.601 664.267L276.69 663.78L277.775 663.282L278.856 662.773L279.933 662.252L281.007 661.721L282.076 661.178L283.142 660.624L284.202 660.059L285.259 659.483L286.311 658.896L287.358 658.298L288.4 657.689L289.438 657.069L290.47 656.438L291.498 655.797L292.52 655.144L293.537 654.481L294.548 653.808L295.554 653.124L296.554 652.429L297.548 651.723L298.537 651.007L299.519 650.281L300.495 649.544L301.465 648.797L302.429 648.04L303.386 647.273L304.336 646.495L305.28 645.707L306.217 644.909L307.147 644.102L308.07 643.284L308.986 642.456L309.895 641.619L310.796 640.772L311.69 639.915L312.577 639.049L313.455 638.173L314.326 637.288L315.189 636.393L316.045 635.489L316.892 634.576L317.731 633.654L318.561 632.722L319.384 631.782L320.197 630.833L321.003 629.874L321.799 628.907L322.587 627.932L323.366 626.947L324.136 625.954L324.897 624.953L325.649 623.943L326.391 622.925L327.124 621.899L327.848 620.865L328.562 619.823L329.267 618.772L329.962 617.714L330.647 616.649L331.322 615.575L331.988 614.494L332.643 613.406L333.288 612.31L333.923 611.207L334.547 610.096L335.161 608.979L335.765 607.854L336.358 606.723L336.941 605.585L337.512 604.44L338.073 603.289L338.623 602.131L339.162 600.967L339.69 599.797L340.207 598.62L340.713 597.437L341.207 596.249L341.69 595.054L342.162 593.854L342.622 592.648L343.071 591.437L343.508 590.22L343.934 588.998L344.347 587.771L344.749 586.539L345.139 585.302L345.517 584.06L345.883 582.813L346.237 581.562L346.579 580.306L346.909 579.046L347.226 577.781L347.531 576.513L347.824 575.24L348.104 573.964L348.372 572.684L348.628 571.4L348.871 570.113L349.101 568.822L349.318 567.528L349.523 566.231L349.715 564.931L349.895 563.628L350.061 562.322L350.215 561.013L350.356 559.702L350.483 558.389L350.598 557.073L350.7 555.755L350.788 554.436L350.864 553.114L350.926 551.791L350.975 550.465L351.011 549.139L351.034 547.811L351.043 546.482L351.039 545.152L351.022 543.821L350.991 542.489L350.947 541.156L350.89 539.823L350.819 538.489L350.735 537.155L350.637 535.821L350.526 534.487L350.402 533.153L350.264 531.82L350.112 530.486L349.947 529.153L349.768 527.821L349.576 526.49L349.37 525.159L349.151 523.83L348.918 522.502L348.671 521.175L348.411 519.85L348.138 518.526L347.851 517.204L347.55 515.884L347.235 514.566L346.908 513.25L346.566 511.936L346.211 510.625L345.843 509.316L345.461 508.01L345.065 506.707L344.656 505.407L344.233 504.11L343.797 502.816L343.348 501.526L342.885 500.239L342.408 498.956L341.919 497.677L341.416 496.401L340.899 495.13L340.369 493.863L339.826 492.6L339.27 491.342L338.7 490.088L338.117 488.839L337.521 487.595L336.912 486.357L336.29 485.123L335.655 483.894L335.006 482.671L334.345 481.454L333.67 480.242L332.983 479.036L332.283 477.836L331.57 476.643L330.845 475.455L330.106 474.274L329.355 473.099L328.591 471.931L327.815 470.77L327.026 469.616L326.225 468.468L325.411 467.328L324.585 466.195L323.747 465.07L322.896 463.952L322.033 462.842L321.159 461.739L320.272 460.645L319.373 459.558L318.462 458.48L317.539 457.41L316.605 456.349L315.659 455.296L314.701 454.252L313.732 453.216L312.751 452.19L311.758 451.172L310.755 450.164L309.74 449.165L308.714 448.175L307.677 447.195L306.629 446.225L305.57 445.264L304.5 444.313L303.419 443.372L302.328 442.442L301.226 441.521L300.114 440.611L298.991 439.712L297.858 438.822L296.715 437.944L295.561 437.076L294.398 436.22L293.225 435.374L292.042 434.539L290.849 433.716L289.646 432.904L288.434 432.103L287.213 431.314L285.982 430.537L284.742 429.771L283.493 429.017L282.235 428.275L280.968 427.545L279.693 426.827L278.408 426.122L277.116 425.429L275.814 424.748L274.505 424.079L273.187 423.424L271.861 422.781L270.527 422.151L269.186 421.533L267.836 420.929L266.479 420.338L265.115 419.759L263.743 419.195L262.364 418.643L260.977 418.105L259.584 417.58L258.184 417.069L256.777 416.571L255.364 416.087L253.944 415.617L252.518 415.161L251.085 414.719L249.647 414.29L248.202 413.876L246.752 413.476L245.296 413.09L243.835 412.719L242.368 412.362L240.896 412.019L239.418 411.691L237.936 411.377L236.449 411.078L234.957 410.793L233.461 410.523L231.96 410.268L230.455 410.028L228.945 409.803L227.432 409.593L225.915 409.397L224.394 409.217L222.87 409.052L221.342 408.902L219.811 408.767L218.277 408.647L216.74 408.543L215.2 408.454L213.657 408.38L212.112 408.322L210.565 408.279L209.015 408.251L207.463 408.239L205.91 408.243L204.354 408.262L202.797 408.296L201.239 408.347L199.679 408.413L198.118 408.494L196.556 408.591L194.994 408.704L193.43 408.833L191.866 408.978L190.302 409.138L188.738 409.314L187.173 409.505L185.609 409.713L184.045 409.936L182.481 410.176L180.918 410.431L179.356 410.702L177.795 410.988L176.234 411.291L174.675 411.609L173.117 411.944L171.561 412.294L170.007 412.66L168.454 413.041L166.904 413.439L165.356 413.852L163.81 414.282L162.266 414.727L160.725 415.187L159.188 415.664L157.653 416.156L156.121 416.664L154.592 417.188L153.067 417.728L151.546 418.283L150.029 418.854L148.515 419.44L147.006 420.042L145.501 420.659L144 421.292L142.504 421.941L141.013 422.605L139.526 423.285L138.045 423.979L136.569 424.69L135.098 425.415L133.633 426.156L132.174 426.912L130.721 427.683L129.273 428.469L127.832 429.271L126.397 430.087L124.969 430.918L123.547 431.765L122.133 432.626L120.725 433.502L119.324 434.392L117.931 435.298L116.545 436.218L115.167 437.152L113.797 438.101L112.434 439.065L111.08 440.043L109.733 441.035L108.395 442.041L107.066 443.062L105.746 444.096L104.434 445.145L103.131 446.207L101.837 447.284L100.553 448.374L99.2781 449.477L98.0127 450.595L96.7571 451.725L95.5114 452.87L94.2757 454.027L93.0502 455.198L91.8349 456.382L90.6301 457.579L89.436 458.789L88.2525 460.012L87.08 461.247L85.9185 462.496L84.7681 463.756L83.629 465.03L82.5014 466.315L81.3854 467.613L80.281 468.923L79.1885 470.245L78.108 471.579L77.0396 472.925L75.9834 474.283L74.9397 475.652L73.9084 477.032L72.8897 478.424L71.8839 479.827L70.8909 481.242L69.9109 482.667L68.9441 484.103L67.9906 485.55L67.0504 487.007L66.1238 488.475L65.2107 489.954L64.3115 491.442L63.4261 492.941L62.5547 494.45L61.6974 495.969L60.8543 497.497L60.0256 499.035L59.2113 500.582L58.4115 502.139L57.6264 503.705L56.8561 505.28L56.1007 506.863L55.3603 508.456L54.635 510.057L53.9248 511.666L53.23 513.284L52.5505 514.91L51.8866 516.544L51.2383 518.186L50.6056 519.836L49.9888 521.493L49.3878 523.158L48.8028 524.83L48.2339 526.509L47.6811 528.195L47.1446 529.887L46.6244 531.587L46.1207 533.293L45.6334 535.005L45.1627 536.723L44.7087 538.448L44.2714 540.178L43.851 541.914L43.4474 543.655L43.0609 545.402L42.6913 547.154L42.3389 548.911L42.0037 550.672L41.6857 552.439L41.3851 554.21L41.1018 555.985L40.836 557.764L40.5877 559.548L40.357 561.335L40.1439 563.126L39.9485 564.92L39.7708 566.718L39.6109 568.519L39.4689 570.322L39.3448 572.129L39.2386 573.938L39.1504 575.749L39.0803 577.563L39.0283 579.379L38.9943 581.197L38.9786 583.016L38.981 584.837L39.0016 586.659L39.0406 588.483L39.0978 590.307L39.1734 592.132L39.2673 593.958L39.3797 595.784L39.5104 597.611L39.6596 599.437L39.8273 601.264L40.0134 603.09L40.218 604.915L40.4412 606.74L40.6829 608.564L40.9431 610.387L41.2219 612.209L41.5192 614.029L41.8352 615.848L42.1697 617.665L42.5227 619.48L42.8944 621.293L43.2846 623.103L43.6934 624.911L44.1208 626.716L44.5668 628.518L45.0313 630.317L45.5144 632.113L46.016 633.905L46.5361 635.694L47.0748 637.478L47.6319 639.259L48.2075 641.036L48.8016 642.808L49.4141 644.575L50.0449 646.337L50.6942 648.095L51.3618 649.847L52.0478 651.594L52.752 653.336L53.4745 655.072L54.2151 656.801L54.974 658.525L55.751 660.242L56.5461 661.953L57.3592 663.657L58.1903 665.355L59.0394 667.045L59.9064 668.728L60.7913 670.404L61.6939 672.072L62.6143 673.732L63.5524 675.384L64.5081 677.028L65.4814 678.664L66.4721 680.291L67.4803 681.91L68.5059 683.519L69.5488 685.12L70.6089 686.711L71.6861 688.293L72.7805 689.866L73.8918 691.428L75.0201 692.981L76.1652 694.523L77.3271 696.056L78.5057 697.577L79.7008 699.088L80.9125 700.589L82.1406 702.078L83.385 703.556L84.6457 705.022L85.9225 706.478L87.2153 707.921L88.5241 709.353L89.8487 710.772L91.1891 712.18L92.5451 713.575L93.9167 714.957L95.3036 716.327L96.7059 717.684L98.1234 719.028L99.556 720.359L101.004 721.676L102.466 722.98L103.943 724.27L105.435 725.546L106.941 726.809L108.462 728.057L109.997 729.291L111.546 730.511L113.109 731.716L114.686 732.906L116.276 734.081L117.88 735.242L119.498 736.387L121.129 737.516L122.773 738.631L124.431 739.729L126.101 740.812L127.784 741.879L129.479 742.93L131.187 743.965L132.908 744.983L134.64 745.985L136.385 746.971L138.141 747.939L139.91 748.891L141.689 749.826L143.481 750.744L145.283 751.644L147.096 752.527L148.921 753.393L150.756 754.241L152.602 755.071L154.458 755.884L156.325 756.678L158.201 757.454L160.088 758.213L161.984 758.952L163.89 759.674L165.806 760.377L167.73 761.061L169.664 761.726L171.607 762.373L173.558 763L175.518 763.609L177.486 764.198L179.462 764.769L181.446 765.319L183.439 765.851L185.438 766.363L187.445 766.855L189.46 767.327L191.481 767.78L193.51 768.213L195.545 768.625L197.586 769.018L199.634 769.391L201.688 769.743L203.747 770.075L205.813 770.387L207.884 770.678L209.96 770.949L212.041 771.199L214.128 771.428L216.219 771.637L218.314 771.825L220.414 771.992L222.518 772.138L224.625 772.264L226.737 772.368L228.852 772.451L230.97 772.514L233.091 772.555L235.215 772.574L237.342 772.573L239.471 772.55L241.602 772.506L243.736 772.441L245.871 772.354L248.008 772.246L250.146 772.116L252.285 771.965L254.426 771.792L256.567 771.597L258.708 771.382L260.85 771.144L262.992 770.885L265.134 770.604L267.275 770.302L269.416 769.978L271.556 769.632L273.695 769.265L275.833 768.876L277.97 768.465L280.104 768.032L282.237 767.578L284.368 767.102L286.497 766.605L288.623 766.085L290.746 765.545L292.866 764.982L294.983 764.398L297.097 763.792L299.207 763.164L301.313 762.515L303.416 761.845L305.513 761.153L307.607 760.439L309.695 759.704L311.779 758.947L313.858 758.169L315.931 757.37L317.998 756.549L320.06 755.707L322.115 754.844L324.165 753.959L326.207 753.053L328.243 752.126L330.272 751.178L332.294 750.209L334.309 749.219L336.316 748.209L338.315 747.177L340.306 746.124L342.289 745.051L344.264 743.957L346.23 742.843L348.187 741.708L350.134 740.553L352.073 739.377L354.002 738.181L355.921 736.965L357.83 735.728L359.729 734.472L361.618 733.195L363.496 731.899L365.363 730.583L367.219 729.248L369.064 727.892L370.897 726.518L372.719 725.124L374.529 723.71L376.327 722.278L378.113 720.826L379.886 719.355L381.646 717.866L383.394 716.358L385.128 714.831L386.85 713.286L388.557 711.722L390.251 710.14L391.931 708.54L393.597 706.922L395.249 705.286L396.887 703.632L398.509 701.961L400.117 700.272L401.71 698.566L403.287 696.842L404.849 695.102L406.395 693.344L407.926 691.57L409.44 689.779L410.939 687.972L412.421 686.148L413.886 684.308L415.335 682.452L416.766 680.58L418.181 678.692L419.579 676.789L420.958 674.871L422.321 672.937L423.665 670.988L424.992 669.024L426.3 667.045L427.59 665.052L428.862 663.045L430.115 661.023L431.349 658.987L432.564 656.937L433.761 654.874L434.937 652.797L436.095 650.706L437.233 648.603L438.351 646.486L439.449 644.357L440.527 642.215L441.585 640.061L442.622 637.895L443.639 635.716L444.636 633.526L445.611 631.324L446.566 629.111L447.499 626.886L448.412 624.651L449.303 622.405L450.172 620.148L451.02 617.881L451.847 615.603L452.651 613.316L453.433 611.018L454.194 608.712L454.932 606.396L455.648 604.07L456.341 601.736L457.012 599.393L457.66 597.042L458.285 594.683L458.887 592.315L459.467 589.94L460.023 587.557L460.556 585.166L461.065 582.769L461.552 580.365L462.014 577.954L462.453 575.536L462.869 573.113L463.26 570.683L463.628 568.248L463.972 565.807L464.292 563.361L464.587 560.91L464.859 558.454L465.106 555.993L465.329 553.529L465.527 551.06L465.701 548.587L465.85 546.111L465.975 543.631L466.075 541.148L466.15 538.663L466.2 536.174L466.226 533.684L466.226 531.191L466.202 528.697L466.153 526.2L466.078 523.703L465.979 521.204L465.854 518.704L465.705 516.204L465.53 513.704L465.329 511.203L465.104 508.702L464.853 506.202L464.577 503.703L464.275 501.204L463.949 498.706L463.596 496.21L463.219 493.716L462.816 491.223L462.387 488.733L461.933 486.245L461.454 483.76L460.949 481.277L460.419 478.798L459.863 476.323L459.282 473.851L458.676 471.383L458.044 468.919L457.386 466.459L456.704 464.005L455.996 461.555L455.262 459.111L454.503 456.672L453.719 454.239L452.91 451.812L452.076 449.391L451.216 446.977L450.331 444.57L449.421 442.169L448.486 439.776L447.525 437.391L446.54 435.013L445.53 432.644L444.495 430.282L443.435 427.93L442.351 425.586L441.241 423.251L440.107 420.926L438.949 418.61L437.766 416.305L436.558 414.009L435.326 411.723L434.07 409.449L432.789 407.185L431.485 404.932L430.156 402.691L428.804 400.461L427.427 398.243L426.027 396.037L424.603 393.844L423.155 391.663L421.684 389.495L420.189 387.34L418.671 385.199L417.13 383.071L415.566 380.957L413.979 378.857L412.369 376.771L410.736 374.7L409.081 372.644L407.403 370.602L405.703 368.576L403.981 366.566L402.236 364.571L400.47 362.592L398.681 360.63L396.871 358.684L395.039 356.754L393.186 354.841L391.312 352.946L389.416 351.068L387.5 349.207L385.562 347.364L383.604 345.539L381.626 343.733L379.627 341.945L377.608 340.175L375.568 338.425L373.509 336.693L371.43 334.981L369.332 333.288L367.214 331.616L365.078 329.963L362.922 328.33L360.747 326.717L358.553 325.126L356.342 323.554L354.111 322.004L351.863 320.475L349.597 318.968L347.313 317.482L345.012 316.017L342.693 314.575L340.357 313.155L338.005 311.757L335.635 310.381L333.249 309.029L330.847 307.699L328.429 306.392L325.995 305.108L323.545 303.848L321.079 302.612L318.599 301.399L316.103 300.21L313.593 299.045L311.068 297.904L308.529 296.788L305.976 295.697L303.409 294.63L300.828 293.588L298.234 292.571L295.626 291.579L293.006 290.613L290.373 289.672L287.728 288.757L285.07 287.868L282.4 287.004L279.719 286.167L277.026 285.356L274.322 284.571L271.607 283.812L268.881 283.081L266.145 282.376L263.399 281.698L260.642 281.047L257.876 280.422L255.101 279.826L252.316 279.256L249.522 278.714L246.72 278.2L243.91 277.713L241.091 277.254L238.264 276.823L235.43 276.42L232.589 276.044L229.74 275.697L226.885 275.379L224.023 275.088L221.155 274.826L218.281 274.593L215.402 274.388L212.517 274.212L209.627 274.065L206.732 273.946L203.833 273.856L200.929 273.795L198.022 273.764L195.111 273.761L192.196 273.788L189.279 273.843L186.358 273.928L183.435 274.042L180.51 274.186L177.583 274.359L174.654 274.561L171.724 274.793L168.793 275.054L165.861 275.345L162.929 275.666L159.996 276.016L157.064 276.395L154.132 276.805L151.201 277.244L148.27 277.712L145.341 278.211L142.414 278.739L139.489 279.296L136.566 279.884L133.645 280.501L130.727 281.148L127.812 281.824L124.901 282.53L121.993 283.266L119.09 284.031L116.191 284.827L113.296 285.651L110.406 286.506L107.522 287.39L104.643 288.303L101.77 289.246L98.9026 290.218L96.042 291.22L93.1882 292.251L90.3414 293.312L87.502 294.402L84.6701 295.521L81.8463 296.669L79.0306 297.847L76.2236 299.053L73.4253 300.288L70.6363 301.553L67.8566 302.846L65.0867 304.168L62.3269 305.519L59.5774 306.898L56.8386 308.306L54.1107 309.743L51.394 311.208L48.6889 312.701L45.9956 314.222L43.3145 315.771L40.6457 317.349L37.9897 318.954L35.3467 320.587L32.7171 322.248L30.101 323.936L27.4988 325.652L24.9108 327.395L22.3373 329.165L19.7785 330.963L17.2348 332.787L14.7064 334.638L12.1936 336.516L9.6968 338.421L7.21616 340.352L4.75198 342.309L2.30457 344.292L-0.125795 346.301L-2.53885 348.336L-4.9343 350.397L-7.31188 352.483L-9.6713 354.595L-12.0123 356.732L-14.3346 358.894L-16.6379 361.081L-18.922 363.292L-21.1865 365.528L-23.4313 367.788L-25.6561 370.073L-27.8605 372.381L-30.0443 374.713L-32.2073 377.069L-34.3492 379.448L-36.4698 381.851L-38.5687 384.277L-40.6458 386.725L-42.7007 389.196L-44.7333 391.689L-46.7432 394.205L-48.7303 396.742L-50.6942 399.302L-52.6348 401.883L-54.5517 404.485L-56.4448 407.108L-58.3139 409.753L-60.1586 412.418L-61.9787 415.103L-63.774 417.809L-65.5443 420.535L-67.2894 423.28L-69.009 426.045L-70.7028 428.83L-72.3707 431.633L-74.0125 434.455L-75.6279 437.296L-77.2168 440.155L-78.7788 443.032L-80.3138 445.927L-81.8216 448.839L-83.302 451.769L-84.7547 454.716L-86.1796 457.679L-87.5765 460.659L-88.9451 463.655L-90.2853 466.667L-91.5969 469.695L-92.8797 472.738L-94.1335 475.796L-95.3581 478.869L-96.5534 481.957L-97.7191 485.059L-98.8551 488.174L-99.9612 491.304L-101.037 494.447L-102.083 497.603L-103.098 500.772L-104.083 503.954L-105.037 507.147L-105.961 510.353L-106.853 513.57L-107.714 516.799L-108.543 520.039L-109.342 523.289L-110.108 526.55L-110.843 529.821L-111.546 533.102L-112.217 536.392L-112.855 539.692L-113.462 543L-114.036 546.317L-114.577 549.642L-115.086 552.975L-115.561 556.315L-116.004 559.663L-116.414 563.018L-116.791 566.379L-117.135 569.747L-117.445 573.121L-117.722 576.5L-117.965 579.885L-118.175 583.274L-118.351 586.668L-118.493 590.067L-118.602 593.469L-118.676 596.876L-118.717 600.285L-118.723 603.697L-118.695 607.112L-118.633 610.529L-118.537 613.949L-118.406 617.369L-118.241 620.792L-118.041 624.214L-117.807 627.638L-117.539 631.062L-117.235 634.485L-116.897 637.908L-116.525 641.331L-116.118 644.752L-115.676 648.172" stroke="#F4ECCA" stroke-opacity="0.1" stroke-width="4" stroke-linecap="round"/>
<path d="M187.736 621.707L188.267 621.92L188.801 622.128L189.337 622.331L189.876 622.528L190.417 622.721L190.961 622.908L191.508 623.09L192.057 623.266L192.609 623.438L193.163 623.603L193.719 623.764L194.277 623.919L194.838 624.068L195.401 624.212L195.965 624.351L196.532 624.484L197.101 624.611L197.672 624.733L198.245 624.85L198.82 624.96L199.396 625.065L199.974 625.165L200.554 625.258L201.136 625.346L201.718 625.428L202.303 625.505L202.889 625.575L203.476 625.64L204.065 625.699L204.655 625.753L205.246 625.8L205.838 625.841L206.432 625.877L207.026 625.907L207.622 625.931L208.218 625.948L208.815 625.96L209.414 625.966L210.012 625.966L210.612 625.961L211.212 625.949L211.813 625.931L212.414 625.907L213.016 625.877L213.618 625.841L214.221 625.799L214.824 625.751L215.427 625.697L216.03 625.637L216.633 625.571L217.236 625.498L217.84 625.42L218.443 625.336L219.046 625.245L219.649 625.149L220.251 625.046L220.853 624.937L221.455 624.822L222.057 624.701L222.658 624.574L223.258 624.441L223.858 624.302L224.457 624.157L225.055 624.006L225.652 623.848L226.249 623.685L226.844 623.515L227.439 623.339L228.032 623.158L228.625 622.97L229.216 622.776L229.806 622.576L230.394 622.37L230.981 622.159L231.567 621.941L232.151 621.717L232.734 621.487L233.315 621.251L233.894 621.009L234.472 620.761L235.048 620.508L235.622 620.248L236.194 619.982L236.764 619.711L237.331 619.433L237.897 619.15L238.461 618.861L239.022 618.566L239.581 618.265L240.138 617.959L240.692 617.646L241.244 617.328L241.793 617.005L242.339 616.675L242.883 616.34L243.424 615.999L243.963 615.652L244.498 615.3L245.031 614.942L245.56 614.579L246.087 614.21L246.611 613.836L247.131 613.456L247.648 613.07L248.162 612.679L248.672 612.283L249.179 611.882L249.683 611.475L250.183 611.062L250.68 610.645L251.173 610.222L251.662 609.794L252.148 609.36L252.63 608.922L253.108 608.478L253.582 608.03L254.052 607.576L254.518 607.117L254.98 606.653L255.438 606.185L255.892 605.711L256.341 605.233L256.786 604.749L257.227 604.261L257.664 603.768L258.096 603.271L258.523 602.768L258.946 602.261L259.365 601.75L259.778 601.234L260.187 600.713L260.592 600.188L260.991 599.659L261.386 599.125L261.776 598.587L262.16 598.044L262.54 597.498L262.915 596.947L263.284 596.392L263.649 595.833L264.008 595.27L264.362 594.703L264.711 594.131L265.054 593.556L265.392 592.978L265.725 592.395L266.052 591.809L266.374 591.218L266.69 590.625L267.001 590.027L267.305 589.427L267.605 588.822L267.898 588.215L268.186 587.603L268.468 586.989L268.744 586.371L269.014 585.75L269.278 585.126L269.536 584.499L269.788 583.869L270.035 583.236L270.275 582.6L270.509 581.961L270.737 581.319L270.958 580.674L271.174 580.027L271.383 579.377L271.586 578.725L271.783 578.07L271.973 577.413L272.157 576.753L272.334 576.091L272.505 575.427L272.67 574.76L272.828 574.091L272.979 573.421L273.124 572.748L273.263 572.073L273.394 571.397L273.52 570.719L273.638 570.039L273.75 569.357L273.855 568.673L273.953 567.989L274.044 567.302L274.129 566.614L274.207 565.925L274.278 565.235L274.342 564.543L274.4 563.85L274.45 563.156L274.494 562.461L274.53 561.765L274.56 561.069L274.582 560.371L274.598 559.673L274.607 558.974L274.609 558.274L274.603 557.574L274.591 556.874L274.571 556.173L274.545 555.472L274.511 554.77L274.471 554.068L274.423 553.367L274.368 552.665L274.306 551.963L274.237 551.261L274.16 550.56L274.077 549.858L273.987 549.157L273.889 548.457L273.784 547.757L273.672 547.057L273.553 546.358L273.426 545.66L273.293 544.962L273.152 544.266L273.005 543.57L272.849 542.875L272.687 542.181L272.518 541.488L272.342 540.797L272.158 540.106L271.967 539.417L271.769 538.73L271.564 538.044L271.352 537.359L271.133 536.676L270.906 535.995L270.673 535.315L270.432 534.637L270.184 533.962L269.929 533.288L269.668 532.616L269.399 531.946L269.123 531.279L268.84 530.614L268.55 529.951L268.252 529.29L267.948 528.632L267.637 527.977L267.32 527.324L266.995 526.674L266.663 526.027L266.324 525.382L265.979 524.74L265.626 524.102L265.267 523.466L264.901 522.834L264.528 522.204L264.149 521.578L263.762 520.956L263.369 520.336L262.97 519.72L262.563 519.108L262.15 518.499L261.731 517.894L261.305 517.293L260.872 516.695L260.433 516.102L259.987 515.512L259.535 514.927L259.077 514.345L258.612 513.767L258.14 513.194L257.663 512.625L257.179 512.061L256.689 511.501L256.193 510.945L255.69 510.394L255.182 509.847L254.667 509.305L254.146 508.768L253.62 508.236L253.087 507.708L252.549 507.186L252.004 506.668L251.454 506.155L250.898 505.648L250.336 505.146L249.768 504.649L249.195 504.157L248.616 503.671L248.032 503.19L247.442 502.714L246.847 502.244L246.246 501.78L245.64 501.321L245.029 500.868L244.412 500.421L243.79 499.98L243.163 499.544L242.531 499.115L241.894 498.691L241.251 498.274L240.604 497.862L239.952 497.457L239.295 497.058L238.634 496.665L237.967 496.278L237.296 495.898L236.621 495.525L235.94 495.157L235.256 494.797L234.567 494.442L233.873 494.095L233.175 493.754L232.473 493.42L231.767 493.092L231.057 492.772L230.343 492.458L229.624 492.151L228.902 491.851L228.176 491.558L227.446 491.272L226.712 490.993L225.975 490.721L225.234 490.457L224.49 490.199L223.742 489.949L222.991 489.706L222.236 489.471L221.478 489.243L220.717 489.022L219.953 488.808L219.186 488.602L218.416 488.404L217.643 488.213L216.867 488.03L216.089 487.854L215.308 487.686L214.524 487.526L213.738 487.373L212.949 487.228L212.158 487.091L211.364 486.961L210.569 486.84L209.771 486.726L208.971 486.62L208.169 486.522L207.365 486.432L206.559 486.35L205.752 486.276L204.943 486.21L204.132 486.151L203.32 486.101L202.506 486.059L201.691 486.026L200.875 486L200.057 485.982L199.238 485.972L198.419 485.971L197.598 485.978L196.776 485.993L195.954 486.016L195.131 486.048L194.307 486.087L193.483 486.135L192.658 486.191L191.833 486.256L191.007 486.328L190.181 486.409L189.355 486.499L188.529 486.596L187.704 486.702L186.878 486.816L186.052 486.939L185.227 487.07L184.401 487.209L183.577 487.357L182.753 487.513L181.929 487.677L181.106 487.849L180.284 488.03L179.463 488.219L178.643 488.417L177.824 488.623L177.006 488.837L176.189 489.06L175.373 489.29L174.559 489.53L173.746 489.777L172.935 490.033L172.125 490.297L171.318 490.569L170.511 490.85L169.707 491.138L168.905 491.435L168.105 491.741L167.307 492.054L166.511 492.376L165.717 492.706L164.926 493.044L164.137 493.39L163.351 493.744L162.568 494.106L161.787 494.477L161.009 494.855L160.234 495.242L159.462 495.636L158.693 496.039L157.927 496.449L157.164 496.868L156.405 497.294L155.649 497.728L154.897 498.17L154.148 498.62L153.403 499.078L152.661 499.544L151.924 500.017L151.19 500.498L150.46 500.986L149.734 501.483L149.013 501.987L148.295 502.498L147.582 503.017L146.873 503.543L146.169 504.077L145.47 504.619L144.774 505.167L144.084 505.723L143.399 506.287L142.718 506.857L142.042 507.435L141.371 508.02L140.706 508.612L140.045 509.212L139.39 509.818L138.74 510.431L138.096 511.051L137.457 511.678L136.823 512.312L136.195 512.953L135.573 513.6L134.957 514.254L134.346 514.915L133.742 515.582L133.143 516.256L132.551 516.936L131.964 517.623L131.384 518.316L130.81 519.015L130.243 519.72L129.682 520.432L129.127 521.15L128.579 521.874L128.038 522.604L127.503 523.34L126.975 524.081L126.454 524.829L125.94 525.582L125.433 526.341L124.933 527.106L124.44 527.876L123.954 528.651L123.475 529.432L123.004 530.219L122.54 531.01L122.083 531.807L121.634 532.609L121.193 533.416L120.759 534.228L120.332 535.045L119.914 535.867L119.503 536.694L119.1 537.525L118.705 538.361L118.318 539.202L117.939 540.047L117.567 540.896L117.204 541.75L116.849 542.608L116.503 543.47L116.164 544.336L115.834 545.207L115.512 546.081L115.199 546.959L114.894 547.841L114.598 548.726L114.31 549.615L114.031 550.508L113.76 551.404L113.498 552.303L113.245 553.206L113.001 554.112L112.765 555.021L112.539 555.933L112.321 556.848L112.112 557.766L111.912 558.686L111.721 559.61L111.539 560.536L111.367 561.464L111.203 562.395L111.049 563.328L110.903 564.263L110.767 565.2L110.641 566.14L110.523 567.081L110.415 568.024L110.316 568.969L110.227 569.916L110.147 570.864L110.076 571.814L110.015 572.765L109.964 573.718L109.922 574.672L109.889 575.626L109.866 576.582L109.853 577.539L109.849 578.497L109.855 579.455L109.87 580.414L109.895 581.374L109.93 582.334L109.974 583.294L110.029 584.255L110.092 585.216L110.166 586.177L110.249 587.137L110.342 588.098L110.445 589.059L110.558 590.019L110.68 590.979L110.812 591.938L110.954 592.897L111.106 593.855L111.268 594.812L111.439 595.768L111.62 596.723L111.811 597.677L112.012 598.63L112.223 599.582L112.443 600.532L112.674 601.481L112.914 602.428L113.164 603.373L113.423 604.317L113.693 605.258L113.972 606.198L114.261 607.136L114.559 608.071L114.868 609.004L115.186 609.935L115.514 610.863L115.852 611.789L116.199 612.712L116.556 613.632L116.923 614.55L117.299 615.464L117.685 616.375L118.081 617.283L118.486 618.188L118.9 619.089L119.325 619.987L119.759 620.882L120.202 621.772L120.654 622.659L121.117 623.542L121.588 624.421L122.069 625.296L122.56 626.167L123.059 627.034L123.568 627.896L124.086 628.754L124.614 629.607L125.15 630.456L125.696 631.3L126.251 632.139L126.815 632.973L127.388 633.803L127.97 634.627L128.561 635.445L129.161 636.259L129.769 637.067L130.387 637.87L131.013 638.667L131.649 639.459L132.292 640.244L132.945 641.024L133.606 641.798L134.275 642.566L134.953 643.328L135.64 644.084L136.335 644.833L137.038 645.576L137.75 646.312L138.47 647.042L139.197 647.765L139.934 648.482L140.678 649.192L141.43 649.895L142.19 650.59L142.958 651.279L143.734 651.961L144.517 652.635L145.308 653.302L146.107 653.962L146.913 654.614L147.727 655.259L148.549 655.896L149.377 656.525L150.213 657.146L151.056 657.76L151.907 658.365L152.764 658.963L153.629 659.552L154.5 660.134L155.378 660.707L156.263 661.271L157.155 661.827L158.053 662.375L158.958 662.914L159.869 663.445L160.787 663.967L161.711 664.48L162.641 664.984L163.578 665.479L164.52 665.966L165.469 666.443L166.423 666.911L167.383 667.37L168.349 667.82L169.321 668.261L170.298 668.692L171.28 669.113L172.268 669.525L173.262 669.928L174.26 670.321L175.264 670.704L176.272 671.078L177.286 671.442L178.304 671.796L179.328 672.14L180.355 672.474L181.388 672.798L182.424 673.112L183.466 673.416L184.511 673.71L185.561 673.994L186.614 674.267L187.672 674.53L188.733 674.783L189.799 675.025L190.868 675.257L191.94 675.478L193.016 675.689L194.096 675.889L195.178 676.078L196.264 676.257L197.353 676.426L198.445 676.583L199.54 676.73L200.637 676.866L201.737 676.991L202.84 677.105L203.945 677.208L205.052 677.3L206.162 677.382L207.274 677.452L208.387 677.511L209.503 677.559L210.62 677.596L211.739 677.622L212.86 677.637L213.982 677.641L215.106 677.633L216.23 677.615L217.356 677.585L218.483 677.543L219.611 677.491L220.739 677.427L221.868 677.352L222.998 677.266L224.128 677.168L225.259 677.059L226.39 676.938L227.52 676.806L228.651 676.663L229.782 676.509L230.913 676.343L232.043 676.165L233.172 675.977L234.301 675.776L235.43 675.565L236.557 675.342L237.684 675.107L238.81 674.861L239.934 674.604L241.057 674.336L242.179 674.056L243.299 673.764L244.418 673.461L245.535 673.147L246.65 672.821L247.763 672.484L248.874 672.136L249.983 671.776L251.09 671.406L252.194 671.023L253.295 670.63L254.394 670.225L255.49 669.809L256.583 669.381L257.673 668.943L258.76 668.493L259.844 668.032L260.924 667.56L262.001 667.077L263.074 666.582L264.144 666.077L265.21 665.561L266.271 665.033L267.329 664.495L268.383 663.945L269.432 663.385L270.477 662.814L271.517 662.232L272.553 661.639L273.584 661.035L274.61 660.421L275.631 659.796L276.647 659.161L277.658 658.514L278.663 657.857L279.663 657.19L280.658 656.512L281.647 655.824L282.63 655.126L283.607 654.417L284.578 653.698L285.543 652.968L286.502 652.229L287.455 651.479L288.401 650.719L289.341 649.95L290.274 649.17L291.2 648.38L292.119 647.581L293.032 646.772L293.937 645.953L294.835 645.125L295.726 644.287L296.61 643.439L297.486 642.582L298.355 641.716L299.215 640.84L300.068 639.955L300.913 639.061L301.751 638.158L302.58 637.246L303.4 636.325L304.213 635.395L305.017 634.456L305.813 633.509L306.6 632.553L307.378 631.588L308.148 630.615L308.908 629.634L309.66 628.644L310.403 627.646L311.136 626.64L311.86 625.626L312.575 624.603L313.281 623.573L313.976 622.536L314.663 621.49L315.339 620.437L316.006 619.376L316.663 618.308L317.31 617.233L317.947 616.15L318.573 615.06L319.19 613.963L319.796 612.859L320.392 611.748L320.977 610.631L321.552 609.507L322.116 608.376L322.67 607.239L323.213 606.095L323.744 604.946L324.265 603.79L324.775 602.628L325.274 601.46L325.762 600.286L326.238 599.106L326.703 597.921L327.157 596.731L327.599 595.535L328.03 594.333L328.449 593.127L328.857 591.915L329.253 590.699L329.637 589.477L330.009 588.251L330.37 587.021L330.718 585.785L331.055 584.546L331.379 583.302L331.692 582.054L331.992 580.802L332.28 579.546L332.555 578.286L332.819 577.023L333.07 575.756L333.308 574.485L333.534 573.212L333.747 571.935L333.948 570.655L334.136 569.372L334.312 568.086L334.475 566.798L334.625 565.507L334.762 564.213L334.887 562.917L334.998 561.619L335.097 560.319L335.183 559.017L335.255 557.713L335.315 556.408L335.362 555.101L335.395 553.792L335.416 552.483L335.423 551.172L335.417 549.86L335.398 548.547L335.366 547.233L335.32 545.919L335.262 544.604L335.19 543.289L335.104 541.973L335.006 540.658L334.894 539.342L334.768 538.027L334.63 536.712L334.478 535.397L334.312 534.083L334.133 532.769L333.941 531.457L333.735 530.145L333.516 528.835L333.284 527.525L333.038 526.217L332.778 524.911L332.506 523.606L332.219 522.303L331.92 521.001L331.606 519.702L331.28 518.405L330.94 517.11L330.587 515.818L330.22 514.528L329.84 513.241L329.446 511.957L329.039 510.676L328.619 509.398L328.186 508.123L327.739 506.852L327.279 505.584L326.805 504.319L326.319 503.059L325.819 501.802L325.306 500.55L324.779 499.302L324.24 498.058L323.687 496.818L323.121 495.583L322.543 494.353L321.951 493.128L321.346 491.908L320.728 490.693L320.098 489.483L319.454 488.278L318.798 487.079L318.128 485.886L317.446 484.699L316.752 483.517L316.044 482.342L315.324 481.173L314.591 480.01L313.846 478.853L313.088 477.703L312.318 476.56L311.536 475.424L310.741 474.294L309.934 473.172L309.114 472.057L308.283 470.949L307.439 469.849L306.584 468.756L305.716 467.672L304.837 466.594L303.945 465.525L303.042 464.465L302.127 463.412L301.201 462.367L300.262 461.332L299.313 460.304L298.352 459.286L297.379 458.276L296.396 457.275L295.401 456.284L294.395 455.301L293.378 454.328L292.35 453.364L291.311 452.41L290.261 451.465L289.201 450.531L288.13 449.606L287.048 448.691L285.956 447.786L284.854 446.892L283.741 446.007L282.618 445.134L281.485 444.271L280.342 443.418L279.19 442.576L278.027 441.745L276.855 440.926L275.673 440.117L274.481 439.319L273.28 438.533L272.07 437.758L270.851 436.995L269.623 436.243L268.385 435.503L267.139 434.775L265.884 434.058L264.62 433.354L263.348 432.662L262.067 431.981L260.778 431.314L259.481 430.658L258.175 430.015L256.862 429.385L255.541 428.767L254.212 428.162L252.875 427.57L251.531 426.99L250.18 426.424L248.821 425.87L247.455 425.33L246.082 424.803L244.702 424.29L243.316 423.789L241.922 423.303L240.523 422.829L239.117 422.37L237.704 421.924L236.286 421.492L234.861 421.073L233.431 420.669L231.995 420.278L230.553 419.902L229.106 419.539L227.653 419.191L226.196 418.857L224.733 418.538L223.265 418.232L221.793 417.942L220.316 417.665L218.834 417.403L217.348 417.156L215.858 416.923L214.364 416.706L212.865 416.502L211.364 416.314L209.858 416.14L208.349 415.982L206.836 415.838L205.321 415.709L203.802 415.596L202.28 415.497L200.756 415.413L199.229 415.345L197.7 415.292L196.168 415.254L194.634 415.231L193.098 415.224L191.56 415.232L190.02 415.255L188.479 415.293L186.937 415.347L185.393 415.417L183.848 415.502L182.302 415.602L180.756 415.718L179.208 415.849L177.661 415.996L176.113 416.158L174.564 416.336L173.016 416.53L171.468 416.739L169.92 416.964L168.373 417.204L166.826 417.46L165.28 417.732L163.735 418.019L162.191 418.322L160.648 418.64L159.107 418.974L157.567 419.324L156.029 419.69L154.493 420.07L152.959 420.467L151.427 420.879L149.897 421.307L148.37 421.75L146.846 422.209L145.324 422.683L143.806 423.173L142.29 423.679L140.778 424.2L139.269 424.736L137.764 425.288L136.263 425.855L134.766 426.438L133.273 427.036L131.784 427.649L130.299 428.278L128.82 428.922L127.344 429.581L125.874 430.255L124.409 430.945L122.949 431.65L121.495 432.369L120.046 433.104L118.602 433.854L117.165 434.618L115.733 435.398L114.308 436.193L112.889 437.002L111.477 437.826L110.071 438.665L108.672 439.518L107.28 440.386L105.894 441.268L104.517 442.165L103.146 443.077L101.784 444.002L100.428 444.942L99.0812 445.896L97.742 446.865L96.411 447.847L95.0882 448.843L93.774 449.854L92.4684 450.878L91.1715 451.916L89.8835 452.968L88.6046 454.033L87.335 455.112L86.0747 456.204L84.8239 457.309L83.5827 458.428L82.3514 459.561L81.13 460.706L79.9187 461.864L78.7176 463.035L77.5268 464.219L76.3466 465.416L75.1771 466.626L74.0183 467.848L72.8704 469.082L71.7337 470.329L70.6081 471.588L69.4938 472.859L68.3911 474.142L67.2999 475.438L66.2205 476.745L65.153 478.064L64.0975 479.394L63.0541 480.736L62.023 482.089L61.0042 483.454L59.9981 484.83L59.0045 486.216L58.0238 487.614L57.0559 489.023L56.101 490.442L55.1594 491.872L54.2309 493.312L53.3159 494.763L52.4144 496.223L51.5265 497.694L50.6524 499.175L49.7921 500.666L48.9457 502.166L48.1135 503.676L47.2955 505.195L46.4918 506.723L45.7025 508.261L44.9278 509.808L44.1677 511.363L43.4223 512.927L42.6918 514.5L41.9762 516.082L41.2757 517.671L40.5904 519.269L39.9203 520.875L39.2655 522.488L38.6262 524.109L38.0025 525.738L37.3944 527.375L36.802 529.018L36.2255 530.669L35.6648 532.327L35.1202 533.991L34.5917 535.662L34.0793 537.34L33.5832 539.024L33.1035 540.714L32.6401 542.41L32.1933 544.112L31.7631 545.82L31.3495 547.533L30.9527 549.252L30.5726 550.976L30.2095 552.705L29.8633 554.439L29.5341 556.178L29.222 557.921L28.927 559.668L28.6493 561.42L28.3888 563.176L28.1457 564.936L27.92 566.699L27.7118 568.466L27.521 570.237L27.3479 572.01L27.1923 573.787L27.0544 575.566L26.9343 577.348L26.8319 579.133L26.7473 580.92L26.6806 582.709L26.6318 584.5L26.6009 586.293L26.588 588.088L26.5931 589.884L26.6163 591.681L26.6576 593.48L26.7169 595.279L26.7945 597.079L26.8902 598.879L27.0041 600.68L27.1363 602.482L27.2867 604.283L27.4553 606.084L27.6423 607.884L27.8476 609.684L28.0712 611.484L28.3131 613.282L28.5734 615.079L28.8521 616.875L29.1491 618.67L29.4646 620.463L29.7984 622.254L30.1506 624.043L30.5211 625.83L30.9101 627.615L31.3175 629.397L31.7432 631.176L32.1873 632.952L32.6498 634.725L33.1306 636.495L33.6298 638.262L34.1473 640.024L34.6831 641.783L35.2373 643.538L35.8097 645.288L36.4003 647.034L37.0092 648.776L37.6363 650.513L38.2816 652.244L38.9451 653.971L39.6266 655.692L40.3263 657.408L41.044 659.118L41.7797 660.822L42.5334 662.52L43.3051 664.211L44.0946 665.896L44.902 667.575L45.7272 669.247L46.5702 670.912L47.4309 672.569L48.3093 674.219L49.2052 675.862L50.1187 677.497L51.0497 679.124L51.9981 680.743L52.9639 682.354L53.9471 683.956L54.9474 685.549L55.965 687.134L56.9996 688.71L58.0513 690.277L59.12 691.834L60.2055 693.382L61.3079 694.92L62.427 696.448L63.5628 697.966L64.7151 699.474L65.884 700.972L67.0692 702.459L68.2708 703.935L69.4887 705.4L70.7226 706.855L71.9727 708.298L73.2386 709.729L74.5205 711.149L75.8181 712.558L77.1314 713.954L78.4602 715.339L79.8045 716.711L81.1641 718.07L82.539 719.418L83.9291 720.752L85.3341 722.074L86.7541 723.382L88.1889 724.677L89.6384 725.959L91.1024 727.228L92.5809 728.482L94.0737 729.723L95.5808 730.95L97.1019 732.163L98.637 733.362L100.186 734.546L101.749 735.715L103.325 736.87L104.914 738.01L106.517 739.135L108.133 740.245L109.763 741.339L111.405 742.418L113.059 743.481L114.727 744.529L116.407 745.561L118.099 746.577L119.803 747.576L121.52 748.56L123.248 749.527L124.988 750.477L126.74 751.411L128.503 752.328L130.277 753.228L132.063 754.111L133.859 754.977L135.666 755.826L137.484 756.657L139.312 757.471L141.151 758.267L143 759.045L144.858 759.805L146.727 760.548L148.605 761.272L150.493 761.978L152.389 762.666L154.296 763.335L156.211 763.986L158.134 764.619L160.067 765.232L162.007 765.827L163.957 766.403L165.914 766.959L167.879 767.497L169.851 768.016L171.831 768.515L173.819 768.995L175.813 769.455L177.815 769.896L179.823 770.317L181.838 770.718L183.86 771.1L185.887 771.461L187.921 771.803L189.96 772.125L192.005 772.426L194.055 772.708L196.11 772.969L198.171 773.21L200.236 773.43L202.306 773.63L204.381 773.81L206.459 773.969L208.542 774.107L210.629 774.225L212.719 774.322L214.812 774.398L216.909 774.453L219.008 774.488L221.111 774.501L223.216 774.494L225.324 774.465L227.433 774.416L229.545 774.345L231.658 774.254L233.773 774.141L235.889 774.007L238.007 773.851L240.125 773.675L242.244 773.477L244.363 773.258L246.483 773.018L248.603 772.756L250.722 772.473L252.841 772.169L254.96 771.843L257.078 771.496L259.195 771.128L261.31 770.738L263.424 770.327L265.537 769.894L267.647 769.44L269.756 768.965L271.862 768.468L273.966 767.95L276.066 767.41L278.164 766.85L280.259 766.267L282.35 765.664L284.438 765.039L286.522 764.393L288.602 763.726L290.677 763.037L292.748 762.327L294.814 761.596L296.876 760.844L298.932 760.071L300.983 759.276L303.028 758.461L305.067 757.624L307.1 756.767L309.128 755.889L311.148 754.99L313.162 754.07L315.169 753.129L317.169 752.168L319.162 751.185L321.147 750.183L323.124 749.159L325.094 748.116L327.055 747.052L329.008 745.967L330.952 744.862L332.887 743.737L334.813 742.592L336.73 741.427L338.638 740.242L340.535 739.037L342.423 737.812L344.301 736.568L346.169 735.303L348.026 734.02L349.872 732.716L351.707 731.394L353.531 730.052L355.344 728.691L357.145 727.31L358.935 725.911L360.712 724.493L362.478 723.056L364.23 721.601L365.971 720.127L367.698 718.634L369.413 717.124L371.114 715.595L372.802 714.047L374.477 712.482L376.137 710.899L377.784 709.299L379.416 707.68L381.035 706.045L382.638 704.391L384.227 702.721L385.801 701.034L387.36 699.329L388.903 697.608L390.431 695.87L391.944 694.116L393.44 692.345L394.92 690.558L396.385 688.755L397.832 686.936L399.264 685.102L400.678 683.251L402.075 681.386L403.456 679.504L404.819 677.608L406.164 675.697L407.492 673.771L408.802 671.83L410.095 669.875L411.369 667.905L412.624 665.921L413.861 663.923L415.08 661.912L416.28 659.887L417.461 657.848L418.623 655.796L419.765 653.731L420.888 651.653L421.992 649.562L423.075 647.459L424.139 645.344L425.183 643.216L426.207 641.076L427.21 638.925L428.193 636.762L429.155 634.587L430.097 632.401L431.018 630.205L431.918 627.997L432.796 625.779L433.654 623.551L434.49 621.312L435.304 619.063L436.097 616.805L436.868 614.537L437.617 612.259L438.344 609.973L439.049 607.677L439.732 605.373L440.392 603.061L441.03 600.74L441.646 598.411L442.238 596.074L442.808 593.729L443.355 591.377L443.879 589.018L444.38 586.652L444.858 584.279L445.312 581.9L445.743 579.514L446.151 577.123L446.535 574.725L446.895 572.322L447.232 569.914L447.545 567.5L447.834 565.081L448.099 562.658L448.339 560.231L448.556 557.799L448.749 555.363L448.917 552.924L449.061 550.481L449.181 548.035L449.276 545.586L449.347 543.134L449.393 540.68L449.415 538.223L449.412 535.764L449.384 533.304L449.331 530.842L449.254 528.379L449.152 525.914L449.025 523.449L448.873 520.984L448.696 518.518L448.494 516.052L448.267 513.586L448.015 511.121L447.738 508.656L447.436 506.193L447.108 503.73L446.756 501.269L446.379 498.81L445.976 496.352L445.548 493.897L445.095 491.445L444.617 488.995L444.114 486.548L443.585 484.104L443.031 481.664L442.452 479.227L441.848 476.794L441.219 474.366L440.565 471.942L439.885 469.523L439.181 467.109L438.451 464.7L437.697 462.297L436.917 459.899L436.112 457.508L435.283 455.122L434.428 452.744L433.548 450.372L432.644 448.007L431.715 445.649L430.761 443.299L429.782 440.957L428.779 438.622L427.751 436.296L426.698 433.979L425.621 431.67L424.52 429.37L423.394 427.08L422.244 424.799L421.069 422.528L419.87 420.267L418.647 418.017L417.401 415.777L416.13 413.547L414.835 411.329L413.517 409.122L412.174 406.927L410.809 404.743L409.419 402.571L408.006 400.412L406.57 398.265L405.111 396.131L403.628 394.01L402.123 391.902L400.594 389.807L399.043 387.726L397.469 385.66L395.872 383.607L394.253 381.569L392.611 379.545L390.947 377.537L389.261 375.543L387.553 373.565L385.824 371.602L384.072 369.656L382.299 367.725L380.504 365.81L378.688 363.912L376.851 362.031L374.993 360.167L373.114 358.32L371.214 356.49L369.294 354.678L367.353 352.883L365.392 351.107L363.411 349.349L361.409 347.609L359.388 345.889L357.348 344.187L355.287 342.504L353.208 340.84L351.109 339.196L348.991 337.572L346.855 335.967L344.7 334.383L342.527 332.819L340.335 331.276L338.125 329.753L335.897 328.251L333.652 326.771L331.389 325.312L329.109 323.874L326.812 322.458L324.498 321.063L322.167 319.691L319.819 318.341L317.456 317.014L315.076 315.709L312.68 314.427L310.269 313.168L307.842 311.932L305.4 310.719L302.943 309.53L300.471 308.364L297.985 307.222L295.484 306.104L292.969 305.011L290.44 303.941L287.897 302.896L285.341 301.876L282.772 300.88L280.19 299.909L277.595 298.963L274.987 298.043L272.367 297.148L269.735 296.278L267.091 295.434L264.436 294.616L261.769 293.823L259.092 293.057L256.403 292.316L253.704 291.602L250.995 290.915L248.275 290.254L245.546 289.619L242.807 289.012L240.059 288.431L237.302 287.877L234.536 287.35L231.761 286.851L228.978 286.378L226.188 285.934L223.389 285.516L220.583 285.127L217.77 284.765L214.95 284.431L212.123 284.124L209.29 283.846L206.451 283.596L203.606 283.374L200.756 283.18L197.9 283.014L195.039 282.877L192.174 282.768L189.304 282.688L186.43 282.636L183.552 282.613L180.67 282.618L177.785 282.653L174.897 282.716L172.007 282.808L169.114 282.929L166.219 283.079L163.322 283.258L160.423 283.465L157.523 283.702L154.622 283.968L151.72 284.264L148.818 284.588L145.916 284.941L143.014 285.324L140.113 285.736L137.212 286.177L134.312 286.648L131.414 287.148L128.517 287.677L125.622 288.235L122.73 288.823L119.84 289.44L116.952 290.086L114.068 290.761L111.188 291.466L108.311 292.2L105.438 292.963L102.569 293.756L99.7054 294.577L96.8463 295.428L93.9925 296.308L91.1442 297.217L88.3017 298.155L85.4653 299.123L82.6353 300.119L79.8121 301.144L76.9958 302.198L74.1869 303.281L71.3856 304.393L68.5921 305.533L65.8069 306.703L63.0302 307.901L60.2623 309.127L57.5035 310.382L54.7541 311.665L52.0143 312.977L49.2846 314.317L46.5651 315.686L43.8563 317.082L41.1582 318.507L38.4714 319.959L35.796 321.439L33.1324 322.948L30.4809 324.483L27.8417 326.047L25.2151 327.638L22.6014 329.256L20.001 330.901L17.414 332.574L14.8409 334.274L12.2818 336L9.73709 337.754L7.20704 339.534L4.69192 341.34L2.19203 343.173L-0.292348 345.033L-2.76095 346.918L-5.21347 348.83L-7.64965 350.767L-10.0692 352.73L-12.4718 354.719L-14.8573 356.733L-17.2253 358.772L-19.5756 360.837L-21.9079 362.926L-24.2218 365.04L-26.5173 367.179L-28.7939 369.343L-31.0514 371.53L-33.2896 373.742L-35.5082 375.978L-37.7069 378.237L-39.8854 380.52L-42.0436 382.827L-44.181 385.157L-46.2976 387.51L-48.393 389.885L-50.467 392.283L-52.5192 394.704L-54.5496 397.147L-56.5577 399.612L-58.5435 402.099L-60.5065 404.608L-62.4466 407.138L-64.3636 409.689L-66.2572 412.261L-68.1271 414.854L-69.9732 417.467L-71.7951 420.101L-73.5927 422.755L-75.3658 425.429L-77.114 428.123L-78.8372 430.835L-80.5351 433.568L-82.2076 436.319L-83.8544 439.088L-85.4753 441.877L-87.07 444.683L-88.6384 447.507L-90.1802 450.35L-91.6953 453.209L-93.1834 456.086L-94.6443 458.98L-96.0779 461.89L-97.4839 464.817L-98.8621 467.76L-100.212 470.719L-101.534 473.694L-102.828 476.684L-104.093 479.689L-105.33 482.709L-106.537 485.744L-107.716 488.792L-108.865 491.855L-109.985 494.932L-111.075 498.022L-112.135 501.125L-113.166 504.241L-114.166 507.369L-115.136 510.51L-116.076 513.663L-116.985 516.827L-117.863 520.003L-118.711 523.19L-119.527 526.388L-120.312 529.596L-121.066 532.815L-121.789 536.043L-122.479 539.281L-123.138 542.528L-123.766 545.784L-124.361 549.049L-124.924 552.322L-125.455 555.603L-125.953 558.892L-126.42 562.189L-126.853 565.492L-127.254 568.802L-127.622 572.119L-127.957 575.441L-128.259 578.77L-128.528 582.104L-128.764 585.443L-128.966 588.786L-129.136 592.135L-129.271 595.487L-129.374 598.843L-129.442 602.203L-129.477 605.566L-129.478 608.932L-129.446 612.3L-129.379 615.67L-129.279 619.043L-129.144 622.416L-128.975 625.791L-128.773 629.167L-128.536 632.543L-128.265 635.919L-127.96 639.295L-127.62 642.67L-127.246 646.045" stroke="#F4ECCA" stroke-opacity="0.1" stroke-width="10" stroke-linecap="round"/>
</svg>
