<svg width="17" height="17" viewBox="0 0 17 17" fill="none" xmlns="http://www.w3.org/2000/svg">
<path d="M8.5 4.60417C7.72948 4.60417 6.97626 4.83265 6.33559 5.26073C5.69492 5.68881 5.19559 6.29726 4.90072 7.00913C4.60585 7.721 4.5287 8.50432 4.67902 9.26004C4.82935 10.0158 5.20039 10.7099 5.74523 11.2548C6.29007 11.7996 6.98424 12.1707 7.73996 12.321C8.49568 12.4713 9.279 12.3941 9.99087 12.0993C10.7027 11.8044 11.3112 11.3051 11.7393 10.6644C12.1673 10.0237 12.3958 9.27052 12.3958 8.5C12.3947 7.46712 11.9838 6.47688 11.2535 5.74652C10.5231 5.01617 9.53288 4.60534 8.5 4.60417ZM8.5 11.6875C7.86957 11.6875 7.2533 11.5006 6.72912 11.1503C6.20494 10.8001 5.79639 10.3022 5.55513 9.7198C5.31388 9.13736 5.25076 8.49646 5.37375 7.87815C5.49674 7.25983 5.80032 6.69188 6.2461 6.2461C6.69188 5.80032 7.25983 5.49674 7.87815 5.37375C8.49646 5.25076 9.13736 5.31388 9.7198 5.55513C10.3022 5.79639 10.8001 6.20494 11.1503 6.72912C11.5006 7.2533 11.6875 7.86957 11.6875 8.5C11.6866 9.34509 11.3504 10.1553 10.7529 10.7529C10.1553 11.3504 9.34509 11.6866 8.5 11.6875ZM12.3958 0H4.60417C3.38349 0.00138265 2.21321 0.486907 1.35006 1.35006C0.486907 2.21321 0.00138265 3.38349 0 4.60417V12.3958C0.00138265 13.6165 0.486907 14.7868 1.35006 15.6499C2.21321 16.5131 3.38349 16.9986 4.60417 17H12.3958C13.6165 16.9986 14.7868 16.5131 15.6499 15.6499C16.5131 14.7868 16.9986 13.6165 17 12.3958V4.60417C16.9986 3.38349 16.5131 2.21321 15.6499 1.35006C14.7868 0.486907 13.6165 0.00138265 12.3958 0ZM16.2917 12.3958C16.2905 13.4287 15.8797 14.419 15.1493 15.1493C14.419 15.8797 13.4287 16.2905 12.3958 16.2917H4.60417C3.57129 16.2905 2.58105 15.8797 1.85069 15.1493C1.12033 14.419 0.709505 13.4287 0.708333 12.3958V4.60417C0.709505 3.57129 1.12033 2.58105 1.85069 1.85069C2.58105 1.12033 3.57129 0.709505 4.60417 0.708333H12.3958C13.4287 0.709505 14.419 1.12033 15.1493 1.85069C15.8797 2.58105 16.2905 3.57129 16.2917 4.60417V12.3958ZM13.8125 3.89583C13.8125 4.03593 13.771 4.17288 13.6931 4.28936C13.6153 4.40585 13.5047 4.49664 13.3752 4.55025C13.2458 4.60386 13.1034 4.61789 12.966 4.59056C12.8286 4.56322 12.7024 4.49576 12.6033 4.3967C12.5042 4.29764 12.4368 4.17143 12.4094 4.03402C12.3821 3.89662 12.3961 3.7542 12.4498 3.62477C12.5034 3.49533 12.5942 3.38471 12.7106 3.30688C12.8271 3.22904 12.9641 3.1875 13.1042 3.1875C13.292 3.18773 13.472 3.26244 13.6048 3.39522C13.7376 3.52801 13.8123 3.70804 13.8125 3.89583Z" fill="#F4ECCA"/>
</svg>
