<svg width="23" height="21" viewBox="0 0 23 21" fill="none" xmlns="http://www.w3.org/2000/svg">
<path d="M20.5424 3.1237C20.3939 2.99536 20.2131 2.91013 20.0196 2.87725C19.8261 2.84437 19.6273 2.8651 19.4447 2.93719L2.86343 9.45131C2.6467 9.53649 2.46338 9.68956 2.34089 9.88761C2.2184 10.0857 2.16333 10.318 2.18391 10.55C2.20449 10.782 2.29962 11.001 2.45507 11.1744C2.61051 11.3478 2.81792 11.4662 3.04626 11.5119L7.54689 12.4121V17.9673C7.54465 18.1811 7.60698 18.3905 7.72574 18.5682C7.84449 18.7459 8.01413 18.8836 8.21246 18.9633C8.3453 19.019 8.48782 19.0478 8.63185 19.0482C8.77261 19.0478 8.91189 19.0194 9.04159 18.9647C9.1713 18.91 9.28885 18.8301 9.38743 18.7297L11.9566 16.1605L15.7474 19.4964C15.9427 19.6699 16.1948 19.7658 16.4561 19.7661C16.5696 19.766 16.6825 19.7481 16.7906 19.7131C16.9687 19.6566 17.129 19.5543 17.2553 19.4165C17.3816 19.2788 17.4696 19.1103 17.5105 18.9279L20.8899 4.18152C20.934 3.99029 20.9249 3.79062 20.8637 3.60416C20.8024 3.4177 20.6913 3.25155 20.5424 3.1237ZM2.89973 10.4864C2.89082 10.4088 2.90833 10.3304 2.94945 10.264C2.99056 10.1976 3.05287 10.1469 3.12631 10.1203L18.3256 4.149L7.82289 11.7343L3.18722 10.8071C3.1102 10.7938 3.03992 10.7549 2.98775 10.6967C2.93558 10.6385 2.90457 10.5644 2.89973 10.4864ZM8.8791 18.2215C8.82883 18.2717 8.7648 18.306 8.69509 18.3198C8.62538 18.3337 8.55312 18.3266 8.48746 18.2994C8.4218 18.2721 8.36568 18.2261 8.3262 18.167C8.28671 18.1079 8.26564 18.0384 8.26564 17.9673V12.9124L11.4159 15.6847L8.8791 18.2215ZM20.1893 4.02097L16.8098 18.7673C16.7959 18.828 16.7665 18.884 16.7244 18.9299C16.6823 18.9758 16.6291 19.01 16.5698 19.0291C16.5106 19.0482 16.4474 19.0516 16.3864 19.0389C16.3255 19.0263 16.2689 18.998 16.2221 18.9569L8.48172 12.1451L20.1311 3.73168C20.1618 3.77249 20.1829 3.81965 20.193 3.86969C20.203 3.91973 20.2018 3.9714 20.1893 4.02088V4.02097Z" fill="#F4ECCA"/>
</svg>
