<svg width="18" height="18" viewBox="0 0 18 18" fill="none" xmlns="http://www.w3.org/2000/svg">
<path d="M8.59373 0C7.0892 0.000394729 5.61113 0.395669 4.30723 1.14632C3.00334 1.89696 1.9193 2.97669 1.16347 4.27758C0.407629 5.57847 0.00646816 7.05496 7.75654e-05 8.55947C-0.00631303 10.064 0.382291 11.5438 1.12705 12.8511L0.353182 15.5595C0.302677 15.7363 0.300375 15.9234 0.346515 16.1015C0.392655 16.2795 0.485559 16.4419 0.615599 16.5719C0.74564 16.702 0.908086 16.7949 1.08611 16.841C1.26412 16.8871 1.45124 16.8848 1.62806 16.8343L4.33656 16.0605C5.48004 16.7125 6.758 17.093 8.07185 17.1729C9.3857 17.2527 10.7003 17.0297 11.9144 16.5211C13.1284 16.0124 14.2094 15.2317 15.0739 14.2392C15.9384 13.2466 16.5634 12.0687 16.9007 10.7964C17.2379 9.52408 17.2784 8.19128 17.0191 6.90081C16.7597 5.61034 16.2074 4.3967 15.4047 3.35348C14.602 2.31026 13.5705 1.46536 12.3896 0.883925C11.2087 0.302493 9.91 7.62666e-05 8.59373 0ZM8.59373 16.5C7.17378 16.501 5.77986 16.119 4.55879 15.3942C4.51853 15.3703 4.47379 15.3548 4.42732 15.3488C4.38086 15.3427 4.33365 15.3463 4.2886 15.3592L1.43917 16.1733C1.38024 16.1901 1.31787 16.1908 1.25854 16.1755C1.19921 16.1601 1.14507 16.1291 1.10174 16.0858C1.0584 16.0424 1.02744 15.9883 1.01207 15.9289C0.996695 15.8696 0.997465 15.8072 1.0143 15.7483L1.8283 12.899C1.84117 12.8539 1.8447 12.8067 1.83867 12.7602C1.83264 12.7138 1.81718 12.669 1.79324 12.6288C0.902737 11.1285 0.533436 9.37579 0.742862 7.64374C0.952289 5.91168 1.72868 4.29752 2.9511 3.05271C4.17352 1.80789 5.77332 1.00232 7.50128 0.761481C9.22925 0.520643 10.9884 0.858063 12.5046 1.72118C14.0208 2.58429 15.209 3.92464 15.884 5.53341C16.5591 7.14219 16.6831 8.92906 16.2368 10.6157C15.7905 12.3023 14.7989 13.7939 13.4164 14.8583C12.034 15.9226 10.3384 16.4998 8.59373 16.5ZM12.9346 10.1873L11.1763 9.18259C11.0172 9.09181 10.8369 9.04498 10.6537 9.04693C10.4706 9.04888 10.2913 9.09953 10.1342 9.19368L8.94762 9.90559C8.22935 9.54166 7.64587 8.95814 7.28198 8.23986L7.99388 7.05332C8.08802 6.89621 8.13866 6.71688 8.14059 6.53373C8.14252 6.35058 8.09569 6.17022 8.00488 6.01116L7.00027 4.25287C6.91823 4.10973 6.79989 3.99075 6.65719 3.90795C6.51448 3.82515 6.35247 3.78144 6.18748 3.78125C5.45997 3.78143 4.76216 4.0698 4.24677 4.58326C3.73138 5.09672 3.44039 5.79344 3.43748 6.52094C3.43613 7.46977 3.62186 8.40957 3.98403 9.28657C4.34619 10.1636 4.8777 10.9606 5.54815 11.632C6.21859 12.3034 7.01482 12.836 7.8913 13.1995C8.76778 13.5629 9.7073 13.75 10.6561 13.75H10.6665C11.394 13.7471 12.0907 13.4561 12.6042 12.9407C13.1177 12.4253 13.4061 11.7275 13.4062 11C13.406 10.835 13.3623 10.673 13.2795 10.5303C13.1967 10.3876 13.0778 10.2693 12.9346 10.1873ZM10.6655 13.0625H10.6562C9.79776 13.0625 8.94771 12.8933 8.1547 12.5645C7.36169 12.2357 6.64128 11.7537 6.03468 11.1463C5.42808 10.5388 4.94718 9.81775 4.6195 9.02428C4.29181 8.23081 4.12377 7.38052 4.12498 6.52205C4.12734 5.97662 4.34569 5.45433 4.73224 5.06951C5.11878 4.68469 5.64204 4.46868 6.18748 4.46875C6.23129 4.4688 6.27432 4.48041 6.31222 4.50239C6.35012 4.52437 6.38155 4.55596 6.40335 4.59396L7.40796 6.35233C7.43823 6.40534 7.45384 6.46545 7.45321 6.5265C7.45257 6.58754 7.43571 6.64731 7.40435 6.69969L6.5974 8.04444C6.56886 8.09198 6.55226 8.14572 6.54899 8.20108C6.54573 8.25643 6.55591 8.31175 6.57867 8.36232C7.02734 9.36087 7.82668 10.1602 8.82524 10.6088C8.87581 10.6316 8.93113 10.6418 8.98649 10.6385C9.04184 10.6352 9.09559 10.6186 9.14313 10.5901L10.4878 9.78312C10.5402 9.75175 10.6 9.73488 10.661 9.73423C10.7221 9.73358 10.7822 9.74918 10.8352 9.77943L12.5935 10.7842C12.6315 10.806 12.6631 10.8374 12.6851 10.8753C12.7071 10.9132 12.7187 10.9562 12.7187 11C12.7188 11.5454 12.5028 12.0687 12.118 12.4552C11.7332 12.8418 11.2109 13.0601 10.6655 13.0625Z" fill="#F4ECCA"/>
</svg>
