<svg width="20" height="20" viewBox="0 0 20 20" fill="none" xmlns="http://www.w3.org/2000/svg">
<path d="M12.7952 2.04761H6.6572C4.67665 2.04761 3.07144 3.7766 3.07144 5.9092V12.5193C3.07144 14.6522 4.67694 16.3809 6.65749 16.3809H12.7949C14.7755 16.3809 16.381 14.6519 16.381 12.519V5.9092C16.381 3.7763 14.7755 2.04761 12.7949 2.04761H12.7952Z" stroke="#F4ECCA" stroke-width="0.5" stroke-miterlimit="10"/>
<path d="M9.72619 13.3095C11.7052 13.3095 13.3095 11.7052 13.3095 9.72616C13.3095 7.74714 11.7052 6.14282 9.72619 6.14282C7.74717 6.14282 6.14285 7.74714 6.14285 9.72616C6.14285 11.7052 7.74717 13.3095 9.72619 13.3095Z" stroke="#F4ECCA" stroke-width="0.5" stroke-miterlimit="10"/>
<path d="M13.43 6.67599C13.7909 6.67599 14.0835 6.38339 14.0835 6.02244C14.0835 5.6615 13.7909 5.3689 13.43 5.3689C13.069 5.3689 12.7764 5.6615 12.7764 6.02244C12.7764 6.38339 13.069 6.67599 13.43 6.67599Z" fill="#F4ECCA"/>
</svg>
