<svg width="13" height="17" viewBox="0 0 13 17" fill="none" xmlns="http://www.w3.org/2000/svg">
<g clip-path="url(#clip0)">
<path d="M6.14286 0C2.75558 0 0 2.76115 0 6.15398C0 11.2355 5.73385 16.1149 5.97802 16.3202C6.02364 16.359 6.08152 16.3806 6.14146 16.3809C6.2014 16.3813 6.25954 16.3605 6.30564 16.3222C6.54982 16.1205 12.2857 11.3251 12.2857 6.15398C12.2857 2.76115 9.53013 0 6.14286 0ZM6.14388 15.7858C5.20146 14.9437 0.511905 10.5342 0.511905 6.15398C0.511905 3.04269 3.03815 0.511893 6.14286 0.511893C9.24756 0.511893 11.7738 3.04269 11.7738 6.15398C11.7738 10.6085 7.08886 14.955 6.14388 15.7858Z" fill="#F4EABB"/>
<path d="M6.14287 3.07153C4.44898 3.07153 3.07144 4.44907 3.07144 6.14296C3.07144 7.83685 4.44898 9.21439 6.14287 9.21439C7.83676 9.21439 9.2143 7.83685 9.2143 6.14296C9.2143 4.44907 7.83676 3.07153 6.14287 3.07153ZM6.14287 8.70249C4.73155 8.70249 3.58335 7.55428 3.58335 6.14296C3.58335 4.73164 4.73155 3.58344 6.14287 3.58344C7.55419 3.58344 8.70239 4.73164 8.70239 6.14296C8.70239 7.55428 7.55419 8.70249 6.14287 8.70249Z" fill="#F4EABB"/>
</g>
<defs>
<clipPath id="clip0">
<rect width="12.2857" height="16.381" fill="white"/>
</clipPath>
</defs>
</svg>
