<svg width="20" height="20" viewBox="0 0 20 20" fill="none" xmlns="http://www.w3.org/2000/svg">
<g clip-path="url(#clip0)">
<path d="M17.3739 2.64194C17.2483 2.53339 17.0953 2.46131 16.9317 2.4335C16.768 2.40569 16.5999 2.42322 16.4455 2.48419L2.42175 7.99355C2.23845 8.06559 2.08341 8.19505 1.97981 8.36255C1.87622 8.53005 1.82964 8.72659 1.84704 8.92277C1.86445 9.11895 1.94491 9.30422 2.07638 9.45086C2.20785 9.5975 2.38326 9.69764 2.57638 9.73629L6.38282 10.4977V15.196C6.38092 15.3768 6.43364 15.5539 6.53408 15.7042C6.63451 15.8545 6.77799 15.971 6.94572 16.0384C7.05807 16.0855 7.17862 16.1099 7.30042 16.1102C7.41948 16.1098 7.53727 16.0858 7.64697 16.0396C7.75667 15.9933 7.85609 15.9257 7.93947 15.8408L10.1124 13.6679L13.3184 16.4892C13.4836 16.636 13.6969 16.7171 13.9178 16.7173C14.0139 16.7172 14.1093 16.7021 14.2007 16.6725C14.3514 16.6247 14.4869 16.5382 14.5938 16.4217C14.7006 16.3052 14.775 16.1627 14.8096 16.0084L17.6677 3.5366C17.705 3.37486 17.6974 3.20599 17.6456 3.04829C17.5938 2.89059 17.4998 2.75007 17.3739 2.64194ZM2.45245 8.86898C2.44492 8.80334 2.45973 8.73707 2.4945 8.68089C2.52928 8.6247 2.58198 8.58188 2.64409 8.55934L15.499 3.50909L6.61625 9.92443L2.69561 9.14025C2.63046 9.12899 2.57103 9.09609 2.5269 9.04686C2.48278 8.99763 2.45655 8.93496 2.45245 8.86898ZM7.50954 15.411C7.46703 15.4535 7.41287 15.4824 7.35391 15.4941C7.29495 15.5059 7.23384 15.4998 7.17831 15.4768C7.12278 15.4538 7.07531 15.4149 7.04192 15.3649C7.00853 15.3149 6.9907 15.2561 6.99071 15.196V10.9208L9.65508 13.2654L7.50954 15.411ZM17.0752 3.40081L14.217 15.8726C14.2052 15.9239 14.1803 15.9713 14.1447 16.0101C14.1092 16.0489 14.0641 16.0778 14.014 16.094C13.9639 16.1102 13.9105 16.113 13.8589 16.1023C13.8074 16.0916 13.7595 16.0677 13.7199 16.0329L7.17345 10.2718L17.026 3.15614C17.0519 3.19066 17.0698 3.23054 17.0783 3.27286C17.0868 3.31519 17.0857 3.35888 17.0752 3.40074V3.40081Z" fill="#F4ECCA"/>
</g>
<defs>
<clipPath id="clip0">
<rect width="19.4524" height="19.4524" fill="white"/>
</clipPath>
</defs>
</svg>
