<svg width="24" height="24" viewBox="0 0 24 24" fill="none" xmlns="http://www.w3.org/2000/svg">
<path d="M12 0.28125C9.68226 0.28125 7.41656 0.968543 5.48942 2.25622C3.56228 3.54389 2.06026 5.37411 1.17329 7.51543C0.286327 9.65675 0.0542572 12.013 0.506428 14.2862C0.958599 16.5594 2.0747 18.6475 3.7136 20.2864C5.3525 21.9253 7.44058 23.0414 9.71379 23.4936C11.987 23.9458 14.3433 23.7137 16.4846 22.8267C18.6259 21.9398 20.4561 20.4377 21.7438 18.5106C23.0315 16.5835 23.7188 14.3178 23.7188 12C23.7153 8.89307 22.4795 5.9144 20.2825 3.71746C18.0856 1.52053 15.1069 0.284755 12 0.28125ZM12 22.7813C9.86768 22.7813 7.78323 22.1489 6.01026 20.9643C4.2373 19.7796 2.85544 18.0958 2.03943 16.1258C1.22342 14.1558 1.00992 11.988 1.42591 9.89668C1.84191 7.80533 2.86873 5.88429 4.37651 4.37651C5.8843 2.86872 7.80533 1.84191 9.89669 1.42591C11.988 1.00991 14.1558 1.22342 16.1258 2.03942C18.0958 2.85543 19.7796 4.23729 20.9643 6.01026C22.149 7.78323 22.7813 9.86767 22.7813 12C22.778 14.8584 21.6411 17.5988 19.6199 19.6199C17.5988 21.6411 14.8584 22.778 12 22.7813ZM7.78161 11.9994C7.78166 12.8848 8.06027 13.7478 8.57798 14.4661C9.09568 15.1843 9.82625 15.7215 10.6662 16.0016C11.5062 16.2816 12.4129 16.2903 13.2581 16.0264C14.1033 15.7625 14.844 15.2394 15.3754 14.5311C15.4504 14.4327 15.5613 14.368 15.6839 14.351C15.8064 14.334 15.9308 14.3662 16.0297 14.4405C16.1286 14.5149 16.1942 14.6253 16.212 14.7478C16.2298 14.8702 16.1985 14.9948 16.1249 15.0942C15.4754 15.9597 14.5701 16.5989 13.5372 16.9214C12.5042 17.2438 11.396 17.2331 10.3695 16.8908C9.343 16.5485 8.4502 15.8919 7.81755 15.014C7.18491 14.1361 6.84447 13.0814 6.84447 11.9994C6.84447 10.9173 7.18491 9.8626 7.81755 8.98473C8.4502 8.10685 9.343 7.45025 10.3695 7.10793C11.396 6.7656 12.5042 6.7549 13.5372 7.07733C14.5701 7.39977 15.4754 8.039 16.1249 8.90449C16.1996 9.00389 16.2317 9.12889 16.2143 9.25199C16.1968 9.37509 16.1312 9.48622 16.0318 9.56092C15.9324 9.63562 15.8074 9.66778 15.6843 9.65032C15.5612 9.63286 15.4501 9.56721 15.3754 9.46781C14.844 8.75958 14.1033 8.23647 13.2581 7.97256C12.413 7.70865 11.5062 7.71732 10.6663 7.99734C9.82631 8.27737 9.09574 8.81455 8.57803 9.53281C8.06031 10.2511 7.78168 11.114 7.78161 11.9994Z" fill="#F4ECCA"/>
</svg>
