<svg width="20" height="20" viewBox="0 0 20 20" fill="none" xmlns="http://www.w3.org/2000/svg">
<path d="M9.72619 2.12769C8.39589 2.12803 7.08898 2.47754 5.93608 3.14126C4.78318 3.80498 3.82467 4.75967 3.15636 5.90992C2.48805 7.06016 2.13334 8.36567 2.12769 9.69596C2.12204 11.0263 2.46565 12.3347 3.12416 13.4906L2.43991 15.8854C2.39525 16.0417 2.39322 16.2072 2.43401 16.3646C2.47481 16.522 2.55696 16.6656 2.67194 16.7806C2.78692 16.8956 2.93055 16.9777 3.08796 17.0185C3.24536 17.0593 3.41081 17.0572 3.56716 17.0126L5.962 16.3284C6.97307 16.9048 8.10304 17.2413 9.26474 17.3119C10.4264 17.3825 11.5889 17.1854 12.6623 16.7356C13.7357 16.2859 14.6915 15.5956 15.4559 14.7179C16.2204 13.8403 16.773 12.7989 17.0712 11.6739C17.3694 10.5489 17.4052 9.37041 17.1759 8.22938C16.9465 7.08835 16.4582 6.01524 15.7484 5.09283C15.0387 4.17042 14.1266 3.42335 13.0825 2.90925C12.0383 2.39515 10.89 2.12775 9.72619 2.12769ZM9.72619 16.717C8.47068 16.7178 7.23817 16.3801 6.1585 15.7393C6.12291 15.7181 6.08335 15.7044 6.04226 15.699C6.00118 15.6937 5.95943 15.6969 5.9196 15.7083L3.40014 16.4281C3.34803 16.4429 3.29288 16.4436 3.24043 16.43C3.18797 16.4164 3.1401 16.389 3.10178 16.3507C3.06346 16.3124 3.03609 16.2645 3.0225 16.212C3.0089 16.1596 3.00958 16.1044 3.02447 16.0523L3.74421 13.5329C3.75559 13.4931 3.75871 13.4514 3.75338 13.4103C3.74805 13.3692 3.73437 13.3296 3.7132 13.294C2.92582 11.9675 2.59929 10.4178 2.78446 8.88627C2.96964 7.35479 3.65613 5.92755 4.73699 4.82689C5.81785 3.72622 7.23239 3.01394 8.76025 2.80099C10.2881 2.58804 11.8435 2.88638 13.1842 3.64955C14.5248 4.41272 15.5754 5.59785 16.1723 7.02033C16.7692 8.44281 16.8788 10.0228 16.4842 11.5141C16.0895 13.0054 15.2128 14.3243 13.9904 15.2653C12.7681 16.2064 11.2688 16.7168 9.72619 16.717ZM13.5644 11.1353L12.0097 10.2469C11.8691 10.1667 11.7096 10.1253 11.5477 10.127C11.3857 10.1287 11.2271 10.1735 11.0882 10.2567L10.0391 10.8862C9.40401 10.5644 8.8881 10.0485 8.56634 9.41336L9.19581 8.36423C9.27905 8.22531 9.32382 8.06674 9.32553 7.9048C9.32724 7.74287 9.28582 7.58339 9.20554 7.44275L8.31726 5.88807C8.24472 5.76151 8.14008 5.65631 8.01391 5.58309C7.88773 5.50988 7.74447 5.47123 7.59859 5.47106C6.95533 5.47122 6.33832 5.7262 5.88262 6.1802C5.42691 6.6342 5.16961 7.25024 5.16704 7.89349C5.16585 8.73245 5.33007 9.56342 5.6503 10.3389C5.97053 11.1143 6.44048 11.819 7.03329 12.4127C7.6261 13.0063 8.33013 13.4773 9.10511 13.7986C9.88009 14.12 10.7108 14.2854 11.5498 14.2854H11.5589C12.2022 14.2829 12.8182 14.0256 13.2722 13.5699C13.7263 13.1142 13.9812 12.4972 13.9814 11.8539C13.9812 11.708 13.9426 11.5648 13.8694 11.4386C13.7962 11.3124 13.691 11.2078 13.5644 11.1353ZM11.5581 13.6775H11.5499C10.7908 13.6775 10.0392 13.5279 9.338 13.2372C8.63683 12.9464 7.99984 12.5203 7.46349 11.9832C6.92713 11.4461 6.50192 10.8085 6.21218 10.1069C5.92244 9.40536 5.77386 8.65354 5.77493 7.89448C5.77702 7.41221 5.97008 6.9504 6.31186 6.61014C6.65365 6.26989 7.11631 6.07889 7.59859 6.07895C7.63733 6.079 7.67537 6.08926 7.70888 6.10869C7.74239 6.12813 7.77019 6.15606 7.78946 6.18966L8.67774 7.74441C8.7045 7.79128 8.71831 7.84444 8.71775 7.89841C8.71719 7.95238 8.70228 8.00523 8.67455 8.05154L7.96104 9.24057C7.93581 9.28261 7.92112 9.33013 7.91824 9.37907C7.91535 9.42802 7.92436 9.47693 7.94448 9.52164C8.34119 10.4046 9.04797 11.1113 9.9309 11.508C9.97561 11.5281 10.0245 11.5371 10.0735 11.5342C10.1224 11.5314 10.1699 11.5167 10.212 11.4914L11.4009 10.7779C11.4472 10.7502 11.5001 10.7353 11.5541 10.7347C11.6081 10.7341 11.6612 10.7479 11.7081 10.7746L13.2628 11.6631C13.2964 11.6823 13.3243 11.7101 13.3438 11.7436C13.3632 11.7771 13.3735 11.8151 13.3735 11.8539C13.3736 12.3361 13.1826 12.7988 12.8423 13.1406C12.5021 13.4824 12.0403 13.6754 11.5581 13.6775Z" fill="#F4ECCA"/>
</svg>
