<svg width="633" height="1046" viewBox="0 0 633 1046" fill="none" xmlns="http://www.w3.org/2000/svg">
<path d="M83.2891 654.965L83.747 655.591L84.2114 656.213L84.6822 656.831L85.1594 657.444L85.6429 658.053L86.1328 658.657L86.629 659.257L87.1314 659.852L87.64 660.442L88.1547 661.027L88.6756 661.608L89.2026 662.184L89.7356 662.755L90.2746 663.32L90.8195 663.881L91.3705 664.436L91.9272 664.986L92.4898 665.531L93.0582 666.071L93.6323 666.605L94.2121 667.133L94.7975 667.656L95.3885 668.173L95.9851 668.685L96.5871 669.19L97.1946 669.69L97.8076 670.184L98.4258 670.672L99.0494 671.154L99.6782 671.63L100.312 672.1L100.951 672.564L101.595 673.021L102.245 673.472L102.899 673.916L103.558 674.355L104.222 674.786L104.891 675.212L105.564 675.63L106.242 676.042L106.925 676.447L107.612 676.845L108.304 677.237L109.001 677.622L109.701 677.999L110.406 678.37L111.115 678.734L111.829 679.091L112.547 679.44L113.268 679.782L113.994 680.117L114.723 680.445L115.457 680.766L116.194 681.079L116.935 681.384L117.68 681.683L118.428 681.973L119.18 682.256L119.935 682.532L120.694 682.8L121.455 683.06L122.221 683.312L122.989 683.557L123.761 683.794L124.535 684.023L125.313 684.244L126.093 684.457L126.876 684.663L127.662 684.86L128.451 685.049L129.242 685.23L130.036 685.403L130.832 685.568L131.631 685.725L132.431 685.873L133.234 686.013L134.04 686.145L134.847 686.269L135.656 686.384L136.468 686.491L137.28 686.59L138.095 686.68L138.912 686.762L139.73 686.835L140.549 686.9L141.37 686.956L142.193 687.004L143.016 687.043L143.841 687.074L144.667 687.096L145.494 687.109L146.322 687.114L147.151 687.11L147.981 687.098L148.811 687.076L149.642 687.047L150.473 687.008L151.305 686.961L152.138 686.904L152.97 686.84L153.803 686.766L154.636 686.684L155.469 686.592L156.302 686.492L157.135 686.384L157.967 686.266L158.799 686.14L159.631 686.005L160.463 685.861L161.294 685.708L162.124 685.546L162.953 685.376L163.782 685.196L164.61 685.008L165.437 684.811L166.263 684.605L167.087 684.391L167.911 684.167L168.733 683.935L169.553 683.694L170.372 683.444L171.19 683.185L172.006 682.918L172.82 682.642L173.633 682.357L174.443 682.063L175.251 681.761L176.058 681.45L176.862 681.13L177.664 680.801L178.463 680.464L179.26 680.118L180.055 679.763L180.847 679.4L181.636 679.028L182.423 678.648L183.206 678.259L183.987 677.862L184.765 677.456L185.539 677.041L186.31 676.618L187.078 676.187L187.843 675.747L188.604 675.298L189.362 674.842L190.116 674.377L190.866 673.904L191.613 673.422L192.356 672.932L193.094 672.434L193.829 671.928L194.56 671.414L195.286 670.892L196.008 670.361L196.726 669.823L197.439 669.276L198.148 668.722L198.852 668.159L199.552 667.589L200.246 667.011L200.936 666.425L201.621 665.832L202.301 665.23L202.976 664.621L203.645 664.005L204.31 663.381L204.969 662.749L205.623 662.11L206.271 661.464L206.914 660.81L207.551 660.149L208.182 659.48L208.808 658.805L209.427 658.122L210.041 657.432L210.649 656.735L211.251 656.031L211.846 655.32L212.435 654.603L213.019 653.878L213.595 653.147L214.166 652.409L214.729 651.664L215.286 650.913L215.837 650.155L216.381 649.391L216.918 648.621L217.448 647.844L217.971 647.061L218.488 646.272L218.997 645.477L219.499 644.675L219.994 643.868L220.482 643.055L220.962 642.235L221.435 641.411L221.901 640.58L222.359 639.744L222.809 638.902L223.252 638.055L223.688 637.202L224.115 636.345L224.535 635.481L224.947 634.613L225.351 633.74L225.747 632.861L226.135 631.978L226.514 631.09L226.886 630.197L227.25 629.299L227.605 628.397L227.952 627.49L228.291 626.579L228.621 625.663L228.943 624.743L229.256 623.819L229.561 622.891L229.857 621.959L230.145 621.022L230.424 620.082L230.694 619.138L230.955 618.191L231.208 617.24L231.451 616.285L231.686 615.327L231.912 614.366L232.129 613.401L232.337 612.434L232.535 611.463L232.725 610.489L232.905 609.513L233.077 608.533L233.239 607.551L233.392 606.567L233.535 605.58L233.67 604.59L233.794 603.598L233.91 602.604L234.016 601.608L234.113 600.61L234.2 599.61L234.278 598.608L234.346 597.605L234.404 596.6L234.453 595.593L234.493 594.585L234.523 593.575L234.543 592.565L234.553 591.553L234.554 590.54L234.545 589.526L234.527 588.512L234.498 587.497L234.46 586.481L234.412 585.464L234.355 584.447L234.287 583.43L234.21 582.413L234.123 581.395L234.026 580.378L233.919 579.36L233.803 578.343L233.676 577.326L233.54 576.31L233.393 575.294L233.237 574.278L233.071 573.264L232.895 572.25L232.709 571.237L232.514 570.225L232.308 569.214L232.093 568.204L231.867 567.196L231.632 566.189L231.387 565.184L231.132 564.181L230.867 563.179L230.592 562.179L230.308 561.181L230.013 560.185L229.709 559.191L229.395 558.2L229.071 557.211L228.737 556.224L228.393 555.24L228.04 554.259L227.677 553.28L227.304 552.305L226.922 551.332L226.529 550.363L226.127 549.397L225.716 548.434L225.295 547.474L224.864 546.518L224.423 545.566L223.973 544.617L223.514 543.673L223.045 542.732L222.566 541.795L222.078 540.863L221.581 539.935L221.074 539.011L220.558 538.091L220.033 537.176L219.498 536.266L218.954 535.361L218.401 534.46L217.838 533.564L217.267 532.674L216.686 531.788L216.096 530.908L215.497 530.034L214.89 529.164L214.273 528.301L213.647 527.443L213.013 526.59L212.37 525.744L211.718 524.903L211.057 524.069L210.388 523.241L209.71 522.419L209.024 521.603L208.329 520.794L207.625 519.991L206.913 519.195L206.193 518.406L205.465 517.623L204.728 516.848L203.983 516.079L203.23 515.318L202.469 514.563L201.7 513.816L200.923 513.076L200.139 512.344L199.346 511.62L198.546 510.902L197.738 510.193L196.922 509.492L196.099 508.798L195.269 508.112L194.431 507.435L193.585 506.765L192.733 506.104L191.873 505.451L191.006 504.806L190.132 504.17L189.251 503.543L188.364 502.924L187.469 502.314L186.568 501.713L185.66 501.12L184.745 500.537L183.824 499.962L182.897 499.397L181.963 498.841L181.023 498.294L180.077 497.756L179.124 497.228L178.166 496.709L177.202 496.2L176.232 495.701L175.256 495.211L174.274 494.731L173.287 494.261L172.294 493.8L171.296 493.35L170.293 492.91L169.285 492.479L168.271 492.059L167.252 491.649L166.229 491.25L165.2 490.86L164.167 490.481L163.129 490.113L162.086 489.755L161.04 489.408L159.988 489.071L158.933 488.745L157.873 488.43L156.809 488.125L155.741 487.832L154.67 487.549L153.594 487.277L152.515 487.017L151.432 486.767L150.346 486.528L149.256 486.301L148.164 486.084L147.068 485.879L145.969 485.686L144.867 485.503L143.762 485.332L142.654 485.172L141.544 485.024L140.431 484.887L139.316 484.762L138.199 484.648L137.079 484.546L135.957 484.455L134.833 484.376L133.708 484.309L132.58 484.253L131.451 484.21L130.321 484.178L129.189 484.157L128.055 484.149L126.921 484.152L125.785 484.168L124.649 484.195L123.511 484.234L122.373 484.285L121.234 484.348L120.094 484.423L118.955 484.509L117.814 484.608L116.674 484.719L115.534 484.842L114.393 484.977L113.253 485.124L112.113 485.283L110.974 485.454L109.835 485.637L108.696 485.833L107.558 486.04L106.422 486.259L105.286 486.491L104.151 486.735L103.017 486.99L101.885 487.258L100.754 487.538L99.625 487.83L98.4974 488.134L97.3716 488.45L96.2477 488.778L95.1258 489.118L94.0061 489.47L92.8887 489.834L91.7736 490.211L90.661 490.599L89.551 490.999L88.4438 491.411L87.3394 491.835L86.2379 492.271L85.1395 492.719L84.0444 493.179L82.9526 493.651L81.8641 494.134L80.7793 494.63L79.6981 495.137L78.6207 495.656L77.5472 496.186L76.4778 496.729L75.4124 497.283L74.3513 497.849L73.2945 498.426L72.2423 499.015L71.1947 499.615L70.1517 500.227L69.1136 500.85L68.0804 501.485L67.0522 502.131L66.0293 502.789L65.0116 503.457L63.9993 504.137L62.9926 504.829L61.9914 505.531L60.996 506.244L60.0064 506.969L59.0228 507.704L58.0453 508.451L57.0739 509.208L56.1088 509.976L55.1502 510.755L54.198 511.545L53.2525 512.346L52.3137 513.157L51.3817 513.978L50.4566 514.81L49.5387 515.653L48.6278 516.505L47.7243 517.368L46.8282 518.242L45.9394 519.125L45.0583 520.019L44.1849 520.922L43.3192 521.836L42.4615 522.759L41.6117 523.693L40.7701 524.636L39.9367 525.588L39.1115 526.55L38.2947 527.522L37.4865 528.503L36.6869 529.494L35.8959 530.493L35.1137 531.502L34.3404 532.52L33.5761 533.547L32.8209 534.583L32.0749 535.628L31.3381 536.681L30.6107 537.744L29.8928 538.814L29.1844 539.893L28.4856 540.981L27.7966 542.077L27.1174 543.181L26.4481 544.293L25.7887 545.413L25.1395 546.541L24.5004 547.677L23.8716 548.821L23.2531 549.972L22.645 551.131L22.0474 552.297L21.4604 553.47L20.8841 554.651L20.3185 555.838L19.7637 557.033L19.2199 558.235L18.6869 559.443L18.1651 560.658L17.6543 561.879L17.1548 563.107L16.6666 564.342L16.1896 565.582L15.7241 566.829L15.2701 568.082L14.8276 569.34L14.3968 570.605L13.9776 571.874L13.5702 573.15L13.1746 574.431L12.7909 575.717L12.4192 577.008L12.0594 578.305L11.7117 579.606L11.3762 580.912L11.0528 582.223L10.7416 583.539L10.4428 584.859L10.1563 586.183L9.88226 587.511L9.62065 588.844L9.37153 590.18L9.13499 591.52L8.91104 592.864L8.69975 594.212L8.50116 595.563L8.31534 596.917L8.14228 598.274L7.98207 599.635L7.83474 600.998L7.70035 602.364L7.57888 603.733L7.47046 605.104L7.37503 606.477L7.29268 607.853L7.22343 609.231L7.16732 610.611L7.12438 611.993L7.09464 613.376L7.0781 614.761L7.07485 616.148L7.08489 617.536L7.10825 618.924L7.14492 620.314L7.19494 621.705L7.25833 623.097L7.33517 624.489L7.42537 625.881L7.52904 627.274L7.64616 628.667L7.77675 630.06L7.92079 631.453L8.07836 632.846L8.2494 634.238L8.43401 635.63L8.63214 637.021L8.84377 638.412L9.06889 639.801L9.3076 641.189L9.55985 642.576L9.82564 643.962L10.105 645.346L10.3979 646.729L10.7043 648.109L11.0242 649.488L11.3577 650.865L11.7047 652.239L12.0653 653.611L12.4393 654.981L12.8269 656.347L13.2279 657.711L13.6424 659.072L14.0703 660.43L14.5117 661.785L14.9665 663.136L15.4347 664.484L15.9163 665.828L16.4113 667.168L16.9196 668.505L17.4412 669.837L17.9761 671.165L18.5243 672.488L19.0857 673.807L19.6603 675.122L20.248 676.431L20.8489 677.736L21.4629 679.035L22.09 680.33L22.73 681.618L23.3831 682.902L24.0491 684.179L24.7281 685.451L25.4199 686.717L26.1245 687.977L26.8419 689.231L27.572 690.478L28.3148 691.718L29.0703 692.953L29.8383 694.18L30.6188 695.4L31.4119 696.614L32.2173 697.82L33.0351 699.018L33.8651 700.21L34.7075 701.393L35.562 702.569L36.4287 703.738L37.3074 704.898L38.1981 706.05L39.1007 707.193L40.0152 708.329L40.9415 709.456L41.8795 710.574L42.8291 711.683L43.7903 712.783L44.7631 713.875L45.7472 714.957L46.7427 716.03L47.7495 717.093L48.7674 718.147L49.7966 719.191L50.8367 720.225L51.8877 721.25L52.9497 722.264L54.0224 723.268L55.1058 724.262L56.1998 725.246L57.3043 726.219L58.4193 727.181L59.5445 728.132L60.68 729.073L61.8257 730.002L62.9814 730.921L64.1471 731.828L65.3226 732.723L66.5079 733.608L67.7028 734.48L68.9073 735.341L70.1212 736.19L71.3445 737.028L72.577 737.853L73.8186 738.666L75.0694 739.467L76.3289 740.255L77.5974 741.031L78.8745 741.795L80.1601 742.546L81.4543 743.284L82.7569 744.009L84.0677 744.721L85.3866 745.42L86.7135 746.106L88.0484 746.779L89.391 747.438L90.7412 748.084L92.099 748.717L93.4642 749.335L94.8367 749.941L96.2164 750.532L97.6031 751.109L98.9967 751.673L100.397 752.222L101.804 752.757L103.218 753.278L104.638 753.785L106.064 754.277L107.496 754.755L108.935 755.218L110.379 755.667L111.829 756.101L113.285 756.52L114.746 756.925L116.212 757.314L117.684 757.688L119.161 758.048L120.642 758.392L122.129 758.721L123.62 759.035L125.115 759.334L126.615 759.617L128.119 759.885L129.627 760.137L131.139 760.374L132.655 760.595L134.174 760.801L135.697 760.99L137.223 761.165L138.753 761.323L140.285 761.465L141.821 761.592L143.359 761.702L144.9 761.797L146.443 761.876L147.988 761.938L149.536 761.985L151.085 762.015L152.637 762.029L154.19 762.027L155.744 762.009L157.3 761.974L158.858 761.923L160.416 761.856L161.975 761.772L163.535 761.673L165.095 761.556L166.656 761.423L168.218 761.274L169.779 761.109L171.34 760.926L172.901 760.728L174.462 760.513L176.022 760.281L177.582 760.033L179.141 759.768L180.699 759.487L182.255 759.189L183.811 758.875L185.365 758.544L186.917 758.197L188.467 757.833L190.016 757.452L191.562 757.055L193.106 756.642L194.648 756.212L196.187 755.765L197.724 755.302L199.257 754.822L200.788 754.326L202.315 753.814L203.839 753.285L205.359 752.74L206.875 752.178L208.388 751.6L209.897 751.006L211.401 750.395L212.901 749.768L214.397 749.125L215.888 748.465L217.374 747.79L218.855 747.098L220.331 746.39L221.801 745.666L223.267 744.926L224.726 744.17L226.18 743.398L227.627 742.61L229.069 741.806L230.504 740.987L231.933 740.152L233.356 739.301L234.771 738.434L236.18 737.552L237.582 736.654L238.976 735.741L240.363 734.813L241.743 733.869L243.115 732.91L244.479 731.935L245.835 730.946L247.183 729.941L248.523 728.922L249.854 727.887L251.177 726.838L252.491 725.773L253.796 724.695L255.092 723.601L256.379 722.493L257.656 721.371L258.924 720.234L260.182 719.083L261.431 717.917L262.67 716.738L263.898 715.544L265.116 714.337L266.324 713.116L267.522 711.881L268.709 710.632L269.885 709.37L271.05 708.094L272.204 706.806L273.347 705.503L274.479 704.188L275.599 702.86L276.707 701.519L277.804 700.165L278.889 698.798L279.961 697.419L281.022 696.027L282.07 694.623L283.106 693.207L284.13 691.778L285.141 690.338L286.138 688.885L287.124 687.421L288.095 685.946L289.054 684.459L290 682.96L290.932 681.45L291.85 679.929L292.755 678.397L293.646 676.855L294.524 675.301L295.387 673.737L296.236 672.163L297.071 670.578L297.891 668.983L298.697 667.378L299.488 665.764L300.265 664.139L301.027 662.505L301.774 660.861L302.506 659.208L303.223 657.546L303.925 655.875L304.611 654.195L305.282 652.507L305.937 650.81L306.577 649.104L307.201 647.39L307.81 645.669L308.402 643.939L308.978 642.201L309.539 640.456L310.083 638.704L310.611 636.944L311.122 635.177L311.618 633.403L312.096 631.623L312.558 629.835L313.004 628.042L313.432 626.242L313.844 624.436L314.239 622.624L314.617 620.806L314.978 618.982L315.322 617.153L315.648 615.319L315.958 613.48L316.25 611.636L316.524 609.787L316.782 607.934L317.021 606.076L317.244 604.215L317.448 602.349L317.635 600.479L317.804 598.606L317.955 596.729L318.089 594.849L318.204 592.965L318.302 591.079L318.382 589.19L318.443 587.299L318.487 585.405L318.513 583.509L318.52 581.612L318.509 579.712L318.48 577.811L318.433 575.908L318.367 574.004L318.283 572.099L318.181 570.193L318.06 568.287L317.921 566.38L317.764 564.472L317.588 562.565L317.394 560.658L317.181 558.751L316.95 556.845L316.7 554.939L316.432 553.034L316.145 551.13L315.84 549.228L315.516 547.327L315.173 545.428L314.812 543.53L314.433 541.635L314.035 539.742L313.618 537.851L313.183 535.963L312.73 534.078L312.257 532.196L311.767 530.317L311.258 528.441L310.73 526.569L310.184 524.701L309.619 522.837L309.036 520.977L308.435 519.122L307.815 517.271L307.177 515.425L306.521 513.584L305.846 511.748L305.153 509.918L304.442 508.093L303.712 506.274L302.965 504.461L302.199 502.654L301.415 500.854L300.613 499.06L299.793 497.272L298.956 495.492L298.1 493.719L297.226 491.953L296.335 490.195L295.426 488.445L294.499 486.702L293.555 484.968L292.593 483.241L291.614 481.524L290.617 479.815L289.603 478.115L288.571 476.424L287.522 474.742L286.457 473.069L285.373 471.407L284.273 469.754L283.157 468.111L282.023 466.478L280.872 464.856L279.705 463.244L278.521 461.643L277.321 460.053L276.104 458.474L274.87 456.906L273.621 455.35L272.355 453.806L271.074 452.273L269.776 450.752L268.463 449.244L267.133 447.748L265.788 446.264L264.428 444.793L263.052 443.335L261.661 441.89L260.254 440.458L258.833 439.04L257.396 437.636L255.944 436.245L254.478 434.867L252.997 433.505L251.502 432.156L249.992 430.822L248.467 429.502L246.929 428.197L245.377 426.907L243.81 425.632L242.23 424.372L240.636 423.128L239.029 421.899L237.409 420.686L235.775 419.488L234.128 418.307L232.468 417.142L230.795 415.993L229.109 414.86L227.412 413.745L225.701 412.646L223.979 411.563L222.244 410.498L220.497 409.45L218.739 408.419L216.969 407.406L215.187 406.411L213.394 405.433L211.591 404.473L209.776 403.53L207.95 402.607L206.113 401.701L204.266 400.814L202.409 399.945L200.541 399.095L198.664 398.263L196.777 397.451L194.879 396.657L192.973 395.883L191.057 395.127L189.132 394.392L187.198 393.675L185.255 392.978L183.304 392.301L181.344 391.644L179.376 391.006L177.4 390.389L175.416 389.792L173.424 389.214L171.425 388.657L169.419 388.121L167.405 387.605L165.384 387.11L163.357 386.635L161.323 386.181L159.283 385.748L157.236 385.336L155.184 384.945L153.125 384.575L151.061 384.226L148.992 383.898L146.918 383.592L144.838 383.307L142.754 383.044L140.665 382.802L138.572 382.582L136.474 382.383L134.373 382.207L132.268 382.052L130.159 381.919L128.046 381.808L125.931 381.719L123.813 381.651L121.692 381.606L119.568 381.584L117.442 381.583L115.314 381.604L113.184 381.648L111.052 381.714L108.919 381.803L106.785 381.914L104.649 382.047L102.513 382.203L100.376 382.381L98.2381 382.581L96.1005 382.805L93.9628 383.05L91.8254 383.319L89.6885 383.61L87.5521 383.923L85.4167 384.259L83.2824 384.618L81.1493 384.999L79.0178 385.404L76.8881 385.83L74.7603 386.28L72.6347 386.752L70.5116 387.246L68.391 387.764L66.2733 388.304L64.1587 388.866L62.0473 389.451L59.9395 390.059L57.8354 390.69L55.7352 391.343L53.6392 392.018L51.5476 392.716L49.4605 393.437L47.3784 394.18L45.3012 394.945L43.2294 395.733L41.1629 396.543L39.1023 397.376L37.0475 398.231L34.9989 399.108L32.9567 400.007L30.921 400.929L28.8922 401.872L26.8704 402.838L24.8558 403.826L22.8487 404.835L20.8492 405.867L18.8577 406.92L16.8742 407.995L14.8991 409.092L12.9326 410.211L10.9748 411.351L9.02594 412.512L7.08631 413.695L5.15608 414.9L3.23548 416.125L1.32469 417.372L-0.576013 418.64L-2.4665 419.929L-4.34648 421.239L-6.21579 422.57L-8.07423 423.921L-9.92152 425.293L-11.7575 426.686L-13.582 428.099L-15.3948 429.533L-17.1956 430.986L-18.9843 432.46L-20.7607 433.954L-22.5245 435.468L-24.2755 437.002L-26.0136 438.555L-27.7385 440.128L-29.4501 441.72L-31.1481 443.332L-32.8324 444.963L-34.5027 446.613L-36.1589 448.282L-37.8007 449.97L-39.428 451.676L-41.0405 453.401L-42.6381 455.145L-44.2206 456.907L-45.7878 458.686L-47.3395 460.484L-48.8755 462.3L-50.3956 464.134L-51.8997 465.985L-53.3875 467.853L-54.8589 469.739L-56.3137 471.641L-57.7518 473.561L-59.1728 475.497L-60.5767 477.45L-61.9633 479.42L-63.3324 481.406L-64.6838 483.408L-66.0174 485.425L-67.333 487.459L-68.6303 489.508L-69.9094 491.573L-71.1699 493.653L-72.4118 495.748L-73.6348 497.857L-74.8388 499.982L-76.0237 502.121L-77.1892 504.274L-78.3353 506.442L-79.4617 508.623L-80.5683 510.818L-81.655 513.027L-82.7216 515.249L-83.768 517.484L-84.794 519.732L-85.7995 521.993L-86.7843 524.267L-87.7483 526.553L-88.6913 528.851L-89.6133 531.161L-90.5141 533.482L-91.3935 535.816L-92.2514 538.16L-93.0877 540.516L-93.9022 542.882L-94.6949 545.259L-95.4656 547.647L-96.2142 550.045L-96.9405 552.452L-97.6445 554.87L-98.326 557.297L-98.985 559.734L-99.6212 562.179L-100.235 564.633L-100.825 567.096L-101.393 569.568L-101.937 572.048L-102.458 574.535L-102.956 577.03L-103.431 579.533L-103.881 582.043L-104.309 584.56L-104.712 587.084L-105.092 589.614L-105.448 592.15L-105.78 594.693L-106.088 597.241L-106.372 599.794L-106.632 602.353L-106.867 604.918L-107.078 607.486L-107.265 610.06L-107.427 612.637L-107.565 615.219L-107.678 617.804L-107.766 620.393L-107.83 622.986L-107.868 625.581L-107.882 628.179L-107.872 630.779L-107.836 633.382L-107.775 635.987L-107.689 638.593L-107.578 641.201L-107.442 643.81L-107.281 646.42L-107.095 649.031L-106.884 651.642L-106.647 654.254L-106.385 656.865L-106.098 659.476L-105.785 662.086L-105.447 664.695L-105.084 667.303L-104.695 669.91L-104.281 672.515L-103.842 675.118L-103.377 677.718L-102.887 680.317L-102.371 682.912L-101.831 685.505L-101.264 688.094L-100.673 690.679L-100.056 693.261L-99.4132 695.839L-98.7454 698.412L-98.0524 700.98L-97.334 703.544L-96.5904 706.102L-95.8214 708.655L-95.0273 711.203L-94.208 713.744L-93.3634 716.279L-92.4938 718.807L-91.599 721.329L-90.6792 723.844L-89.7344 726.351L-88.7646 728.85L-87.7699 731.342L-86.7503 733.826L-85.7059 736.301L-84.6367 738.767L-83.5429 741.225L-82.4243 743.673L-81.2812 746.112L-80.1136 748.541L-78.9216 750.96L-77.7051 753.369L-76.4645 755.768L-75.1995 758.155L-73.9104 760.532L-72.5973 762.897L-71.2602 765.25L-69.8992 767.592L-68.5144 769.922L-67.1059 772.239L-65.6738 774.543L-64.2182 776.835L-62.7391 779.113L-61.2368 781.379L-59.7113 783.63L-58.1626 785.868L-56.591 788.091L-54.9965 790.3L-53.3792 792.495L-51.7393 794.674L-50.0769 796.838L-48.3921 798.987L-46.6849 801.12L-44.9557 803.237L-43.2045 805.338L-41.4313 807.423L-39.6365 809.491L-37.82 811.542L-35.982 813.576L-34.1228 815.593L-32.2423 817.592L-30.3408 819.573L-28.4185 821.536L-26.4754 823.48L-24.5117 825.407L-22.5277 827.314L-20.5233 829.202L-18.4989 831.071L-16.4546 832.921L-14.3904 834.751L-12.3067 836.561L-10.2036 838.351L-8.08122 840.12L-5.93974 841.869L-3.77943 843.597L-1.60037 845.305L0.59722 846.99L2.81318 848.655L5.04725 850.298L7.29931 851.918L9.56916 853.517L11.8565 855.094L14.1614 856.648L16.4834 858.179L18.8224 859.688L21.1781 861.173L23.5505 862.635L25.9392 864.074L28.3441 865.488L30.7649 866.88L33.2015 868.247L35.6536 869.589L38.1211 870.908L40.6036 872.201L43.1009 873.47L45.613 874.714L48.1394 875.933L50.6801 877.127L53.2347 878.295L55.8031 879.437L58.3849 880.554L60.9801 881.644L63.5882 882.709L66.2093 883.747L68.8428 884.759L71.4886 885.744L74.1466 886.702L76.8163 887.633L79.4977 888.538L82.1903 889.415L84.8941 890.265L87.6087 891.087L90.3339 891.882L93.0694 892.648L95.815 893.387L98.5704 894.098L101.335 894.781L104.11 895.435L106.893 896.061L109.685 896.659L112.486 897.228L115.294 897.768L118.111 898.279L120.936 898.761L123.768 899.214L126.607 899.638L129.453 900.033L132.305 900.398L135.164 900.734L138.029 901.04L140.9 901.316L143.776 901.563L146.658 901.78L149.544 901.967L152.435 902.124L155.331 902.251L158.23 902.347L161.134 902.414L164.041 902.45L166.951 902.456L169.864 902.431L172.78 902.376L175.698 902.29L178.619 902.174L181.541 902.027L184.464 901.85L187.389 901.641L190.315 901.402L193.241 901.133L196.168 900.832L199.094 900.5L202.021 900.138L204.947 899.744L207.872 899.32L210.795 898.865L213.718 898.379L216.638 897.861L219.557 897.313L222.473 896.734L225.387 896.123L228.298 895.482L231.205 894.81L234.109 894.107L237.009 893.372L239.905 892.607L242.796 891.811L245.683 890.983L248.564 890.125L251.441 889.236L254.311 888.316L257.176 887.366L260.034 886.384L262.886 885.372L265.731 884.328L268.569 883.255L271.399 882.15L274.222 881.015L277.036 879.85L279.842 878.654L282.64 877.427L285.428 876.17L288.207 874.883L290.977 873.566L293.737 872.219L296.486 870.841L299.226 869.433L301.954 867.996L304.671 866.529L307.377 865.032L310.072 863.505L312.754 861.949L315.424 860.363L318.082 858.748L320.726 857.104L323.358 855.431L325.976 853.728L328.581 851.997L331.171 850.237L333.747 848.448L336.309 846.63L338.856 844.785L341.387 842.91L343.904 841.008L346.404 839.078L348.889 837.12L351.357 835.134L353.808 833.12L356.243 831.079L358.661 829.011L361.061 826.916L363.443 824.793L365.808 822.644L368.154 820.468L370.482 818.266L372.791 816.037L375.081 813.782L377.351 811.501L379.602 809.194L381.833 806.862L384.044 804.504L386.235 802.121L388.405 799.713L390.554 797.28L392.682 794.823L394.788 792.341L396.873 789.834L398.935 787.304L400.976 784.75L402.994 782.172L404.989 779.571L406.962 776.946L408.911 774.298L410.837 771.628L412.739 768.935L414.618 766.22L416.472 763.483L418.301 760.724L420.106 757.943L421.887 755.141L423.642 752.317L425.372 749.473L427.076 746.608L428.755 743.723L430.407 740.817L432.034 737.892L433.634 734.947L435.207 731.983L436.753 728.999L438.273 725.997L439.765 722.976L441.23 719.936L442.667 716.879L444.076 713.804L445.457 710.711L446.81 707.601L448.134 704.474L449.43 701.33L450.697 698.17L451.935 694.994L453.143 691.802L454.323 688.595L455.472 685.372L456.592 682.135L457.682 678.882L458.742 675.616L459.772 672.335L460.771 669.041L461.74 665.733L462.678 662.412L463.585 659.078L464.461 655.732L465.306 652.374L466.12 649.004L466.902 645.622L467.652 642.229L468.371 638.825L469.057 635.41L469.712 631.985L470.334 628.55L470.925 625.106L471.482 621.652L472.008 618.19L472.5 614.718L472.96 611.239L473.387 607.751L473.781 604.256L474.142 600.753L474.469 597.244L474.763 593.728L475.024 590.206L475.252 586.678L475.445 583.144L475.605 579.605L475.732 576.061L475.824 572.513L475.883 568.96L475.908 565.404L475.898 561.844L475.855 558.281L475.777 554.715L475.665 551.147L475.518 547.577L475.338 544.005L475.123 540.432L474.873 536.858L474.589 533.283L474.27 529.707L473.917 526.132L473.53 522.558L473.107 518.984L472.65 515.412L472.158 511.84L471.632 508.271L471.07 504.705L470.474 501.14L469.844 497.579L469.178 494.021L468.478 490.467L467.743 486.917L466.973 483.372L466.169 479.831L465.329 476.295L464.455 472.766L463.547 469.242L462.603 465.724L461.625 462.213L460.613 458.709L459.565 455.212L458.484 451.724L457.367 448.243L456.217 444.771L455.032 441.308L453.812 437.854L452.558 434.41L451.27 430.975L449.948 427.552L448.591 424.138L447.201 420.736L445.776 417.346L444.318 413.967L442.826 410.6L441.3 407.246L439.74 403.905L438.147 400.577L436.52 397.263L434.86 393.962L433.166 390.676L431.44 387.405L429.68 384.149L427.888 380.909L426.062 377.684L424.204 374.475L422.313 371.283L420.39 368.108L418.435 364.95L416.447 361.81L414.427 358.687L412.375 355.583L410.292 352.497L408.176 349.431L406.03 346.384L403.851 343.356L401.642 340.349L399.402 337.362L397.131 334.395L394.829 331.45L392.497 328.526L390.134 325.624L387.741 322.744L385.318 319.886L382.866 317.051L380.383 314.239L377.872 311.451L375.331 308.686L372.761 305.945L370.162 303.229L367.535 300.537L364.879 297.871L362.195 295.229L359.483 292.614L356.743 290.024L353.976 287.461L351.181 284.925L348.36 282.415L345.511 279.932L342.636 277.477L339.734 275.05L336.806 272.651L333.853 270.281L330.874 267.939L327.869 265.626L324.839 263.343L321.784 261.089L318.705 258.865L315.601 256.671L312.473 254.508L309.321 252.376L306.146 250.274L302.947 248.204L299.726 246.165L296.481 244.158L293.214 242.184L289.925 240.241L286.614 238.332L283.282 236.455L279.928 234.611L276.553 232.801L273.158 231.024L269.742 229.281L266.306 227.573L262.85 225.898L259.374 224.259L255.88 222.654L252.366 221.084L248.835 219.55L245.284 218.051L241.716 216.588L238.131 215.161L234.528 213.77L230.908 212.416L227.272 211.098L223.619 209.817L219.95 208.573L216.266 207.366L212.567 206.196L208.853 205.065L205.124 203.971L201.381 202.915L197.624 201.897L193.854 200.918L190.07 199.977L186.274 199.075L182.465 198.211L178.645 197.387L174.812 196.602L170.968 195.856L167.114 195.15L163.248 194.483L159.373 193.857L155.487 193.27L151.592 192.723L147.688 192.217L143.775 191.751L139.854 191.325L135.925 190.94L131.988 190.596L128.044 190.292L124.093 190.03L120.136 189.809L116.173 189.628L112.204 189.489L108.229 189.392L104.25 189.336L100.266 189.321L96.2787 189.348L92.2872 189.417L88.2923 189.528L84.2946 189.68L80.2943 189.874L76.2919 190.111L72.2878 190.389L68.2824 190.71L64.2761 191.073L60.2692 191.478L56.2623 191.925L52.2556 192.414L48.2496 192.946L44.2448 193.52L40.2414 194.137L36.24 194.796L32.2409 195.497L28.2446 196.241L24.2514 197.028L20.2617 197.856L16.2761 198.728L12.2948 199.641L8.31828 200.597L4.347 201.596L0.381324 202.637L-3.57832 203.721L-7.53152 204.846L-11.4779 206.014L-15.417 207.225L-19.3484 208.478L-23.2717 209.773L-27.1865 211.11L-31.0924 212.489L-34.989 213.911L-38.8758 215.374L-42.7525 216.879L-46.6186 218.427L-50.4737 220.016L-54.3174 221.647L-58.1493 223.319L-61.969 225.033L-65.7761 226.789L-69.5702 228.586L-73.3508 230.424L-77.1176 232.304L-80.8701 234.224L-84.6079 236.186L-88.3306 238.188L-92.0379 240.231L-95.7293 242.315L-99.4044 244.439L-103.063 246.603L-106.704 248.808L-110.328 251.053L-113.934 253.338L-117.521 255.662L-121.09 258.026L-124.64 260.43L-128.17 262.873L-131.681 265.355L-135.171 267.876L-138.64 270.435L-142.088 273.034L-145.515 275.67L-148.92 278.345L-152.303 281.058L-155.663 283.809L-159 286.597L-162.314 289.423L-165.604 292.286L-168.869 295.186L-172.111 298.122L-175.327 301.096L-178.518 304.105L-181.683 307.151L-184.823 310.233L-187.936 313.35L-191.022 316.502L-194.081 319.69L-197.112 322.912L-200.116 326.169L-203.091 329.461L-206.038 332.786L-208.956 336.146L-211.844 339.539L-214.703 342.965L-217.532 346.424L-220.331 349.916L-223.099 353.44L-225.836 356.996L-228.541 360.585L-231.215 364.204L-233.857 367.855L-236.466 371.537L-239.043 375.25L-241.587 378.993L-244.097 382.766L-246.574 386.568L-249.017 390.4L-251.425 394.261L-253.799 398.15L-256.138 402.068L-258.442 406.014L-260.71 409.988L-262.943 413.988L-265.139 418.016L-267.299 422.071L-269.422 426.151L-271.508 430.258L-273.557 434.39L-275.569 438.547L-277.542 442.729L-279.477 446.936L-281.374 451.166L-283.233 455.42L-285.052 459.698L-286.832 463.998" stroke="#9B9CA0" stroke-opacity="0.2" stroke-width="4" stroke-linecap="round"/>
<path d="M64.2638 648.59L64.7061 649.215L65.1548 649.836L65.6099 650.454L66.0714 651.067L66.5392 651.676L67.0134 652.28L67.4938 652.88L67.9804 653.476L68.4733 654.067L68.9723 654.654L69.4774 655.236L69.9886 655.813L70.5058 656.385L71.0291 656.953L71.5583 657.516L72.0934 658.073L72.6345 658.626L73.1813 659.173L73.734 659.715L74.2924 660.253L74.8565 660.784L75.4262 661.311L76.0016 661.831L76.5825 662.347L77.169 662.856L77.7609 663.361L78.3582 663.859L78.961 664.352L79.569 664.838L80.1823 665.319L80.8008 665.794L81.4245 666.263L82.0533 666.726L82.6872 667.183L83.326 667.634L83.9698 668.078L84.6185 668.516L85.272 668.948L85.9304 669.373L86.5934 669.792L87.2612 670.204L87.9335 670.61L88.6104 671.009L89.2918 671.402L89.9776 671.787L90.6678 672.166L91.3623 672.538L92.0611 672.903L92.764 673.261L93.4711 673.613L94.1822 673.957L94.8973 674.294L95.6164 674.624L96.3393 674.946L97.066 675.262L97.7965 675.57L98.5306 675.871L99.2684 676.165L100.01 676.451L100.754 676.729L101.503 677L102.254 677.264L103.009 677.52L103.767 677.768L104.528 678.009L105.292 678.242L106.059 678.467L106.829 678.685L107.602 678.894L108.378 679.096L109.156 679.29L109.937 679.476L110.72 679.654L111.506 679.823L112.295 679.985L113.085 680.139L113.878 680.285L114.673 680.423L115.47 680.552L116.27 680.673L117.071 680.786L117.874 680.891L118.679 680.987L119.485 681.076L120.293 681.156L121.103 681.227L121.914 681.29L122.726 681.345L123.54 681.391L124.355 681.429L125.172 681.459L125.989 681.48L126.807 681.492L127.627 681.496L128.447 681.491L129.268 681.478L130.089 681.456L130.911 681.426L131.734 681.387L132.557 681.34L133.38 681.283L134.204 681.219L135.027 681.145L135.851 681.063L136.675 680.972L137.499 680.873L138.323 680.765L139.146 680.648L139.969 680.522L140.792 680.388L141.614 680.245L142.436 680.094L143.257 679.933L144.077 679.764L144.897 679.587L145.715 679.4L146.533 679.205L147.349 679.001L148.164 678.789L148.978 678.567L149.791 678.337L150.602 678.099L151.412 677.851L152.22 677.595L153.027 677.331L153.831 677.058L154.634 676.776L155.435 676.485L156.234 676.186L157.031 675.878L157.826 675.562L158.618 675.237L159.408 674.903L160.196 674.561L160.981 674.21L161.763 673.851L162.543 673.484L163.32 673.108L164.094 672.723L164.865 672.33L165.633 671.929L166.398 671.519L167.16 671.101L167.919 670.674L168.674 670.24L169.426 669.797L170.174 669.345L170.919 668.886L171.66 668.418L172.397 667.942L173.13 667.458L173.859 666.966L174.585 666.466L175.306 665.958L176.023 665.442L176.736 664.918L177.444 664.386L178.148 663.846L178.848 663.298L179.543 662.742L180.233 662.179L180.919 661.608L181.599 661.029L182.275 660.443L182.946 659.849L183.612 659.248L184.272 658.639L184.928 658.022L185.578 657.398L186.223 656.767L186.862 656.129L187.496 655.483L188.124 654.83L188.747 654.17L189.364 653.503L189.975 652.828L190.58 652.147L191.179 651.459L191.772 650.764L192.359 650.062L192.94 649.353L193.515 648.638L194.083 647.915L194.645 647.187L195.2 646.452L195.749 645.71L196.291 644.962L196.827 644.207L197.356 643.447L197.878 642.68L198.393 641.907L198.902 641.127L199.403 640.342L199.897 639.551L200.385 638.754L200.865 637.951L201.337 637.142L201.803 636.328L202.261 635.508L202.711 634.682L203.154 633.852L203.59 633.015L204.018 632.174L204.438 631.327L204.851 630.475L205.256 629.617L205.653 628.755L206.042 627.888L206.423 627.016L206.796 626.139L207.161 625.258L207.517 624.372L207.866 623.481L208.207 622.586L208.539 621.687L208.863 620.783L209.178 619.875L209.485 618.963L209.784 618.047L210.074 617.126L210.356 616.202L210.628 615.275L210.893 614.343L211.148 613.408L211.395 612.469L211.633 611.527L211.862 610.582L212.083 609.633L212.294 608.681L212.497 607.726L212.69 606.768L212.875 605.807L213.05 604.843L213.217 603.877L213.374 602.908L213.522 601.936L213.661 600.962L213.791 599.986L213.911 599.007L214.022 598.026L214.124 597.043L214.217 596.058L214.3 595.071L214.373 594.083L214.438 593.093L214.492 592.101L214.538 591.107L214.574 590.113L214.6 589.117L214.617 588.119L214.624 587.121L214.621 586.122L214.609 585.121L214.588 584.12L214.556 583.119L214.516 582.116L214.465 581.113L214.405 580.11L214.335 579.107L214.255 578.103L214.165 577.099L214.066 576.095L213.957 575.091L213.839 574.088L213.71 573.084L213.572 572.082L213.424 571.079L213.266 570.078L213.099 569.076L212.922 568.076L212.734 567.077L212.538 566.079L212.331 565.082L212.114 564.086L211.888 563.091L211.652 562.098L211.406 561.106L211.151 560.116L210.886 559.128L210.611 558.142L210.326 557.157L210.031 556.175L209.727 555.195L209.413 554.217L209.089 553.241L208.756 552.268L208.413 551.297L208.06 550.33L207.698 549.364L207.326 548.402L206.944 547.443L206.553 546.487L206.152 545.534L205.742 544.584L205.322 543.638L204.893 542.695L204.454 541.756L204.005 540.821L203.548 539.889L203.081 538.961L202.604 538.037L202.118 537.118L201.623 536.202L201.119 535.291L200.605 534.384L200.082 533.482L199.55 532.585L199.009 531.692L198.459 530.804L197.9 529.921L197.331 529.042L196.754 528.169L196.167 527.302L195.572 526.439L194.968 525.582L194.355 524.73L193.733 523.884L193.103 523.044L192.464 522.209L191.816 521.381L191.16 520.558L190.495 519.742L189.821 518.931L189.14 518.127L188.449 517.329L187.751 516.538L187.044 515.753L186.329 514.975L185.606 514.204L184.874 513.439L184.135 512.681L183.387 511.931L182.632 511.187L181.869 510.451L181.098 509.722L180.319 509L179.532 508.286L178.738 507.579L177.936 506.88L177.127 506.188L176.311 505.505L175.487 504.829L174.655 504.161L173.817 503.501L172.971 502.85L172.118 502.206L171.259 501.571L170.392 500.945L169.518 500.326L168.638 499.717L167.751 499.115L166.857 498.523L165.957 497.939L165.05 497.364L164.137 496.799L163.217 496.242L162.292 495.694L161.36 495.155L160.422 494.626L159.478 494.105L158.528 493.594L157.572 493.093L156.61 492.601L155.643 492.119L154.671 491.646L153.692 491.183L152.709 490.73L151.72 490.286L150.726 489.853L149.726 489.429L148.722 489.016L147.713 488.612L146.699 488.219L145.68 487.836L144.656 487.463L143.628 487.101L142.595 486.748L141.558 486.407L140.517 486.076L139.472 485.755L138.422 485.445L137.368 485.146L136.311 484.857L135.249 484.579L134.184 484.312L133.116 484.056L132.044 483.81L130.968 483.576L129.889 483.352L128.807 483.14L127.722 482.939L126.634 482.749L125.543 482.57L124.45 482.402L123.353 482.245L122.254 482.1L121.153 481.966L120.049 481.844L118.943 481.732L117.835 481.633L116.724 481.544L115.612 481.468L114.498 481.402L113.383 481.349L112.265 481.306L111.146 481.276L110.026 481.257L108.905 481.25L107.782 481.254L106.659 481.27L105.534 481.298L104.409 481.338L103.283 481.389L102.156 481.453L101.029 481.528L99.901 481.614L98.7732 481.713L97.6452 481.824L96.5172 481.946L95.3892 482.08L94.2615 482.226L93.1341 482.384L92.007 482.554L90.8805 482.736L89.7547 482.93L88.6297 483.136L87.5055 483.353L86.3823 483.583L85.2603 483.824L84.1395 484.078L83.02 484.343L81.902 484.62L80.7855 484.909L79.6708 485.21L78.5579 485.523L77.4469 485.848L76.3379 486.185L75.2311 486.533L74.1265 486.894L73.0244 487.266L71.9248 487.65L70.8278 488.046L69.7335 488.454L68.642 488.873L67.5536 489.305L66.4683 489.748L65.3861 490.203L64.3073 490.669L63.2319 491.147L62.16 491.637L61.0919 492.138L60.0275 492.652L58.967 493.176L57.9105 493.712L56.8581 494.26L55.81 494.819L54.7662 495.39L53.7269 495.972L52.6922 496.565L51.6622 497.17L50.637 497.786L49.6167 498.413L48.6015 499.052L47.5914 499.702L46.5866 500.363L45.5871 501.034L44.5931 501.717L43.6048 502.411L42.6221 503.116L41.6453 503.832L40.6744 504.559L39.7095 505.296L38.7508 506.045L37.7983 506.803L36.8523 507.573L35.9127 508.353L34.9796 509.144L34.0533 509.945L33.1337 510.756L32.2211 511.578L31.3155 512.41L30.417 513.253L29.5257 514.105L28.6417 514.968L27.7652 515.84L26.8962 516.723L26.0349 517.615L25.1813 518.518L24.3355 519.43L23.4977 520.351L22.6679 521.282L21.8463 522.223L21.0329 523.173L20.2279 524.133L19.4312 525.102L18.6431 526.08L17.8637 527.067L17.093 528.063L16.3311 529.068L15.5781 530.082L14.8342 531.105L14.0993 532.137L13.3737 533.177L12.6574 534.226L11.9504 535.283L11.2529 536.348L10.565 537.422L9.88669 538.504L9.21812 539.594L8.55945 540.692L7.9106 541.798L7.2718 542.912L6.64306 544.033L6.02449 545.162L5.41619 546.298L4.81822 547.442L4.23066 548.593L3.65359 549.752L3.08711 550.917L2.53126 552.09L1.9861 553.269L1.45178 554.455L0.928354 555.648L0.415864 556.847L-0.0855761 558.053L-0.575966 559.265L-1.05514 560.483L-1.5231 561.708L-1.97971 562.938L-2.42492 564.175L-2.85873 565.417L-3.28103 566.665L-3.6917 567.919L-4.09076 569.177L-4.47809 570.442L-4.85362 571.711L-5.21736 572.986L-5.56917 574.265L-5.90906 575.55L-6.23694 576.839L-6.5527 578.132L-6.85638 579.431L-7.14786 580.733L-7.42709 582.04L-7.69405 583.351L-7.94865 584.666L-8.19088 585.985L-8.42067 587.308L-8.63798 588.634L-8.84273 589.964L-9.03493 591.297L-9.2145 592.633L-9.38138 593.972L-9.53555 595.315L-9.67699 596.66L-9.80559 598.008L-9.92141 599.359L-10.0243 600.712L-10.1144 602.067L-10.1915 603.425L-10.2556 604.785L-10.3067 606.146L-10.3448 607.51L-10.3698 608.875L-10.3817 610.241L-10.3805 611.609L-10.3662 612.979L-10.3387 614.349L-10.298 615.72L-10.244 617.092L-10.1768 618.465L-10.0964 619.839L-10.0027 621.213L-9.89563 622.587L-9.77533 623.962L-9.64167 625.336L-9.4947 626.71L-9.33432 628.084L-9.16059 629.458L-8.97352 630.831L-8.77311 632.204L-8.55927 633.575L-8.33205 634.946L-8.09143 636.315L-7.83744 637.684L-7.56999 639.051L-7.28916 640.416L-6.99498 641.78L-6.6874 643.142L-6.36641 644.502L-6.03203 645.86L-5.6843 647.216L-5.32317 648.569L-4.94873 649.92L-4.56089 651.268L-4.15976 652.614L-3.74526 653.956L-3.31751 655.296L-2.87644 656.632L-2.42209 657.965L-1.95451 659.294L-1.47368 660.62L-0.979669 661.942L-0.472426 663.26L0.0478962 664.574L0.581436 665.884L1.12802 667.189L1.68773 668.49L2.26043 669.786L2.84618 671.078L3.44494 672.364L4.05656 673.646L4.68112 674.922L5.31859 676.193L5.96893 677.459L6.63203 678.719L7.30784 679.973L7.99642 681.222L8.69759 682.464L9.41146 683.7L10.1379 684.93L10.8768 686.154L11.6282 687.37L12.3921 688.581L13.1683 689.784L13.9568 690.98L14.7576 692.17L15.5706 693.352L16.3958 694.526L17.233 695.694L18.0823 696.853L18.9435 698.005L19.8167 699.149L20.7017 700.284L21.5985 701.412L22.5069 702.531L23.427 703.642L24.3587 704.745L25.3019 705.838L26.2565 706.923L27.2225 707.999L28.1997 709.066L29.1881 710.123L30.1877 711.172L31.1984 712.21L32.2199 713.24L33.2524 714.259L34.2956 715.269L35.3496 716.269L36.4143 717.259L37.4894 718.238L38.5751 719.207L39.671 720.166L40.7773 721.115L41.8938 722.052L43.0203 722.979L44.1569 723.895L45.3034 724.8L46.4596 725.694L47.6256 726.577L48.8012 727.448L49.9863 728.308L51.1809 729.156L52.3847 729.993L53.5978 730.818L54.82 731.631L56.0511 732.432L57.2912 733.221L58.5401 733.998L59.7976 734.762L61.0637 735.514L62.3383 736.254L63.6212 736.981L64.9123 737.695L66.2115 738.397L67.5188 739.085L68.834 739.761L70.1569 740.423L71.4875 741.072L72.8255 741.709L74.1711 742.331L75.5238 742.94L76.8838 743.536L78.2508 744.118L79.6248 744.687L81.0055 745.241L82.3929 745.782L83.7869 746.309L85.1873 746.821L86.5939 747.32L88.0068 747.804L89.4256 748.274L90.8503 748.73L92.2808 749.171L93.717 749.598L95.1586 750.01L96.6056 750.408L98.0578 750.791L99.5152 751.159L100.977 751.512L102.444 751.85L103.916 752.174L105.393 752.482L106.873 752.775L108.358 753.053L109.847 753.316L111.34 753.563L112.837 753.795L114.338 754.012L115.842 754.214L117.349 754.399L118.86 754.57L120.374 754.724L121.891 754.863L123.41 754.987L124.932 755.094L126.457 755.186L127.984 755.262L129.514 755.323L131.045 755.367L132.579 755.395L134.114 755.408L135.65 755.404L137.189 755.385L138.728 755.349L140.269 755.297L141.81 755.229L143.353 755.145L144.896 755.045L146.44 754.929L147.984 754.797L149.528 754.648L151.072 754.483L152.617 754.302L154.161 754.104L155.704 753.89L157.247 753.66L158.79 753.414L160.331 753.151L161.872 752.872L163.411 752.577L164.949 752.265L166.486 751.937L168.02 751.593L169.553 751.232L171.084 750.856L172.613 750.462L174.14 750.053L175.664 749.627L177.186 749.185L178.704 748.726L180.22 748.252L181.733 747.761L183.242 747.254L184.748 746.73L186.251 746.191L187.75 745.635L189.245 745.063L190.735 744.475L192.222 743.871L193.704 743.251L195.182 742.615L196.655 741.963L198.124 741.295L199.587 740.611L201.045 739.911L202.498 739.195L203.945 738.464L205.387 737.716L206.823 736.953L208.253 736.174L209.677 735.38L211.094 734.57L212.505 733.745L213.91 732.904L215.308 732.047L216.699 731.175L218.083 730.288L219.46 729.386L220.83 728.469L222.192 727.536L223.546 726.588L224.893 725.625L226.231 724.648L227.562 723.655L228.884 722.648L230.198 721.626L231.504 720.589L232.8 719.538L234.088 718.472L235.367 717.392L236.637 716.297L237.897 715.189L239.148 714.066L240.39 712.928L241.621 711.777L242.843 710.613L244.055 709.434L245.257 708.241L246.448 707.035L247.629 705.815L248.799 704.582L249.959 703.336L251.108 702.076L252.246 700.803L253.372 699.517L254.488 698.218L255.592 696.907L256.684 695.582L257.765 694.245L258.834 692.896L259.891 691.534L260.936 690.16L261.969 688.773L262.99 687.375L263.998 685.964L264.993 684.542L265.976 683.108L266.946 681.663L267.903 680.206L268.847 678.737L269.778 677.258L270.695 675.767L271.599 674.266L272.49 672.753L273.366 671.23L274.229 669.697L275.079 668.153L275.914 666.598L276.735 665.034L277.541 663.459L278.334 661.875L279.112 660.281L279.875 658.677L280.624 657.064L281.358 655.442L282.077 653.81L282.781 652.169L283.47 650.52L284.143 648.862L284.802 647.195L285.445 645.52L286.073 643.836L286.685 642.145L287.281 640.445L287.862 638.738L288.427 637.023L288.975 635.301L289.508 633.571L290.025 631.834L290.526 630.09L291.01 628.34L291.478 626.582L291.929 624.818L292.364 623.048L292.783 621.272L293.184 619.489L293.569 617.701L293.938 615.907L294.289 614.107L294.623 612.302L294.941 610.493L295.241 608.678L295.524 606.858L295.79 605.033L296.038 603.204L296.27 601.371L296.483 599.534L296.68 597.693L296.859 595.848L297.02 593.999L297.164 592.147L297.29 590.292L297.398 588.434L297.489 586.572L297.562 584.709L297.617 582.842L297.654 580.974L297.673 579.103L297.674 577.23L297.657 575.356L297.623 573.48L297.57 571.603L297.499 569.724L297.41 567.845L297.302 565.964L297.177 564.083L297.033 562.202L296.872 560.32L296.692 558.439L296.493 556.557L296.277 554.676L296.042 552.795L295.788 550.915L295.517 549.036L295.227 547.157L294.919 545.281L294.592 543.405L294.248 541.532L293.884 539.66L293.503 537.79L293.103 535.922L292.685 534.057L292.248 532.195L291.793 530.335L291.32 528.478L290.829 526.625L290.319 524.775L289.791 522.928L289.245 521.086L288.68 519.247L288.097 517.412L287.496 515.582L286.877 513.757L286.24 511.936L285.584 510.12L284.911 508.309L284.219 506.504L283.51 504.704L282.782 502.91L282.037 501.122L281.273 499.34L280.492 497.564L279.693 495.795L278.876 494.032L278.041 492.276L277.189 490.528L276.319 488.786L275.432 487.052L274.527 485.326L273.604 483.607L272.664 481.897L271.707 480.195L270.732 478.501L269.74 476.816L268.731 475.139L267.705 473.472L266.662 471.813L265.602 470.164L264.525 468.525L263.432 466.895L262.321 465.275L261.194 463.665L260.051 462.065L258.89 460.476L257.714 458.898L256.521 457.33L255.312 455.773L254.087 454.227L252.845 452.693L251.588 451.17L250.315 449.659L249.026 448.16L247.722 446.673L246.402 445.198L245.066 443.736L243.716 442.286L242.349 440.848L240.968 439.424L239.572 438.013L238.161 436.615L236.735 435.23L235.294 433.859L233.839 432.502L232.369 431.158L230.885 429.829L229.387 428.514L227.874 427.213L226.348 425.927L224.808 424.656L223.254 423.399L221.686 422.158L220.105 420.931L218.511 419.721L216.904 418.525L215.283 417.345L213.65 416.181L212.004 415.033L210.345 413.901L208.674 412.785L206.99 411.686L205.294 410.603L203.586 409.537L201.866 408.488L200.135 407.456L198.392 406.44L196.637 405.442L194.871 404.462L193.094 403.498L191.306 402.553L189.507 401.625L187.698 400.715L185.878 399.823L184.047 398.95L182.207 398.094L180.356 397.257L178.496 396.439L176.626 395.639L174.746 394.858L172.857 394.095L170.959 393.352L169.052 392.628L167.136 391.923L165.212 391.237L163.279 390.571L161.337 389.924L159.388 389.297L157.431 388.69L155.466 388.102L153.493 387.535L151.513 386.987L149.526 386.46L147.532 385.953L145.531 385.466L143.523 384.999L141.51 384.554L139.489 384.128L137.463 383.724L135.431 383.34L133.393 382.977L131.35 382.634L129.301 382.313L127.248 382.013L125.189 381.734L123.126 381.476L121.058 381.24L118.986 381.024L116.91 380.831L114.83 380.658L112.747 380.507L110.66 380.378L108.569 380.271L106.476 380.185L104.38 380.121L102.281 380.078L100.18 380.058L98.076 380.059L95.9704 380.082L93.863 380.128L91.7539 380.195L89.6434 380.284L87.5318 380.396L85.4192 380.529L83.3058 380.685L81.1918 380.863L79.0775 381.063L76.9631 381.285L74.8488 381.53L72.7347 381.797L70.6212 382.086L68.5084 382.397L66.3965 382.731L64.2858 383.087L62.1765 383.466L60.0687 383.866L57.9627 384.289L55.8588 384.735L53.7571 385.203L51.6579 385.693L49.5613 386.205L47.4676 386.74L45.3771 387.297L43.2898 387.877L41.2061 388.478L39.1262 389.102L37.0502 389.749L34.9784 390.417L32.911 391.108L30.8483 391.821L28.7904 392.556L26.7376 393.314L24.6901 394.093L22.648 394.894L20.6117 395.718L18.5813 396.563L16.5571 397.431L14.5392 398.32L12.528 399.231L10.5235 400.164L8.52604 401.119L6.53581 402.096L4.55307 403.094L2.57796 404.114L0.610738 405.155L-1.34834 406.218L-3.29917 407.302L-5.24146 408.407L-7.17501 409.534L-9.0996 410.682L-11.015 411.851L-12.9211 413.042L-14.8175 414.253L-16.7042 415.485L-18.5809 416.738L-20.4473 418.011L-22.3034 419.306L-24.1487 420.621L-25.9833 421.956L-27.8068 423.311L-29.619 424.687L-31.4197 426.083L-33.2089 427.5L-34.9861 428.936L-36.7512 430.392L-38.5041 431.868L-40.2445 433.363L-41.9722 434.878L-43.687 436.412L-45.3888 437.966L-47.0773 439.539L-48.7522 441.131L-50.4136 442.742L-52.061 444.371L-53.6944 446.02L-55.3136 447.687L-56.9183 449.372L-58.5083 451.076L-60.0835 452.797L-61.6437 454.537L-63.1887 456.295L-64.7184 458.07L-66.2324 459.863L-67.7307 461.674L-69.213 463.502L-70.6792 465.347L-72.1291 467.209L-73.5625 469.088L-74.9792 470.983L-76.3792 472.895L-77.7621 474.824L-79.1277 476.768L-80.4761 478.729L-81.8069 480.705L-83.12 482.698L-84.4152 484.705L-85.6924 486.729L-86.9514 488.767L-88.192 490.82L-89.4141 492.889L-90.6175 494.971L-91.8021 497.069L-92.9676 499.181L-94.114 501.306L-95.2411 503.446L-96.3487 505.6L-97.4366 507.767L-98.5049 509.947L-99.5532 512.14L-100.581 514.347L-101.589 516.566L-102.577 518.798L-103.544 521.042L-104.491 523.299L-105.417 525.567L-106.322 527.847L-107.205 530.139L-108.068 532.442L-108.909 534.756L-109.729 537.081L-110.528 539.417L-111.305 541.763L-112.06 544.119L-112.793 546.486L-113.504 548.863L-114.193 551.249L-114.859 553.644L-115.503 556.049L-116.125 558.462L-116.724 560.885L-117.301 563.315L-117.854 565.755L-118.385 568.202L-118.893 570.657L-119.377 573.119L-119.839 575.589L-120.277 578.066L-120.692 580.55L-121.083 583.04L-121.451 585.537L-121.795 588.04L-122.115 590.549L-122.412 593.064L-122.685 595.584L-122.934 598.109L-123.158 600.639L-123.359 603.174L-123.535 605.713L-123.688 608.257L-123.816 610.804L-123.919 613.355L-123.998 615.91L-124.053 618.468L-124.083 621.028L-124.089 623.592L-124.07 626.158L-124.026 628.726L-123.958 631.296L-123.864 633.867L-123.746 636.441L-123.603 639.015L-123.436 641.59L-123.243 644.166L-123.026 646.742L-122.783 649.318L-122.515 651.894L-122.223 654.47L-121.905 657.045L-121.563 659.62L-121.195 662.193L-120.802 664.764L-120.384 667.334L-119.941 669.902L-119.473 672.468L-118.98 675.031L-118.461 677.591L-117.918 680.149L-117.349 682.703L-116.755 685.253L-116.137 687.8L-115.493 690.343L-114.824 692.881L-114.13 695.415L-113.411 697.943L-112.667 700.467L-111.898 702.985L-111.104 705.498L-110.285 708.005L-109.442 710.505L-108.573 712.999L-107.68 715.486L-106.762 717.966L-105.819 720.439L-104.851 722.905L-103.859 725.362L-102.842 727.812L-101.801 730.253L-100.735 732.686L-99.6449 735.11L-98.5303 737.524L-97.3915 739.93L-96.2284 742.325L-95.0413 744.711L-93.8299 747.087L-92.5946 749.452L-91.3354 751.806L-90.0523 754.15L-88.7455 756.482L-87.4149 758.803L-86.0608 761.112L-84.6832 763.41L-83.2822 765.695L-81.8577 767.967L-80.4101 770.227L-78.9395 772.474L-77.4457 774.707L-75.929 776.927L-74.3896 779.134L-72.8274 781.326L-71.2426 783.504L-69.6354 785.668L-68.0058 787.816L-66.3539 789.95L-64.68 792.069L-62.9841 794.172L-61.2663 796.259L-59.5268 798.331L-57.7657 800.386L-55.9831 802.424L-54.1793 804.446L-52.3541 806.452L-50.5081 808.44L-48.641 810.41L-46.7533 812.363L-44.8448 814.298L-42.9161 816.215L-40.9669 818.114L-38.9977 819.994L-37.0084 821.855L-34.9993 823.697L-32.9706 825.52L-30.9224 827.324L-28.8549 829.108L-26.7682 830.872L-24.6625 832.616L-22.5381 834.339L-20.3949 836.042L-18.2334 837.724L-16.0536 839.386L-13.8557 841.026L-11.6398 842.645L-9.40637 844.242L-7.15532 845.817L-4.88696 847.37L-2.60146 848.901L-0.299032 850.41L2.0201 851.896L4.3558 853.36L6.70785 854.8L9.07601 856.217L11.4601 857.611L13.8598 858.981L16.2751 860.327L18.7057 861.65L21.1513 862.948L23.6119 864.222L26.087 865.472L28.5765 866.697L31.0802 867.897L33.598 869.072L36.1294 870.222L38.6744 871.347L41.2326 872.446L43.8039 873.52L46.388 874.568L48.9847 875.59L51.5937 876.585L54.2148 877.555L56.8478 878.498L59.4925 879.414L62.1485 880.304L64.8155 881.166L67.4936 882.002L70.1822 882.811L72.8812 883.592L75.5904 884.346L78.3094 885.073L81.038 885.771L83.7761 886.442L86.5232 887.085L89.2792 887.7L92.0438 888.287L94.8166 888.846L97.5976 889.376L100.386 889.878L103.183 890.351L105.986 890.795L108.797 891.211L111.614 891.597L114.438 891.955L117.268 892.283L120.103 892.583L122.945 892.853L125.792 893.093L128.643 893.304L131.5 893.486L134.361 893.638L137.227 893.76L140.096 893.853L142.969 893.916L145.846 893.949L148.725 893.952L151.608 893.924L154.493 893.867L157.38 893.78L160.269 893.662L163.16 893.515L166.052 893.337L168.945 893.128L171.839 892.889L174.734 892.62L177.629 892.321L180.524 891.991L183.418 891.63L186.312 891.239L189.205 890.818L192.096 890.366L194.986 889.883L197.875 889.37L200.761 888.826L203.644 888.252L206.525 887.647L209.403 887.011L212.278 886.345L215.149 885.648L218.016 884.921L220.879 884.163L223.737 883.374L226.591 882.555L229.44 881.706L232.283 880.826L235.12 879.915L237.952 878.975L240.777 878.003L243.595 877.002L246.407 875.97L249.211 874.907L252.008 873.815L254.798 872.692L257.579 871.54L260.351 870.357L263.116 869.144L265.871 867.901L268.616 866.628L271.353 865.326L274.079 863.994L276.795 862.632L279.501 861.24L282.196 859.819L284.88 858.369L287.553 856.889L290.214 855.38L292.863 853.842L295.5 852.275L298.125 850.679L300.736 849.054L303.335 847.4L305.92 845.718L308.492 844.007L311.049 842.268L313.593 840.501L316.121 838.705L318.636 836.881L321.135 835.03L323.618 833.15L326.086 831.243L328.538 829.309L330.974 827.347L333.393 825.358L335.796 823.341L338.181 821.298L340.55 819.228L342.9 817.132L345.233 815.009L347.548 812.86L349.844 810.684L352.121 808.483L354.38 806.256L356.619 804.003L358.839 801.725L361.039 799.422L363.219 797.093L365.379 794.74L367.519 792.362L369.637 789.959L371.735 787.532L373.811 785.081L375.866 782.606L377.899 780.107L379.91 777.585L381.899 775.04L383.865 772.471L385.808 769.879L387.728 767.265L389.625 764.629L391.499 761.97L393.349 759.289L395.175 756.586L396.976 753.862L398.753 751.116L400.506 748.35L402.234 745.562L403.936 742.754L405.614 739.926L407.265 737.077L408.891 734.209L410.491 731.321L412.065 728.413L413.612 725.487L415.133 722.542L416.627 719.578L418.093 716.595L419.533 713.595L420.945 710.577L422.33 707.541L423.686 704.488L425.015 701.419L426.315 698.332L427.587 695.229L428.831 692.11L430.046 688.975L431.231 685.824L432.388 682.658L433.515 679.477L434.613 676.282L435.681 673.072L436.72 669.848L437.728 666.61L438.706 663.358L439.654 660.093L440.572 656.816L441.459 653.526L442.315 650.223L443.14 646.909L443.934 643.582L444.697 640.245L445.429 636.896L446.129 633.537L446.798 630.167L447.435 626.787L448.04 623.397L448.613 619.998L449.153 616.59L449.662 613.173L450.138 609.747L450.582 606.313L450.994 602.872L451.372 599.423L451.718 595.967L452.031 592.504L452.311 589.034L452.558 585.559L452.771 582.077L452.952 578.59L453.099 575.098L453.213 571.601L453.293 568.1L453.34 564.595L453.353 561.086L453.332 557.573L453.277 554.058L453.189 550.54L453.067 547.019L452.911 543.497L452.721 539.972L452.496 536.447L452.238 532.92L451.946 529.393L451.619 525.866L451.258 522.339L450.863 518.812L450.434 515.287L449.97 511.762L449.472 508.239L448.94 504.718L448.373 501.199L447.772 497.683L447.136 494.17L446.466 490.66L445.762 487.154L445.024 483.652L444.251 480.154L443.443 476.661L442.602 473.174L441.726 469.692L440.815 466.215L439.871 462.745L438.892 459.282L437.879 455.826L436.831 452.377L435.75 448.936L434.634 445.502L433.484 442.078L432.301 438.662L431.083 435.255L429.831 431.858L428.546 428.47L427.226 425.093L425.873 421.727L424.487 418.371L423.066 415.027L421.613 411.695L420.125 408.374L418.605 405.066L417.051 401.771L415.464 398.489L413.843 395.221L412.19 391.966L410.504 388.725L408.786 385.5L407.034 382.289L405.25 379.093L403.434 375.913L401.585 372.749L399.704 369.601L397.791 366.47L395.846 363.356L393.869 360.259L391.86 357.18L389.82 354.119L387.748 351.077L385.646 348.053L383.512 345.048L381.347 342.063L379.152 339.098L376.925 336.153L374.669 333.228L372.382 330.324L370.065 327.441L367.717 324.58L365.341 321.741L362.934 318.923L360.498 316.129L358.033 313.357L355.539 310.608L353.016 307.882L350.465 305.18L347.884 302.503L345.276 299.85L342.64 297.221L339.976 294.618L337.284 292.04L334.565 289.487L331.818 286.961L329.045 284.461L326.245 281.987L323.419 279.54L320.566 277.121L317.687 274.729L314.783 272.365L311.853 270.029L308.897 267.721L305.917 265.442L302.912 263.192L299.882 260.971L296.828 258.779L293.75 256.618L290.648 254.486L287.522 252.385L284.374 250.315L281.202 248.275L278.008 246.267L274.791 244.29L271.553 242.345L268.292 240.431L265.01 238.55L261.706 236.702L258.382 234.886L255.037 233.103L251.671 231.353L248.286 229.637L244.881 227.954L241.456 226.306L238.012 224.691L234.549 223.111L231.067 221.566L227.568 220.055L224.05 218.58L220.515 217.14L216.963 215.735L213.393 214.366L209.807 213.033L206.205 211.736L202.587 210.476L198.953 209.252L195.304 208.065L191.64 206.915L187.961 205.802L184.268 204.726L180.561 203.688L176.84 202.687L173.107 201.724L169.36 200.8L165.601 199.913L161.83 199.065L158.046 198.255L154.252 197.485L150.446 196.752L146.63 196.059L142.803 195.405L138.966 194.791L135.12 194.216L131.264 193.68L127.399 193.184L123.526 192.728L119.645 192.312L115.756 191.936L111.86 191.6L107.956 191.304L104.046 191.049L100.13 190.835L96.2077 190.661L92.28 190.527L88.3473 190.435L84.4098 190.384L80.468 190.373L76.5223 190.404L72.5731 190.475L68.6207 190.588L64.6655 190.743L60.708 190.938L56.7485 191.175L52.7875 191.454L48.8252 191.774L44.8623 192.136L40.8989 192.54L36.9356 192.985L32.9727 193.472L29.0106 194L25.0497 194.571L21.0905 195.183L17.1333 195.837L13.1786 196.533L9.22673 197.271L5.27809 198.051L1.33312 198.872L-2.6078 199.736L-6.54424 200.641L-10.4758 201.588L-14.4021 202.578L-18.3227 203.609L-22.2371 204.681L-26.1451 205.796L-30.0462 206.953L-33.9399 208.151L-37.826 209.391L-41.7038 210.672L-45.5731 211.995L-49.4335 213.36L-53.2845 214.766L-57.1257 216.214L-60.9568 217.703L-64.7772 219.234L-68.5866 220.805L-72.3847 222.418L-76.1709 224.072L-79.9449 225.767L-83.7063 227.503L-87.4547 229.28L-91.1896 231.097L-94.9107 232.955L-98.6176 234.854L-102.31 236.793L-105.987 238.772L-109.649 240.792L-113.295 242.851L-116.924 244.951L-120.537 247.09L-124.133 249.269L-127.711 251.488L-131.272 253.745L-134.814 256.042L-138.338 258.379L-141.843 260.754L-145.328 263.167L-148.794 265.62L-152.239 268.11L-155.664 270.639L-159.067 273.206L-162.45 275.811L-165.81 278.454L-169.149 281.134L-172.465 283.851L-175.758 286.606L-179.028 289.397L-182.274 292.225L-185.496 295.09L-188.693 297.99L-191.866 300.927L-195.014 303.9L-198.136 306.908L-201.233 309.952L-204.303 313.03L-207.347 316.144L-210.363 319.292L-213.352 322.475L-216.314 325.691L-219.248 328.942L-222.153 332.226L-225.029 335.543L-227.876 338.894L-230.694 342.277L-233.482 345.693L-236.24 349.141L-238.968 352.621L-241.665 356.133L-244.33 359.676L-246.965 363.25L-249.567 366.855L-252.137 370.491L-254.675 374.156L-257.18 377.852L-259.652 381.577L-262.091 385.331L-264.495 389.115L-266.866 392.926L-269.203 396.766L-271.505 400.634L-273.771 404.53L-276.003 408.453L-278.199 412.402L-280.36 416.379L-282.484 420.381L-284.572 424.41L-286.623 428.464L-288.637 432.543L-290.614 436.647L-292.553 440.775L-294.455 444.927L-296.318 449.103L-298.143 453.302" stroke="#9B9CA0" stroke-opacity="0.2" stroke-width="10" stroke-linecap="round"/>
</svg>
