<svg width="26" height="28" viewBox="0 0 26 28" fill="none" xmlns="http://www.w3.org/2000/svg">
<path d="M17.7869 11.8844L17.7895 11.8581L17.7918 11.8317L17.7938 11.8053L17.7955 11.7789L17.7969 11.7524L17.7981 11.7259L17.799 11.6993L17.7996 11.6728L17.7999 11.6461L17.7999 11.6195L17.7996 11.5928L17.799 11.5661L17.7982 11.5394L17.797 11.5127L17.7956 11.4859L17.7939 11.4592L17.7919 11.4324L17.7896 11.4056L17.787 11.3789L17.7841 11.3521L17.7809 11.3253L17.7774 11.2985L17.7737 11.2718L17.7696 11.245L17.7653 11.2183L17.7606 11.1915L17.7557 11.1648L17.7505 11.1381L17.7449 11.1115L17.7391 11.0848L17.733 11.0582L17.7266 11.0316L17.7199 11.0051L17.7129 10.9786L17.7056 10.9521L17.6981 10.9257L17.6902 10.8993L17.6821 10.8729L17.6736 10.8467L17.6649 10.8204L17.6558 10.7943L17.6465 10.7682L17.6369 10.7421L17.627 10.7161L17.6168 10.6902L17.6063 10.6643L17.5955 10.6386L17.5845 10.6129L17.5731 10.5872L17.5615 10.5617L17.5495 10.5362L17.5373 10.5109L17.5248 10.4856L17.512 10.4604L17.499 10.4353L17.4856 10.4103L17.472 10.3854L17.4581 10.3606L17.4439 10.3359L17.4294 10.3113L17.4146 10.2869L17.3996 10.2625L17.3843 10.2383L17.3687 10.2142L17.3528 10.1902L17.3367 10.1663L17.3203 10.1425L17.3036 10.1189L17.2866 10.0955L17.2694 10.0721L17.2519 10.0489L17.2342 10.0258L17.2161 10.0029L17.1978 9.98012L17.1793 9.95748L17.1605 9.935L17.1414 9.91267L17.122 9.8905L17.1025 9.86849L17.0826 9.84663L17.0625 9.82494L17.0421 9.80342L17.0215 9.78207L17.0007 9.76088L16.9795 9.73987L16.9582 9.71904L16.9366 9.69838L16.9147 9.67791L16.8926 9.65762L16.8703 9.63751L16.8477 9.6176L16.8249 9.59787L16.8019 9.57834L16.7786 9.559L16.7551 9.53986L16.7314 9.52092L16.7074 9.50218L16.6832 9.48364L16.6588 9.46532L16.6342 9.4472L16.6093 9.4293L16.5843 9.4116L16.559 9.39413L16.5335 9.37687L16.5078 9.35983L16.4819 9.34302L16.4558 9.32642L16.4294 9.31006L16.4029 9.29393L16.3762 9.27802L16.3493 9.26235L16.3221 9.24691L16.2948 9.23171L16.2673 9.21675L16.2396 9.20204L16.2118 9.18756L16.1837 9.17333L16.1555 9.15935L16.127 9.14561L16.0984 9.13212L16.0697 9.11889L16.0407 9.10591L16.0116 9.09319L15.9824 9.08073L15.9529 9.06853L15.9233 9.05658L15.8936 9.0449L15.8637 9.03349L15.8336 9.02234L15.8034 9.01147L15.7731 9.00086L15.7426 8.99052L15.712 8.98046L15.6812 8.97067L15.6503 8.96115L15.6192 8.95192L15.5881 8.94296L15.5568 8.93429L15.5253 8.92589L15.4938 8.91779L15.4621 8.90996L15.4304 8.90242L15.3985 8.89517L15.3665 8.88821L15.3344 8.88154L15.3022 8.87516L15.2699 8.86908L15.2375 8.86328L15.205 8.85779L15.1724 8.85258L15.1397 8.84768L15.107 8.84308L15.0741 8.83877L15.0412 8.83477L15.0082 8.83106L14.9752 8.82766L14.942 8.82457L14.9089 8.82177L14.8756 8.81929L14.8423 8.8171L14.8089 8.81523L14.7755 8.81366L14.742 8.81241L14.7085 8.81146L14.6749 8.81082L14.6413 8.81049L14.6077 8.81048L14.574 8.81077L14.5404 8.81138L14.5066 8.8123L14.4729 8.81354L14.4391 8.81509L14.4053 8.81695L14.3716 8.81913L14.3378 8.82163L14.304 8.82444L14.2701 8.82757L14.2363 8.83101L14.2025 8.83477L14.1687 8.83885L14.135 8.84325L14.1012 8.84796L14.0675 8.85299L14.0337 8.85834L14 8.86401L13.9664 8.86999L13.9327 8.8763L13.8991 8.88292L13.8656 8.88986L13.832 8.89711L13.7986 8.90469L13.7651 8.91258L13.7318 8.92079L13.6985 8.92932L13.6652 8.93816L13.632 8.94732L13.5989 8.9568L13.5658 8.9666L13.5329 8.97671L13.5 8.98713L13.4671 8.99787L13.4344 9.00893L13.4018 9.0203L13.3692 9.03198L13.3367 9.04398L13.3044 9.05629L13.2721 9.06891L13.24 9.08184L13.2079 9.09508L13.176 9.10864L13.1442 9.1225L13.1125 9.13667L13.0809 9.15114L13.0495 9.16593L13.0181 9.18102L12.9869 9.19641L12.9559 9.21211L12.925 9.22811L12.8942 9.24441L12.8636 9.26102L12.8331 9.27792L12.8028 9.29513L12.7726 9.31263L12.7426 9.33042L12.7128 9.34851L12.6831 9.3669L12.6536 9.38558L12.6243 9.40455L12.5952 9.42381L12.5662 9.44336L12.5374 9.46319L12.5088 9.48331L12.4804 9.50372L12.4522 9.52441L12.4242 9.54537L12.3963 9.56662L12.3687 9.58815L12.3413 9.60996L12.3141 9.63204L12.2871 9.65439L12.2603 9.67701L12.2338 9.69991L12.2074 9.72307L12.1813 9.7465L12.1555 9.77019L12.1298 9.79414L12.1044 9.81836L12.0792 9.84283L12.0543 9.86756L12.0296 9.89255L12.0051 9.91779L11.9809 9.94327L11.957 9.96901L11.9333 9.99499L11.9099 10.0212L11.8867 10.0477L11.8638 10.0744L11.8411 10.1014L11.8187 10.1285L11.7966 10.156L11.7748 10.1836L11.7533 10.2115L11.732 10.2396L11.711 10.2679L11.6903 10.2965L11.6699 10.3252L11.6498 10.3542L11.6299 10.3834L11.6104 10.4128L11.5912 10.4424L11.5722 10.4723L11.5536 10.5023L11.5353 10.5325L11.5173 10.5629L11.4996 10.5936L11.4822 10.6244L11.4651 10.6554L11.4484 10.6866L11.4319 10.718L11.4158 10.7495L11.4001 10.7813L11.3846 10.8132L11.3695 10.8453L11.3547 10.8775L11.3402 10.91L11.3261 10.9426L11.3123 10.9753L11.2989 11.0082L11.2858 11.0413L11.273 11.0745L11.2606 11.1079L11.2485 11.1414L11.2368 11.1751L11.2255 11.2089L11.2145 11.2428L11.2038 11.2769L11.1935 11.3111L11.1836 11.3454L11.174 11.3799L11.1648 11.4145L11.156 11.4492L11.1475 11.484L11.1394 11.5189L11.1317 11.5539L11.1243 11.5891L11.1173 11.6243L11.1107 11.6597L11.1044 11.6951L11.0986 11.7306L11.0931 11.7662L11.0879 11.8019L11.0832 11.8377L11.0789 11.8735L11.0749 11.9095L11.0713 11.9455L11.0681 11.9815L11.0653 12.0177L11.0629 12.0539L11.0608 12.0901L11.0592 12.1264L11.0579 12.1628L11.0571 12.1991L11.0566 12.2356L11.0565 12.2721L11.0568 12.3086L11.0576 12.3451L11.0587 12.3817L11.0602 12.4183L11.0621 12.4549L11.0644 12.4915L11.067 12.5282L11.0701 12.5648L11.0736 12.6015L11.0775 12.6382L11.0818 12.6748L11.0865 12.7115L11.0916 12.7481L11.0971 12.7848L11.103 12.8214L11.1093 12.858L11.1159 12.8946L11.123 12.9311L11.1305 12.9676L11.1384 13.0041L11.1467 13.0405L11.1554 13.0769L11.1645 13.1133L11.174 13.1496L11.1839 13.1858L11.1942 13.222L11.2049 13.2582L11.2161 13.2942L11.2276 13.3302L11.2395 13.3662L11.2518 13.402L11.2645 13.4378L11.2776 13.4734L11.2911 13.509L11.305 13.5445L11.3193 13.5799L11.334 13.6153L11.349 13.6505L11.3645 13.6856L11.3804 13.7205L11.3967 13.7554L11.4133 13.7902L11.4304 13.8248L11.4478 13.8593L11.4656 13.8937L11.4839 13.9279L11.5025 13.962L11.5215 13.996L11.5408 14.0298L11.5606 14.0635L11.5807 14.097L11.6013 14.1304L11.6222 14.1636L11.6435 14.1967L11.6651 14.2295L11.6872 14.2623L11.7096 14.2948L11.7323 14.3272L11.7555 14.3593L11.779 14.3913L11.8029 14.4231L11.8272 14.4548L11.8518 14.4862L11.8768 14.5174L11.9021 14.5484L11.9278 14.5792L11.9539 14.6098L11.9803 14.6402L12.0071 14.6704L12.0342 14.7004L12.0617 14.7301L12.0895 14.7596L12.1177 14.7889L12.1462 14.8179L12.175 14.8467L12.2042 14.8753L12.2338 14.9036L12.2636 14.9317L12.2938 14.9595L12.3243 14.987L12.3552 15.0144L12.3863 15.0414L12.4178 15.0682L12.4497 15.0947L12.4818 15.121L12.5142 15.1469L12.547 15.1726L12.5801 15.1981L12.6134 15.2232L12.6471 15.248L12.6811 15.2726L12.7153 15.2969L12.7499 15.3208L12.7848 15.3445L12.8199 15.3679L12.8554 15.391L12.8911 15.4137L12.9271 15.4362L12.9633 15.4583L12.9999 15.4802L13.0367 15.5017L13.0738 15.5228L13.1112 15.5437L13.1488 15.5642L13.1866 15.5844L13.2248 15.6043L13.2631 15.6239L13.3018 15.6431L13.3406 15.6619L13.3797 15.6804L13.4191 15.6986L13.4587 15.7164L13.4985 15.7339L13.5385 15.751L13.5788 15.7678L13.6192 15.7842L13.6599 15.8002L13.7008 15.8159L13.742 15.8312L13.7833 15.8462L13.8248 15.8608L13.8665 15.875L13.9084 15.8888L13.9505 15.9023L13.9928 15.9154L14.0353 15.9281L14.0779 15.9404L14.1208 15.9523L14.1638 15.9639L14.2069 15.9751L14.2502 15.9858L14.2937 15.9962L14.3373 16.0062L14.3811 16.0158L14.4251 16.025L14.4691 16.0338L14.5133 16.0422L14.5577 16.0502L14.6021 16.0578L14.6467 16.065L14.6914 16.0717L14.7363 16.0781L14.7812 16.0841L14.8262 16.0896L14.8714 16.0948L14.9166 16.0995L14.962 16.1038L15.0074 16.1077L15.0529 16.1111L15.0985 16.1142L15.1442 16.1168L15.19 16.119L15.2358 16.1208L15.2817 16.1222L15.3276 16.1231L15.3736 16.1237L15.4196 16.1237L15.4657 16.1234L15.5118 16.1226L15.558 16.1214L15.6042 16.1198L15.6504 16.1178L15.6967 16.1153L15.7429 16.1124L15.7892 16.109L15.8355 16.1052L15.8818 16.101L15.928 16.0964L15.9743 16.0913L16.0206 16.0858L16.0668 16.0798L16.1131 16.0735L16.1593 16.0666L16.2054 16.0594L16.2516 16.0517L16.2977 16.0436L16.3438 16.035L16.3898 16.026L16.4357 16.0166L16.4816 16.0067L16.5275 15.9964L16.5732 15.9857L16.6189 15.9745L16.6646 15.9629L16.7101 15.9509L16.7556 15.9384L16.8009 15.9255L16.8462 15.9121L16.8914 15.8984L16.9364 15.8842L16.9814 15.8695L17.0262 15.8545L17.0709 15.839L17.1155 15.823L17.16 15.8067L17.2043 15.7899L17.2485 15.7727L17.2925 15.755L17.3364 15.737L17.3802 15.7185L17.4238 15.6996L17.4672 15.6802L17.5105 15.6605L17.5535 15.6403L17.5964 15.6197L17.6392 15.5987L17.6817 15.5773L17.7241 15.5554L17.7662 15.5332L17.8082 15.5105L17.8499 15.4874L17.8915 15.464L17.9328 15.4401L17.9739 15.4158L18.0148 15.3911L18.0555 15.3659L18.0959 15.3404L18.1361 15.3145L18.176 15.2882L18.2157 15.2615L18.2552 15.2344L18.2944 15.2069L18.3333 15.1791L18.372 15.1508L18.4104 15.1222L18.4485 15.0931L18.4864 15.0637L18.524 15.0339L18.5612 15.0038L18.5982 14.9732L18.6349 14.9423L18.6714 14.911L18.7075 14.8794L18.7433 14.8473L18.7787 14.815L18.8139 14.7822L18.8488 14.7491L18.8833 14.7157L18.9175 14.6819L18.9513 14.6477L18.9849 14.6132L19.0181 14.5784L19.0509 14.5432L19.0834 14.5077L19.1155 14.4718L19.1473 14.4356L19.1787 14.3991L19.2098 14.3623L19.2405 14.3251L19.2708 14.2876L19.3008 14.2498L19.3303 14.2117L19.3595 14.1733L19.3883 14.1345L19.4167 14.0955L19.4447 14.0562L19.4723 14.0165L19.4995 13.9766L19.5264 13.9364L19.5528 13.8959L19.5787 13.8551L19.6043 13.814L19.6295 13.7727L19.6542 13.7311L19.6785 13.6892L19.7024 13.647L19.7258 13.6046L19.7488 13.5619L19.7714 13.519L19.7935 13.4758L19.8152 13.4324L19.8364 13.3888L19.8572 13.3449L19.8775 13.3007L19.8974 13.2564L19.9168 13.2118L19.9357 13.167L19.9542 13.1219L19.9722 13.0767L19.9898 13.0312L20.0068 12.9856L20.0234 12.9397L20.0395 12.8937L20.0552 12.8474L20.0703 12.801L20.085 12.7544L20.0991 12.7076L20.1128 12.6606L20.126 12.6134L20.1387 12.5661L20.1509 12.5186L20.1625 12.471L20.1737 12.4232L20.1844 12.3753L20.1946 12.3272L20.2042 12.279L20.2134 12.2306L20.222 12.1821L20.2301 12.1335L20.2377 12.0848L20.2448 12.0359L20.2514 11.9869L20.2574 11.9379L20.2629 11.8887L20.2679 11.8394L20.2724 11.7901L20.2763 11.7406L20.2797 11.6911L20.2826 11.6415L20.2849 11.5918L20.2867 11.542L20.288 11.4922L20.2887 11.4423L20.2889 11.3924L20.2886 11.3424L20.2877 11.2924L20.2863 11.2423L20.2843 11.1922L20.2818 11.1421L20.2787 11.0919L20.2751 11.0418L20.271 10.9916L20.2663 10.9414L20.2611 10.8912L20.2553 10.841L20.2489 10.7908L20.2421 10.7406L20.2346 10.6905L20.2267 10.6403L20.2181 10.5902L20.2091 10.5401L20.1994 10.4901L20.1893 10.4401L20.1785 10.3901L20.1673 10.3402L20.1554 10.2904L20.1431 10.2406L20.1301 10.1909L20.1167 10.1413L20.1027 10.0917L20.0881 10.0422L20.073 9.99283L20.0573 9.94353L20.0411 9.89433L20.0243 9.84524L20.007 9.79625L19.9892 9.74738L19.9708 9.69863L19.9518 9.65L19.9323 9.60151L19.9123 9.55315L19.8918 9.50492L19.8706 9.45685L19.849 9.40892L19.8268 9.36115L19.8041 9.31354L19.7808 9.2661L19.757 9.21883L19.7327 9.17173L19.7079 9.12481L19.6825 9.07809L19.6565 9.03155L19.6301 8.98521L19.6031 8.93907L19.5756 8.89314L19.5476 8.84742L19.5191 8.80191L19.49 8.75663L19.4604 8.71158L19.4304 8.66675L19.3998 8.62216L19.3686 8.57782L19.337 8.53372L19.3049 8.48988L19.2723 8.44629L19.2391 8.40296L19.2055 8.3599L19.1714 8.31711L19.1367 8.2746L19.1016 8.23237L19.066 8.19042L19.0299 8.14877L18.9934 8.10741L18.9563 8.06635L18.9188 8.02559L18.8807 7.98515L18.8423 7.94502L18.8033 7.90521L18.7639 7.86572L18.724 7.82657L18.6836 7.78774L18.6428 7.74925L18.6016 7.71111L18.5598 7.67331L18.5177 7.63586L18.4751 7.59877L18.432 7.56204L18.3885 7.52568L18.3446 7.48968L18.3003 7.45406L18.2555 7.41882L18.2103 7.38395L18.1647 7.34948L18.1186 7.31539L18.0722 7.2817L18.0253 7.24841L17.9781 7.21552L17.9304 7.18304L17.8823 7.15097L17.8339 7.11932L17.785 7.08809L17.7358 7.05728L17.6862 7.0269L17.6362 6.99695L17.5859 6.96743L17.5352 6.93835L17.4841 6.90972L17.4326 6.88154L17.3809 6.8538L17.3287 6.82652L17.2762 6.7997L17.2234 6.77334L17.1702 6.74744L17.1167 6.72202L17.0629 6.69706L17.0088 6.67258L16.9543 6.64859L16.8996 6.62507L16.8445 6.60204L16.7891 6.5795L16.7335 6.55745L16.6775 6.53589L16.6212 6.51484L16.5647 6.49429L16.5079 6.47424L16.4508 6.4547L16.3935 6.43567L16.3359 6.41716L16.278 6.39916L16.2199 6.38169L16.1616 6.36473L16.103 6.3483L16.0442 6.3324L15.9851 6.31703L15.9258 6.3022L15.8663 6.2879L15.8066 6.27413L15.7467 6.26091L15.6866 6.24824L15.6263 6.2361L15.5658 6.22452L15.5052 6.21349L15.4443 6.203L15.3833 6.19308L15.3221 6.18371L15.2607 6.1749L15.1992 6.16665L15.1376 6.15896L15.0758 6.15184L15.0139 6.14529L14.9518 6.1393L14.8896 6.13388L14.8273 6.12903L14.7649 6.12476L14.7024 6.12107L14.6398 6.11795L14.5771 6.11541L14.5143 6.11344L14.4514 6.11206L14.3884 6.11126L14.3254 6.11105L14.2623 6.11142L14.1992 6.11237L14.136 6.11391L14.0727 6.11604L14.0095 6.11876L13.9462 6.12207L13.8828 6.12596L13.8195 6.13045L13.7561 6.13553L13.6928 6.14121L13.6294 6.14747L13.566 6.15434L13.5027 6.16179L13.4393 6.16984L13.376 6.17849L13.3128 6.18773L13.2496 6.19756L13.1864 6.208L13.1232 6.21902L13.0602 6.23065L12.9972 6.24287L12.9342 6.25569L12.8714 6.2691L12.8086 6.28311L12.7459 6.29771L12.6833 6.31291L12.6208 6.32871L12.5585 6.3451L12.4962 6.36208L12.4341 6.37966L12.3721 6.39783L12.3102 6.41659L12.2485 6.43595L12.187 6.45589L12.1255 6.47643L12.0643 6.49755L12.0032 6.51927L11.9423 6.54157L11.8816 6.56445L11.8211 6.58792L11.7607 6.61198L11.7006 6.63662L11.6407 6.66184L11.581 6.68763L11.5215 6.71401L11.4622 6.74096L11.4032 6.76849L11.3444 6.7966L11.2859 6.82527L11.2276 6.85451L11.1696 6.88433L11.1118 6.91471L11.0543 6.94565L10.9971 6.97716L10.9402 7.00923L10.8836 7.04185L10.8272 7.07503L10.7712 7.10877L10.7155 7.14306L10.6601 7.17789L10.605 7.21328L10.5503 7.24921L10.4958 7.28568L10.4418 7.32269L10.3881 7.36023L10.3347 7.39831L10.2817 7.43692L10.229 7.47606L10.1768 7.51573L10.1249 7.55591L10.0734 7.59662L10.0223 7.63784L9.97153 7.67958L9.92122 7.72182L9.87131 7.76458L9.82181 7.80783L9.77274 7.85159L9.72408 7.89584L9.67587 7.94058L9.62808 7.98582L9.58074 8.03154L9.53385 8.07775L9.48742 8.12443L9.44144 8.17158L9.39593 8.21921L9.35089 8.26731L9.30632 8.31587L9.26224 8.36488L9.21864 8.41436L9.17554 8.46428L9.13293 8.51465L9.09083 8.56547L9.04923 8.61672L9.00815 8.66841L8.96759 8.72053L8.92756 8.77307L8.88805 8.82603L8.84907 8.87941L8.81064 8.93321L8.77274 8.98741L8.7354 9.04201L8.69861 9.09701L8.66238 9.1524L8.62672 9.20818L8.59162 9.26435L8.5571 9.32089L8.52315 9.37781L8.48978 9.4351L8.457 9.49275L8.42482 9.55076L8.39322 9.60912L8.36223 9.66783L8.33185 9.72688L8.30207 9.78628L8.2729 9.846L8.24435 9.90605L8.21642 9.96642L8.18912 10.0271L8.16245 10.0881L8.13641 10.1494L8.111 10.211L8.08624 10.2729L8.06212 10.3351L8.03865 10.3976L8.01584 10.4603L7.99368 10.5233L7.97217 10.5866L7.95134 10.6501L7.93116 10.7139L7.91166 10.778L7.89283 10.8423L7.87467 10.9068L7.8572 10.9715L7.84041 11.0365L7.8243 11.1017L7.80888 11.1671L7.79415 11.2327L7.78012 11.2985L7.76678 11.3645L7.75415 11.4306L7.74222 11.497L7.73099 11.5635L7.72047 11.6302L7.71066 11.6971L7.70156 11.7641L7.69318 11.8313L7.68551 11.8986L7.67857 11.966L7.67234 12.0336L7.66684 12.1013L7.66207 12.1691L7.65802 12.237L7.6547 12.305L7.65211 12.3731L7.65026 12.4413L7.64914 12.5096L7.64876 12.5779L7.64911 12.6463L7.65021 12.7148L7.65204 12.7833L7.65462 12.8519L7.65794 12.9205L7.662 12.9892L7.66681 13.0579L7.67237 13.1266L7.67867 13.1953L7.68572 13.264L7.69352 13.3328L7.70207 13.4015L7.71137 13.4702L7.72142 13.5389L7.73222 13.6075L7.74378 13.6761L7.75608 13.7447L7.76914 13.8132L7.78295 13.8817L7.79751 13.9501L7.81283 14.0184L7.82889 14.0867L7.84572 14.1549L7.86329 14.2229L7.88161 14.2909L7.90069 14.3588L7.92052 14.4265L7.9411 14.4942L7.96242 14.5617L7.9845 14.6291L8.00733 14.6963L8.0309 14.7634L8.05523 14.8303L8.08029 14.8971L8.10611 14.9637L8.13266 15.0301L8.15996 15.0964L8.18801 15.1624L8.21679 15.2283L8.24631 15.2939L8.27656 15.3594L8.30756 15.4246L8.33928 15.4896L8.37174 15.5544L8.40493 15.6189L8.43885 15.6831L8.47349 15.7472L8.50886 15.8109L8.54496 15.8744L8.58177 15.9376L8.6193 16.0006L8.65754 16.0632L8.6965 16.1255L8.73617 16.1876L8.77654 16.2493L8.81763 16.3107L8.85941 16.3718L8.9019 16.4326L8.94508 16.493L8.98895 16.5531L9.03352 16.6128L9.07877 16.6722L9.12471 16.7312L9.17133 16.7899L9.21863 16.8481L9.2666 16.906L9.31524 16.9635L9.36455 17.0206L9.41452 17.0773L9.46516 17.1336L9.51645 17.1894L9.56839 17.2449L9.62098 17.2999L9.67422 17.3545L9.72809 17.4086L9.78261 17.4623L9.83775 17.5155L9.89352 17.5683L9.94992 17.6206L10.0069 17.6724L10.0646 17.7238L10.1228 17.7746L10.1816 17.825L10.2411 17.8748L10.3011 17.9242L10.3617 17.9731L10.423 18.0214L10.4848 18.0692L10.5471 18.1165L10.6101 18.1633L10.6736 18.2095L10.7376 18.2551L10.8023 18.3002L10.8674 18.3448L10.9331 18.3888L10.9994 18.4322L11.0662 18.4751L11.1335 18.5174L11.2013 18.559L11.2697 18.6001L11.3385 18.6407L11.4079 18.6806L11.4777 18.7199L11.5481 18.7585L11.6189 18.7966L11.6902 18.8341L11.762 18.8709L11.8343 18.9071L11.907 18.9426L11.9801 18.9775L12.0537 19.0118L12.1278 19.0454L12.2023 19.0784L12.2772 19.1107L12.3525 19.1423L12.4283 19.1733L12.5044 19.2036L12.581 19.2332L12.6579 19.2621L12.7353 19.2904L12.813 19.318L12.8911 19.3448L12.9695 19.371L13.0483 19.3964L13.1275 19.4212L13.207 19.4452L13.2868 19.4686L13.367 19.4912L13.4475 19.513L13.5283 19.5342L13.6094 19.5546L13.6908 19.5743L13.7725 19.5933L13.8544 19.6115L13.9367 19.629L14.0192 19.6457L14.102 19.6617L14.185 19.6769L14.2683 19.6914L14.3518 19.7051L14.4355 19.7181L14.5195 19.7302L14.6037 19.7417L14.688 19.7523L14.7726 19.7622L14.8574 19.7713L14.9423 19.7796L15.0274 19.7871L15.1127 19.7939L15.1981 19.7999L15.2837 19.8051L15.3694 19.8095L15.4552 19.8131L15.5412 19.8159L15.6273 19.8179L15.7134 19.8191L15.7997 19.8195L15.8861 19.8192L15.9725 19.818L16.059 19.816L16.1456 19.8132L16.2322 19.8096L16.3189 19.8052L16.4056 19.8L16.4923 19.794L16.5791 19.7872L16.6658 19.7795L16.7526 19.7711L16.8393 19.7618L16.9261 19.7517L17.0128 19.7408L17.0994 19.7291L17.1861 19.7166L17.2726 19.7033L17.3592 19.6891L17.4456 19.6742L17.532 19.6584L17.6183 19.6418L17.7044 19.6243L17.7905 19.6061L17.8765 19.5871L17.9623 19.5672L18.048 19.5465L18.1336 19.525L18.219 19.5027L18.3042 19.4796L18.3893 19.4557L18.4742 19.4309L18.559 19.4053L18.6435 19.379L18.7278 19.3518L18.8119 19.3238L18.8958 19.295L18.9795 19.2654L19.0629 19.235L19.1461 19.2038L19.229 19.1718L19.3116 19.139L19.394 19.1054L19.4761 19.071L19.5579 19.0358L19.6394 18.9998L19.7206 18.963L19.8015 18.9255L19.882 18.8871L19.9622 18.848L20.042 18.8081L20.1215 18.7674L20.2007 18.7259L20.2794 18.6837L20.3578 18.6406L20.4358 18.5969L20.5134 18.5523L20.5906 18.507L20.6674 18.4609L20.7437 18.4141L20.8196 18.3665L20.8951 18.3182L20.9702 18.2691L21.0447 18.2193L21.1188 18.1688L21.1924 18.1175L21.2656 18.0655L21.3382 18.0127L21.4104 17.9593L21.482 17.9051L21.5532 17.8502L21.6238 17.7945L21.6938 17.7382L21.7634 17.6812L21.8323 17.6235L21.9008 17.565L21.9686 17.5059L22.0359 17.4461L22.1026 17.3856L22.1687 17.3245L22.2342 17.2627L22.2991 17.2002L22.3634 17.137L22.4271 17.0732L22.4902 17.0088L22.5526 16.9437L22.6143 16.8779L22.6755 16.8115L22.7359 16.7445L22.7957 16.6769L22.8548 16.6086L22.9133 16.5398L22.971 16.4703L23.0281 16.4002L23.0844 16.3295L23.1401 16.2583L23.195 16.1864L23.2492 16.114L23.3027 16.041L23.3555 15.9675L23.4074 15.8933L23.4587 15.8187L23.5092 15.7435L23.5589 15.6677L23.6079 15.5914L23.656 15.5146L23.7034 15.4373L23.75 15.3594L23.7958 15.2811L23.8408 15.2022L23.885 15.1229L23.9284 15.043L23.971 14.9627L24.0127 14.882L24.0536 14.8007L24.0937 14.719L24.1329 14.6369L24.1713 14.5543L24.2088 14.4713L24.2455 14.3878L24.2813 14.304L24.3162 14.2197L24.3502 14.135L24.3834 14.0499L24.4156 13.9645L24.447 13.8786L24.4775 13.7924L24.5071 13.7058L24.5358 13.6189L24.5635 13.5316L24.5904 13.444L24.6163 13.356L24.6413 13.2678L24.6654 13.1792L24.6885 13.0903L24.7107 13.0011L24.732 12.9116L24.7523 12.8218L24.7717 12.7317L24.7901 12.6414L24.8075 12.5509L24.824 12.4601L24.8396 12.369L24.8541 12.2777L24.8677 12.1862L24.8803 12.0945L24.8919 12.0026L24.9026 11.9105L24.9123 11.8182L24.9209 11.7257L24.9286 11.6331L24.9353 11.5402L24.941 11.4473L24.9457 11.3542L24.9494 11.261L24.9521 11.1676L24.9538 11.0742L24.9545 10.9806L24.9542 10.8869L24.9528 10.7932L24.9505 10.6994L24.9471 10.6055L24.9427 10.5116L24.9373 10.4176L24.9309 10.3235L24.9235 10.2295L24.915 10.1354L24.9055 10.0413L24.895 9.94721L24.8835 9.85313L24.8709 9.75907L24.8573 9.66503L24.8427 9.57103L24.827 9.47708L24.8103 9.38319L24.7926 9.28936L24.7739 9.19561L24.7541 9.10194L24.7333 9.00837L24.7115 8.9149L24.6886 8.82155L24.6647 8.72832L24.6398 8.63523L24.6138 8.54228L24.5868 8.44948L24.5588 8.35684L24.5298 8.26438L24.4997 8.1721L24.4686 8.08001L24.4365 7.98812L24.4034 7.89645L24.3692 7.80499L24.3341 7.71377L24.2979 7.62278L24.2606 7.53205L24.2224 7.44158L24.1832 7.35137L24.1429 7.26144L24.1016 7.17181L24.0594 7.08247L24.0161 6.99344L23.9718 6.90472L23.9265 6.81634L23.8803 6.72829L23.833 6.64058L23.7847 6.55324L23.7355 6.46626L23.6852 6.37965L23.634 6.29343L23.5818 6.2076L23.5286 6.12217L23.4745 6.03716L23.4193 5.95257L23.3632 5.86841L23.3062 5.7847L23.2482 5.70143L23.1892 5.61862L23.1293 5.53628L23.0684 5.45442L23.0066 5.37305L22.9439 5.29218L22.8802 5.2118L22.8156 5.13195L22.75 5.05262L22.6836 4.97382L22.6162 4.89557L22.548 4.81786L22.4788 4.74072L22.4087 4.66414L22.3377 4.58815L22.2659 4.51274L22.1931 4.43792L22.1195 4.36371L22.045 4.29012L21.9696 4.21714L21.8934 4.1448L21.8163 4.07309L21.7384 4.00203L21.6597 3.93163L21.58 3.86189L21.4996 3.79283L21.4184 3.72444L21.3363 3.65675L21.2534 3.58975L21.1697 3.52346L21.0853 3.45788L21 3.39303L20.9139 3.3289L20.8271 3.26551L20.7395 3.20287L20.6512 3.14098L20.5621 3.07986L20.4722 3.0195L20.3816 2.95992L20.2903 2.90112L20.1983 2.84312L20.1055 2.78591L20.0121 2.72951L19.9179 2.67392L19.8231 2.61916L19.7275 2.56523L19.6313 2.51213L19.5344 2.45987L19.4369 2.40846L19.3387 2.35791L19.2399 2.30822L19.1405 2.2594L19.0404 2.21146L18.9397 2.1644L18.8384 2.11824L18.7365 2.07296L18.6341 2.02859L18.531 1.98513L18.4274 1.94259L18.3232 1.90096L18.2185 1.86026L18.1132 1.8205L18.0074 1.78168L17.9011 1.7438L17.7943 1.70687L17.687 1.6709L17.5792 1.63589L17.4709 1.60184L17.3621 1.56877L17.2529 1.53668L17.1432 1.50557L17.0331 1.47545L16.9225 1.44632L16.8115 1.41819L16.7001 1.39106L16.5884 1.36495L16.4762 1.33984L16.3636 1.31575L16.2507 1.29268L16.1374 1.27064L16.0238 1.24963L15.9099 1.22966L15.7956 1.21072L15.681 1.19282L15.5661 1.17597L15.4509 1.16017L15.3354 1.14543L15.2197 1.13174L15.1037 1.11912L14.9874 1.10755L14.8709 1.09706L14.7542 1.08764L14.6373 1.07929L14.5202 1.07201L14.4028 1.06582L14.2853 1.06071L14.1677 1.05669L14.0499 1.05375L13.9319 1.0519L13.8138 1.05115L13.6956 1.05149L13.5773 1.05293L13.4588 1.05547L13.3403 1.05911L13.2217 1.06385L13.1031 1.0697L12.9844 1.07665L12.8656 1.08471L12.7469 1.09388L12.6281 1.10417L12.5093 1.11556L12.3906 1.12807L12.2718 1.14168L12.1531 1.15642L12.0344 1.17227L11.9158 1.18923L11.7973 1.20732L11.6788 1.22652L11.5604 1.24683L11.4422 1.26827L11.324 1.29082L11.206 1.31449L11.0881 1.33927L10.9704 1.36518L10.8529 1.3922L10.7355 1.42034L10.6183 1.44959L10.5013 1.47995L10.3846 1.51143L10.268 1.54403L10.1518 1.57773L10.0357 1.61255L9.91994 1.64848L9.80445 1.68551L9.68924 1.72365L9.57434 1.7629L9.45974 1.80324L9.34548 1.8447L9.23155 1.88725L9.11797 1.93089L9.00476 1.97563L8.89192 2.02147L8.77947 2.06839L8.66741 2.1164L8.55577 2.1655L8.44455 2.21568L8.33377 2.26694L8.22343 2.31927L8.11356 2.37268L8.00415 2.42716L7.89523 2.4827L7.7868 2.53931L7.67889 2.59698L7.57149 2.6557L7.46462 2.71548L7.35829 2.7763L7.25252 2.83816L7.14732 2.90107L7.0427 2.96501L6.93866 3.02999L6.83523 3.09599L6.73241 3.16301L6.63022 3.23104L6.52866 3.3001L6.42776 3.37015L6.32751 3.44122L6.22793 3.51327L6.12904 3.58632L6.03084 3.66036L5.93335 3.73538L5.83657 3.81137L5.74052 3.88833L5.64521 3.96626L5.55065 4.04514L5.45685 4.12498L5.36383 4.20576L5.27159 4.28748L5.18014 4.37013L5.08949 4.45371L4.99967 4.53821L4.91067 4.62363L4.8225 4.70994L4.73518 4.79716L4.64873 4.88527L4.56314 4.97427L4.47843 5.06414L4.39461 5.15489L4.31169 5.2465L4.22967 5.33896L4.14858 5.43228L4.06842 5.52643L3.9892 5.62142L3.91093 5.71723L3.83362 5.81386L3.75728 5.91129L3.68191 6.00953L3.60754 6.10856L3.53416 6.20837L3.4618 6.30895L3.39044 6.4103L3.32012 6.51242L3.25083 6.61528L3.18258 6.71887L3.11539 6.8232L3.04926 6.92826L2.9842 7.03402L2.92022 7.14049L2.85733 7.24765L2.79554 7.3555L2.73485 7.46402L2.67528 7.57321L2.61683 7.68305L2.5595 7.79354L2.50332 7.90466L2.44828 8.01642L2.3944 8.12878L2.34168 8.24176L2.29013 8.35533L2.23975 8.46948L2.19056 8.58421L2.14256 8.69951L2.09577 8.81536L2.05017 8.93175L2.00579 9.04867L1.96263 9.16612L1.9207 9.28408L1.88 9.40254L1.84054 9.52148L1.80233 9.64091L1.76537 9.7608L1.72967 9.88116L1.69524 10.0019L1.66208 10.1232L1.63019 10.2448L1.59959 10.3669L1.57027 10.4893L1.54226 10.6122L1.51554 10.7354L1.49012 10.859L1.46602 10.9829L1.44323 11.1072L1.42176 11.2318L1.40162 11.3568L1.38281 11.482L1.36533 11.6075L1.34919 11.7333L1.33439 11.8594L1.32094 11.9857L1.30884 12.1123L1.2981 12.2391L1.28871 12.3661L1.28069 12.4933L1.27404 12.6208L1.26875 12.7484L1.26484 12.8762L1.2623 13.0041L1.26115 13.1322L1.26137 13.2604L1.26298 13.3887L1.26598 13.5171L1.27036 13.6457L1.27614 13.7743L1.28332 13.9029L1.29189 14.0317L1.30185 14.1604L1.31322 14.2893L1.32599 14.4181L1.34016 14.5469L1.35574 14.6757L1.37273 14.8045L1.39112 14.9332L1.41091 15.0619L1.43212 15.1906L1.45474 15.3191L1.47877 15.4476L1.5042 15.576L1.53105 15.7043L1.55931 15.8324L1.58898 15.9604L1.62006 16.0882L1.65255 16.2159L1.68645 16.3434L1.72176 16.4707L1.75848 16.5977L1.7966 16.7246L1.83613 16.8512L1.87707 16.9776L1.91941 17.1037L1.96316 17.2296L2.0083 17.3552L2.05484 17.4804L2.10278 17.6054L2.15212 17.73L2.20285 17.8543L2.25497 17.9782L2.30848 18.1017L2.36337 18.2249L2.41965 18.3477L2.4773 18.4701L2.53633 18.5921L2.59674 18.7136L2.65852 18.8347L2.72166 18.9553L2.78617 19.0754L2.85203 19.1951L2.91925 19.3143L2.98783 19.4329L3.05774 19.5511L3.12901 19.6687L3.20161 19.7857L3.27554 19.9022L3.3508 20.0181L3.42739 20.1334L3.50529 20.2481L3.58451 20.3622L3.66504 20.4757L3.74686 20.5885L3.82999 20.7007L3.9144 20.8122L4.00011 20.9231L4.08709 21.0332L4.17534 21.1427L4.26486 21.2514L4.35564 21.3594L4.44767 21.4666L4.54095 21.5731L4.63547 21.6789L4.73122 21.7838L4.82819 21.888L4.92638 21.9914L5.02579 22.094L5.12639 22.1957L5.2282 22.2966L5.33118 22.3966L5.43535 22.4958L5.54069 22.5941L5.64719 22.6916L5.75485 22.7881L5.86365 22.8837L5.97358 22.9784L6.08465 23.0722L6.19683 23.165L6.31013 23.2569L6.42452 23.3478L6.54001 23.4378L6.65657 23.5267L6.77421 23.6147L6.89292 23.7016L7.01267 23.7875L7.13347 23.8724L7.2553 23.9563L7.37815 24.0391L7.50202 24.1208L7.62688 24.2015L7.75274 24.2811L7.87957 24.3596L8.00738 24.437L8.13614 24.5133L8.26585 24.5884L8.3965 24.6625L8.52807 24.7353L8.66055 24.8071L8.79394 24.8776L8.92821 24.947L9.06336 25.0152L9.19938 25.0823L9.33626 25.1481L9.47397 25.2127L9.61252 25.2761L9.75188 25.3383L9.89204 25.3993L10.033 25.459L10.1747 25.5174L10.3172 25.5746L10.4605 25.6305L10.6045 25.6852L10.7492 25.7385L10.8947 25.7906L11.0408 25.8414L11.1877 25.8908L11.3352 25.939L11.4833 25.9858L11.6322 26.0313L11.7816 26.0754L11.9317 26.1182L12.0823 26.1597L12.2336 26.1998L12.3855 26.2385L12.5379 26.2759L12.6908 26.3118L12.8443 26.3464L12.9983 26.3796L13.1529 26.4114L13.3079 26.4418L13.4634 26.4708L13.6193 26.4984L13.7757 26.5246L13.9325 26.5493L14.0898 26.5726L14.2474 26.5945L14.4055 26.6149L14.5639 26.6338L14.7226 26.6514L14.8817 26.6674L15.0412 26.682L15.2009 26.6952L15.361 26.7068L15.5213 26.717L15.6818 26.7257L15.8427 26.733L16.0037 26.7387L16.165 26.743L16.3265 26.7457L16.4881 26.747L16.65 26.7468L16.812 26.745L16.9741 26.7418L17.1363 26.7371L17.2987 26.7308L17.4611 26.7231L17.6236 26.7138L17.7861 26.703L17.9487 26.6907L18.1114 26.6768L18.274 26.6615L18.4366 26.6446L18.5992 26.6262L18.7617 26.6063L18.9242 26.5848L19.0866 26.5618L19.2489 26.5373L19.4111 26.5113L19.5732 26.4837L19.7352 26.4546L19.8969 26.424L20.0585 26.3918L20.22 26.3581L20.3812 26.3229L20.5421 26.2861L20.7029 26.2479L20.8633 26.208L21.0235 26.1667L21.1834 26.1239L21.343 26.0795L21.5023 26.0336L21.6612 25.9861L21.8198 25.9372L21.978 25.8867L22.1358 25.8348L22.2932 25.7813L22.4501 25.7263L22.6066 25.6698L22.7627 25.6117L22.9183 25.5522L23.0734 25.4912L23.2279 25.4287L23.382 25.3647" stroke="#FFF9DC" stroke-linecap="round"/>
</svg>
