<svg width="793" height="1047" viewBox="0 0 793 1047" fill="none" xmlns="http://www.w3.org/2000/svg">
<path d="M660.986 378.085L660.852 377.406L660.711 376.727L660.563 376.049L660.409 375.372L660.247 374.697L660.079 374.023L659.904 373.35L659.722 372.679L659.533 372.009L659.338 371.34L659.136 370.674L658.927 370.009L658.711 369.345L658.488 368.684L658.259 368.024L658.023 367.367L657.78 366.711L657.531 366.057L657.275 365.406L657.012 364.757L656.742 364.11L656.466 363.466L656.183 362.824L655.893 362.185L655.597 361.548L655.294 360.914L654.985 360.282L654.668 359.654L654.346 359.028L654.017 358.405L653.681 357.785L653.339 357.169L652.99 356.555L652.635 355.945L652.274 355.338L651.906 354.734L651.532 354.134L651.151 353.537L650.764 352.944L650.371 352.355L649.971 351.769L649.565 351.187L649.153 350.608L648.735 350.034L648.31 349.463L647.88 348.897L647.443 348.335L647.001 347.776L646.552 347.222L646.097 346.673L645.636 346.127L645.17 345.586L644.697 345.05L644.219 344.518L643.734 343.991L643.244 343.468L642.749 342.95L642.247 342.437L641.74 341.929L641.227 341.425L640.709 340.927L640.185 340.433L639.655 339.945L639.12 339.462L638.58 338.984L638.034 338.511L637.483 338.044L636.927 337.582L636.365 337.125L635.798 336.674L635.226 336.229L634.649 335.789L634.067 335.354L633.48 334.926L632.888 334.503L632.291 334.086L631.689 333.675L631.082 333.27L630.471 332.871L629.854 332.478L629.234 332.091L628.608 331.71L627.978 331.336L627.344 330.967L626.705 330.605L626.062 330.249L625.414 329.9L624.762 329.557L624.106 329.221L623.446 328.891L622.782 328.568L622.114 328.251L621.441 327.941L620.765 327.638L620.085 327.341L619.401 327.051L618.714 326.769L618.022 326.493L617.327 326.224L616.629 325.961L615.927 325.706L615.222 325.458L614.513 325.218L613.801 324.984L613.086 324.757L612.368 324.538L611.646 324.326L610.922 324.121L610.195 323.923L609.464 323.733L608.731 323.55L607.996 323.375L607.257 323.207L606.516 323.046L605.772 322.893L605.026 322.748L604.278 322.61L603.527 322.48L602.774 322.357L602.018 322.242L601.261 322.135L600.502 322.036L599.74 321.944L598.977 321.86L598.212 321.783L597.445 321.715L596.676 321.654L595.906 321.602L595.134 321.557L594.361 321.52L593.587 321.491L592.811 321.469L592.034 321.456L591.255 321.451L590.476 321.454L589.696 321.465L588.915 321.483L588.133 321.51L587.35 321.545L586.566 321.588L585.782 321.639L584.998 321.698L584.213 321.765L583.427 321.84L582.641 321.924L581.855 322.015L581.069 322.115L580.283 322.222L579.497 322.338L578.711 322.462L577.925 322.594L577.139 322.734L576.354 322.883L575.569 323.039L574.785 323.204L574.001 323.377L573.218 323.558L572.435 323.747L571.654 323.944L570.873 324.15L570.094 324.363L569.315 324.585L568.537 324.815L567.761 325.053L566.986 325.299L566.213 325.553L565.441 325.815L564.67 326.085L563.901 326.364L563.134 326.65L562.369 326.944L561.605 327.247L560.843 327.557L560.084 327.876L559.326 328.202L558.571 328.537L557.818 328.879L557.068 329.23L556.32 329.588L555.574 329.954L554.831 330.328L554.09 330.71L553.353 331.1L552.618 331.497L551.886 331.902L551.157 332.315L550.432 332.736L549.709 333.164L548.99 333.6L548.274 334.044L547.561 334.495L546.852 334.954L546.146 335.421L545.444 335.895L544.746 336.376L544.051 336.865L543.361 337.362L542.674 337.865L541.992 338.376L541.313 338.895L540.639 339.42L539.968 339.953L539.303 340.493L538.641 341.04L537.984 341.595L537.332 342.156L536.684 342.724L536.041 343.3L535.403 343.882L534.77 344.471L534.141 345.067L533.518 345.67L532.899 346.28L532.286 346.896L531.678 347.519L531.075 348.149L530.478 348.785L529.886 349.428L529.299 350.077L528.719 350.732L528.143 351.394L527.574 352.062L527.01 352.737L526.452 353.417L525.9 354.104L525.354 354.797L524.814 355.495L524.281 356.2L523.753 356.911L523.232 357.627L522.717 358.35L522.208 359.077L521.706 359.811L521.21 360.55L520.721 361.295L520.239 362.045L519.763 362.801L519.294 363.561L518.832 364.328L518.376 365.099L517.928 365.875L517.486 366.657L517.052 367.443L516.625 368.235L516.205 369.031L515.792 369.832L515.387 370.638L514.988 371.448L514.598 372.263L514.214 373.083L513.839 373.907L513.47 374.735L513.11 375.567L512.757 376.404L512.411 377.245L512.074 378.09L511.744 378.938L511.422 379.791L511.109 380.647L510.803 381.508L510.505 382.371L510.215 383.239L509.933 384.11L509.659 384.984L509.394 385.862L509.137 386.742L508.888 387.626L508.647 388.514L508.415 389.404L508.191 390.297L507.975 391.192L507.768 392.091L507.57 392.992L507.38 393.896L507.199 394.802L507.026 395.711L506.862 396.622L506.706 397.535L506.56 398.45L506.422 399.368L506.293 400.287L506.172 401.208L506.061 402.131L505.958 403.055L505.865 403.982L505.78 404.909L505.704 405.839L505.637 406.769L505.58 407.701L505.531 408.634L505.491 409.567L505.46 410.502L505.439 411.438L505.426 412.374L505.423 413.312L505.429 414.249L505.444 415.188L505.468 416.126L505.502 417.065L505.544 418.004L505.596 418.943L505.657 419.883L505.728 420.822L505.807 421.761L505.896 422.7L505.995 423.638L506.102 424.576L506.219 425.513L506.345 426.45L506.481 427.386L506.625 428.321L506.78 429.255L506.943 430.189L507.116 431.121L507.298 432.052L507.49 432.981L507.69 433.909L507.901 434.836L508.12 435.761L508.349 436.684L508.587 437.605L508.834 438.525L509.091 439.442L509.357 440.358L509.633 441.271L509.917 442.182L510.211 443.091L510.515 443.997L510.827 444.9L511.149 445.801L511.48 446.699L511.82 447.594L512.169 448.486L512.528 449.376L512.895 450.262L513.272 451.144L513.658 452.024L514.053 452.9L514.457 453.772L514.871 454.641L515.293 455.506L515.724 456.367L516.164 457.224L516.614 458.078L517.072 458.927L517.539 459.772L518.015 460.612L518.499 461.449L518.993 462.28L519.495 463.108L520.006 463.93L520.526 464.748L521.054 465.561L521.592 466.369L522.137 467.172L522.692 467.97L523.254 468.762L523.826 469.549L524.405 470.331L524.993 471.108L525.59 471.879L526.195 472.644L526.808 473.403L527.429 474.157L528.059 474.904L528.696 475.646L529.342 476.381L529.996 477.111L530.657 477.834L531.327 478.55L532.005 479.26L532.69 479.964L533.383 480.661L534.084 481.351L534.793 482.035L535.509 482.711L536.233 483.381L536.964 484.044L537.702 484.699L538.448 485.348L539.202 485.989L539.962 486.622L540.73 487.249L541.505 487.867L542.287 488.479L543.076 489.082L543.872 489.678L544.675 490.266L545.484 490.846L546.301 491.418L547.124 491.982L547.953 492.538L548.789 493.086L549.632 493.625L550.481 494.156L551.336 494.679L552.198 495.193L553.065 495.699L553.939 496.196L554.819 496.684L555.704 497.164L556.596 497.635L557.493 498.097L558.396 498.55L559.305 498.994L560.219 499.429L561.138 499.855L562.063 500.272L562.994 500.679L563.929 501.077L564.87 501.466L565.815 501.845L566.766 502.215L567.721 502.576L568.681 502.926L569.646 503.267L570.616 503.599L571.59 503.92L572.568 504.232L573.551 504.534L574.538 504.826L575.529 505.108L576.524 505.38L577.523 505.642L578.526 505.894L579.533 506.136L580.544 506.368L581.558 506.589L582.575 506.8L583.596 507.001L584.621 507.191L585.648 507.371L586.679 507.54L587.712 507.7L588.749 507.848L589.788 507.986L590.83 508.113L591.875 508.23L592.922 508.336L593.972 508.432L595.024 508.516L596.078 508.59L597.134 508.654L598.192 508.706L599.252 508.748L600.314 508.778L601.378 508.798L602.443 508.807L603.51 508.805L604.578 508.792L605.647 508.768L606.718 508.733L607.789 508.687L608.862 508.63L609.935 508.562L611.009 508.483L612.084 508.393L613.16 508.292L614.235 508.179L615.311 508.056L616.388 507.921L617.464 507.776L618.54 507.619L619.617 507.451L620.693 507.272L621.768 507.082L622.843 506.88L623.918 506.668L624.992 506.444L626.065 506.209L627.138 505.963L628.209 505.706L629.279 505.438L630.348 505.158L631.416 504.868L632.482 504.566L633.547 504.253L634.61 503.929L635.671 503.594L636.731 503.248L637.788 502.891L638.843 502.522L639.896 502.143L640.947 501.753L641.995 501.351L643.041 500.939L644.084 500.515L645.125 500.081L646.162 499.636L647.197 499.18L648.228 498.713L649.256 498.235L650.281 497.746L651.302 497.246L652.32 496.736L653.335 496.215L654.345 495.683L655.352 495.141L656.354 494.588L657.353 494.024L658.347 493.45L659.337 492.865L660.323 492.269L661.304 491.664L662.28 491.047L663.252 490.421L664.219 489.784L665.181 489.136L666.138 488.479L667.089 487.811L668.036 487.133L668.977 486.445L669.912 485.747L670.842 485.039L671.766 484.321L672.685 483.593L673.597 482.855L674.504 482.107L675.404 481.35L676.298 480.583L677.186 479.806L678.067 479.02L678.942 478.224L679.811 477.419L680.672 476.605L681.527 475.781L682.375 474.947L683.215 474.105L684.049 473.254L684.875 472.393L685.694 471.523L686.506 470.645L687.31 469.758L688.107 468.862L688.895 467.957L689.676 467.043L690.449 466.122L691.214 465.191L691.971 464.252L692.72 463.305L693.461 462.35L694.193 461.386L694.917 460.415L695.632 459.435L696.338 458.447L697.036 457.452L697.725 456.449L698.405 455.438L699.076 454.42L699.738 453.394L700.391 452.361L701.035 451.32L701.669 450.272L702.294 449.217L702.909 448.155L703.515 447.086L704.111 446.011L704.698 444.928L705.274 443.839L705.841 442.743L706.398 441.641L706.945 440.533L707.481 439.418L708.008 438.297L708.524 437.17L709.03 436.037L709.525 434.898L710.01 433.754L710.484 432.604L710.948 431.448L711.401 430.287L711.843 429.12L712.275 427.948L712.696 426.771L713.105 425.589L713.504 424.403L713.891 423.211L714.268 422.015L714.633 420.814L714.987 419.609L715.33 418.399L715.661 417.185L715.981 415.967L716.289 414.745L716.586 413.519L716.871 412.29L717.145 411.057L717.407 409.82L717.657 408.58L717.895 407.336L718.122 406.089L718.337 404.84L718.539 403.587L718.73 402.332L718.909 401.073L719.075 399.813L719.23 398.549L719.372 397.284L719.502 396.016L719.62 394.746L719.726 393.474L719.82 392.201L719.901 390.926L719.969 389.649L720.026 388.37L720.07 387.091L720.101 385.81L720.12 384.528L720.127 383.245L720.121 381.961L720.102 380.677L720.071 379.392L720.027 378.106L719.971 376.82L719.902 375.534L719.82 374.249L719.726 372.963L719.619 371.677L719.499 370.392L719.367 369.107L719.221 367.823L719.063 366.539L718.893 365.256L718.709 363.975L718.513 362.694L718.304 361.415L718.082 360.137L717.848 358.861L717.6 357.586L717.34 356.313L717.067 355.042L716.781 353.773L716.483 352.507L716.172 351.242L715.848 349.98L715.511 348.721L715.161 347.464L714.799 346.211L714.424 344.96L714.036 343.712L713.636 342.468L713.223 341.227L712.797 339.989L712.359 338.755L711.908 337.525L711.444 336.299L710.968 335.077L710.479 333.859L709.977 332.645L709.463 331.436L708.937 330.231L708.398 329.031L707.847 327.836L707.283 326.645L706.707 325.46L706.118 324.28L705.518 323.106L704.904 321.937L704.279 320.773L703.642 319.615L702.992 318.463L702.33 317.318L701.657 316.178L700.971 315.044L700.273 313.917L699.563 312.796L698.842 311.682L698.108 310.575L697.363 309.475L696.606 308.381L695.837 307.295L695.057 306.216L694.265 305.144L693.462 304.08L692.647 303.023L691.821 301.975L690.983 300.934L690.134 299.901L689.274 298.876L688.403 297.859L687.521 296.851L686.627 295.851L685.723 294.86L684.808 293.877L683.882 292.904L682.945 291.939L681.998 290.983L681.04 290.037L680.072 289.099L679.093 288.171L678.104 287.253L677.104 286.344L676.095 285.445L675.075 284.556L674.045 283.677L673.005 282.807L671.956 281.948L670.896 281.1L669.827 280.261L668.748 279.433L667.66 278.616L666.563 277.809L665.456 277.013L664.339 276.228L663.214 275.454L662.08 274.692L660.936 273.94L659.784 273.199L658.623 272.47L657.454 271.753L656.276 271.047L655.089 270.353L653.894 269.67L652.691 269L651.48 268.341L650.261 267.694L649.033 267.06L647.798 266.438L646.556 265.828L645.305 265.23L644.047 264.645L642.782 264.072L641.51 263.513L640.23 262.966L638.944 262.431L637.65 261.91L636.35 261.401L635.043 260.906L633.729 260.424L632.409 259.955L631.083 259.499L629.75 259.056L628.412 258.627L627.067 258.212L625.717 257.81L624.361 257.422L622.999 257.047L621.632 256.686L620.259 256.339L618.882 256.006L617.499 255.686L616.112 255.381L614.719 255.09L613.322 254.813L611.92 254.55L610.514 254.301L609.104 254.067L607.689 253.847L606.271 253.641L604.849 253.45L603.422 253.273L601.993 253.111L600.56 252.963L599.123 252.83L597.683 252.712L596.241 252.609L594.795 252.52L593.347 252.446L591.896 252.386L590.442 252.342L588.986 252.312L587.528 252.298L586.068 252.298L584.606 252.314L583.142 252.344L581.677 252.389L580.21 252.45L578.742 252.526L577.272 252.616L575.802 252.722L574.33 252.843L572.858 252.979L571.386 253.131L569.912 253.297L568.439 253.479L566.965 253.676L565.492 253.888L564.018 254.116L562.545 254.359L561.072 254.617L559.6 254.89L558.128 255.178L556.658 255.482L555.188 255.801L553.72 256.136L552.253 256.485L550.788 256.85L549.324 257.231L547.862 257.626L546.401 258.037L544.943 258.463L543.488 258.904L542.034 259.36L540.583 259.831L539.135 260.318L537.69 260.82L536.248 261.337L534.809 261.869L533.373 262.416L531.94 262.978L530.512 263.556L529.087 264.148L527.666 264.755L526.249 265.377L524.836 266.014L523.428 266.666L522.024 267.333L520.625 268.015L519.23 268.711L517.841 269.422L516.456 270.148L515.077 270.888L513.704 271.643L512.336 272.413L510.974 273.197L509.617 273.995L508.267 274.808L506.923 275.635L505.585 276.477L504.253 277.332L502.929 278.202L501.611 279.086L500.299 279.984L498.995 280.896L497.699 281.822L496.409 282.762L495.127 283.715L493.853 284.683L492.586 285.664L491.327 286.658L490.077 287.666L488.834 288.688L487.6 289.722L486.375 290.77L485.158 291.832L483.95 292.906L482.75 293.993L481.56 295.094L480.379 296.207L479.207 297.333L478.045 298.472L476.893 299.623L475.75 300.787L474.617 301.963L473.494 303.152L472.381 304.352L471.279 305.565L470.186 306.79L469.105 308.027L468.034 309.276L466.974 310.536L465.924 311.808L464.886 313.092L463.859 314.386L462.844 315.693L461.839 317.01L460.847 318.339L459.866 319.678L458.897 321.029L457.939 322.39L456.994 323.761L456.061 325.144L455.14 326.536L454.232 327.939L453.336 329.352L452.453 330.775L451.582 332.208L450.725 333.651L449.88 335.103L449.049 336.565L448.23 338.036L447.425 339.517L446.634 341.007L445.856 342.505L445.091 344.013L444.34 345.529L443.604 347.054L442.881 348.588L442.172 350.129L441.477 351.679L440.796 353.237L440.13 354.803L439.478 356.376L438.841 357.958L438.218 359.546L437.61 361.142L437.017 362.745L436.439 364.355L435.876 365.972L435.328 367.596L434.795 369.227L434.277 370.863L433.774 372.506L433.287 374.156L432.815 375.811L432.359 377.472L431.919 379.138L431.494 380.811L431.085 382.488L430.692 384.171L430.315 385.858L429.954 387.551L429.609 389.248L429.28 390.95L428.967 392.656L428.671 394.367L428.391 396.081L428.127 397.799L427.88 399.521L427.649 401.247L427.435 402.976L427.237 404.708L427.056 406.443L426.892 408.181L426.745 409.922L426.614 411.665L426.5 413.411L426.403 415.159L426.324 416.909L426.261 418.661L426.215 420.414L426.186 422.169L426.174 423.925L426.18 425.683L426.203 427.441L426.243 429.2L426.3 430.96L426.374 432.72L426.466 434.481L426.575 436.241L426.701 438.002L426.845 439.762L427.006 441.522L427.185 443.281L427.381 445.04L427.594 446.797L427.825 448.553L428.074 450.308L428.34 452.062L428.623 453.813L428.924 455.563L429.242 457.311L429.578 459.057L429.932 460.8L430.302 462.54L430.691 464.278L431.097 466.013L431.52 467.744L431.961 469.473L432.419 471.197L432.895 472.918L433.388 474.636L433.899 476.349L434.427 478.058L434.972 479.762L435.535 481.462L436.115 483.157L436.713 484.847L437.328 486.532L437.96 488.212L438.609 489.886L439.276 491.555L439.96 493.218L440.66 494.874L441.378 496.525L442.114 498.169L442.866 499.806L443.635 501.437L444.421 503.06L445.224 504.677L446.044 506.286L446.88 507.888L447.734 509.482L448.604 511.069L449.491 512.647L450.394 514.217L451.314 515.779L452.25 517.333L453.203 518.877L454.172 520.413L455.157 521.94L456.159 523.457L457.177 524.965L458.211 526.464L459.26 527.953L460.326 529.431L461.408 530.9L462.505 532.359L463.618 533.807L464.747 535.245L465.891 536.672L467.051 538.088L468.226 539.492L469.416 540.886L470.622 542.268L471.843 543.639L473.078 544.998L474.329 546.345L475.594 547.68L476.874 549.003L478.169 550.314L479.478 551.612L480.802 552.897L482.14 554.169L483.492 555.429L484.858 556.675L486.238 557.908L487.632 559.128L489.04 560.334L490.461 561.526L491.896 562.704L493.344 563.869L494.806 565.019L496.281 566.155L497.768 567.276L499.269 568.383L500.783 569.475L502.309 570.552L503.848 571.614L505.399 572.661L506.962 573.692L508.538 574.709L510.125 575.709L511.724 576.694L513.335 577.663L514.958 578.616L516.592 579.553L518.238 580.474L519.894 581.378L521.562 582.266L523.24 583.138L524.93 583.992L526.629 584.83L528.34 585.651L530.06 586.455L531.791 587.241L533.531 588.01L535.282 588.762L537.042 589.496L538.811 590.213L540.59 590.912L542.378 591.593L544.175 592.256L545.981 592.901L547.795 593.528L549.618 594.137L551.45 594.727L553.289 595.299L555.137 595.853L556.992 596.387L558.855 596.903L560.726 597.4L562.604 597.879L564.489 598.338L566.381 598.778L568.279 599.199L570.185 599.601L572.096 599.983L574.014 600.346L575.939 600.69L577.869 601.014L579.804 601.318L581.745 601.603L583.692 601.868L585.644 602.113L587.6 602.338L589.562 602.543L591.528 602.729L593.498 602.894L595.473 603.039L597.451 603.164L599.434 603.268L601.42 603.353L603.409 603.417L605.402 603.46L607.398 603.484L609.396 603.486L611.398 603.469L613.401 603.43L615.407 603.371L617.415 603.292L619.425 603.192L621.437 603.071L623.45 602.929L625.464 602.767L627.479 602.584L629.496 602.38L631.513 602.155L633.53 601.909L635.547 601.643L637.565 601.356L639.582 601.048L641.6 600.719L643.616 600.369L645.632 599.998L647.647 599.606L649.66 599.193L651.672 598.76L653.683 598.305L655.692 597.83L657.698 597.334L659.703 596.816L661.705 596.278L663.705 595.719L665.701 595.14L667.695 594.539L669.685 593.918L671.672 593.275L673.656 592.612L675.635 591.929L677.61 591.224L679.581 590.499L681.548 589.753L683.51 588.987L685.467 588.2L687.418 587.392L689.365 586.564L691.306 585.716L693.241 584.847L695.17 583.957L697.093 583.048L699.01 582.118L700.92 581.167L702.823 580.197L704.719 579.207L706.609 578.196L708.49 577.166L710.364 576.115L712.231 575.045L714.089 573.955L715.939 572.845L717.781 571.716L719.614 570.567L721.438 569.399L723.254 568.211L725.06 567.004L726.856 565.777L728.643 564.532L730.42 563.267L732.187 561.983L733.944 560.681L735.691 559.359L737.427 558.019L739.152 556.661L740.866 555.284L742.568 553.888L744.26 552.474L745.94 551.042L747.608 549.592L749.264 548.124L750.907 546.638L752.539 545.134L754.158 543.613L755.764 542.074L757.357 540.518L758.937 538.944L760.504 537.354L762.058 535.746L763.597 534.122L765.123 532.48L766.635 530.822L768.132 529.148L769.615 527.457L771.084 525.75L772.538 524.027L773.977 522.288L775.401 520.533L776.809 518.763L778.202 516.977L779.579 515.176L780.941 513.359L782.287 511.528L783.616 509.681L784.929 507.82L786.226 505.944L787.506 504.054L788.77 502.15L790.016 500.231L791.245 498.299L792.457 496.353L793.652 494.393L794.829 492.42L795.988 490.434L797.129 488.434L798.252 486.422L799.358 484.397L800.444 482.359L801.513 480.309L802.562 478.247L803.593 476.173L804.605 474.087L805.598 471.99L806.572 469.881L807.526 467.761L808.461 465.629L809.376 463.487L810.272 461.335L811.147 459.172L812.003 456.998L812.838 454.815L813.654 452.621L814.449 450.418L815.223 448.206L815.977 445.984L816.71 443.754L817.422 441.514L818.114 439.266L818.784 437.009L819.433 434.744L820.061 432.472L820.667 430.191L821.252 427.903L821.815 425.607L822.357 423.305L822.877 420.995L823.375 418.679L823.851 416.356L824.304 414.027L824.736 411.692L825.146 409.351L825.533 407.005L825.897 404.653L826.239 402.297L826.559 399.935L826.856 397.568L827.13 395.198L827.381 392.823L827.61 390.444L827.815 388.061L827.998 385.675L828.157 383.285L828.294 380.892L828.407 378.497L828.496 376.099L828.563 373.699L828.606 371.296L828.626 368.892L828.622 366.486L828.595 364.079L828.544 361.671L828.469 359.261L828.371 356.852L828.249 354.441L828.104 352.031L827.934 349.62L827.741 347.21L827.524 344.801L827.284 342.392L827.019 339.984L826.731 337.578L826.418 335.173L826.082 332.77L825.722 330.369L825.338 327.971L824.929 325.575L824.497 323.181L824.041 320.791L823.561 318.404L823.057 316.02L822.53 313.641L821.978 311.265L821.402 308.893L820.802 306.526L820.179 304.164L819.531 301.807L818.859 299.455L818.164 297.109L817.445 294.768L816.702 292.434L815.935 290.105L815.145 287.783L814.33 285.468L813.492 283.16L812.631 280.859L811.745 278.566L810.836 276.28L809.904 274.002L808.948 271.733L807.969 269.472L806.966 267.22L805.94 264.977L804.891 262.743L803.818 260.518L802.723 258.303L801.604 256.098L800.462 253.903L799.297 251.719L798.11 249.545L796.899 247.383L795.666 245.231L794.41 243.091L793.132 240.962L791.831 238.846L790.508 236.741L789.162 234.649L787.794 232.569L786.404 230.502L784.993 228.449L783.559 226.408L782.103 224.381L780.626 222.368L779.127 220.369L777.606 218.384L776.064 216.413L774.501 214.457L772.916 212.516L771.311 210.59L769.685 208.68L768.037 206.785L766.369 204.906L764.681 203.043L762.972 201.196L761.243 199.365L759.494 197.551L757.724 195.754L755.935 193.975L754.126 192.212L752.297 190.467L750.449 188.74L748.582 187.031L746.696 185.34L744.79 183.667L742.866 182.013L740.923 180.378L738.961 178.761L736.981 177.164L734.983 175.586L732.966 174.028L730.932 172.49L728.88 170.971L726.811 169.473L724.724 167.995L722.62 166.538L720.5 165.101L718.362 163.685L716.207 162.291L714.037 160.917L711.849 159.565L709.646 158.235L707.427 156.927L705.192 155.641L702.942 154.376L700.676 153.135L698.395 151.915L696.1 150.719L693.789 149.545L691.464 148.394L689.125 147.267L686.772 146.163L684.405 145.082L682.024 144.025L679.63 142.992L677.222 141.983L674.802 140.998L672.368 140.037L669.922 139.1L667.464 138.189L664.993 137.301L662.511 136.439L660.017 135.602L657.511 134.79L654.995 134.003L652.467 133.241L649.928 132.505L647.379 131.794L644.82 131.11L642.251 130.451L639.671 129.818L637.083 129.211L634.484 128.631L631.877 128.076L629.261 127.548L626.636 127.047L624.004 126.573L621.362 126.125L618.713 125.704L616.057 125.31L613.393 124.943L610.722 124.603L608.044 124.29L605.36 124.005L602.669 123.747L599.972 123.516L597.27 123.313L594.562 123.138L591.849 122.99L589.13 122.87L586.407 122.778L583.68 122.714L580.948 122.677L578.212 122.669L575.473 122.689L572.73 122.737L569.984 122.813L567.235 122.918L564.484 123.05L561.73 123.211L558.974 123.401L556.217 123.618L553.458 123.865L550.698 124.139L547.936 124.442L545.175 124.774L542.412 125.134L539.65 125.523L536.888 125.94L534.126 126.386L531.365 126.861L528.605 127.364L525.847 127.896L523.09 128.456L520.334 129.045L517.581 129.663L514.831 130.309L512.083 130.984L509.338 131.688L506.596 132.42L503.858 133.181L501.124 133.97L498.393 134.788L495.668 135.634L492.946 136.509L490.23 137.412L487.519 138.343L484.814 139.303L482.115 140.292L479.421 141.308L476.734 142.353L474.054 143.426L471.381 144.527L468.715 145.657L466.056 146.814L463.405 147.999L460.763 149.212L458.129 150.453L455.503 151.722L452.887 153.019L450.279 154.343L447.681 155.694L445.093 157.073L442.515 158.48L439.948 159.914L437.391 161.374L434.845 162.863L432.31 164.378L429.787 165.92L427.275 167.488L424.775 169.084L422.288 170.706L419.814 172.354L417.352 174.029L414.903 175.73L412.468 177.458L410.046 179.211L407.639 180.99L405.245 182.795L402.866 184.626L400.502 186.482L398.153 188.363L395.819 190.27L393.501 192.202L391.199 194.158L388.913 196.14L386.643 198.146L384.389 200.176L382.153 202.231L379.934 204.31L377.732 206.413L375.548 208.54L373.382 210.691L371.234 212.865L369.104 215.062L366.993 217.283L364.901 219.526L362.828 221.792L360.775 224.081L358.741 226.393L356.727 228.726L354.733 231.082L352.76 233.459L350.808 235.858L348.876 238.279L346.965 240.721L345.076 243.183L343.208 245.667L341.362 248.171L339.539 250.696L337.737 253.241L335.958 255.806L334.202 258.39L332.469 260.995L330.759 263.618L329.072 266.261L327.409 268.922L325.77 271.603L324.154 274.301L322.563 277.018L320.997 279.752L319.455 282.505L317.938 285.274L316.446 288.061L314.98 290.865L313.538 293.686L312.123 296.523L310.733 299.376L309.37 302.245L308.033 305.13L306.722 308.03L305.438 310.946L304.18 313.876L302.95 316.821L301.747 319.78L300.571 322.754L299.422 325.741L298.302 328.742L297.209 331.756L296.144 334.783L295.108 337.823L294.099 340.875L293.12 343.939L292.169 347.015L291.246 350.103L290.353 353.202L289.489 356.312L288.654 359.433L287.848 362.564L287.073 365.705L286.326 368.856L285.61 372.017L284.923 375.186L284.267 378.365L283.641 381.552L283.045 384.748L282.479 387.951L281.945 391.162L281.44 394.381L280.967 397.607L280.525 400.839L280.113 404.078L279.733 407.323L279.384 410.574L279.066 413.83L278.78 417.092L278.525 420.358L278.301 423.629L278.11 426.904L277.95 430.183L277.822 433.465L277.726 436.751L277.662 440.04L277.63 443.331L277.63 446.624L277.662 449.92L277.727 453.217L277.823 456.515L277.953 459.815L278.114 463.115L278.308 466.415L278.535 469.715L278.794 473.015L279.086 476.314L279.41 479.612L279.767 482.908L280.157 486.203L280.579 489.496L281.035 492.786L281.523 496.074L282.043 499.358L282.597 502.64L283.183 505.917L283.802 509.19L284.454 512.459L285.139 515.723L285.856 518.982L286.607 522.236L287.39 525.483L288.206 528.725L289.054 531.96L289.936 535.189L290.85 538.41L291.797 541.623L292.776 544.829L293.788 548.027L294.833 551.216L295.91 554.397L297.02 557.568L298.162 560.729L299.337 563.881L300.543 567.023L301.783 570.154L303.054 573.274L304.358 576.383L305.693 579.48L307.061 582.565L308.461 585.639L309.892 588.699L311.356 591.747L312.851 594.782L314.377 597.803L315.936 600.81L317.525 603.803L319.146 606.781L320.798 609.744L322.482 612.692L324.196 615.625L325.942 618.542L327.718 621.442L329.524 624.326L331.362 627.194L333.23 630.044L335.128 632.876L337.056 635.691L339.014 638.487L341.003 641.266L343.021 644.025L345.068 646.765L347.145 649.486L349.252 652.187L351.387 654.868L353.552 657.529L355.746 660.169L357.968 662.788L360.218 665.386L362.497 667.962L364.805 670.516L367.14 673.049L369.503 675.558L371.893 678.045L374.312 680.509L376.757 682.95L379.229 685.366L381.729 687.759L384.255 690.128L386.807 692.472L389.386 694.791L391.99 697.085L394.621 699.354L397.277 701.597L399.959 703.814L402.666 706.005L405.397 708.17L408.154 710.307L410.935 712.418L413.74 714.501L416.57 716.557L419.423 718.585L422.3 720.585L425.2 722.556L428.123 724.499L431.069 726.413L434.038 728.298L437.028 730.153L440.041 731.979L443.076 733.775L446.133 735.541L449.21 737.277L452.309 738.982L455.428 740.656L458.568 742.299L461.728 743.911L464.908 745.492L468.107 747.041L471.326 748.557L474.564 750.042L477.821 751.494L481.096 752.914L484.389 754.301L487.7 755.655L491.029 756.976L494.375 758.263L497.738 759.517L501.118 760.737L504.514 761.923L507.926 763.075L511.354 764.192L514.797 765.275L518.256 766.323L521.729 767.337L525.217 768.315L528.718 769.258L532.234 770.166L535.763 771.038L539.305 771.875L542.86 772.675L546.428 773.44L550.008 774.168L553.599 774.86L557.202 775.516L560.817 776.135L564.442 776.717L568.077 777.263L571.723 777.771L575.378 778.242L579.043 778.676L582.716 779.073L586.399 779.432L590.09 779.754L593.789 780.038L597.495 780.284L601.209 780.492L604.929 780.663L608.657 780.795L612.39 780.889L616.129 780.944L619.874 780.962L623.624 780.941L627.378 780.881L631.137 780.783L634.9 780.646L638.666 780.471L642.436 780.257L646.208 780.003L649.983 779.712L653.76 779.381L657.539 779.011L661.319 778.602L665.1 778.154L668.882 777.667L672.664 777.141L676.446 776.576L680.227 775.972L684.007 775.328L687.786 774.646L691.563 773.924L695.338 773.163L699.111 772.362L702.881 771.523L706.647 770.644L710.41 769.727L714.169 768.77L717.923 767.774L721.673 766.738L725.417 765.664L729.156 764.551L732.889 763.398L736.616 762.207L740.335 760.976L744.048 759.707L747.753 758.399L751.45 757.052L755.139 755.666L758.819 754.242L762.49 752.779L766.152 751.278L769.804 749.738L773.445 748.159L777.076 746.543L780.696 744.888L784.304 743.195L787.901 741.464L791.485 739.695L795.057 737.888L798.616 736.043L802.161 734.161L805.693 732.242L809.211 730.285L812.714 728.29L816.202 726.259L819.675 724.191L823.132 722.085L826.573 719.943L829.998 717.765L833.406 715.55L836.797 713.299L840.17 711.011L843.526 708.688L846.863 706.329L850.181 703.934L853.48 701.504L856.76 699.038L860.02 696.537L863.26 694.002L866.48 691.431L869.678 688.826L872.856 686.187L876.011 683.514L879.145 680.806L882.256 678.065L885.345 675.29L888.411 672.482" stroke="#F4ECCA" stroke-opacity="0.23" stroke-width="4" stroke-linecap="round"/>
<path d="M673.976 390.434L673.855 389.76L673.726 389.088L673.591 388.416L673.449 387.746L673.3 387.076L673.145 386.408L672.983 385.74L672.814 385.074L672.639 384.41L672.456 383.746L672.267 383.085L672.072 382.424L671.869 381.766L671.66 381.108L671.444 380.453L671.222 379.8L670.993 379.148L670.757 378.498L670.515 377.851L670.266 377.205L670.01 376.561L669.748 375.92L669.479 375.281L669.203 374.645L668.921 374.011L668.632 373.379L668.337 372.75L668.035 372.123L667.727 371.5L667.413 370.879L667.091 370.261L666.764 369.645L666.43 369.033L666.089 368.424L665.742 367.818L665.389 367.215L665.03 366.615L664.664 366.019L664.292 365.426L663.913 364.837L663.528 364.251L663.138 363.668L662.74 363.089L662.337 362.514L661.928 361.943L661.512 361.376L661.091 360.812L660.663 360.253L660.23 359.697L659.79 359.146L659.344 358.599L658.893 358.056L658.436 357.517L657.972 356.983L657.503 356.453L657.029 355.927L656.548 355.406L656.062 354.89L655.57 354.379L655.072 353.872L654.569 353.37L654.061 352.872L653.546 352.38L653.027 351.893L652.502 351.41L651.971 350.933L651.435 350.461L650.894 349.994L650.348 349.532L649.796 349.076L649.24 348.625L648.678 348.18L648.111 347.74L647.539 347.305L646.962 346.876L646.38 346.453L645.793 346.036L645.202 345.624L644.606 345.218L644.005 344.818L643.399 344.424L642.789 344.036L642.174 343.653L641.554 343.277L640.93 342.907L640.302 342.544L639.669 342.186L639.032 341.835L638.391 341.49L637.746 341.151L637.096 340.819L636.442 340.493L635.785 340.174L635.123 339.861L634.458 339.555L633.788 339.256L633.115 338.963L632.438 338.677L631.758 338.398L631.074 338.125L630.386 337.86L629.695 337.601L629.001 337.349L628.303 337.104L627.601 336.867L626.897 336.636L626.19 336.412L625.479 336.196L624.765 335.986L624.049 335.784L623.329 335.589L622.607 335.401L621.882 335.221L621.154 335.048L620.424 334.882L619.691 334.724L618.955 334.573L618.218 334.43L617.478 334.294L616.735 334.165L615.99 334.044L615.244 333.931L614.495 333.825L613.744 333.727L612.991 333.636L612.237 333.554L611.48 333.479L610.722 333.411L609.963 333.352L609.201 333.3L608.439 333.255L607.675 333.219L606.909 333.191L606.142 333.17L605.375 333.157L604.606 333.152L603.836 333.155L603.065 333.166L602.293 333.185L601.52 333.212L600.747 333.246L599.973 333.289L599.198 333.339L598.423 333.398L597.647 333.465L596.872 333.539L596.095 333.622L595.319 333.712L594.543 333.811L593.766 333.918L592.99 334.032L592.214 334.155L591.438 334.286L590.662 334.425L589.887 334.571L589.112 334.726L588.337 334.889L587.563 335.06L586.79 335.239L586.018 335.426L585.246 335.622L584.476 335.825L583.706 336.036L582.938 336.255L582.17 336.483L581.404 336.718L580.639 336.961L579.876 337.212L579.114 337.472L578.354 337.739L577.595 338.014L576.838 338.298L576.083 338.589L575.33 338.888L574.578 339.195L573.829 339.51L573.082 339.833L572.337 340.163L571.594 340.502L570.854 340.848L570.116 341.202L569.381 341.564L568.648 341.934L567.918 342.312L567.19 342.697L566.466 343.09L565.744 343.49L565.026 343.899L564.31 344.314L563.598 344.738L562.889 345.169L562.183 345.608L561.48 346.054L560.781 346.507L560.086 346.969L559.394 347.437L558.706 347.913L558.022 348.396L557.341 348.887L556.665 349.385L555.992 349.89L555.324 350.402L554.659 350.922L553.999 351.449L553.343 351.982L552.692 352.523L552.045 353.071L551.402 353.626L550.765 354.188L550.131 354.756L549.503 355.332L548.879 355.914L548.261 356.503L547.647 357.099L547.038 357.702L546.435 358.311L545.836 358.927L545.243 359.549L544.655 360.178L544.073 360.813L543.496 361.454L542.924 362.102L542.359 362.756L541.798 363.417L541.244 364.083L540.695 364.756L540.153 365.434L539.616 366.119L539.085 366.81L538.56 367.506L538.042 368.208L537.529 368.916L537.023 369.63L536.523 370.349L536.03 371.074L535.543 371.805L535.063 372.541L534.589 373.282L534.122 374.029L533.661 374.781L533.207 375.538L532.76 376.3L532.32 377.067L531.887 377.84L531.461 378.617L531.042 379.399L530.63 380.186L530.225 380.977L529.828 381.774L529.437 382.575L529.054 383.38L528.679 384.19L528.311 385.004L527.95 385.822L527.597 386.645L527.251 387.472L526.913 388.302L526.583 389.137L526.261 389.976L525.946 390.818L525.639 391.665L525.34 392.515L525.049 393.368L524.766 394.225L524.491 395.086L524.224 395.95L523.965 396.817L523.714 397.688L523.471 398.561L523.237 399.438L523.011 400.317L522.793 401.199L522.584 402.085L522.383 402.972L522.19 403.863L522.006 404.756L521.83 405.651L521.663 406.549L521.504 407.449L521.354 408.352L521.213 409.256L521.08 410.162L520.956 411.071L520.841 411.981L520.734 412.893L520.636 413.806L520.547 414.722L520.467 415.638L520.396 416.556L520.334 417.476L520.28 418.396L520.235 419.318L520.2 420.241L520.173 421.164L520.155 422.089L520.147 423.014L520.147 423.94L520.157 424.866L520.175 425.793L520.203 426.721L520.239 427.649L520.285 428.576L520.34 429.504L520.404 430.432L520.477 431.36L520.559 432.288L520.651 433.216L520.752 434.143L520.862 435.069L520.981 435.996L521.109 436.921L521.246 437.846L521.393 438.77L521.549 439.693L521.714 440.615L521.888 441.535L522.072 442.455L522.265 443.373L522.467 444.29L522.678 445.206L522.899 446.12L523.128 447.032L523.367 447.942L523.615 448.851L523.873 449.757L524.139 450.661L524.415 451.564L524.699 452.464L524.993 453.361L525.296 454.256L525.609 455.149L525.93 456.039L526.261 456.926L526.6 457.81L526.949 458.692L527.306 459.57L527.673 460.446L528.049 461.318L528.434 462.186L528.828 463.052L529.23 463.914L529.642 464.772L530.062 465.626L530.492 466.477L530.93 467.324L531.377 468.167L531.833 469.006L532.298 469.841L532.771 470.671L533.254 471.497L533.745 472.319L534.244 473.136L534.752 473.949L535.269 474.756L535.794 475.56L536.328 476.358L536.871 477.151L537.421 477.939L537.98 478.722L538.548 479.5L539.124 480.272L539.708 481.039L540.3 481.8L540.901 482.556L541.51 483.306L542.126 484.05L542.751 484.789L543.384 485.521L544.025 486.248L544.674 486.968L545.331 487.682L545.995 488.39L546.667 489.092L547.347 489.787L548.035 490.475L548.73 491.157L549.433 491.832L550.143 492.501L550.861 493.162L551.586 493.816L552.318 494.464L553.058 495.104L553.805 495.737L554.559 496.363L555.32 496.982L556.088 497.593L556.863 498.197L557.645 498.793L558.434 499.381L559.229 499.962L560.032 500.535L560.84 501.1L561.656 501.657L562.478 502.206L563.306 502.747L564.141 503.279L564.981 503.804L565.829 504.32L566.682 504.828L567.541 505.327L568.406 505.818L569.278 506.301L570.155 506.774L571.037 507.239L571.926 507.695L572.82 508.143L573.719 508.581L574.624 509.011L575.534 509.431L576.45 509.843L577.371 510.245L578.297 510.638L579.227 511.022L580.163 511.396L581.104 511.762L582.049 512.117L583 512.464L583.954 512.8L584.914 513.127L585.877 513.445L586.845 513.753L587.817 514.051L588.794 514.339L589.774 514.617L590.759 514.886L591.747 515.144L592.739 515.393L593.735 515.632L594.734 515.86L595.737 516.078L596.743 516.287L597.753 516.485L598.766 516.672L599.782 516.85L600.801 517.017L601.823 517.174L602.848 517.32L603.875 517.456L604.905 517.582L605.938 517.697L606.973 517.801L608.011 517.895L609.051 517.979L610.092 518.052L611.136 518.114L612.182 518.165L613.23 518.206L614.279 518.236L615.33 518.255L616.383 518.264L617.437 518.261L618.492 518.248L619.549 518.224L620.607 518.189L621.665 518.144L622.725 518.087L623.785 518.019L624.846 517.941L625.908 517.852L626.97 517.751L628.033 517.64L629.095 517.518L630.158 517.384L631.221 517.24L632.284 517.085L633.347 516.919L634.41 516.741L635.472 516.553L636.534 516.354L637.595 516.143L638.655 515.922L639.715 515.69L640.773 515.446L641.831 515.192L642.887 514.926L643.942 514.65L644.996 514.363L646.049 514.064L647.1 513.755L648.149 513.434L649.196 513.103L650.242 512.761L651.285 512.407L652.326 512.043L653.366 511.668L654.402 511.282L655.437 510.885L656.468 510.477L657.498 510.059L658.524 509.629L659.547 509.189L660.568 508.738L661.585 508.276L662.599 507.804L663.61 507.32L664.617 506.827L665.621 506.322L666.621 505.807L667.618 505.281L668.61 504.745L669.599 504.198L670.583 503.641L671.564 503.073L672.54 502.495L673.511 501.906L674.478 501.307L675.441 500.698L676.398 500.079L677.351 499.449L678.299 498.809L679.242 498.159L680.18 497.499L681.113 496.829L682.04 496.149L682.962 495.459L683.878 494.759L684.788 494.049L685.693 493.33L686.592 492.601L687.484 491.862L688.371 491.113L689.252 490.355L690.126 489.587L690.994 488.81L691.855 488.024L692.71 487.228L693.558 486.423L694.4 485.608L695.234 484.785L696.062 483.952L696.882 483.111L697.695 482.26L698.501 481.401L699.3 480.533L700.091 479.656L700.875 478.77L701.651 477.876L702.419 476.973L703.179 476.062L703.931 475.143L704.676 474.215L705.412 473.279L706.14 472.335L706.86 471.382L707.571 470.422L708.274 469.454L708.968 468.478L709.654 467.494L710.331 466.503L710.999 465.504L711.658 464.498L712.308 463.484L712.95 462.463L713.582 461.434L714.204 460.399L714.818 459.357L715.422 458.307L716.016 457.251L716.601 456.188L717.176 455.118L717.742 454.042L718.298 452.959L718.844 451.87L719.38 450.775L719.906 449.673L720.421 448.565L720.927 447.452L721.423 446.332L721.908 445.207L722.382 444.076L722.847 442.939L723.301 441.797L723.744 440.649L724.176 439.497L724.598 438.339L725.009 437.176L725.409 436.008L725.799 434.835L726.177 433.658L726.544 432.476L726.901 431.289L727.246 430.098L727.58 428.903L727.903 427.704L728.214 426.5L728.514 425.293L728.802 424.081L729.08 422.866L729.345 421.648L729.599 420.426L729.842 419.2L730.072 417.972L730.291 416.74L730.499 415.505L730.694 414.267L730.878 413.027L731.049 411.783L731.209 410.538L731.357 409.29L731.493 408.039L731.617 406.786L731.728 405.532L731.828 404.275L731.915 403.017L731.991 401.757L732.054 400.495L732.104 399.232L732.143 397.968L732.169 396.702L732.183 395.435L732.184 394.168L732.173 392.899L732.15 391.63L732.114 390.361L732.066 389.091L732.005 387.82L731.932 386.55L731.847 385.279L731.748 384.009L731.638 382.739L731.514 381.469L731.379 380.199L731.23 378.93L731.069 377.662L730.895 376.395L730.709 375.129L730.51 373.864L730.299 372.6L730.075 371.337L729.838 370.076L729.589 368.817L729.327 367.559L729.052 366.304L728.765 365.05L728.465 363.799L728.153 362.549L727.828 361.303L727.49 360.058L727.14 358.817L726.777 357.578L726.402 356.343L726.014 355.11L725.613 353.88L725.2 352.654L724.775 351.432L724.337 350.213L723.886 348.997L723.423 347.786L722.948 346.579L722.46 345.375L721.96 344.176L721.448 342.981L720.923 341.791L720.386 340.606L719.836 339.425L719.275 338.249L718.701 337.078L718.115 335.913L717.517 334.752L716.906 333.598L716.284 332.448L715.65 331.304L715.003 330.166L714.345 329.034L713.675 327.909L712.993 326.789L712.299 325.675L711.593 324.568L710.876 323.468L710.147 322.374L709.406 321.287L708.654 320.207L707.89 319.134L707.115 318.068L706.329 317.009L705.531 315.958L704.721 314.914L703.901 313.878L703.069 312.85L702.227 311.83L701.373 310.817L700.508 309.813L699.632 308.817L698.746 307.83L697.848 306.851L696.94 305.88L696.022 304.918L695.092 303.965L694.153 303.021L693.203 302.086L692.242 301.161L691.271 300.244L690.29 299.337L689.299 298.439L688.298 297.551L687.287 296.673L686.266 295.805L685.235 294.946L684.195 294.098L683.144 293.259L682.085 292.431L681.016 291.614L679.937 290.806L678.85 290.01L677.753 289.224L676.647 288.448L675.532 287.684L674.408 286.931L673.275 286.188L672.134 285.457L670.984 284.737L669.826 284.028L668.659 283.331L667.484 282.646L666.3 281.972L665.109 281.31L663.91 280.659L662.702 280.021L661.487 279.394L660.264 278.78L659.034 278.177L657.796 277.587L656.551 277.01L655.299 276.444L654.039 275.892L652.773 275.351L651.499 274.824L650.219 274.309L648.932 273.807L647.639 273.318L646.339 272.842L645.033 272.379L643.721 271.929L642.402 271.492L641.078 271.069L639.748 270.659L638.412 270.262L637.07 269.879L635.724 269.509L634.371 269.153L633.014 268.81L631.651 268.481L630.284 268.166L628.911 267.865L627.534 267.578L626.153 267.304L624.767 267.045L623.376 266.8L621.982 266.569L620.583 266.352L619.181 266.149L617.775 265.96L616.365 265.786L614.952 265.626L613.535 265.481L612.115 265.35L610.692 265.234L609.266 265.132L607.837 265.044L606.406 264.972L604.972 264.913L603.535 264.87L602.097 264.841L600.656 264.827L599.213 264.828L597.768 264.844L596.322 264.874L594.874 264.92L593.425 264.98L591.975 265.055L590.523 265.145L589.07 265.25L587.617 265.37L586.163 265.505L584.708 265.655L583.253 265.82L581.798 266L580.342 266.195L578.887 266.405L577.432 266.631L575.977 266.871L574.523 267.126L573.069 267.397L571.616 267.682L570.164 267.983L568.714 268.299L567.264 268.63L565.816 268.976L564.369 269.337L562.924 269.713L561.481 270.104L560.04 270.51L558.601 270.931L557.164 271.367L555.729 271.819L554.298 272.285L552.869 272.766L551.442 273.263L550.019 273.774L548.599 274.3L547.183 274.841L545.77 275.397L544.36 275.968L542.954 276.553L541.552 277.154L540.155 277.769L538.761 278.399L537.372 279.043L535.987 279.702L534.607 280.376L533.232 281.065L531.862 281.768L530.497 282.485L529.137 283.217L527.783 283.964L526.434 284.724L525.091 285.499L523.754 286.289L522.423 287.092L521.098 287.91L519.779 288.742L518.467 289.587L517.161 290.447L515.862 291.321L514.57 292.209L513.285 293.11L512.007 294.026L510.737 294.954L509.473 295.897L508.218 296.853L506.97 297.823L505.73 298.806L504.498 299.802L503.275 300.812L502.059 301.834L500.852 302.87L499.654 303.919L498.464 304.981L497.283 306.056L496.112 307.143L494.949 308.244L493.796 309.357L492.652 310.482L491.517 311.62L490.392 312.77L489.277 313.933L488.172 315.107L487.077 316.294L485.993 317.493L484.918 318.703L483.854 319.926L482.801 321.16L481.758 322.405L480.726 323.662L479.705 324.931L478.696 326.211L477.697 327.502L476.71 328.804L475.734 330.117L474.77 331.44L473.817 332.775L472.877 334.12L471.948 335.476L471.031 336.842L470.127 338.218L469.235 339.604L468.355 341.001L467.488 342.407L466.633 343.823L465.791 345.249L464.962 346.684L464.146 348.129L463.343 349.583L462.554 351.046L461.777 352.518L461.014 353.999L460.265 355.489L459.529 356.987L458.806 358.494L458.098 360.009L457.403 361.532L456.723 363.064L456.056 364.603L455.404 366.151L454.766 367.706L454.142 369.268L453.533 370.838L452.939 372.415L452.359 373.999L451.794 375.59L451.243 377.188L450.708 378.793L450.187 380.404L449.682 382.021L449.192 383.645L448.717 385.274L448.257 386.91L447.813 388.551L447.384 390.198L446.971 391.85L446.574 393.508L446.192 395.17L445.826 396.838L445.475 398.51L445.141 400.187L444.822 401.869L444.52 403.555L444.234 405.245L443.963 406.939L443.709 408.637L443.472 410.338L443.25 412.043L443.045 413.751L442.857 415.463L442.685 417.177L442.529 418.895L442.39 420.615L442.268 422.337L442.162 424.062L442.073 425.789L442.001 427.518L441.946 429.249L441.907 430.981L441.886 432.715L441.881 434.451L441.893 436.187L441.922 437.924L441.968 439.663L442.032 441.401L442.112 443.14L442.21 444.88L442.324 446.619L442.456 448.359L442.605 450.098L442.771 451.837L442.954 453.575L443.154 455.312L443.372 457.049L443.607 458.784L443.859 460.518L444.129 462.25L444.416 463.981L444.72 465.709L445.041 467.436L445.38 469.161L445.736 470.883L446.109 472.602L446.499 474.319L446.907 476.033L447.332 477.744L447.774 479.451L448.234 481.155L448.71 482.856L449.204 484.552L449.716 486.245L450.244 487.933L450.79 489.617L451.352 491.296L451.932 492.971L452.529 494.641L453.143 496.306L453.774 497.965L454.422 499.619L455.087 501.267L455.769 502.91L456.468 504.547L457.184 506.177L457.917 507.801L458.667 509.419L459.433 511.03L460.216 512.634L461.015 514.231L461.832 515.821L462.665 517.403L463.514 518.978L464.38 520.545L465.262 522.104L466.161 523.655L467.076 525.198L468.007 526.733L468.954 528.259L469.918 529.776L470.898 531.284L471.893 532.783L472.905 534.273L473.932 535.753L474.975 537.224L476.034 538.684L477.108 540.135L478.198 541.576L479.304 543.007L480.425 544.427L481.561 545.836L482.712 547.235L483.879 548.623L485.06 549.999L486.257 551.365L487.468 552.719L488.694 554.061L489.935 555.392L491.191 556.71L492.461 558.017L493.745 559.311L495.044 560.593L496.357 561.863L497.683 563.12L499.024 564.364L500.379 565.595L501.748 566.813L503.13 568.017L504.525 569.208L505.935 570.386L507.357 571.55L508.793 572.7L510.241 573.836L511.703 574.958L513.177 576.065L514.664 577.158L516.164 578.237L517.676 579.3L519.201 580.349L520.738 581.383L522.286 582.402L523.847 583.405L525.42 584.394L527.004 585.366L528.599 586.323L530.207 587.264L531.825 588.19L533.454 589.099L535.095 589.992L536.746 590.869L538.408 591.729L540.08 592.573L541.763 593.4L543.456 594.211L545.159 595.004L546.872 595.781L548.595 596.54L550.328 597.283L552.07 598.008L553.821 598.715L555.581 599.405L557.351 600.078L559.129 600.732L560.916 601.369L562.711 601.988L564.515 602.589L566.327 603.172L568.147 603.736L569.974 604.282L571.81 604.81L573.653 605.319L575.503 605.81L577.36 606.282L579.225 606.735L581.096 607.169L582.974 607.585L584.858 607.981L586.748 608.358L588.645 608.716L590.548 609.055L592.456 609.375L594.37 609.675L596.289 609.956L598.214 610.217L600.143 610.459L602.077 610.68L604.016 610.883L605.96 611.065L607.907 611.228L609.859 611.371L611.814 611.493L613.774 611.596L615.736 611.679L617.703 611.741L619.672 611.784L621.644 611.806L623.619 611.808L625.596 611.79L627.576 611.752L629.558 611.693L631.542 611.614L633.527 611.514L635.515 611.394L637.503 611.254L639.493 611.093L641.484 610.911L643.475 610.709L645.467 610.486L647.46 610.243L649.452 609.979L651.445 609.695L653.437 609.39L655.429 609.064L657.42 608.718L659.41 608.351L661.4 607.963L663.388 607.555L665.374 607.125L667.359 606.676L669.342 606.206L671.323 605.715L673.302 605.203L675.278 604.671L677.252 604.118L679.223 603.544L681.19 602.95L683.155 602.336L685.116 601.701L687.073 601.045L689.026 600.369L690.975 599.672L692.92 598.955L694.86 598.218L696.796 597.46L698.726 596.682L700.652 595.883L702.572 595.064L704.486 594.225L706.395 593.366L708.298 592.487L710.195 591.587L712.085 590.668L713.969 589.729L715.846 588.769L717.716 587.79L719.579 586.791L721.434 585.773L723.282 584.734L725.122 583.676L726.954 582.599L728.778 581.502L730.593 580.385L732.4 579.25L734.198 578.094L735.987 576.92L737.767 575.727L739.538 574.515L741.299 573.284L743.05 572.033L744.791 570.765L746.522 569.477L748.243 568.171L749.953 566.847L751.652 565.504L753.34 564.142L755.018 562.763L756.683 561.366L758.338 559.95L759.98 558.517L761.611 557.066L763.23 555.597L764.836 554.111L766.43 552.607L768.011 551.086L769.579 549.548L771.134 547.993L772.677 546.421L774.205 544.832L775.72 543.227L777.222 541.605L778.709 539.966L780.182 538.311L781.641 536.64L783.086 534.953L784.516 533.25L785.931 531.532L787.331 529.797L788.716 528.048L790.085 526.283L791.44 524.502L792.778 522.707L794.101 520.897L795.407 519.073L796.698 517.233L797.972 515.38L799.229 513.512L800.47 511.63L801.694 509.734L802.902 507.824L804.092 505.901L805.265 503.964L806.42 502.014L807.558 500.051L808.678 498.076L809.78 496.087L810.864 494.086L811.93 492.072L812.978 490.047L814.007 488.009L815.017 485.959L816.009 483.898L816.982 481.825L817.936 479.741L818.871 477.646L819.787 475.54L820.683 473.424L821.559 471.296L822.416 469.159L823.253 467.011L824.071 464.854L824.868 462.686L825.645 460.509L826.401 458.323L827.138 456.128L827.854 453.923L828.549 451.71L829.223 449.489L829.877 447.259L830.509 445.021L831.121 442.775L831.711 440.522L832.28 438.261L832.828 435.993L833.354 433.718L833.859 431.435L834.342 429.147L834.804 426.852L835.243 424.55L835.661 422.243L836.056 419.93L836.43 417.612L836.781 415.288L837.11 412.96L837.417 410.626L837.701 408.288L837.963 405.945L838.202 403.599L838.418 401.248L838.612 398.894L838.783 396.536L838.932 394.175L839.057 391.811L839.16 389.444L839.239 387.075L839.295 384.703L839.329 382.329L839.339 379.954L839.326 377.577L839.29 375.198L839.23 372.819L839.147 370.439L839.041 368.057L838.911 365.676L838.758 363.294L838.581 360.913L838.381 358.532L838.158 356.151L837.911 353.771L837.64 351.393L837.345 349.015L837.028 346.639L836.686 344.265L836.321 341.893L835.932 339.523L835.52 337.156L835.083 334.791L834.624 332.429L834.14 330.071L833.633 327.716L833.102 325.365L832.548 323.018L831.969 320.675L831.368 318.337L830.742 316.003L830.093 313.674L829.421 311.351L828.725 309.032L828.005 306.72L827.262 304.414L826.495 302.113L825.705 299.819L824.891 297.532L824.055 295.252L823.194 292.979L822.311 290.713L821.404 288.455L820.474 286.205L819.52 283.963L818.544 281.729L817.544 279.504L816.522 277.288L815.476 275.081L814.408 272.884L813.317 270.696L812.203 268.517L811.066 266.349L809.907 264.191L808.725 262.044L807.521 259.908L806.294 257.782L805.045 255.668L803.773 253.565L802.48 251.474L801.164 249.395L799.826 247.329L798.467 245.274L797.085 243.232L795.682 241.204L794.258 239.188L792.811 237.186L791.344 235.197L789.855 233.222L788.345 231.261L786.814 229.315L785.261 227.383L783.688 225.466L782.094 223.563L780.48 221.676L778.845 219.804L777.19 217.948L775.514 216.108L773.818 214.283L772.103 212.475L770.367 210.684L768.612 208.909L766.837 207.151L765.043 205.41L763.229 203.686L761.396 201.981L759.545 200.292L757.674 198.622L755.785 196.97L753.877 195.336L751.95 193.721L750.006 192.124L748.043 190.547L746.063 188.989L744.064 187.45L742.048 185.93L740.015 184.431L737.965 182.951L735.897 181.491L733.812 180.052L731.711 178.633L729.593 177.235L727.459 175.858L725.309 174.501L723.142 173.167L720.96 171.853L718.762 170.561L716.549 169.291L714.321 168.042L712.077 166.816L709.819 165.612L707.546 164.43L705.258 163.271L702.957 162.135L700.641 161.022L698.311 159.932L695.968 158.865L693.611 157.821L691.242 156.801L688.859 155.805L686.463 154.832L684.055 153.884L681.634 152.959L679.202 152.059L676.757 151.183L674.301 150.332L671.833 149.505L669.354 148.704L666.864 147.927L664.364 147.175L661.853 146.448L659.331 145.747L656.799 145.071L654.258 144.421L651.707 143.797L649.147 143.198L646.577 142.625L643.999 142.078L641.412 141.558L638.816 141.063L636.213 140.595L633.601 140.153L630.982 139.738L628.356 139.349L625.722 138.988L623.082 138.653L620.434 138.344L617.781 138.063L615.121 137.809L612.456 137.582L609.784 137.382L607.108 137.21L604.426 137.065L601.74 136.947L599.048 136.857L596.353 136.794L593.654 136.759L590.95 136.752L588.244 136.773L585.534 136.821L582.82 136.897L580.105 137.001L577.387 137.133L574.666 137.293L571.944 137.481L569.22 137.697L566.495 137.941L563.768 138.213L561.041 138.513L558.313 138.842L555.585 139.199L552.857 139.584L550.13 139.997L547.403 140.438L544.676 140.908L541.951 141.406L539.227 141.932L536.505 142.487L533.785 143.07L531.067 143.681L528.351 144.32L525.639 144.988L522.929 145.684L520.223 146.408L517.52 147.16L514.821 147.941L512.126 148.75L509.436 149.587L506.751 150.452L504.071 151.345L501.396 152.266L498.726 153.216L496.062 154.193L493.405 155.198L490.754 156.231L488.11 157.292L485.472 158.381L482.842 159.498L480.22 160.642L477.605 161.814L474.999 163.013L472.401 164.24L469.811 165.495L467.231 166.776L464.659 168.085L462.098 169.422L459.546 170.785L457.004 172.175L454.472 173.593L451.951 175.037L449.441 176.508L446.942 178.006L444.455 179.53L441.979 181.081L439.515 182.658L437.064 184.261L434.625 185.891L432.199 187.547L429.786 189.228L427.386 190.936L425 192.669L422.628 194.427L420.27 196.211L417.927 198.021L415.598 199.855L413.284 201.715L410.985 203.6L408.702 205.509L406.434 207.443L404.183 209.401L401.948 211.384L399.729 213.391L397.527 215.422L395.342 217.477L393.175 219.555L391.025 221.657L388.893 223.783L386.778 225.931L384.683 228.103L382.605 230.298L380.547 232.515L378.507 234.755L376.487 237.017L374.486 239.301L372.505 241.607L370.545 243.936L368.604 246.285L366.684 248.656L364.784 251.048L362.906 253.461L361.049 255.895L359.213 258.35L357.398 260.825L355.606 263.32L353.836 265.835L352.088 268.37L350.362 270.924L348.66 273.497L346.98 276.09L345.324 278.702L343.691 281.332L342.081 283.98L340.495 286.647L338.934 289.332L337.396 292.034L335.884 294.754L334.395 297.491L332.932 300.245L331.494 303.016L330.08 305.803L328.693 308.607L327.331 311.426L325.994 314.262L324.684 317.112L323.4 319.978L322.142 322.859L320.911 325.755L319.707 328.665L318.529 331.589L317.379 334.527L316.256 337.479L315.16 340.445L314.092 343.423L313.051 346.414L312.039 349.418L311.054 352.434L310.098 355.462L309.17 358.501L308.271 361.552L307.4 364.615L306.558 367.688L305.745 370.771L304.961 373.865L304.207 376.969L303.482 380.082L302.786 383.205L302.12 386.337L301.483 389.478L300.877 392.627L300.3 395.785L299.754 398.95L299.238 402.123L298.752 405.304L298.297 408.491L297.872 411.685L297.478 414.885L297.115 418.091L296.782 421.303L296.481 424.521L296.211 427.743L295.971 430.971L295.763 434.202L295.587 437.438L295.441 440.678L295.327 443.921L295.245 447.168L295.194 450.417L295.176 453.669L295.188 456.923L295.233 460.179L295.309 463.437L295.418 466.696L295.558 469.956L295.731 473.216L295.935 476.477L296.172 479.737L296.441 482.997L296.742 486.257L297.075 489.515L297.44 492.772L297.838 496.028L298.268 499.281L298.731 502.532L299.226 505.78L299.753 509.025L300.312 512.267L300.904 515.505L301.529 518.739L302.186 521.968L302.875 525.193L303.596 528.413L304.35 531.627L305.137 534.836L305.955 538.039L306.807 541.235L307.69 544.424L308.606 547.607L309.553 550.782L310.534 553.949L311.546 557.108L312.591 560.259L313.667 563.401L314.776 566.534L315.917 569.657L317.09 572.771L318.294 575.874L319.531 578.967L320.799 582.05L322.099 585.121L323.431 588.181L324.794 591.229L326.189 594.265L327.616 597.289L329.073 600.3L330.562 603.298L332.083 606.282L333.634 609.253L335.216 612.209L336.829 615.151L338.473 618.079L340.148 620.991L341.854 623.888L343.589 626.77L345.356 629.635L347.152 632.484L348.979 635.316L350.835 638.132L352.722 640.93L354.638 643.71L356.584 646.473L358.559 649.217L360.564 651.943L362.598 654.65L364.661 657.337L366.753 660.005L368.873 662.654L371.022 665.282L373.2 667.89L375.406 670.477L377.64 673.043L379.902 675.588L382.191 678.111L384.508 680.612L386.853 683.091L389.225 685.547L391.624 687.981L394.049 690.392L396.502 692.779L398.981 695.142L401.486 697.482L404.017 699.797L406.574 702.088L409.157 704.354L411.765 706.595L414.398 708.81L417.056 711L419.739 713.164L422.447 715.301L425.179 717.413L427.935 719.497L430.715 721.555L433.519 723.585L436.346 725.588L439.196 727.563L442.07 729.51L444.966 731.428L447.884 733.319L450.825 735.18L453.787 737.012L456.771 738.816L459.777 740.589L462.804 742.333L465.852 744.047L468.92 745.731L472.009 747.384L475.117 749.007L478.246 750.598L481.394 752.159L484.562 753.688L487.748 755.186L490.953 756.652L494.177 758.086L497.419 759.487L500.678 760.857L503.955 762.194L507.25 763.498L510.561 764.768L513.889 766.006L517.233 767.211L520.594 768.381L523.97 769.518L527.361 770.622L530.768 771.691L534.189 772.725L537.625 773.725L541.075 774.691L544.539 775.622L548.016 776.518L551.507 777.378L555.01 778.204L558.526 778.994L562.054 779.748L565.594 780.467L569.146 781.149L572.708 781.796L576.282 782.406L579.866 782.981L583.461 783.518L587.065 784.02L590.679 784.484L594.301 784.912L597.933 785.303L601.573 785.657L605.221 785.973L608.877 786.253L612.541 786.495L616.211 786.7L619.888 786.867L623.572 786.996L627.261 787.088L630.956 787.142L634.656 787.158L638.362 787.136L642.071 787.076L645.785 786.978L649.503 786.841L653.224 786.667L656.948 786.454L660.674 786.203L664.403 785.913L668.134 785.585L671.867 785.219L675.6 784.814L679.335 784.37L683.07 783.888L686.805 783.367L690.539 782.807L694.273 782.209L698.006 781.572L701.737 780.897L705.467 780.182L709.194 779.429L712.919 778.637L716.641 777.807L720.359 776.937L724.074 776.03L727.784 775.083L731.49 774.098L735.191 773.074L738.887 772.011L742.577 770.91L746.261 769.77L749.939 768.592L753.61 767.375L757.274 766.12L760.93 764.826L764.578 763.494L768.217 762.124L771.848 760.716L775.47 759.269L779.082 757.784L782.685 756.262L786.277 754.701L789.858 753.103L793.429 751.467L796.988 749.793L800.535 748.081L804.07 746.332L807.592 744.546L811.102 742.723L814.598 740.862L818.08 738.964L821.548 737.029L825.002 735.058L828.441 733.05L831.865 731.005L835.273 728.924L838.665 726.807L842.041 724.653L845.4 722.464L848.742 720.238L852.066 717.977L855.373 715.681L858.661 713.349L861.931 710.981L865.181 708.579L868.413 706.142L871.625 703.67L874.816 701.164L877.988 698.623L881.138 696.049L884.267 693.44L887.375 690.798L890.461 688.122L893.525 685.412" stroke="#F4ECCA" stroke-opacity="0.23" stroke-width="10" stroke-linecap="round"/>
</svg>
