<svg width="68" height="69" viewBox="0 0 68 69" fill="none" xmlns="http://www.w3.org/2000/svg">
<path d="M39.4069 26.2624L39.3834 26.2168L39.3593 26.1714L39.3348 26.1262L39.3097 26.0813L39.2842 26.0366L39.2581 25.9921L39.2315 25.9479L39.2044 25.9039L39.1769 25.8601L39.1488 25.8166L39.1202 25.7734L39.0912 25.7305L39.0616 25.6878L39.0316 25.6454L39.0011 25.6033L38.97 25.5614L38.9385 25.5199L38.9066 25.4787L38.8741 25.4377L38.8412 25.3971L38.8078 25.3567L38.7739 25.3167L38.7395 25.277L38.7047 25.2377L38.6694 25.1986L38.6337 25.1599L38.5975 25.1215L38.5608 25.0835L38.5237 25.0458L38.4861 25.0085L38.4481 24.9715L38.4096 24.9349L38.3707 24.8987L38.3314 24.8628L38.2916 24.8273L38.2514 24.7921L38.2107 24.7574L38.1697 24.723L38.1282 24.6891L38.0863 24.6555L38.044 24.6223L38.0012 24.5896L37.9581 24.5572L37.9145 24.5253L37.8706 24.4937L37.8262 24.4626L37.7815 24.4319L37.7363 24.4017L37.6908 24.3718L37.6449 24.3424L37.5986 24.3135L37.5519 24.285L37.5049 24.2569L37.4575 24.2293L37.4097 24.2021L37.3616 24.1754L37.3131 24.1492L37.2642 24.1234L37.2151 24.0981L37.1655 24.0733L37.1157 24.0489L37.0655 24.025L37.0149 24.0016L36.9641 23.9787L36.9129 23.9563L36.8614 23.9344L36.8096 23.9129L36.7575 23.892L36.7051 23.8716L36.6524 23.8516L36.5994 23.8322L36.5461 23.8133L36.4925 23.7949L36.4387 23.777L36.3845 23.7597L36.3301 23.7428L36.2755 23.7265L36.2206 23.7107L36.1654 23.6955L36.11 23.6808L36.0543 23.6666L35.9984 23.6529L35.9423 23.6398L35.8859 23.6273L35.8293 23.6152L35.7725 23.6038L35.7155 23.5928L35.6583 23.5825L35.6009 23.5727L35.5432 23.5634L35.4854 23.5547L35.4274 23.5466L35.3693 23.539L35.3109 23.532L35.2524 23.5255L35.1937 23.5197L35.1349 23.5143L35.0759 23.5096L35.0167 23.5054L34.9575 23.5019L34.8981 23.4988L34.8385 23.4964L34.7789 23.4945L34.7191 23.4933L34.6592 23.4926L34.5992 23.4925L34.5391 23.4929L34.4789 23.494L34.4186 23.4956L34.3583 23.4979L34.2978 23.5007L34.2373 23.5041L34.1767 23.5081L34.1161 23.5127L34.0554 23.5178L33.9947 23.5236L33.9339 23.53L33.8731 23.5369L33.8123 23.5445L33.7514 23.5526L33.6905 23.5614L33.6297 23.5707L33.5688 23.5806L33.5079 23.5911L33.447 23.6023L33.3862 23.614L33.3253 23.6263L33.2645 23.6392L33.2037 23.6527L33.143 23.6668L33.0823 23.6815L33.0217 23.6967L32.9611 23.7126L32.9005 23.7291L32.8401 23.7461L32.7797 23.7638L32.7194 23.7821L32.6592 23.8009L32.5991 23.8203L32.5391 23.8403L32.4793 23.861L32.4195 23.8821L32.3598 23.9039L32.3003 23.9263L32.2409 23.9493L32.1816 23.9728L32.1225 23.9969L32.0636 24.0216L32.0048 24.0469L31.9461 24.0728L31.8877 24.0992L31.8294 24.1262L31.7713 24.1538L31.7134 24.182L31.6557 24.2107L31.5981 24.24L31.5408 24.2699L31.4837 24.3003L31.4269 24.3313L31.3702 24.3629L31.3138 24.395L31.2576 24.4277L31.2017 24.4609L31.146 24.4947L31.0906 24.529L31.0355 24.5639L30.9806 24.5993L30.926 24.6353L30.8717 24.6718L30.8176 24.7089L30.7639 24.7464L30.7104 24.7846L30.6573 24.8232L30.6045 24.8624L30.552 24.9021L30.4998 24.9423L30.448 24.983L30.3964 25.0243L30.3453 25.0661L30.2945 25.1083L30.244 25.1511L30.1939 25.1944L30.1441 25.2382L30.0948 25.2824L30.0457 25.3272L29.9971 25.3725L29.9489 25.4182L29.9011 25.4644L29.8536 25.5111L29.8066 25.5583L29.76 25.6059L29.7138 25.654L29.668 25.7026L29.6227 25.7516L29.5777 25.8011L29.5332 25.8511L29.4892 25.9014L29.4456 25.9522L29.4025 26.0035L29.3598 26.0552L29.3176 26.1073L29.2758 26.1598L29.2346 26.2128L29.1938 26.2662L29.1535 26.32L29.1137 26.3742L29.0743 26.4288L29.0355 26.4837L28.9972 26.5391L28.9594 26.5949L28.9221 26.651L28.8853 26.7076L28.8491 26.7645L28.8134 26.8217L28.7782 26.8794L28.7435 26.9374L28.7094 26.9957L28.6759 27.0544L28.6429 27.1134L28.6104 27.1728L28.5785 27.2325L28.5472 27.2925L28.5165 27.3528L28.4863 27.4135L28.4567 27.4744L28.4277 27.5357L28.3992 27.5973L28.3714 27.6591L28.3441 27.7213L28.3175 27.7837L28.2914 27.8464L28.266 27.9094L28.2412 27.9726L28.2169 28.0361L28.1933 28.0998L28.1704 28.1638L28.148 28.2281L28.1263 28.2925L28.1052 28.3572L28.0847 28.4221L28.0649 28.4873L28.0457 28.5526L28.0271 28.6181L28.0092 28.6839L27.992 28.7498L27.9754 28.8159L27.9595 28.8822L27.9442 28.9487L27.9296 29.0153L27.9156 29.0821L27.9024 29.149L27.8898 29.2161L27.8778 29.2834L27.8666 29.3507L27.856 29.4182L27.8461 29.4858L27.8369 29.5535L27.8283 29.6214L27.8205 29.6893L27.8133 29.7573L27.8069 29.8254L27.8011 29.8936L27.796 29.9619L27.7916 30.0302L27.788 30.0986L27.785 30.167L27.7827 30.2355L27.7812 30.3041L27.7803 30.3726L27.7801 30.4412L27.7807 30.5098L27.782 30.5784L27.7839 30.6471L27.7866 30.7157L27.79 30.7843L27.7942 30.8529L27.799 30.9215L27.8046 30.99L27.8108 31.0585L27.8178 31.127L27.8255 31.1954L27.834 31.2638L27.8431 31.3321L27.853 31.4003L27.8636 31.4684L27.8749 31.5365L27.887 31.6044L27.8997 31.6723L27.9132 31.7401L27.9274 31.8077L27.9424 31.8752L27.958 31.9426L27.9744 32.0099L27.9915 32.077L28.0093 32.1439L28.0279 32.2108L28.0472 32.2774L28.0672 32.3439L28.0879 32.4102L28.1093 32.4763L28.1314 32.5422L28.1543 32.6079L28.1779 32.6735L28.2022 32.7388L28.2272 32.8038L28.253 32.8687L28.2794 32.9333L28.3066 32.9977L28.3344 33.0618L28.363 33.1257L28.3923 33.1893L28.4223 33.2527L28.453 33.3157L28.4844 33.3785L28.5165 33.441L28.5493 33.5032L28.5828 33.5651L28.617 33.6267L28.6519 33.688L28.6875 33.749L28.7237 33.8096L28.7607 33.8699L28.7983 33.9298L28.8366 33.9894L28.8756 34.0486L28.9153 34.1075L28.9557 34.166L28.9967 34.2241L29.0384 34.2818L29.0807 34.3391L29.1238 34.3961L29.1674 34.4526L29.2118 34.5087L29.2568 34.5644L29.3024 34.6197L29.3487 34.6746L29.3956 34.729L29.4432 34.783L29.4914 34.8365L29.5403 34.8896L29.5897 34.9422L29.6398 34.9943L29.6905 35.046L29.7419 35.0972L29.7938 35.1479L29.8464 35.1981L29.8996 35.2478L29.9533 35.297L30.0077 35.3457L30.0627 35.3939L30.1182 35.4415L30.1743 35.4886L30.231 35.5352L30.2883 35.5813L30.3462 35.6268L30.4046 35.6717L30.4636 35.7161L30.5231 35.76L30.5832 35.8032L30.6439 35.8459L30.7051 35.888L30.7668 35.9295L30.829 35.9705L30.8918 36.0108L30.9551 36.0506L31.0189 36.0897L31.0832 36.1282L31.1481 36.1661L31.2134 36.2034L31.2792 36.2401L31.3455 36.2761L31.4123 36.3115L31.4796 36.3462L31.5473 36.3803L31.6155 36.4138L31.6841 36.4466L31.7532 36.4787L31.8228 36.5102L31.8928 36.541L31.9632 36.5711L32.0341 36.6006L32.1054 36.6294L32.177 36.6575L32.2492 36.6848L32.3217 36.7115L32.3945 36.7375L32.4678 36.7628L32.5415 36.7874L32.6156 36.8113L32.69 36.8345L32.7647 36.8569L32.8399 36.8787L32.9154 36.8997L32.9912 36.9199L33.0673 36.9395L33.1438 36.9583L33.2206 36.9763L33.2977 36.9937L33.3752 37.0102L33.4529 37.0261L33.5309 37.0411L33.6092 37.0554L33.6878 37.069L33.7666 37.0818L33.8457 37.0938L33.9251 37.1051L34.0047 37.1156L34.0846 37.1253L34.1646 37.1343L34.2449 37.1424L34.3255 37.1498L34.4062 37.1564L34.4871 37.1623L34.5683 37.1673L34.6496 37.1716L34.7311 37.175L34.8127 37.1777L34.8945 37.1796L34.9765 37.1806L35.0586 37.1809L35.1409 37.1804L35.2233 37.1791L35.3058 37.177L35.3884 37.174L35.4712 37.1703L35.554 37.1658L35.6369 37.1604L35.7199 37.1543L35.803 37.1473L35.8861 37.1396L35.9693 37.131L36.0526 37.1216L36.1358 37.1114L36.2191 37.1004L36.3025 37.0885L36.3858 37.0759L36.4692 37.0624L36.5526 37.0481L36.6359 37.033L36.7192 37.0171L36.8025 37.0004L36.8858 36.9829L36.969 36.9645L37.0522 36.9454L37.1353 36.9254L37.2183 36.9046L37.3013 36.883L37.3841 36.8606L37.4669 36.8373L37.5496 36.8133L37.6322 36.7884L37.7146 36.7628L37.7969 36.7363L37.8791 36.709L37.9611 36.6809L38.043 36.652L38.1247 36.6223L38.2062 36.5918L38.2875 36.5605L38.3687 36.5284L38.4497 36.4955L38.5304 36.4618L38.6109 36.4274L38.6913 36.3921L38.7713 36.356L38.8512 36.3191L38.9308 36.2815L39.0101 36.2431L39.0892 36.2038L39.168 36.1639L39.2465 36.1231L39.3247 36.0815L39.4026 36.0392L39.4802 35.9961L39.5575 35.9523L39.6344 35.9077L39.711 35.8623L39.7873 35.8162L39.8633 35.7693L39.9388 35.7216L40.014 35.6732L40.0888 35.6241L40.1633 35.5742L40.2373 35.5236L40.311 35.4723L40.3842 35.4202L40.457 35.3674L40.5294 35.3139L40.6014 35.2597L40.6729 35.2047L40.7439 35.1491L40.8145 35.0927L40.8847 35.0356L40.9543 34.9779L41.0235 34.9194L41.0922 34.8602L41.1604 34.8004L41.2281 34.7399L41.2952 34.6787L41.3619 34.6169L41.428 34.5544L41.4936 34.4912L41.5586 34.4273L41.6231 34.3629L41.687 34.2977L41.7503 34.232L41.8131 34.1656L41.8753 34.0986L41.9369 34.0309L41.9979 33.9627L42.0583 33.8938L42.1181 33.8243L42.1772 33.7542L42.2357 33.6835L42.2936 33.6123L42.3509 33.5404L42.4075 33.468L42.4635 33.395L42.5187 33.3215L42.5734 33.2474L42.6273 33.1727L42.6806 33.0975L42.7331 33.0218L42.785 32.9455L42.8362 32.8687L42.8866 32.7914L42.9364 32.7136L42.9854 32.6353L43.0337 32.5564L43.0812 32.4771L43.128 32.3973L43.1741 32.3171L43.2194 32.2363L43.2639 32.1551L43.3077 32.0735L43.3507 31.9914L43.393 31.9088L43.4344 31.8259L43.4751 31.7425L43.5149 31.6586L43.554 31.5744L43.5922 31.4898L43.6297 31.4048L43.6663 31.3194L43.7021 31.2336L43.737 31.1474L43.7712 31.0609L43.8045 30.974L43.8369 30.8868L43.8685 30.7993L43.8993 30.7114L43.9292 30.6232L43.9582 30.5346L43.9863 30.4458L44.0136 30.3567L44.04 30.2673L44.0656 30.1776L44.0902 30.0876L44.114 29.9974L44.1368 29.9069L44.1588 29.8162L44.1798 29.7253L44.2 29.6341L44.2192 29.5427L44.2376 29.451L44.255 29.3592L44.2715 29.2672L44.287 29.175L44.3017 29.0826L44.3154 28.9901L44.3281 28.8974L44.34 28.8046L44.3509 28.7116L44.3608 28.6185L44.3698 28.5252L44.3779 28.4319L44.385 28.3385L44.3911 28.2449L44.3963 28.1513L44.4005 28.0576L44.4038 27.9638L44.4061 27.87L44.4074 27.7762L44.4078 27.6823L44.4072 27.5883L44.4056 27.4944L44.403 27.4004L44.3995 27.3065L44.395 27.2125L44.3895 27.1186L44.383 27.0247L44.3756 26.9309L44.3671 26.8371L44.3577 26.7433L44.3473 26.6496L44.3359 26.556L44.3236 26.4625L44.3102 26.3691L44.2958 26.2758L44.2805 26.1826L44.2642 26.0895L44.2468 25.9966L44.2285 25.9038L44.2092 25.8112L44.1889 25.7187L44.1677 25.6264L44.1454 25.5343L44.1221 25.4424L44.0979 25.3507L44.0726 25.2592L44.0464 25.1679L44.0192 25.0768L43.991 24.986L43.9618 24.8955L43.9317 24.8052L43.9005 24.7151L43.8684 24.6254L43.8352 24.5359L43.8011 24.4468L43.7661 24.3579L43.73 24.2694L43.693 24.1812L43.655 24.0933L43.616 24.0058L43.5761 23.9187L43.5352 23.8319L43.4933 23.7455L43.4504 23.6594L43.4066 23.5738L43.3619 23.4886L43.3162 23.4038L43.2695 23.3194L43.2219 23.2354L43.1733 23.1519L43.1238 23.0688L43.0734 22.9862L43.022 22.9041L42.9697 22.8224L42.9164 22.7413L42.8623 22.6606L42.8072 22.5804L42.7512 22.5008L42.6942 22.4217L42.6364 22.3431L42.5776 22.265L42.518 22.1875L42.4574 22.1106L42.3959 22.0343L42.3336 21.9585L42.2704 21.8833L42.2062 21.8087L42.1412 21.7347L42.0754 21.6613L42.0086 21.5885L41.9411 21.5164L41.8726 21.4449L41.8033 21.3741L41.7331 21.3039L41.6622 21.2344L41.5903 21.1655L41.5177 21.0974L41.4442 21.0299L41.3699 20.9631L41.2948 20.8971L41.2188 20.8317L41.1421 20.7671L41.0646 20.7032L40.9863 20.64L40.9072 20.5776L40.8273 20.5159L40.7467 20.455L40.6653 20.3949L40.5831 20.3355L40.5002 20.2769L40.4166 20.2192L40.3322 20.1622L40.2471 20.106L40.1613 20.0506L40.0747 19.9961L39.9875 19.9424L39.8995 19.8895L39.8109 19.8375L39.7215 19.7863L39.6315 19.736L39.5409 19.6865L39.4495 19.6379L39.3575 19.5902L39.2649 19.5434L39.1716 19.4974L39.0778 19.4524L38.9832 19.4082L38.8881 19.365L38.7924 19.3227L38.696 19.2813L38.5991 19.2408L38.5016 19.2013L38.4036 19.1627L38.3049 19.125L38.2058 19.0883L38.106 19.0525L38.0058 19.0178L37.905 18.9839L37.8037 18.9511L37.7019 18.9192L37.5996 18.8883L37.4968 18.8584L37.3936 18.8295L37.2898 18.8016L37.1856 18.7747L37.081 18.7488L36.9759 18.7239L36.8704 18.7L36.7644 18.6772L36.6581 18.6553L36.5514 18.6345L36.4442 18.6148L36.3367 18.596L36.2288 18.5783L36.1206 18.5617L36.012 18.5461L35.903 18.5316L35.7937 18.5181L35.6842 18.5057L35.5743 18.4943L35.4641 18.484L35.3536 18.4748L35.2428 18.4667L35.1318 18.4596L35.0205 18.4536L34.909 18.4487L34.7972 18.4449L34.6852 18.4421L34.573 18.4405L34.4606 18.4399L34.348 18.4404L34.2352 18.4421L34.1223 18.4448L34.0092 18.4486L33.896 18.4535L33.7826 18.4596L33.6691 18.4667L33.5554 18.475L33.4417 18.4843L33.3279 18.4948L33.214 18.5063L33.1001 18.519L32.9861 18.5328L32.872 18.5477L32.7579 18.5638L32.6438 18.5809L32.5297 18.5991L32.4155 18.6185L32.3014 18.639L32.1873 18.6606L32.0733 18.6833L31.9593 18.7071L31.8453 18.7321L31.7314 18.7582L31.6176 18.7853L31.5039 18.8136L31.3904 18.843L31.2769 18.8735L31.1635 18.9052L31.0503 18.9379L30.9373 18.9718L30.8244 19.0067L30.7116 19.0428L30.5991 19.08L30.4868 19.1182L30.3747 19.1576L30.2628 19.1981L30.1511 19.2397L30.0397 19.2824L29.9285 19.3262L29.8177 19.371L29.707 19.417L29.5967 19.464L29.4867 19.5122L29.377 19.5614L29.2677 19.6117L29.1587 19.663L29.05 19.7155L28.9417 19.769L28.8337 19.8236L28.7262 19.8792L28.6191 19.936L28.5123 19.9937L28.406 20.0526L28.3001 20.1124L28.1947 20.1733L28.0897 20.2353L27.9852 20.2983L27.8812 20.3623L27.7776 20.4274L27.6746 20.4935L27.5721 20.5606L27.4701 20.6287L27.3686 20.6978L27.2677 20.7679L27.1674 20.8391L27.0676 20.9112L26.9684 20.9843L26.8698 21.0584L26.7718 21.1335L26.6744 21.2096L26.5776 21.2866L26.4815 21.3646L26.386 21.4435L26.2912 21.5234L26.197 21.6042L26.1036 21.686L26.0108 21.7687L25.9187 21.8523L25.8274 21.9368L25.7367 22.0223L25.6468 22.1086L25.5577 22.1959L25.4693 22.284L25.3817 22.373L25.2948 22.4629L25.2087 22.5537L25.1235 22.6453L25.039 22.7378L24.9554 22.8311L24.8725 22.9253L24.7906 23.0203L24.7094 23.1161L24.6292 23.2127L24.5497 23.3102L24.4712 23.4084L24.3936 23.5074L24.3168 23.6072L24.241 23.7078L24.1661 23.8091L24.0921 23.9112L24.019 24.0141L23.9469 24.1176L23.8757 24.222L23.8055 24.327L23.7363 24.4327L23.668 24.5391L23.6007 24.6463L23.5345 24.7541L23.4692 24.8626L23.405 24.9717L23.3417 25.0815L23.2795 25.1919L23.2184 25.303L23.1583 25.4147L23.0992 25.527L23.0412 25.6399L22.9843 25.7534L22.9285 25.8675L22.8737 25.9822L22.8201 26.0974L22.7676 26.2132L22.7161 26.3295L22.6658 26.4464L22.6166 26.5637L22.5686 26.6816L22.5216 26.8L22.4759 26.9188L22.4313 27.0382L22.3878 27.158L22.3455 27.2782L22.3044 27.3989L22.2645 27.52L22.2257 27.6416L22.1882 27.7635L22.1518 27.8859L22.1167 28.0086L22.0828 28.1317L22.0501 28.2552L22.0186 28.379L21.9883 28.5032L21.9593 28.6277L21.9315 28.7525L21.905 28.8776L21.8797 29.003L21.8556 29.1286L21.8328 29.2546L21.8113 29.3807L21.7911 29.5072L21.7721 29.6338L21.7544 29.7607L21.738 29.8878L21.7229 30.0151L21.7091 30.1425L21.6966 30.2701L21.6853 30.3979L21.6754 30.5258L21.6668 30.6539L21.6595 30.782L21.6535 30.9103L21.6488 31.0386L21.6455 31.1671L21.6434 31.2956L21.6427 31.4241L21.6433 31.5527L21.6453 31.6813L21.6486 31.81L21.6532 31.9386L21.6592 32.0672L21.6665 32.1958L21.6751 32.3244L21.6851 32.4529L21.6964 32.5813L21.7091 32.7097L21.7231 32.8379L21.7385 32.9661L21.7552 33.0942L21.7733 33.2221L21.7927 33.3499L21.8135 33.4775L21.8357 33.6049L21.8592 33.7322L21.884 33.8593L21.9102 33.9861L21.9378 34.1128L21.9667 34.2392L21.997 34.3653L22.0286 34.4912L22.0616 34.6168L22.0959 34.7422L22.1316 34.8672L22.1687 34.9919L22.2071 35.1163L22.2468 35.2403L22.2879 35.364L22.3303 35.4873L22.3741 35.6102L22.4193 35.7328L22.4657 35.8549L22.5135 35.9766L22.5627 36.0979L22.6132 36.2187L22.665 36.3391L22.7181 36.459L22.7726 36.5784L22.8284 36.6973L22.8855 36.8157L22.944 36.9335L23.0037 37.0509L23.0648 37.1676L23.1272 37.2839L23.1908 37.3995L23.2558 37.5145L23.3221 37.629L23.3897 37.7428L23.4585 37.856L23.5287 37.9686L23.6001 38.0805L23.6728 38.1917L23.7468 38.3022L23.822 38.4121L23.8985 38.5213L23.9763 38.6297L24.0553 38.7374L24.1355 38.8444L24.217 38.9506L24.2997 39.0561L24.3837 39.1607L24.4688 39.2646L24.5552 39.3677L24.6428 39.47L24.7316 39.5714L24.8216 39.672L24.9127 39.7718L25.0051 39.8706L25.0986 39.9687L25.1933 40.0658L25.2892 40.162L25.3862 40.2573L25.4844 40.3518L25.5837 40.4452L25.6841 40.5378L25.7856 40.6293L25.8883 40.7199L25.9921 40.8096L26.0969 40.8982L26.2029 40.9859L26.3099 41.0725L26.4181 41.1581L26.5272 41.2427L26.6375 41.3263L26.7487 41.4088L26.8611 41.4902L26.9744 41.5706L27.0888 41.6499L27.2041 41.728L27.3205 41.8051L27.4379 41.8811L27.5562 41.956L27.6755 42.0297L27.7958 42.1022L27.917 42.1737L28.0391 42.2439L28.1622 42.313L28.2862 42.3809L28.4111 42.4476L28.5369 42.5132L28.6636 42.5775L28.7911 42.6406L28.9196 42.7025L29.0488 42.7631L29.1789 42.8225L29.3099 42.8806L29.4416 42.9375L29.5742 42.9931L29.7076 43.0475L29.8417 43.1005L29.9766 43.1523L30.1123 43.2028L30.2487 43.2519L30.3858 43.2998L30.5237 43.3463L30.6623 43.3915L30.8015 43.4353L30.9415 43.4778L31.0821 43.519L31.2234 43.5588L31.3653 43.5972L31.5078 43.6343L31.651 43.67L31.7948 43.7043L31.9392 43.7372L32.0841 43.7687L32.2296 43.7988L32.3757 43.8275L32.5223 43.8548L32.6694 43.8806L32.817 43.9051L32.9652 43.9281L33.1138 43.9497L33.2629 43.9698L33.4124 43.9885L33.5624 44.0057L33.7128 44.0215L33.8636 44.0358L34.0148 44.0487L34.1664 44.0601L34.3183 44.07L34.4706 44.0784L34.6233 44.0854L34.7762 44.0909L34.9295 44.0949L35.0831 44.0974L35.2369 44.0984L35.391 44.0979L35.5454 44.0959L35.7 44.0924L35.8548 44.0874L36.0098 44.0809L36.165 44.0729L36.3204 44.0633L36.4759 44.0523L36.6316 44.0397L36.7874 44.0256L36.9433 44.01L37.0993 43.9929L37.2554 43.9743L37.4116 43.9541L37.5678 43.9324L37.724 43.9092L37.8803 43.8844L38.0365 43.8582L38.1927 43.8304L38.3489 43.801L38.5051 43.7702L38.6612 43.7378L38.8172 43.7039L38.9731 43.6685L39.129 43.6315L39.2847 43.593L39.4402 43.553L39.5956 43.5114L39.7508 43.4684L39.9058 43.4238L40.0607 43.3777L40.2153 43.3301L40.3696 43.2809L40.5237 43.2303L40.6776 43.1781L40.8311 43.1244L40.9844 43.0692L41.1373 43.0125L41.2899 42.9544L41.4421 42.8947L41.594 42.8335L41.7455 42.7708L41.8966 42.7066L42.0473 42.6409L42.1975 42.5738L42.3473 42.5052L42.4967 42.4351L42.6455 42.3635L42.7939 42.2905L42.9417 42.216L43.0891 42.14L43.2358 42.0626L43.3821 41.9837L43.5277 41.9034L43.6728 41.8217L43.8172 41.7385L43.961 41.6539L44.1042 41.5679L44.2468 41.4804L44.3886 41.3916L44.5298 41.3013L44.6703 41.2097L44.81 41.1167L44.9491 41.0222L45.0874 40.9264L45.2249 40.8293L45.3616 40.7307L45.4976 40.6308L45.6327 40.5296L45.767 40.427L45.9005 40.3231L46.0331 40.2179L46.1648 40.1113L46.2957 40.0034L46.4257 39.8943L46.5547 39.7838L46.6828 39.6721L46.81 39.5591L46.9362 39.4448L47.0614 39.3292L47.1857 39.2124L47.3089 39.0944L47.4311 38.9752L47.5523 38.8547L47.6725 38.733L47.7916 38.6101L47.9096 38.486L48.0265 38.3608L48.1423 38.2343L48.257 38.1068L48.3706 37.978L48.483 37.8481L48.5942 37.7171L48.7043 37.585L48.8132 37.4518L48.921 37.3175L49.0274 37.1821L49.1327 37.0456L49.2368 36.9081L49.3395 36.7695L49.441 36.6299L49.5413 36.4892L49.6402 36.3476L49.7379 36.205L49.8342 36.0613L49.9292 35.9167L50.0229 35.7711L50.1152 35.6246L50.2062 35.4772L50.2957 35.3288L50.3839 35.1795L50.4707 35.0293L50.5561 34.8783L50.64 34.7263L50.7226 34.5735L50.8036 34.4199L50.8833 34.2654L50.9614 34.1102L51.0381 33.9541L51.1133 33.7972L51.187 33.6396L51.2591 33.4812L51.3298 33.3221L51.3989 33.1622L51.4665 33.0016L51.5326 32.8404L51.597 32.6784L51.66 32.5158L51.7213 32.3525L51.781 32.1886L51.8392 32.024L51.8957 31.8589L51.9507 31.6931L52.004 31.5268L52.0556 31.3599L52.1057 31.1925L52.154 31.0246L52.2008 30.8561L52.2458 30.6871L52.2892 30.5177L52.3309 30.3478L52.3709 30.1774L52.4092 30.0066L52.4458 29.8354L52.4807 29.6638L52.5139 29.4918L52.5454 29.3194L52.5751 29.1467L52.6031 28.9737L52.6293 28.8003L52.6538 28.6267L52.6766 28.4527L52.6975 28.2785L52.7167 28.1041L52.7342 27.9294L52.7498 27.7545L52.7637 27.5794L52.7758 27.4041L52.7861 27.2286L52.7946 27.0531L52.8013 26.8773L52.8062 26.7015L52.8092 26.5256L52.8105 26.3496L52.8099 26.1736L52.8075 25.9975L52.8033 25.8214L52.7973 25.6453L52.7894 25.4692L52.7797 25.2931L52.7682 25.1171L52.7548 24.9411L52.7396 24.7653L52.7225 24.5895L52.7036 24.4139L52.6829 24.2384L52.6603 24.063L52.6358 23.8879L52.6095 23.7129L52.5813 23.5381L52.5513 23.3636L52.5194 23.1893L52.4857 23.0153L52.4501 22.8416L52.4127 22.6681L52.3734 22.495L52.3322 22.3222L52.2892 22.1498L52.2443 21.9778L52.1976 21.8061L52.1491 21.6349L52.0986 21.4641L52.0464 21.2937L51.9922 21.1238L51.9363 20.9544L51.8785 20.7855L51.8188 20.6171L51.7573 20.4493L51.694 20.282L51.6288 20.1152L51.5618 19.9491L51.493 19.7836L51.4224 19.6187L51.3499 19.4544L51.2756 19.2909L51.1995 19.1279L51.1216 18.9657L51.0418 18.8042L50.9603 18.6435L50.877 18.4835L50.7919 18.3243L50.705 18.1658L50.6163 18.0082L50.5258 17.8514L50.4336 17.6954L50.3396 17.5403L50.2439 17.386L50.1463 17.2327L50.0471 17.0803L49.9461 16.9287L49.8434 16.7782L49.7389 16.6286L49.6327 16.4799L49.5248 16.3323L49.4152 16.1857L49.3039 16.0401L49.191 15.8956L49.0763 15.7521L48.96 15.6097L48.842 15.4684L48.7223 15.3282L48.601 15.1891L48.4781 15.0512L48.3535 14.9145L48.2273 14.7789L48.0995 14.6445L47.9701 14.5113L47.8391 14.3794L47.7065 14.2487L47.5724 14.1192L47.4367 13.991L47.2995 13.8641L47.1607 13.7385L47.0203 13.6143L46.8785 13.4913L46.7352 13.3698L46.5903 13.2495L46.444 13.1307L46.2962 13.0132L46.147 12.8972L45.9963 12.7826L45.8442 12.6694L45.6906 12.5577L45.5357 12.4474L45.3793 12.3386L45.2216 12.2314L45.0625 12.1256L44.902 12.0213L44.7402 11.9186L44.5771 11.8174L44.4127 11.7178L44.2469 11.6198L44.0799 11.5233L43.9116 11.4285L43.742 11.3352L43.5712 11.2436L43.3992 11.1537L43.2259 11.0654L43.0515 10.9787L42.8758 10.8937L42.699 10.8104L42.5211 10.7288L42.342 10.649L42.1618 10.5708L41.9805 10.4944L41.798 10.4197L41.6146 10.3468L41.43 10.2756L41.2445 10.2063L41.0579 10.1387L40.8703 10.0729L40.6817 10.0089L40.4921 9.94675L40.3016 9.88642L40.1101 9.82792L39.9177 9.77128L39.7244 9.71649L39.5303 9.66358L39.3352 9.61254L39.1394 9.56338L38.9426 9.51612L38.7451 9.47076L38.5468 9.42731L38.3477 9.38578L38.1478 9.34618L37.9472 9.30852L37.7459 9.27279L37.5439 9.23902L37.3412 9.2072L37.1379 9.17734L36.9339 9.14947L36.7292 9.12356L36.524 9.09964L36.3182 9.07772L36.1118 9.05779L35.9049 9.03987L35.6974 9.02395L35.4894 9.01005L35.281 8.99817L35.0721 8.98832L34.8627 8.9805L34.6529 8.97471L34.4427 8.97096L34.2322 8.96926L34.0212 8.96961L33.8099 8.97201L33.5983 8.97646L33.3864 8.98298L33.1742 8.99156L32.9618 9.00221L32.7491 9.01493L32.5362 9.02973L32.3231 9.04659L32.1098 9.06554L31.8964 9.08657L31.6828 9.10968L31.4691 9.13487L31.2553 9.16216L31.0415 9.19153L30.8276 9.22298L30.6137 9.25653L30.3997 9.29217L30.1858 9.3299L29.972 9.36971L29.7581 9.41163L29.5444 9.45563L29.3308 9.50173L29.1173 9.54991L28.9039 9.60019L28.6907 9.65256L28.4778 9.70701L28.265 9.76355L28.0524 9.82218L27.8401 9.88288L27.6281 9.94567L27.4164 10.0105L27.205 10.0775L26.994 10.1465L26.7833 10.2176L26.573 10.2908L26.3631 10.366L26.1537 10.4433L25.9447 10.5226L25.7362 10.604L25.5281 10.6875L25.3206 10.773L25.1137 10.8605L24.9073 10.9501L24.7015 11.0417L24.4963 11.1353L24.2917 11.231L24.0878 11.3287L23.8846 11.4283L23.6821 11.53L23.4802 11.6337L23.2792 11.7394L23.0788 11.847L22.8793 11.9567L22.6806 12.0683L22.4827 12.1818L22.2856 12.2973L22.0895 12.4148L21.8942 12.5342L21.6998 12.6555L21.5064 12.7788L21.3139 12.904L21.1224 13.0311L20.9319 13.16L20.7424 13.2909L20.5539 13.4236L20.3665 13.5582L20.1802 13.6947L19.9951 13.833L19.811 13.9732L19.6281 14.1151L19.4463 14.2589L19.2657 14.4045L19.0864 14.5519L18.9083 14.7011L18.7314 14.8521L18.5558 15.0048L18.3815 15.1592L18.2085 15.3154L18.0368 15.4733L17.8665 15.633L17.6975 15.7943L17.53 15.9573L17.3638 16.122L17.1991 16.2883L17.0358 16.4563L16.874 16.6259L16.7137 16.7972L16.5549 16.97L16.3976 17.1444L16.2419 17.3204L16.0877 17.498L15.9351 17.6771L15.7841 17.8578L15.6348 18.0399L15.4871 18.2236L15.341 18.4087L15.1966 18.5953L15.0539 18.7834L14.9129 18.9729L14.7736 19.1638L14.6361 19.3561L14.5004 19.5498L14.3664 19.7449L14.2342 19.9414L14.1038 20.1391L13.9753 20.3382L13.8486 20.5386L13.7238 20.7403L13.6009 20.9432L13.4798 21.1474L13.3607 21.3529L13.2435 21.5595L13.1282 21.7673L13.015 21.9763L12.9036 22.1865L12.7943 22.3978L12.687 22.6102L12.5817 22.8237L12.4784 23.0383L12.3772 23.2539L12.278 23.4706L12.181 23.6883L12.086 23.907L11.9931 24.1267L11.9024 24.3474L11.8137 24.569L11.7273 24.7915L11.6429 25.0149L11.5608 25.2392L11.4808 25.4643L11.4031 25.6903L11.3275 25.9171L11.2542 26.1447L11.1831 26.373L11.1142 26.6021L11.0476 26.832L10.9833 27.0625L10.9213 27.2937L10.8615 27.5256L10.804 27.7581L10.7489 27.9913L10.6961 28.225L10.6456 28.4593L10.5974 28.6942L10.5516 28.9296L10.5082 29.1655L10.4671 29.4019L10.4284 29.6387L10.3921 29.876L10.3582 30.1137L10.3266 30.3518L10.2975 30.5903L10.2709 30.8291L10.2466 31.0682L10.2248 31.3076L10.2054 31.5473L10.1885 31.7872L10.174 32.0274L10.162 32.2677L10.1524 32.5083L10.1453 32.749L10.1407 32.9898L10.1386 33.2308L10.139 33.4718L10.1418 33.7128L10.1472 33.954L10.155 34.1951L10.1654 34.4362L10.1783 34.6772L10.1937 34.9182L10.2116 35.1591L10.2321 35.3999L10.255 35.6406L10.2805 35.8811L10.3085 36.1214L10.3391 36.3615L10.3722 36.6014L10.4078 36.841L10.4459 37.0803L10.4866 37.3193L10.5299 37.5579L10.5756 37.7963L10.624 38.0342L10.6748 38.2717L10.7282 38.5088L10.7842 38.7454L10.8426 38.9815L10.9037 39.2172L10.9672 39.4523L11.0333 39.6868L11.1019 39.9207L11.1731 40.1541L11.2468 40.3868L11.323 40.6189L11.4017 40.8502L11.483 41.0809L11.5668 41.3108L11.6531 41.54L11.7419 41.7684L11.8333 41.996L11.9271 42.2227L12.0234 42.4486L12.1222 42.6736L12.2236 42.8977L12.3274 43.1209L12.4336 43.3432L12.5424 43.5644L12.6536 43.7847L12.7673 44.0039L12.8835 44.2221L13.002 44.4392L13.1231 44.6552L13.2465 44.87L13.3724 45.0838L13.5007 45.2963L13.6314 45.5077L13.7646 45.7178L13.9001 45.9267L14.038 46.1344L14.1783 46.3407L14.3209 46.5458L14.4659 46.7495L14.6132 46.9518L14.7629 47.1528L14.9149 47.3523L15.0692 47.5504L15.2258 47.7471L15.3847 47.9423L15.5459 48.136L15.7094 48.3282L15.8751 48.5188L16.0431 48.7079L16.2133 48.8954L16.3857 49.0813L16.5603 49.2655L16.7371 49.4481L16.9161 49.629L17.0973 49.8083L17.2806 49.9858L17.466 50.1615L17.6536 50.3356L17.8433 50.5078L18.0351 50.6782L18.2289 50.8468L18.4249 51.0136L18.6228 51.1785L18.8228 51.3415L19.0248 51.5026L19.2289 51.6618L19.4349 51.819L19.6428 51.9743L19.8527 52.1275L20.0646 52.2788L20.2783 52.4281L20.494 52.5753L20.7115 52.7205L20.9309 52.8635L21.1521 53.0045L21.3752 53.1434L21.6 53.2801L21.8267 53.4146L22.0551 53.547L22.2852 53.6773L22.5171 53.8053L22.7507 53.931L22.986 54.0546L23.2229 54.1758L23.4615 54.2948L23.7017 54.4115L23.9435 54.526L24.1869 54.638L24.4318 54.7478L24.6783 54.8551L24.9263 54.9602L25.1758 55.0628L25.4268 55.163L25.6792 55.2608L25.9331 55.3562L26.1883 55.4491L26.445 55.5396L26.7029 55.6275L26.9623 55.713L27.2229 55.796L27.4848 55.8765L27.748 55.9545L28.0125 56.0299L28.2781 56.1028L28.5449 56.173L28.8129 56.2408L29.0821 56.3059L29.3524 56.3684L29.6237 56.4283L29.8961 56.4856L30.1696 56.5402L30.4441 56.5922L30.7195 56.6415L30.996 56.6882L31.2733 56.7322L31.5516 56.7735L31.8308 56.8121L32.1108 56.848L32.3916 56.8812L32.6733 56.9116L32.9557 56.9393L33.2389 56.9643L33.5229 56.9866L33.8075 57.006L34.0928 57.0227L34.3787 57.0367L34.6652 57.0478L34.9523 57.0562L35.24 57.0618L35.5283 57.0645L35.817 57.0645L36.1062 57.0617L36.3958 57.056L36.6859 57.0475L36.9763 57.0362L37.2672 57.0221L37.5583 57.0052L37.8497 56.9853L38.1415 56.9627L38.4334 56.9372L38.7256 56.9089L39.018 56.8777L39.3105 56.8437L39.6032 56.8068L39.896 56.767L40.1888 56.7244L40.4817 56.6789L40.7746 56.6306L41.0674 56.5794L41.3603 56.5253L41.653 56.4684L41.9457 56.4086L42.2382 56.346L42.5305 56.2804L42.8226 56.2121L43.1145 56.1408L43.4062 56.0667L43.6976 55.9898L43.9886 55.91L44.2793 55.8273L44.5697 55.7418L44.8596 55.6534L45.1491 55.5622L45.4381 55.4682L45.7266 55.3713L46.0146 55.2716L46.3021 55.169L46.5889 55.0637L46.8752 54.9555L47.1607 54.8445L47.4456 54.7307L47.7298 54.6141L48.0133 54.4946L48.296 54.3725L48.5779 54.2475L48.859 54.1197L49.1392 53.9892L49.4185 53.8559L49.6969 53.7199L49.9743 53.5811L50.2508 53.4396L50.5263 53.2954L50.8007 53.1484L51.0741 52.9987L51.3463 52.8464L51.6174 52.6913L51.8874 52.5336L52.1562 52.3732L52.4238 52.2101L52.6901 52.0444L52.9551 51.8761L53.2189 51.7051L53.4813 51.5316L53.7423 51.3554L54.002 51.1766L54.2602 50.9953L54.517 50.8114L54.7723 50.625L55.0261 50.436L55.2783 50.2446L55.529 50.0506L55.7781 49.8541L56.0256 49.6552L56.2714 49.4537L56.5156 49.2499L56.758 49.0436L56.9987 48.8349L57.2376 48.6238L57.4748 48.4104L57.7101 48.1945L57.9436 47.9764L58.1752 47.7559L58.4049 47.5331L58.6327 47.3079L58.8585 47.0806L59.0824 46.8509L59.3042 46.6191L59.5241 46.385L59.7418 46.1487L59.9575 45.9102L60.171 45.6696L60.3824 45.4268L60.5917 45.1819L60.7988 44.9349L61.0036 44.6859L61.2062 44.4348L61.4066 44.1816L61.6046 43.9264L61.8004 43.6693L61.9938 43.4101L62.1848 43.149L62.3735 42.886L62.5597 42.6211L62.7436 42.3543" stroke="#363636" stroke-opacity="0.8" stroke-linecap="round"/>
</svg>
