<svg width="22" height="23" viewBox="0 0 22 23" fill="none" xmlns="http://www.w3.org/2000/svg">
<path d="M19.0193 14.471C18.9132 13.7292 18.344 13.1509 17.6113 12.9785C14.7632 12.3068 14.8044 10.0889 14.684 8.25843C14.1789 8.1639 12.5252 8.25843 11 8.25843C9.47484 8.25843 7.82111 8.1639 7.31604 8.25843C7.19557 10.0889 7.23683 12.3068 4.38875 12.9785C3.65601 13.152 3.08684 13.7292 2.98074 14.471L2.43146 18.2988C2.23805 19.6467 3.22167 20.8622 4.5899 20.8622H17.4101C18.7772 20.8622 19.762 19.6467 19.5686 18.2988L19.0193 14.471ZM11 18.0731C9.45827 18.0731 8.20829 16.8275 8.20829 15.2928C8.20829 13.7581 9.45827 12.5126 11 12.5126C12.5417 12.5126 13.7917 13.7581 13.7917 15.2928C13.7917 16.8275 12.5406 18.0731 11 18.0731ZM21.9967 7.51701C21.9701 5.84885 17.7505 3.06972 11 3.0686C4.24839 3.06972 0.0287699 5.84885 0.00335048 7.51701C-0.0220689 9.18516 0.0265596 11.356 2.80501 10.9945C6.05538 10.5708 5.85534 9.42871 5.85534 7.79614C5.85534 6.65735 8.49896 6.38266 11 6.38266C13.5011 6.38266 16.1436 6.65735 16.1447 7.79614C16.1447 9.42871 15.9446 10.5708 19.195 10.9945C21.9724 11.356 22.0221 9.18516 21.9967 7.51701Z" fill="#9B9CA0"/>
<ellipse cx="11" cy="15.1053" rx="3.66667" ry="3.66339" fill="#FFFBE2"/>
</svg>
