<svg width="15" height="15" viewBox="0 0 15 15" fill="none" xmlns="http://www.w3.org/2000/svg">
<path d="M6.99601 5.04255L6.97921 5.05105L6.96249 5.05971L6.94585 5.06852L6.9293 5.07748L6.91284 5.0866L6.89647 5.09588L6.88019 5.1053L6.864 5.11488L6.84791 5.1246L6.83192 5.13448L6.81603 5.14451L6.80023 5.15468L6.78455 5.16501L6.76896 5.17548L6.75348 5.1861L6.73811 5.19686L6.72285 5.20777L6.7077 5.21882L6.69266 5.23002L6.67774 5.24136L6.66294 5.25284L6.64826 5.26446L6.63369 5.27623L6.61925 5.28813L6.60493 5.30017L6.59073 5.31234L6.57667 5.32466L6.56273 5.3371L6.54892 5.34968L6.53525 5.3624L6.52171 5.37525L6.5083 5.38823L6.49503 5.40133L6.4819 5.41457L6.46891 5.42794L6.45606 5.44143L6.44336 5.45505L6.4308 5.46879L6.41839 5.48266L6.40612 5.49665L6.39401 5.51076L6.38205 5.52499L6.37023 5.53934L6.35858 5.5538L6.34708 5.56839L6.33573 5.58309L6.32455 5.5979L6.31352 5.61282L6.30266 5.62786L6.29196 5.643L6.28142 5.65826L6.27105 5.67362L6.26084 5.68909L6.25081 5.70466L6.24095 5.72034L6.23125 5.73612L6.22173 5.752L6.21238 5.76797L6.20321 5.78405L6.19421 5.80022L6.18539 5.81649L6.17675 5.83285L6.16829 5.8493L6.16002 5.86585L6.15192 5.88248L6.14401 5.8992L6.13628 5.916L6.12874 5.93289L6.12138 5.94986L6.11422 5.96692L6.10724 5.98405L6.10046 6.00127L6.09386 6.01855L6.08746 6.03592L6.08125 6.05335L6.07524 6.07086L6.06942 6.08844L6.0638 6.10609L6.05838 6.12381L6.05315 6.14159L6.04813 6.15943L6.0433 6.17734L6.03868 6.1953L6.03426 6.21333L6.03004 6.23141L6.02602 6.24954L6.02221 6.26773L6.0186 6.28597L6.01521 6.30427L6.01201 6.32261L6.00903 6.34099L6.00625 6.35942L6.00369 6.3779L6.00133 6.39641L5.99918 6.41496L5.99725 6.43355L5.99552 6.45218L5.99401 6.47084L5.99271 6.48954L5.99163 6.50826L5.99076 6.52701L5.9901 6.54579L5.98966 6.56459L5.98943 6.58342L5.98942 6.60226L5.98963 6.62113L5.99005 6.64001L5.99069 6.65891L5.99155 6.67782L5.99262 6.69675L5.99391 6.71568L5.99543 6.73462L5.99716 6.75357L5.99911 6.77252L6.00127 6.79147L6.00366 6.81043L6.00627 6.82938L6.0091 6.84833L6.01215 6.86727L6.01541 6.88621L6.0189 6.90513L6.02261 6.92405L6.02654 6.94295L6.03069 6.96184L6.03506 6.98071L6.03965 6.99956L6.04446 7.01839L6.04949 7.03719L6.05475 7.05597L6.06022 7.07473L6.06591 7.09345L6.07182 7.11215L6.07795 7.13081L6.08431 7.14944L6.09088 7.16803L6.09767 7.18658L6.10468 7.20509L6.1119 7.22356L6.11935 7.24199L6.12702 7.26037L6.1349 7.2787L6.143 7.29698L6.15131 7.31521L6.15985 7.33338L6.1686 7.3515L6.17756 7.36956L6.18675 7.38756L6.19614 7.4055L6.20575 7.42337L6.21557 7.44118L6.22561 7.45892L6.23586 7.47659L6.24632 7.49419L6.257 7.51171L6.26788 7.52916L6.27897 7.54654L6.29027 7.56383L6.30179 7.58104L6.31351 7.59817L6.32543 7.61522L6.33756 7.63217L6.3499 7.64904L6.36244 7.66582L6.37519 7.6825L6.38814 7.6991L6.40129 7.71559L6.41464 7.73199L6.42819 7.74828L6.44194 7.76448L6.45589 7.78057L6.47004 7.79656L6.48438 7.81243L6.49892 7.8282L6.51365 7.84386L6.52858 7.85941L6.54369 7.87484L6.559 7.89015L6.5745 7.90535L6.59018 7.92043L6.60605 7.93538L6.62211 7.95021L6.63835 7.96492L6.65478 7.9795L6.67138 7.99395L6.68817 8.00827L6.70514 8.02246L6.72228 8.03652L6.7396 8.05044L6.7571 8.06422L6.77477 8.07786L6.79261 8.09136L6.81063 8.10472L6.82881 8.11794L6.84716 8.13101L6.86568 8.14394L6.88436 8.15671L6.90321 8.16934L6.92221 8.18182L6.94138 8.19414L6.9607 8.2063L6.98019 8.21831L6.99983 8.23017L7.01962 8.24186L7.03956 8.25339L7.05965 8.26476L7.07989 8.27596L7.10028 8.287L7.12082 8.29788L7.14149 8.30858L7.16231 8.31912L7.18327 8.32948L7.20436 8.33967L7.22559 8.34969L7.24696 8.35953L7.26845 8.3692L7.29008 8.37869L7.31183 8.388L7.33371 8.39713L7.35572 8.40607L7.37784 8.41484L7.40009 8.42342L7.42246 8.43181L7.44494 8.44002L7.46753 8.44804L7.49024 8.45587L7.51306 8.46351L7.53599 8.47096L7.55902 8.47821L7.58216 8.48528L7.60539 8.49214L7.62873 8.49881L7.65216 8.50529L7.6757 8.51157L7.69932 8.51764L7.72303 8.52352L7.74683 8.5292L7.77072 8.53467L7.79469 8.53994L7.81875 8.54501L7.84288 8.54987L7.86709 8.55453L7.89138 8.55898L7.91574 8.56322L7.94017 8.56726L7.96466 8.57108L7.98922 8.5747L8.01385 8.5781L8.03854 8.58129L8.06329 8.58428L8.08809 8.58704L8.11294 8.5896L8.13785 8.59194L8.16281 8.59406L8.18781 8.59597L8.21286 8.59766L8.23794 8.59914L8.26307 8.6004L8.28824 8.60144L8.31344 8.60226L8.33867 8.60286L8.36393 8.60324L8.38921 8.60341L8.41453 8.60335L8.43986 8.60307L8.46521 8.60257L8.49058 8.60185L8.51597 8.6009L8.54136 8.59974L8.56677 8.59835L8.59218 8.59673L8.61759 8.5949L8.64301 8.59284L8.66843 8.59055L8.69384 8.58805L8.71924 8.58531L8.74464 8.58236L8.77003 8.57917L8.7954 8.57577L8.82076 8.57214L8.84609 8.56828L8.87141 8.5642L8.8967 8.55989L8.92196 8.55536L8.94719 8.5506L8.9724 8.54562L8.99756 8.54041L9.02269 8.53498L9.04778 8.52933L9.07283 8.52344L9.09783 8.51734L9.12278 8.51101L9.14769 8.50445L9.17254 8.49768L9.19733 8.49067L9.22207 8.48345L9.24674 8.476L9.27136 8.46833L9.2959 8.46043L9.32038 8.45231L9.34478 8.44397L9.36911 8.43541L9.39337 8.42663L9.41754 8.41763L9.44164 8.40841L9.46565 8.39897L9.48957 8.38931L9.5134 8.37943L9.53714 8.36933L9.56079 8.35901L9.58434 8.34848L9.60779 8.33773L9.63113 8.32677L9.65437 8.31559L9.6775 8.3042L9.70053 8.29259L9.72344 8.28078L9.74623 8.26874L9.76891 8.2565L9.79146 8.24405L9.8139 8.23139L9.83621 8.21852L9.85839 8.20544L9.88044 8.19216L9.90235 8.17867L9.92414 8.16497L9.94578 8.15107L9.96728 8.13697L9.98864 8.12266L10.0099 8.10816L10.0309 8.09345L10.0518 8.07855L10.0726 8.06345L10.0932 8.04815L10.1137 8.03265L10.134 8.01697L10.1541 8.00108L10.1741 7.98501L10.1939 7.96875L10.2135 7.9523L10.233 7.93565L10.2522 7.91883L10.2714 7.90181L10.2903 7.88462L10.309 7.86724L10.3276 7.84968L10.346 7.83194L10.3642 7.81402L10.3822 7.79592L10.4 7.77765L10.4176 7.75921L10.4351 7.74059L10.4523 7.7218L10.4693 7.70284L10.4861 7.68372L10.5028 7.66442L10.5192 7.64497L10.5354 7.62535L10.5514 7.60557L10.5671 7.58562L10.5827 7.56553L10.5981 7.54527L10.6132 7.52486L10.6281 7.5043L10.6428 7.48359L10.6572 7.46273L10.6715 7.44172L10.6855 7.42056L10.6993 7.39926L10.7128 7.37782L10.7261 7.35624L10.7392 7.33452L10.752 7.31267L10.7646 7.29068L10.777 7.26856L10.7891 7.24631L10.801 7.22393L10.8126 7.20143L10.824 7.1788L10.8351 7.15604L10.846 7.13317L10.8566 7.11018L10.8669 7.08708L10.877 7.06386L10.8869 7.04053L10.8965 7.01708L10.9058 6.99354L10.9149 6.96988L10.9237 6.94613L10.9322 6.92227L10.9405 6.89831L10.9485 6.87426L10.9563 6.85011L10.9637 6.82587L10.9709 6.80154L10.9779 6.77713L10.9845 6.75263L10.9909 6.72804L10.997 6.70338L11.0028 6.67864L11.0083 6.65382L11.0136 6.62892L11.0186 6.60396L11.0233 6.57893L11.0277 6.55383L11.0318 6.52867L11.0357 6.50345L11.0392 6.47816L11.0425 6.45282L11.0455 6.42743L11.0482 6.40198L11.0506 6.37649L11.0527 6.35095L11.0545 6.32536L11.0561 6.29973L11.0573 6.27407L11.0583 6.24836L11.0589 6.22263L11.0593 6.19686L11.0593 6.17106L11.0591 6.14523L11.0586 6.11938L11.0577 6.09351L11.0566 6.06762L11.0552 6.04171L11.0535 6.01579L11.0514 5.98986L11.0491 5.96392L11.0465 5.93798L11.0436 5.91203L11.0403 5.88608L11.0368 5.86013L11.033 5.83419L11.0289 5.80825L11.0245 5.78232L11.0197 5.75641L11.0147 5.73051L11.0094 5.70463L11.0037 5.67877L10.9978 5.65293L10.9916 5.62712L10.985 5.60133L10.9782 5.57558L10.971 5.54986L10.9636 5.52418L10.9558 5.49853L10.9478 5.47293L10.9395 5.44737L10.9308 5.42186L10.9219 5.3964L10.9126 5.37099L10.9031 5.34564L10.8932 5.32034L10.8831 5.29511L10.8726 5.26993L10.8619 5.24483L10.8508 5.21979L10.8395 5.19482L10.8279 5.16993L10.8159 5.14511L10.8037 5.12037L10.7912 5.09571L10.7784 5.07114L10.7652 5.04666L10.7518 5.02226L10.7381 4.99796L10.7242 4.97375L10.7099 4.94964L10.6953 4.92563L10.6805 4.90172L10.6653 4.87792L10.6499 4.85422L10.6342 4.83064L10.6182 4.80717L10.6019 4.78381L10.5853 4.76058L10.5685 4.73747L10.5514 4.71447L10.5339 4.69161L10.5163 4.66887L10.4983 4.64627L10.4801 4.6238L10.4616 4.60146L10.4428 4.57927L10.4237 4.55722L10.4044 4.53531L10.3848 4.51354L10.3649 4.49193L10.3448 4.47047L10.3244 4.44916L10.3038 4.42801L10.2828 4.40701L10.2617 4.38618L10.2402 4.36551L10.2185 4.34501L10.1966 4.32468L10.1744 4.30452L10.152 4.28453L10.1293 4.26471L10.1063 4.24508L10.0831 4.22562L10.0597 4.20635L10.036 4.18727L10.0121 4.16837L9.98795 4.14966L9.96356 4.13114L9.93893 4.11281L9.91407 4.09469L9.88898 4.07676L9.86367 4.05903L9.83813 4.04151L9.81236 4.02419L9.78637 4.00707L9.76017 3.99017L9.73374 3.97348L9.7071 3.957L9.68025 3.94074L9.65319 3.9247L9.62591 3.90888L9.59844 3.89327L9.57076 3.8779L9.54287 3.86275L9.51479 3.84782L9.48652 3.83313L9.45805 3.81867L9.42938 3.80444L9.40053 3.79045L9.3715 3.7767L9.34228 3.76318L9.31287 3.74991L9.28329 3.73688L9.25354 3.7241L9.22361 3.71156L9.19351 3.69927L9.16324 3.68723L9.13281 3.67544L9.10221 3.66391L9.07146 3.65263L9.04055 3.64161L9.00948 3.63085L8.97826 3.62035L8.9469 3.61011L8.91539 3.60013L8.88373 3.59042L8.85194 3.58098L8.82001 3.5718L8.78795 3.56289L8.75575 3.55426L8.72343 3.54589L8.69099 3.5378L8.65842 3.52999L8.62573 3.52245L8.59293 3.51518L8.56001 3.5082L8.52699 3.5015L8.49386 3.49508L8.46062 3.48894L8.42729 3.48309L8.39386 3.47752L8.36033 3.47224L8.32672 3.46724L8.29302 3.46253L8.25923 3.45811L8.22536 3.45399L8.19142 3.45015L8.1574 3.44661L8.12331 3.44336L8.08915 3.4404L8.05493 3.43774L8.02065 3.43538L7.98631 3.43331L7.95191 3.43154L7.91747 3.43007L7.88298 3.42889L7.84844 3.42802L7.81386 3.42745L7.77924 3.42718L7.7446 3.42721L7.70992 3.42754L7.67521 3.42818L7.64048 3.42912L7.60573 3.43036L7.57096 3.43191L7.53618 3.43377L7.50139 3.43593L7.4666 3.43839L7.4318 3.44116L7.397 3.44424L7.36221 3.44763L7.32742 3.45132L7.29265 3.45532L7.25789 3.45963L7.22315 3.46424L7.18843 3.46916L7.15374 3.47439L7.11908 3.47993L7.08444 3.48578L7.04985 3.49194L7.0153 3.4984L6.98079 3.50517L6.94632 3.51225L6.91191 3.51964L6.87755 3.52733L6.84325 3.53534L6.80901 3.54365L6.77483 3.55227L6.74072 3.56119L6.70669 3.57042L6.67273 3.57996L6.63885 3.58981L6.60505 3.59996L6.57134 3.61041L6.53772 3.62117L6.5042 3.63224L6.47077 3.64361L6.43744 3.65528L6.40422 3.66725L6.3711 3.67953L6.33809 3.69211L6.3052 3.70499L6.27243 3.71817L6.23978 3.73164L6.20726 3.74542L6.17487 3.7595L6.1426 3.77387L6.11048 3.78854L6.07849 3.8035L6.04665 3.81876L6.01496 3.83431L5.98341 3.85015L5.95202 3.86629L5.92079 3.88271L5.88971 3.89943L5.8588 3.91643L5.82806 3.93372L5.79749 3.95129L5.7671 3.96915L5.73688 3.9873L5.70684 4.00572L5.67699 4.02443L5.64733 4.04341L5.61786 4.06268L5.58858 4.08222L5.5595 4.10203L5.53063 4.12212L5.50195 4.14249L5.47349 4.16312L5.44524 4.18402L5.4172 4.20519L5.38938 4.22663L5.36178 4.24833L5.33441 4.27029L5.30727 4.29252L5.28035 4.315L5.25367 4.33774L5.22723 4.36074L5.20102 4.38399L5.17507 4.4075L5.14935 4.43125L5.12389 4.45526L5.09868 4.47951L5.07373 4.504L5.04903 4.52874L5.0246 4.55371L5.00043 4.57893L4.97653 4.60438L4.9529 4.63007L4.92955 4.65599L4.90647 4.68214L4.88367 4.70851L4.86116 4.73511L4.83892 4.76194L4.81698 4.78899L4.79533 4.81626L4.77397 4.84374L4.75291 4.87144L4.73215 4.89934L4.71169 4.92746L4.69153 4.95579L4.67168 4.98432L4.65214 5.01305L4.63292 5.04198L4.61401 5.07111L4.59541 5.10043L4.57714 5.12995L4.55919 5.15965L4.54156 5.18954L4.52426 5.21962L4.50729 5.24988L4.49066 5.28031L4.47436 5.31092L4.45839 5.34171L4.44277 5.37266L4.42748 5.40379L4.41254 5.43507L4.39794 5.46652L4.3837 5.49813L4.3698 5.5299L4.35626 5.56182L4.34307 5.59389L4.33023 5.62611L4.31776 5.65847L4.30564 5.69097L4.29389 5.72361L4.2825 5.75639L4.27148 5.7893L4.26082 5.82234L4.25054 5.85551L4.24063 5.88879L4.23109 5.9222L4.22192 5.95573L4.21314 5.98937L4.20472 6.02312L4.1967 6.05698L4.18905 6.09094L4.18178 6.12501L4.1749 6.15917L4.16841 6.19343L4.1623 6.22778L4.15658 6.26221L4.15126 6.29673L4.14632 6.33133L4.14177 6.36602L4.13762 6.40077L4.13387 6.4356L4.13051 6.47049L4.12755 6.50545L4.12499 6.54047L4.12283 6.57555L4.12107 6.61068L4.11971 6.64586L4.11875 6.6811L4.1182 6.71637L4.11805 6.75169L4.11831 6.78704L4.11897 6.82242L4.12004 6.85784L4.12152 6.89328L4.1234 6.92875L4.12569 6.96423L4.1284 6.99973L4.13151 7.03525L4.13503 7.07077L4.13897 7.10629L4.14331 7.14182L4.14807 7.17735L4.15324 7.21287L4.15882 7.24838L4.16482 7.28388L4.17122 7.31936L4.17804 7.35482L4.18528 7.39026L4.19292 7.42567L4.20098 7.46105L4.20946 7.4964L4.21834 7.53171L4.22764 7.56697L4.23735 7.60219L4.24748 7.63736L4.25802 7.67248L4.26897 7.70754L4.28033 7.74255L4.29211 7.77748L4.30429 7.81235L4.31689 7.84715L4.3299 7.88188L4.34332 7.91652L4.35714 7.95109L4.37138 7.98557L4.38603 8.01995L4.40108 8.05425L4.41654 8.08845L4.43241 8.12255L4.44868 8.15654L4.46536 8.19043L4.48244 8.22421L4.49992 8.25787L4.51781 8.29141L4.53609 8.32483L4.55478 8.35812L4.57387 8.39129L4.59335 8.42432L4.61323 8.45722L4.6335 8.48997L4.65417 8.52258L4.67523 8.55505L4.69669 8.58736L4.71853 8.61952L4.74076 8.65152L4.76338 8.68335L4.78638 8.71503L4.80977 8.74653L4.83354 8.77786L4.85769 8.80902L4.88222 8.84L4.90713 8.87079L4.93242 8.9014L4.95807 8.93182L4.9841 8.96204L5.0105 8.99207L5.03727 9.0219L5.0644 9.05152L5.0919 9.08094L5.11976 9.11015L5.14798 9.13914L5.17656 9.16792L5.20549 9.19647L5.23478 9.22481L5.26442 9.25291L5.29441 9.28079L5.32474 9.30843L5.35542 9.33583L5.38644 9.363L5.4178 9.38992L5.4495 9.4166L5.48153 9.44302L5.51389 9.46919L5.54659 9.49511L5.5796 9.52077L5.61295 9.54616L5.64661 9.57129L5.68059 9.59615L5.71489 9.62074L5.7495 9.64506L5.78442 9.6691L5.81965 9.69285L5.85518 9.71633L5.89102 9.73951L5.92715 9.76241L5.96357 9.78502L6.00029 9.80733L6.0373 9.82934L6.07459 9.85105L6.11216 9.87246L6.15002 9.89356L6.18815 9.91436L6.22655 9.93484L6.26522 9.955L6.30416 9.97485L6.34336 9.99438L6.38282 10.0136L6.42253 10.0325L6.4625 10.051L6.50271 10.0693L6.54317 10.0871L6.58387 10.1047L6.62481 10.1219L6.66599 10.1388L6.70739 10.1553L6.74902 10.1715L6.79087 10.1874L6.83294 10.2029L6.87523 10.218L6.91773 10.2328L6.96044 10.2472L7.00335 10.2613L7.04646 10.275L7.08976 10.2884L7.13326 10.3014L7.17695 10.314L7.22082 10.3263L7.26487 10.3381L7.30909 10.3496L7.35349 10.3608L7.39805 10.3715L7.44277 10.3819L7.48766 10.3919L7.5327 10.4016L7.57789 10.4108L7.62323 10.4196L7.66871 10.4281L7.71432 10.4362L7.76007 10.4439L7.80595 10.4512L7.85196 10.4581L7.89808 10.4646L7.94432 10.4707L7.99067 10.4764L8.03712 10.4817L8.08368 10.4866L8.13034 10.4911L8.17709 10.4953L8.22393 10.499L8.27086 10.5023L8.31786 10.5052L8.36494 10.5077L8.41209 10.5097L8.4593 10.5114L8.50658 10.5127L8.55391 10.5135L8.60129 10.5139L8.64872 10.514L8.6962 10.5136L8.74371 10.5128L8.79125 10.5116L8.83883 10.5099L8.88642 10.5079L8.93404 10.5054L8.98167 10.5025L9.02931 10.4992L9.07695 10.4955L9.12459 10.4913L9.17223 10.4867L9.21985 10.4818L9.26747 10.4764L9.31506 10.4705L9.36263 10.4643L9.41016 10.4576L9.45767 10.4505L9.50513 10.443L9.55255 10.435L9.59992 10.4267L9.64724 10.4179L9.6945 10.4087L9.7417 10.3991L9.78882 10.389L9.83588 10.3786L9.88285 10.3677L9.92975 10.3564L9.97655 10.3446L10.0233 10.3325L10.0699 10.3199L10.1164 10.3069L10.1628 10.2935L10.2091 10.2797L10.2552 10.2654L10.3013 10.2508L10.3472 10.2357L10.393 10.2202L10.4387 10.2043L10.4842 10.1879L10.5295 10.1712L10.5747 10.154L10.6198 10.1365L10.6647 10.1185L10.7094 10.1001L10.754 10.0813L10.7984 10.0621L10.8426 10.0425L10.8866 10.0225L10.9304 10.002L10.974 9.98122L11.0174 9.95999L11.0607 9.93837L11.1037 9.91634L11.1465 9.89392L11.1891 9.87109L11.2314 9.84788L11.2735 9.82427L11.3154 9.80027L11.3571 9.77588L11.3985 9.7511L11.4397 9.72594L11.4806 9.70039L11.5212 9.67445L11.5616 9.64814L11.6017 9.62145L11.6416 9.59438L11.6812 9.56693L11.7205 9.53911L11.7595 9.51092L11.7982 9.48236L11.8366 9.45344L11.8748 9.42415L11.9126 9.39449L11.9501 9.36448L11.9874 9.33411L12.0243 9.30338L12.0608 9.2723L12.0971 9.24087L12.133 9.20909L12.1686 9.17697L12.2039 9.1445L12.2388 9.11169L12.2734 9.07854L12.3076 9.04506L12.3414 9.01124L12.3749 8.9771L12.4081 8.94263L12.4409 8.90783L12.4733 8.87272L12.5053 8.83728L12.537 8.80153L12.5683 8.76547L12.5991 8.72909L12.6296 8.69241L12.6597 8.65543L12.6895 8.61815L12.7188 8.58057L12.7477 8.54269L12.7761 8.50453L12.8042 8.46608L12.8319 8.42734L12.8591 8.38833L12.8859 8.34903L12.9123 8.30947L12.9383 8.26963L12.9638 8.22953L12.9889 8.18916L13.0136 8.14853L13.0378 8.10765L13.0615 8.06651L13.0848 8.02512L13.1077 7.98349L13.1301 7.94162L13.152 7.89951L13.1735 7.85717L13.1945 7.81459L13.215 7.77179L13.2351 7.72877L13.2546 7.68552L13.2737 7.64207L13.2924 7.5984L13.3105 7.55453L13.3281 7.51045L13.3453 7.46617L13.362 7.4217L13.3781 7.37704L13.3938 7.3322L13.409 7.28717L13.4237 7.24196L13.4378 7.19658L13.4515 7.15103L13.4646 7.10532L13.4772 7.05944L13.4894 7.01341L13.5009 6.96722L13.512 6.92089L13.5226 6.87441L13.5326 6.8278L13.5421 6.78105L13.5511 6.73416L13.5595 6.68716L13.5674 6.64003L13.5748 6.59279L13.5817 6.54543L13.588 6.49796L13.5937 6.4504L13.599 6.40273L13.6037 6.35497L13.6078 6.30712L13.6114 6.25919L13.6144 6.21118L13.6169 6.16309L13.6189 6.11493L13.6203 6.0667L13.6211 6.01842L13.6214 5.97008L13.6212 5.92168L13.6203 5.87324L13.619 5.82476L13.617 5.77624L13.6145 5.72769L13.6115 5.67911L13.6079 5.63051L13.6037 5.58189L13.599 5.53326L13.5937 5.48462L13.5878 5.43598L13.5814 5.38734L13.5744 5.33871L13.5668 5.29008L13.5587 5.24148L13.5501 5.1929L13.5408 5.14434L13.531 5.09582L13.5206 5.04733L13.5097 4.99888L13.4982 4.95048L13.4861 4.90213L13.4734 4.85384L13.4602 4.80561L13.4465 4.75745L13.4321 4.70935L13.4172 4.66134L13.4017 4.6134L13.3857 4.56555L13.3691 4.5178L13.352 4.47014L13.3342 4.42258L13.316 4.37513L13.2971 4.32779L13.2777 4.28056L13.2578 4.23346L13.2372 4.18649L13.2162 4.13964L13.1945 4.09294L13.1723 4.04637L13.1496 3.99995L13.1263 3.95368L13.1024 3.90757L13.078 3.86162L13.0531 3.81584L13.0276 3.77023L13.0016 3.7248L12.975 3.67954L12.9478 3.63447L12.9202 3.5896L12.8919 3.54492L12.8632 3.50044L12.8339 3.45617L12.8041 3.41211L12.7737 3.36826L12.7429 3.32463L12.7114 3.28123L12.6795 3.23807L12.647 3.19513L12.6141 3.15244L12.5806 3.10999L12.5465 3.06779L12.512 3.02584L12.477 2.98415L12.4414 2.94273L12.4053 2.90157L12.3688 2.86069L12.3317 2.82009L12.2941 2.77977L12.2561 2.73973L12.2175 2.69999L12.1785 2.66055L12.1389 2.6214L12.0989 2.58256L12.0584 2.54403L12.0174 2.50582L11.976 2.46792L11.934 2.43035L11.8916 2.3931L11.8488 2.35619L11.8055 2.31962L11.7617 2.28338L11.7174 2.24749L11.6728 2.21195L11.6276 2.17677L11.582 2.14194L11.536 2.10748L11.4896 2.07338L11.4427 2.03966L11.3954 2.00631L11.3476 1.97334L11.2994 1.94075L11.2509 1.90855L11.2019 1.87674L11.1525 1.84533L11.1027 1.81431L11.0525 1.7837L11.0019 1.7535L10.9509 1.72371L10.8995 1.69433L10.8477 1.66537L10.7956 1.63684L10.7431 1.60873L10.6902 1.58105L10.6369 1.5538L10.5833 1.527L10.5293 1.50063L10.475 1.47471L10.4204 1.44923L10.3653 1.42421L10.31 1.39964L10.2543 1.37553L10.1983 1.35188L10.142 1.32869L10.0854 1.30598L10.0284 1.28373L9.97118 1.26196L9.91362 1.24067L9.85578 1.21986L9.79763 1.19953L9.73921 1.17969L9.68051 1.16034L9.62153 1.14148L9.56228 1.12312L9.50277 1.10526L9.443 1.0879L9.38297 1.07104L9.32271 1.05469L9.2622 1.03885L9.20145 1.02352L9.14047 1.0087L9.07927 0.994405L9.01786 0.980629L8.95622 0.967372L8.89439 0.954642L8.83235 0.942439L8.77011 0.930763L8.70769 0.91962L8.64508 0.909011L8.58229 0.898937L8.51934 0.889401L8.45622 0.880405L8.39293 0.871951L8.3295 0.864041L8.26592 0.856676L8.20219 0.84986L8.13834 0.843592L8.07435 0.837876L8.01024 0.832712L7.94601 0.828102L7.88168 0.82405L7.81724 0.820553L7.7527 0.817616L7.68808 0.81524L7.62336 0.813425L7.55857 0.812173L7.49371 0.811486L7.42878 0.811363L7.36379 0.811809L7.29875 0.81282L7.23366 0.814402L7.16854 0.816553L7.10338 0.819274L7.03819 0.822568L6.97299 0.826433L6.90777 0.830871L6.84254 0.835884L6.77731 0.841471L6.71209 0.847632L6.64688 0.85437L6.58169 0.861683L6.51653 0.869573L6.45139 0.878039L6.3863 0.887084L6.32126 0.896704L6.25626 0.906903L6.19133 0.917679L6.12646 0.929032L6.06167 0.940964L5.99695 0.953474L5.93232 0.966559L5.86778 0.980225L5.80334 0.994466L5.73901 1.00928L5.67479 1.02468L5.6107 1.04065L5.54672 1.0572L5.48288 1.07432L5.41918 1.09201L5.35563 1.11028L5.29223 1.12913L5.22899 1.14855L5.16591 1.16853L5.10301 1.18909L5.04029 1.21022L4.97776 1.23192L4.91542 1.25418L4.85328 1.27701L4.79134 1.30041L4.72962 1.32437L4.66812 1.3489L4.60685 1.37398L4.54581 1.39963L4.48501 1.42583L4.42446 1.4526L4.36416 1.47992L4.30412 1.50779L4.24435 1.53621L4.18485 1.56519L4.12563 1.59471L4.06669 1.62478L4.00805 1.65539L3.94971 1.68655L3.89167 1.71825L3.83395 1.75049L3.77654 1.78326L3.71946 1.81657L3.66272 1.85041L3.60631 1.88478L3.55024 1.91968L3.49452 1.9551L3.43917 1.99104L3.38417 2.0275L3.32955 2.06448L3.2753 2.10198L3.22143 2.13998L3.16795 2.1785L3.11487 2.21752L3.06218 2.25704L3.00991 2.29707L2.95804 2.33758L2.9066 2.3786L2.85558 2.4201L2.80499 2.46209L2.75484 2.50457L2.70513 2.54753L2.65587 2.59096L2.60706 2.63487L2.55872 2.67924L2.51084 2.72409L2.46343 2.7694L2.41651 2.81516L2.37006 2.86139L2.32411 2.90806L2.27865 2.95519L2.23369 3.00276L2.18923 3.05077L2.14529 3.09921L2.10187 3.14809L2.05896 3.1974L2.01659 3.24713L1.97475 3.29728L1.93344 3.34785L1.89268 3.39883L1.85247 3.45021L1.81282 3.502L1.77372 3.55419L1.73519 3.60677L1.69722 3.65974L1.65983 3.7131L1.62302 3.76683L1.5868 3.82095L1.55116 3.87543L1.51612 3.93028L1.48167 3.98549L1.44783 4.04106L1.4146 4.09698L1.38198 4.15324L1.34997 4.20985L1.31859 4.26679L1.28783 4.32407L1.2577 4.38167L1.22821 4.4396L1.19935 4.49783L1.17114 4.55639L1.14358 4.61524L1.11666 4.6744L1.09041 4.73385L1.06481 4.79358L1.03987 4.85361L1.0156 4.91391L0.992003 4.97449L0.969077 5.03533L0.94683 5.09643L0.925267 5.15779L0.904387 5.2194L0.884194 5.28126L0.864695 5.34335L0.845893 5.40568L0.827788 5.46823L0.810384 5.531L0.793687 5.59399L0.777698 5.6572L0.76242 5.7206L0.747856 5.7842L0.734008 5.84799L0.720882 5.91197L0.708478 5.97612L0.696798 6.04045L0.685846 6.10495L0.675626 6.16961L0.66614 6.23442L0.657388 6.29938L0.649373 6.36449L0.642101 6.42973L0.635569 6.49509L0.629784 6.56058L0.624744 6.62619L0.620452 6.69191L0.616911 6.75773L0.614123 6.82365L0.612089 6.88967L0.61081 6.95576L0.61029 7.02193L0.610529 7.08818L0.611529 7.15449L0.613291 7.22086L0.615814 7.28728L0.619103 7.35374L0.623158 7.42025L0.62798 7.48678L0.633571 7.55334L0.63993 7.61992L0.647061 7.68651L0.65496 7.75311L0.663633 7.8197L0.673074 7.88629L0.683292 7.95286L0.694283 8.01941L0.706045 8.08593L0.718583 8.15241L0.731893 8.21886L0.74598 8.28525L0.760841 8.35159L0.776476 8.41786L0.792887 8.48407L0.81007 8.5502L0.828031 8.61625L0.846764 8.6822L0.866272 8.74806L0.886552 8.81382L0.907607 8.87946L0.929431 8.94499L0.95203 9.0104L0.975397 9.07567L0.999536 9.14081L1.02444 9.2058L1.05012 9.27063L1.07656 9.33531L1.10377 9.39983L1.13174 9.46417L1.16048 9.52834L1.18998 9.59231L1.22024 9.6561L1.25126 9.71968L1.28303 9.78306L1.31557 9.84623L1.34885 9.90917L1.38289 9.97189L1.41768 10.0344L1.45322 10.0966L1.4895 10.1586L1.52652 10.2204L1.56429 10.2818L1.6028 10.3431L1.64205 10.404L1.68202 10.4647L1.72274 10.525L1.76418 10.5851L1.80634 10.6449L1.84923 10.7043L1.89284 10.7635L1.93717 10.8223L1.98222 10.8808L2.02797 10.939L2.07444 10.9968L2.12161 11.0543L2.16948 11.1115L2.21804 11.1682L2.26731 11.2246L2.31726 11.2807L2.36791 11.3363L2.41924 11.3916L2.47124 11.4465L2.52392 11.5009L2.57728 11.555L2.6313 11.6087L2.68599 11.6619L2.74134 11.7147L2.79734 11.7671L2.854 11.8191L2.9113 11.8706L2.96924 11.9216L3.02782 11.9723L3.08704 12.0224L3.14688 12.0721L3.20734 12.1213L3.26843 12.17L3.33012 12.2183L3.39243 12.266L3.45534 12.3133L3.51885 12.3601L3.58295 12.4063L3.64764 12.4521L3.71292 12.4973L3.77877 12.542L3.84519 12.5862L3.91218 12.6298L3.97972 12.6729L4.04783 12.7154L4.11648 12.7574L4.18567 12.7989L4.25541 12.8398L4.32567 12.8801L4.39646 12.9198L4.46777 12.959L4.53959 12.9975L4.61192 13.0355L4.68475 13.0729L4.75807 13.1097L4.83188 13.1459L4.90617 13.1815L4.98094 13.2165L5.05617 13.2508L5.13186 13.2846L5.20801 13.3177L5.28461 13.3502L5.36165 13.382L5.43912 13.4132L5.51702 13.4438L5.59534 13.4737L5.67407 13.5029L5.75321 13.5315L5.83275 13.5595L5.91268 13.5867L5.99299 13.6133L6.07368 13.6393L6.15474 13.6645L6.23616 13.6891L6.31793 13.713L6.40005 13.7362L6.48252 13.7587L6.56531 13.7805L6.64843 13.8016L6.73186 13.822L6.8156 13.8416L6.89964 13.8606L6.98398 13.8789L7.06859 13.8964L7.15349 13.9132L7.23865 13.9293L7.32408 13.9447L7.40976 13.9594L7.49568 13.9733L7.58183 13.9864L7.66822 13.9989L7.75482 14.0106L7.84164 14.0215L7.92866 14.0317L8.01587 14.0412L8.10327 14.0499L8.19085 14.0578L8.2786 14.065L8.3665 14.0714L8.45456 14.0771L8.54276 14.082L8.6311 14.0862L8.71956 14.0895L8.80815 14.0921L8.89684 14.094L8.98563 14.095L9.07451 14.0953L9.16347 14.0949L9.25251 14.0936L9.34161 14.0915L9.43076 14.0887L9.51997 14.0851L9.60921 14.0807L9.69848 14.0756L9.78777 14.0696L9.87707 14.0629L9.96638 14.0554L10.0557 14.0471L10.145 14.038L10.2342 14.0281L10.3234 14.0174L10.4126 14.0059L10.5017 13.9937L10.5908 13.9806L10.6798 13.9668L10.7687 13.9522L10.8575 13.9367L10.9463 13.9205L11.0349 13.9035L11.1234 13.8857L11.2118 13.8672L11.3 13.8478L11.3881 13.8276L11.4761 13.8067L11.5639 13.7849L11.6515 13.7624L11.7389 13.7391L11.8261 13.715" stroke="#9B9CA0" stroke-linecap="round"/>
</svg>
